<svg width="52" height="77" viewBox="0 0 52 77" fill="none" xmlns="http://www.w3.org/2000/svg">
<g opacity="0.5">
<path d="M40.4141 11.2034L23.173 7.5387C20.4719 6.96457 17.8168 8.6888 17.2427 11.3899L13.5506 28.7597C12.9765 31.4608 14.7007 34.1159 17.4018 34.69L34.6429 38.3547C37.344 38.9288 39.9991 37.2046 40.5732 34.5035L44.2653 17.1337C44.8394 14.4326 43.1152 11.7776 40.4141 11.2034Z" stroke="#FFEA55"/>
<path d="M23.123 50.7366L18.5827 72.0973" stroke="#FFEA55" stroke-width="3"/>
<path d="M18.0656 26.443L20.3723 15.5906C20.375 15.5781 20.4192 15.4627 20.5049 15.2447L25.7278 22.0655L18.0608 26.8359C18.048 26.6493 18.0495 26.5184 18.0656 26.443ZM21.4561 14.6591C21.552 14.6401 21.6627 14.644 21.7882 14.6707L38.9824 18.3254C39.0954 18.3494 39.2044 18.3923 39.3093 18.454L31.7409 22.5757L30.7492 23.0738L28.7808 24.0929L27.397 22.3613L26.6937 21.5029L21.4561 14.6591ZM18.6956 27.7388L26.427 22.9428L28.4844 25.4872L31.3988 23.9996L36.5112 31.5256C36.4027 31.5419 36.292 31.5381 36.179 31.5141L18.9849 27.8593C18.8844 27.838 18.788 27.7978 18.6956 27.7388ZM32.3945 23.4826L39.9213 19.3717C39.9349 19.4928 39.9284 19.6161 39.9017 19.7417L37.5949 30.5941C37.5709 30.7072 37.5254 30.8288 37.4584 30.9589L32.3945 23.4826Z" fill="#FFEA55"/>
<path d="M49.3741 8.26621L16.0098 1.17441C15.9089 1.15297 15.8043 1.15669 15.7053 1.18523C15.1033 1.35867 14.567 1.70814 14.1652 2.18874L14.0835 2.28646C14.009 2.37549 13.9575 2.48136 13.9334 2.59487L5.02315 44.5142C4.998 44.6325 4.99434 44.7544 5.01233 44.874L5.08671 45.3684C5.18409 46.0156 5.46807 46.6204 5.90388 47.1088C5.99921 47.2156 6.12613 47.2893 6.26619 47.319L39.5213 54.3876C39.6386 54.4126 39.7604 54.4075 39.8753 54.3727C40.6897 54.1267 41.3891 53.5972 41.8469 52.8802L41.9638 52.6971C42.0173 52.6133 42.0553 52.5205 42.076 52.4232L50.9983 10.4468C51.0189 10.3499 51.0155 10.2495 50.9884 10.1542C50.7913 9.46224 50.355 8.86273 49.7571 8.46248L49.6176 8.36907C49.5437 8.31961 49.4611 8.2847 49.3741 8.26621Z" stroke="#FFEA55"/>
</g>
</svg>
