<svg width="30" height="21" viewBox="0 0 30 21" fill="none" xmlns="http://www.w3.org/2000/svg">
<path d="M0 18.8317V2.16827C0 2.14898 0.0289296 1.96576 0.0867888 1.61861L9.89392 10.0082L0.115718 19.4103C0.0385728 19.1403 0 18.9474 0 18.8317ZM1.30183 0.461423C1.43684 0.403563 1.60077 0.374634 1.79364 0.374634H28.2064C28.3799 0.374634 28.5535 0.403563 28.7271 0.461423L18.891 8.87994L17.5892 9.9214L15.0145 12.0333L12.4397 9.9214L11.1379 8.87994L1.30183 0.461423ZM1.33076 20.5386L11.1958 11.0786L15.0145 14.1741L18.8332 11.0786L28.6982 20.5386C28.5439 20.5964 28.3799 20.6254 28.2064 20.6254H1.79364C1.63934 20.6254 1.48505 20.5964 1.33076 20.5386ZM20.135 10.0082L29.9132 1.61861C29.9711 1.79218 30 1.97541 30 2.16827V18.8317C30 19.0053 29.9711 19.1982 29.9132 19.4103L20.135 10.0082Z" fill="#FFEA55"/>
</svg>
