<svg width="15" height="23" viewBox="0 0 15 23" fill="none" xmlns="http://www.w3.org/2000/svg">
<path d="M14.25 0.74964C14.25 0.583879 14.1842 0.424908 14.0669 0.307698C13.9497 0.190488 13.7908 0.12464 13.625 0.12464H10.5C8.9264 0.0462532 7.38575 0.593879 6.21465 1.64786C5.04356 2.70185 4.33723 4.17651 4.25 5.74964V9.12464H1.125C0.95924 9.12464 0.800269 9.19049 0.683058 9.3077C0.565848 9.42491 0.5 9.58388 0.5 9.74964V12.9996C0.5 13.1654 0.565848 13.3244 0.683058 13.4416C0.800269 13.5588 0.95924 13.6246 1.125 13.6246H4.25V21.9996C4.25 22.1654 4.31585 22.3244 4.43306 22.4416C4.55027 22.5588 4.70924 22.6246 4.875 22.6246H8.625C8.79076 22.6246 8.94973 22.5588 9.06694 22.4416C9.18415 22.3244 9.25 22.1654 9.25 21.9996V13.6246H12.525C12.664 13.6266 12.7997 13.5822 12.9106 13.4985C13.0215 13.4147 13.1014 13.2964 13.1375 13.1621L14.0375 9.91214C14.0624 9.81979 14.0657 9.72297 14.0473 9.62913C14.0288 9.53528 13.9891 9.44693 13.9311 9.37085C13.8732 9.29478 13.7985 9.23302 13.713 9.19034C13.6274 9.14765 13.5331 9.12518 13.4375 9.12464H9.25V5.74964C9.28109 5.44024 9.42639 5.15353 9.65753 4.94551C9.88867 4.73748 10.189 4.62308 10.5 4.62464H13.625C13.7908 4.62464 13.9497 4.55879 14.0669 4.44158C14.1842 4.32437 14.25 4.1654 14.25 3.99964V0.74964Z" fill="#FFEA55"/>
</svg>
