<svg width="3386" height="3077" viewBox="0 0 3386 3077" fill="none" xmlns="http://www.w3.org/2000/svg"  style="stroke: #555;">
<g opacity="0.15">
<path d="M794.31 1740.68L736.802 1734.88L631.121 1724.51L533.089 1715.89L418.89 1710.15L348.987 1713.44L244.003 1728.29L165.739 1740.85" />
<path d="M1962.11 1535.18L1732.35 1671.35L1695.69 1686.53L1654.33 1700.32L1597.96 1709.66L1537.98 1708.74L1161.43 1676.85L1149.23 1673.24L1137.6 1672.86M1529.49 1640.87L1158.73 1601.51L1147.92 1593.2L1141.4 1579.01L1138.33 1534.2L1133.18 1482.64L1124.94 1444.96L1128.9 1438.48L1133.96 1436.91M1133.96 1436.91L1154.78 1557.96L1215.14 1588.61L1335.37 1561.93L1308.97 1440.76L1314.97 1439.47L1315.74 1442.76M1133.96 1436.91L1120.57 1389.04L1107.97 1391.94L1077.22 1247.53L1089.63 1243.55L1077.01 1186.2L1081.74 1184.03L1068.96 1177.18L1066.58 1166.26M1353.43 1564.73L1332.72 1515.7L1315.74 1442.76M1353.43 1564.73L1358.67 1572.91L1354.45 1613.02L1284.14 1609.04L1276.68 1580.8L1353.43 1564.73ZM1315.74 1442.76L1329.42 1440.69L1369.21 1435.63L1370.35 1400.74L1305.13 1414.09L1291.88 1365.75L1310.95 1361.7L1308.29 1351.72L1372.71 1337.61L1374.74 1287.67L1296.11 1289.39L1294.44 1295.03L1259.82 1301.62L1257.1 1290.09L1260.44 1278.83L1254.37 1245.88L1262.89 1241.26L1249.5 1207.17L1240.51 1211.66L1223.96 1171.01L1233.88 1166.8L1236.67 1157.42L1230.08 1150.36L1223.97 1148.55L1217.31 1121.05M1131.82 1185.59L1127.53 1191.46L1136.47 1254.36L1127.65 1254.81L1153.08 1379.27L1171.59 1377.09L1207.26 1534.19L1272.59 1523.93L1239.86 1362.08L1237.83 1343.1L1229.01 1343.55L1223.29 1302.54L1216.72 1300.6L1207.64 1238.17C1201.46 1226.3 1189.46 1202.66 1190.97 1203.11" />
<path d="M1052.44 1160.54L1106.91 1411.03C1109.49 1412.65 1114.86 1416.25 1115.65 1417.71C1116.45 1419.17 1119.88 1432.74 1121.5 1439.35L1133.07 1438.18M1232.17 1427.71L1204.14 1432.69L1221.71 1521.62L1250.01 1515.71L1232.17 1427.71Z" />
<path d="M1417.24 1628.56L1424.8 1618.54L1462.42 1622.54M1462.42 1622.54L1467.29 1633.68M1462.42 1622.54L1470.77 1621.95" />
<path d="M1760.03 1674.44L1764.79 1682.49" />
<path d="M2406.8 1231.89L2421.2 1245.34L2409.79 1256.26L2394.08 1240.37L2387.75 1241.05L2373.88 1256.86L2346.27 1287.99L2309.39 1319.45L2263.96 1350.41L2227.86 1377.5L2199.28 1398.14L2187.68 1407.98L2185.88 1414.08M2185.88 1414.08L2198.45 1428.52L2173.29 1449.67L2161.33 1434.89M2185.88 1414.08L2161.33 1434.89M2161.33 1434.89L2152.17 1443.41L2158.83 1470.91M2142.42 1484.94L2136.72 1476.61L2133.69 1442.02M2150 1424.89L2153.72 1429.57L2194.2 1394.59L2226.71 1371.03L2262.87 1345.49L2305.81 1314.3L2341.61 1283.04L2369.83 1251.57L2382.59 1239.52L2382.08 1229.16L2372.29 1219.11M2352.86 1198.55L2369.95 1218.42M2381.49 1207.03L2362.24 1187.55M2342.48 1207.73L2350.01 1215.07L2228.91 1330.84L2238.56 1341.36M2533.77 1175.55L2457.65 1251.55L2438.36 1271.87L2428.83 1283.35L2430.02 1300.04L2442.85 1322.22L2448.52 1334.11L2453.3 1333.48L2496.78 1419.37L2505.25 1426.99L2514.64 1429.77L2577.41 1398.84M2427.64 1358.05L2433.95 1352.26L2427.15 1339.01L2417.99 1319.96L2405.87 1314.33L2387.58 1314.02L2373.17 1323.02L2315.61 1370.82L2224.13 1450.43L2176.62 1488.43L2160.57 1499.51L2143.41 1514.34L2136.71 1526.65L2135.77 1540.15L2135.33 1550.24L2146.72 1575.57L2161.82 1614.25L2165.35 1659.2L2165.56 1720.53L2167.57 1798.23M1741.75 1743.06L1790.92 1713.21L1878.54 1651.85L1921.06 1622.07L2023.2 1559.91L2062.09 1537.22L2072.78 1523.54L2076.12 1512.27L2074.12 1503.51L2070.26 1499.31L2062.49 1503.13L2048.46 1514.29L2033.08 1526.59L1968.5 1563.62L1868.49 1620.28L1771.96 1679L1751.45 1691.34M1512.37 1734.86L1525.41 1735.66L1590.36 1737.02L1653.59 1728.69L1712.89 1709.49L1745.24 1695.08L1751.45 1691.34M1962.58 1535.32L1970.04 1549.78L1759.84 1673.37L1733.41 1624.69M1719.42 1632.29L1751.45 1691.34" />
<path d="M1938.42 1127.36L1906.95 988.858M1886.29 982.74L1922.06 1129.15M2281.04 1246.21C2281.57 1247.18 2283.74 1249.73 2284.76 1250.88L2252.19 1281.57L2249.13 1278.11M2117.34 1379.99L2145.75 1377.17L2168.18 1366.97L2190.11 1351.51L2220.17 1324.16L2268.08 1279.64L2361.55 1189.89L2362.38 1187.08M2442.38 1147.97L2381.51 1207.55M2503.4 1166.05L2474.06 1196.16L2427.94 1243.26L2307.37 1346.93L2231.41 1413.78L2178.34 1456.78L2132.93 1492.85L2121.37 1499.13L2116.15 1496.05L2112.52 1489.36L2113.89 1479.55L2119.75 1464.95L2131.31 1444.89L2147.28 1427.15L2217.3 1363.14L2351.07 1237.34L2381.51 1207.55M2476.09 1160L2406.8 1231.89L2396.68 1221.23M2396.68 1221.23L2462.1 1153.81M2396.68 1221.23L2381.51 1207.55" />
<path d="M1894.75 1150.67L1864.93 1029L1821.54 1037.59L1813.43 1132.2L1810.92 1173.83M1894.75 1150.67L1906.06 1179.04M1894.75 1150.67L1810.92 1173.83M1954.5 1300.61L2001.11 1396.62L1996.39 1412.58L1921.14 1457.18M1954.5 1300.61L1924.63 1225.64M1954.5 1300.61L1898.71 1325.19M1800.46 1347.4L1795.96 1422.14L1837.85 1506.54L1921.14 1457.18M1800.46 1347.4L1842.93 1349.76L1860.54 1342M1800.46 1347.4L1806.08 1254.1M1806.08 1254.1L1867.92 1241.27L1870.21 1240.64M1806.08 1254.1L1809.11 1203.93M1924.63 1225.64L1906.06 1179.04M1924.63 1225.64L1870.21 1240.64M1906.06 1179.04L1809.11 1203.93M1809.11 1203.93L1810.92 1173.83M1870.21 1240.64L1875.48 1258.82M1875.48 1258.82L1882.98 1256.96L1898.75 1300.94L1891.31 1305.38M1875.48 1258.82L1852.95 1265.94L1850.99 1322.54L1891.31 1305.38M1891.31 1305.38L1898.71 1325.19M1898.71 1325.19L1860.54 1342M1860.54 1342L1872.67 1368.28M1872.67 1368.28L1862.14 1372.81L1859.27 1370.43L1851.97 1374.4L1847.56 1399.64L1864.18 1433.16L1895.9 1413.96M1872.67 1368.28L1911.75 1346.66L1918.12 1356.21L1914.52 1357.99L1925.94 1381.5L1908.77 1391.22L1905.57 1388.23L1886.29 1399.88L1895.9 1413.96M1895.9 1413.96L1921.14 1457.18" />
<path d="M1856.72 973.981L1865.45 1016.9L1875.74 1023.52M1875.74 1023.52L1903.08 1131.18L1936.05 1226.73L2003.72 1377.48L2010.88 1401.56L2011.63 1414.54L2001.85 1432.07L1964.7 1455.78L1787.12 1564.02L1690.21 1620.57L1651.63 1638.76L1628.17 1645.6L1592.39 1645.72L1528.41 1641.07M1875.74 1023.52L1866.58 976.9" />
<path d="M1837.62 967.81C1838.3 969.646 1828.44 1000.49 1823.43 1015.69L1816.06 1040.57L1810.85 1092.63L1796.47 1244.61L1792.62 1323.12L1788.97 1421.6L1800.05 1451.43L1825.17 1502.78L1797.55 1515.03L1770.44 1460.02L1764.86 1446.12L1765.07 1424.73L1769.16 1321.28L1777.81 1136.97L1776.75 1128.48L1772.37 1122.59L1734.61 1119.06L1619.61 1112.57L1478.15 1102.32L1399.78 1098" />
<path d="M1820.58 963.274L1814.6 983.458L1808.06 1005.52L1804.14 1036.01L1798.07 1072L1796.2 1085.23L1787.04 1093.75L1776.92 1096.88L1624.11 1085.31L1420.27 1071.91L1309.12 1064.51M1309.12 1064.51L1287.21 1062.62M1309.12 1064.51L1306.42 1044.31L1293.05 1042.9L1289.44 1055.1M1287.21 1062.62L1279.95 1062.51M1287.21 1062.62L1289.44 1055.1M1236.38 1061.85L1253.15 1062.11M1253.15 1062.11L1252.86 1054.48L1262.8 1055.39L1263.43 1060.17M1253.15 1062.11L1279.95 1062.51M1279.95 1062.51L1280.01 1055.89L1289.44 1055.1" />
<path d="M1536.07 1106.72L1533.43 1115.64L1522.41 1114.92M1522.41 1114.92L1520.08 1105.55M1522.41 1114.92L1489.36 1112.74M1450.28 1286.05L1471.24 1287.66L1473.09 1269.83M1450.28 1286.05L1452.28 1267.24L1473.09 1269.83M1450.28 1286.05L1438.31 1285.08M1489.36 1112.74L1440.29 1109.49L1412.38 1282.99L1438.31 1285.08M1489.36 1112.74L1483.61 1168.27M1483.61 1168.27L1434.9 1165.59L1431.01 1178.73L1455.17 1183.34L1446.33 1242.5L1450.86 1242.72M1483.61 1168.27L1480.27 1200.47M1480.27 1200.47C1476.43 1200.19 1468.42 1199.62 1467.19 1199.66C1465.95 1199.7 1463.83 1228.79 1462.93 1243.33L1450.86 1242.72M1480.27 1200.47L1473.09 1269.83M1438.31 1285.08L1443.9 1257.6L1449.01 1257.59L1450.86 1242.72" />
<path d="M1533.43 1115.64L1769.91 1132.59L1763.58 1279.8L1760.49 1335.05L1758.11 1393.06L1755.11 1446.29L1795.69 1533.37L1838.32 1506.68" />
<path d="M1918.21 992.195L1947.7 1113.26L1981.99 1211.23L2035.25 1329.64L2045.89 1355.76L2060.24 1367.67L2076.66 1372.54L2092.83 1369.67L2130.42 1335.87L2168.96 1295.72M2330.15 1113.19L2198.35 1265.11L2188.04 1275.84M2188.04 1275.84L2175.92 1275.32L2162.71 1264.76L2154.16 1272.95L2168.03 1284.72L2168.96 1295.72M2188.04 1275.84L2168.96 1295.72" />
<path d="M1999.97 1216.05L2161.4 1129.58L2193.63 1162.11L2192.24 1166.8L2226.58 1197.4L2068.37 1360.89L2055.7 1357.14L2050.93 1349.09L1999.97 1216.05ZM1999.97 1216.05L1968.69 1133.77L1966.66 1123.72M1938.4 998.173L1950.08 1041.46L1964.64 1113.68M1964.64 1113.68L1947.04 1112.04M1964.64 1113.68L1966.66 1123.72M1966.66 1123.72L1954.71 1132.69" />
<path d="M1988.29 1186.55L1977.91 1195.73M1983.89 1175.54L1970.1 1175.54M1969.63 1134.05L2024.77 1120.26L2030.81 1134.81M2161.87 1129.72L2149.96 1116.49L2134.47 1125.69L2133.74 1131.6L2130.92 1130.77L2127.72 1127.78L2111.05 1092.71L2066.32 1107.55L2081.46 1147.77L2074.14 1150.71M2207.57 1180.53L2237.63 1139.4L2242.43 1143.88L2268.64 1117.44L2260.92 1109.03L2269.32 1096.2M2312.97 1109.13L2226.58 1197.39M2030.81 1134.81L2042.65 1163.34L2074.14 1150.71M2030.81 1134.81C2039.37 1131.05 2056.61 1123.77 2057.14 1124.74C2057.67 1125.71 2058.94 1129.02 2059.51 1130.55L2065.5 1129.26L2068.01 1134.6L2070.04 1139.79L2074.14 1150.71" />
<path d="M2356.71 1120.04L2207.67 1288.8L2146.88 1350.96L2116.69 1378.78L2099.67 1379.35L2075.73 1372.26M2046.28 1357.92L2025.57 1336.47L2008.1 1300.66L1938.34 1129.37M1938.34 1129.37L1947.24 1113.12M1938.34 1129.37L1921.06 1129.11M1903.78 1128.84L1921.06 1129.11M1921.06 1129.11L1930.69 1168.98L1956.15 1234.72L2004.5 1345.55L2021.7 1382.29L2030.98 1409.55L2032.91 1425.44L2032.22 1441.57L1936.77 1500.1L1736.12 1622.43L1652.91 1667.22L1628.31 1672.7L1584.6 1672.01L1525.69 1665.79M1846.76 1398.89L1796.71 1421.34M2074.47 1252.41L2080.93 1251.26L2084.22 1252.24L2089.96 1257L2139.53 1206.84L2112.48 1180.96L2056.02 1206.1L2074.47 1252.41Z" />
<path d="M2007.69 1050.36L1999.89 1016.39L2045.89 1030.01L2048.93 1042.15L2007.69 1050.36Z" />
<path d="M2251.48 1090.91L2241.73 1104.87C2238.47 1107.82 2231.68 1113.64 2230.55 1113.31C2229.42 1112.97 2215.21 1116.25 2208.25 1117.93L2181.94 1118.82L2166.05 1106.97L2164.87 1105.78M2266.5 1095.36L2247.92 1118.45L2226.38 1127.39L2204.07 1132.01L2180.87 1132.8L2166.4 1126.47L2148.62 1108.95L2135.54 1097.93L2123.76 1092.9L2108.09 1092.35L2072.49 1102.23L2020.39 1114.37L2016.25 1097.31L2105.93 1078.95L2109.31 1077.9M2103.62 1047.12L2109.31 1077.9M2109.31 1077.9L2112.68 1076.86L2129.8 1079.38L2146.01 1086.73L2164.87 1105.78M2133.14 1054.33L2138.48 1079.4L2151.13 1078.04L2155.69 1093.68M2164.87 1105.78L2190.39 1100.64M2246.32 1089.38L2190.39 1100.64M2190.39 1100.64L2182.95 1070.61M2260.5 1110.44L2237.16 1139.26M2066.56 1110.17L2059.21 1112.59L2062.81 1122.85L2057.47 1125.35M2377.28 1128.18L2339.66 1165.54L2331.59 1151.41M2393.24 1132.9C2392.3 1134.67 2363.75 1161.78 2349.59 1175.12L2359.76 1187.32L2413.89 1139.02M2312.77 1171.87L2312.7 1179L2308.52 1179.29L2309.15 1197.86L2312.91 1198.97L2312.96 1214.3L2198.6 1322.88L2144.31 1366.54L2138.05 1360.09M2125.71 1370.73L2134.03 1378.81M2127.62 1409.08L2093.41 1441.83L2078.08 1414.31L2082.37 1408.44L2090.61 1404.75L2099.53 1407.39L2109.42 1406.75L2126.11 1405.56L2128.04 1407.67M2074.72 1420.47L2088.4 1444.94L2081.82 1451.67L2077.12 1450.28L2073.91 1442.18L2070.22 1433.94L2072.44 1426.43L2074.72 1420.47Z" />
<path d="M2006.16 1458.87L2018.96 1481.17M2020.64 1484.1L2018.96 1481.17M2018.96 1481.17L2009.92 1487.56L2012.89 1493.03L2004.23 1498.13L2007.21 1503.6L2003.96 1506.22M1953.73 1539.33L2001.17 1508.46L2003.96 1506.22M1985.98 1480.47L2003.96 1506.22" />
<path d="M1993.61 1490.9L1984.95 1495.99L1978.96 1483.49L1985.37 1480.8M1977.55 1483.08L1973.64 1477.32" />
<path d="M2031.99 1444.06L2030.45 1457.9L2026.41 1471.51L2020.59 1482.55" />
<path d="M2137.16 1549.25L2386.33 1332.03" />
<path d="M2386.47 1331.56L2397.27 1334.75L2464.85 1473.74L2303.22 1567.8L2246.13 1584.71M2149.08 1540.01L2173.93 1606.09L2246.13 1584.71M2197.71 1498.25L2237.73 1545.85L2236.06 1551.48L2246.13 1584.71" />
<path d="M2304.9 1567.28L2294.7 1544.85L2247.41 1487.32M2232.02 1468.59L2247.41 1487.32M2247.41 1487.32L2283.7 1457.86L2315.35 1495.83L2361.76 1466.69M2361.76 1466.69L2366.99 1474.88L2401.62 1454.5L2398.08 1445.79L2394.42 1447.77L2385.18 1430.74L2389.1 1427.81L2379.14 1408.01L2338.6 1441.45L2361.76 1466.69Z" />
<path d="M2432.93 1409.14L2385.37 1431.81M2382.81 1466.29L2409.87 1505.96M2348.56 1433.68L2317.34 1394.3M2419.54 1333.69L2410.08 1338.04L2419.52 1356.15L2429.31 1352.41L2419.54 1333.69Z" />
<path d="M2428.72 1357.86L2476.24 1457.71L2478.01 1468.96L2469.98 1478.83L2455.86 1492.01L2312.66 1572.13L2280.34 1582.98L2225.58 1598.92L2193.07 1608.7L2199.05 1629.87L2318.83 1594.38L2357.63 1573.71L2418.51 1537.11L2453.66 1518.42L2462.58 1521.06L2472.9 1524.12L2478.09 1530.76L2481.84 1573.23L2502.22 1823.32L2503.68 1839.07L2495.41 1846.32L2475.78 1852.25L2369.6 1872.88L2370.47 1880.28L2372.33 1889.51L2411.84 1885.39L2488.32 1870.26L2494.78 1869.11L2501.93 1874.29L2505.61 1882.53L2507.62 1974.01L2506.86 2038.63L2504.07 2098.05L2503.18 2126.89L2500.12 2137.21L2491 2142.17L2475.58 2144.24L2170.51 2160.59L2159.72 2157.39L2152.1 2152.07L2149.69 2144.72L2152.9 2111.46L2167.22 2021.75L2167.84 1969.35M2168.37 1798.97L2167.94 1960.7L2167.84 1969.35M2165.77 1781.87L2153.73 1782.89L2153.81 1968.77L2167.84 1969.35" />
<path d="M2156.96 1970.21L2152.29 2111.79M2172.34 2159.6L2170.53 2179.48M2146.75 2190.82L2150.3 2144.39" />
<path d="M2481.89 2166.02L2255.8 2176.03M2145.76 2189L2150.05 2183.12L2156.47 2180.42L2239.76 2176.74M2255.8 2176.03L2253.27 2184.59L2243.84 2185.37L2239.76 2176.74M2255.8 2176.03L2239.76 2176.74" />
<path d="M2253.6 2185.2L2330.94 2177.47L2380.12 2175.19L2489.47 2174.9L2482.52 2441.41L2434.83 2442.09L2435.15 2451.37L2478.49 2455.02L2486.62 2462.03L2488.83 2490.76M2452.46 1524.19L2468.44 1534.03L2492.85 1839.44L2353.03 1868.48L2343.99 1816.27L2321.35 1820.29L2320.05 1809.18L2312.54 1806.96L2257.9 1817.32L2242.51 1815.83L2245.97 1840.34L2242.91 1850.67L2233.41 1853.47L2216.86 1854.18L2215.1 1848.05L2210.13 1847.59L2209.26 1853.97L2197.63 1853.59L2197.07 1841.68L2191.82 1842.17L2191.72 1852.86L2180.56 1852.62L2175 1655.93L2184.19 1643.85L2224.52 1631.8L2273.95 1618.36L2319.14 1603.66L2365.19 1577.48L2452.46 1524.19Z" />
<path d="M2365.25 1579.03L2378.74 1641.73M2476.67 1635.52L2420.31 1636.18L2379.21 1643.92L2378.74 1641.73M2420.22 1638.2L2423.79 1679.59L2411.13 1680.95L2408.77 1675.14L2383.46 1677.86L2378.74 1641.73" />
<path d="M2396.93 1641L2400.47 1663.49L2384.58 1665.43M2318.59 1605.54L2329.87 1655.35M2329.87 1655.35L2362.16 1648.06L2365.74 1653.21L2363.93 1659.31L2365.2 1673.98L2373.72 1683.14L2381.73 1681.94L2394.81 1748.11L2297.2 1765.65L2295.39 1771.76L2284.75 1773.2L2289.55 1791.47L2262.56 1794.71L2262.36 1779.84L2243.57 1782.96L2235.33 1786.64L2228.65 1781.6L2229.97 1770.25L2240.2 1770.21L2245.34 1766.63L2244.23 1756.6L2240.98 1752.06L2228.27 1751.87L2228.65 1698.89L2240.75 1699.41L2241.51 1681.32M2329.87 1655.35L2286.78 1668.11M2286.78 1668.11L2274.75 1619.1M2286.78 1668.11L2241.51 1681.32M2223.44 1631.99L2238.16 1682.3L2241.51 1681.32" />
<path d="M2480.3 1697.35L2387.8 1701.1M2484.83 1757.92L2398.19 1760.85L2403.54 1804.81M2403.54 1804.81L2488.59 1800.39M2403.54 1804.81L2412.34 1854.39M2403.54 1804.81L2392.3 1806.59M2392.3 1806.59L2393.98 1819.85L2375.33 1822.5L2371.76 1808.67L2344.92 1816.55M2392.3 1806.59L2388.12 1779.31M2310.19 1806.26L2312.52 1788.06M2296.05 1772.97L2299.17 1791.77M2263.46 1798.55L2179.35 1803.25M2227.61 1723.08L2178.89 1725.5M2396.32 1751.62C2395.21 1755.37 2396.82 1769.46 2397.77 1776.04L2369.47 1780.22M2301.13 1790.3L2369.47 1780.22M2369.47 1780.22L2372.6 1805.86" />
<path d="M2286.97 1669.19L2296.41 1701.09L2375.93 1684.31M2372.51 1752.73L2362.39 1714.5L2282.89 1736.4L2266.86 1683.65L2241.56 1691.48M2220.88 1528.6L2199.9 1549.45L2207.03 1563.31L2236.58 1553.17" />
<path d="M2071.45 1571.14L2083.58 1568.1L2094.85 1571.43L2104.6 1585.04L2118.96 1629.63L2127.19 1662.19L2129.4 1746.07L2129.78 1922.34L2124.52 1931.5L2113.29 1938.38L2102.23 1941.23L1806.28 2002.66L1797.36 2000.02L1792.41 1990.89L1782.9 1819.59L1775.84 1812.39L1773.56 1763.21L1777.59 1749.6L1795.08 1735.37L1850.67 1702.83L2069.57 1570.58M2071.61 1589.57L1949.24 1663.09L1843.44 1727.23L1791.17 1757.19L1799.06 1866.75L1805.06 1989.53L1809.06 1993.27L1908.78 1973.79L2109.23 1933.1L2111.52 1863.32L2103.79 1863.58L2097.27 1661.5L2088.92 1634.52L2078.89 1608.06L2071.61 1589.57Z" />
<path d="M1991.92 1637.95L2021.84 1680.51M2061.29 1696.79L2030 1692.12L2021.84 1680.51M2061.29 1696.79L2097.43 1693.71M2061.29 1696.79L2061.59 1728.54M2061.59 1728.54L2098.06 1726.07M2061.59 1728.54L2005.64 1727.8L2008.56 1717.94L1995.5 1698.24L2021.84 1680.51" />
<path d="M1951.73 1663.32L1993.87 1720.99M2005.78 1727.33L2000.77 1730.44L1993.87 1720.99M2039.79 1729.74C2040.62 1732.44 2041.79 1786.16 2042.28 1812.68L2037.65 1817.95L1960.17 1826.14L1956.81 1804.73L1940.39 1799.86L1924.53 1784.44L1993.87 1720.99" />
<path d="M1898.85 1693.61L1941.25 1765.91M1924.39 1784.91L1893.73 1812.59M1893.73 1812.59L1844.99 1727.18M1893.73 1812.59L1853.52 1846.63L1851.2 1847.57M1799.58 1868.43L1851.2 1847.57M1870.29 1774.5L1852.64 1784.08L1846.02 1794.37L1851.2 1847.57" />
<path d="M1879.38 1786.89L1863.42 1795.95L1864.96 1818.36L1870.95 1830.86M1906.68 1801.62L1943.99 1837.69L1947.08 1878.94L1967.75 1876.38L1964.35 1853.42L2064.79 1841.82L2061.01 1752.88M2061.01 1752.88L2041.04 1753.09M2061.01 1752.88L2063.13 1728.49" />
<path d="M2109 1866.65L2069.44 1869.23M2069.44 1869.23L2070.69 1878.79L2024.85 1883.59L2022.93 1872.82L2069.44 1869.23Z" />
<path d="M2052 1843.64L2053.02 1869.48M2011.13 1848.9L2014.26 1872.8M2014.26 1872.8L2022.93 1872.82M2014.26 1872.8L1991.15 1876.68M1991.15 1876.68L1990.25 1872.84L1968.22 1876.52M1991.15 1876.68L1992.27 1886.71L1986.29 1893.11L1972.97 1893.25L1967.81 1891.72L1966.56 1895.94L1965.93 1904.95L1963.85 1911.99L1972.29 1914.49L1974.38 1907.45L1997.07 1904.98L1997.08 1896.3L2011.43 1894.43L2014.45 1901.45L2020.68 1900.23M2024.52 1882.99L2026.92 1899.01L2020.68 1900.23M2020.68 1900.23L2025.07 1922.47L2021.56 1923.98L2026.9 1949.05M1963.83 1962.02L1947.22 1878.47L1895.77 1886.72L1871.53 1906.09M1801.53 1930.79L1822.2 1926.51M1889.65 1893.58C1892.21 1895.97 1903.56 1947.74 1908.92 1973.32M1871.53 1906.09L1854.29 1919.87L1822.2 1926.51M1871.53 1906.09L1878.25 1932.07L1842.96 1937.45L1823.59 1937.33L1822.2 1926.51" />
<path d="M1843.76 1938.19L1851.51 1984.4" />
<path d="M2042.62 1520.22L2055.54 1540.39M2061.46 1504.87L2071.7 1523.73M1881.11 1636.28L1860.48 1649.05L1857.14 1660.32L1842.12 1655.87L1797.63 1687.11L1804.62 1701.44L1885.79 1646.34L1881.11 1636.28Z" />
<path d="M1795.22 1533.23L1699.09 1585.42L1701.18 1592.17L1648.68 1624.61L1624.95 1637.49L1572 1633.55L1510.65 1628.65L1472.04 1622.8M1464.72 1621.69L1472.04 1622.8M1473.72 1608.53L1472.04 1622.8" />
<path d="M1474.33 1608.2L1507.34 1608.78L1506.84 1598.42L1474.01 1598.91L1475.58 1576.4L1477.66 1569.36L1580.32 1531.35L1583.51 1520.55L1602.88 1562.03L1611.3 1568.1L1612.22 1577.05L1602.15 1581.73L1576.21 1579.67M1511.06 1627.25L1517.35 1574.99L1576.21 1579.67M1576.21 1579.67L1572.08 1631.54M1623.61 1574.81L1648.49 1623.53M1774.53 1489.31L1699.8 1530.49M1699 1587.44L1675.69 1543.77L1699.8 1530.49M1699.8 1530.49L1704.29 1542.03L1682.85 1554.06" />
<path d="M1676.82 1545.13L1664.06 1515.82L1650.63 1443.93M1650.63 1443.93L1651.65 1387.05L1758.06 1391.51M1650.63 1443.93C1683.72 1445.4 1750.72 1448.36 1753.95 1448.5" />
<path d="M1701.37 1446.71L1715.42 1486.1M1668.89 1516.74L1702.6 1501.19L1705.48 1508.69L1721.74 1503.8L1715.42 1486.1M1661.72 1492.66L1715.42 1486.1" />
<path d="M1701.65 1445.77L1702.15 1400.99L1698.4 1399.88L1694.92 1411.61L1667.4 1413.16L1662.31 1418.29L1666.92 1421.7L1665.49 1443.74M1759.41 1335.24L1637.25 1332.24L1650 1342.65L1649.22 1374.59L1662.39 1374.92L1662.15 1386.08" />
<path d="M1763.39 1278.72L1708.07 1277.59M1649.77 1386.5L1644.24 1387.92L1635.1 1332.62L1636.53 1299.35M1636.53 1299.35L1637.53 1276.16L1708.07 1277.59M1636.53 1299.35C1638.33 1299.47 1678.36 1300.34 1698.15 1300.75L1701.21 1290.42L1714.24 1291.22L1711.34 1333.76M1627.1 1123.47L1629.07 1177.15L1671.57 1181.06L1672.51 1170.11L1708.48 1171.06L1708.07 1277.59" />
<path d="M1628.93 1177.62L1632.88 1272.23M1637.2 1275.55L1632.97 1274.3L1632.88 1272.23M1660.36 1181.83L1659.93 1260.84M1659.93 1260.84L1682.31 1262.87L1681.87 1272.95L1689.14 1272.55L1693.14 1276.29M1659.93 1260.84L1655.81 1262.68L1656.32 1273.04L1632.88 1272.23" />
<path d="M1627.57 1178.75L1576.22 1176.31L1575.51 1187.33L1566.89 1188.86L1566.68 1196.45L1584.97 1196.77L1586.71 1211.58L1593.28 1213.52L1593.28 1241.1L1597.5 1242.35L1596.62 1271.19L1636.12 1275.74M1635.63 1298.06L1564.58 1294.89L1565.75 1118.57M1576.32 1298.36L1575.68 1329.83C1582.4 1327.23 1596.18 1322.32 1597.46 1323.52C1598.43 1324.42 1610.45 1357.91 1620.59 1386.53M1649.95 1410.03L1629.23 1411.04C1626.81 1404.15 1623.79 1395.58 1620.59 1386.53M1636.23 1347.76L1616.74 1353.22L1626.36 1381.09L1620.59 1386.53" />
<path d="M1613.64 1298.18L1612.32 1316.18M1624.56 1350.95L1611.63 1325.67L1612.32 1316.18M1593.89 1295.91L1592.5 1300.6L1600.48 1302.97L1601.56 1316.56L1612.32 1316.18" />
<path d="M1648.56 1442.3L1638.48 1441.87L1598.7 1465.82L1556.57 1337.44L1575.4 1330.77M1562.9 1295.41L1542.23 1294.49M1471.85 1287.33L1473.7 1291.45L1542.23 1294.49M1484.1 1168.42C1485.98 1168.98 1524.22 1171.45 1543.1 1172.62L1546.49 1176.69L1545.83 1203.04L1540.92 1204.14L1542.23 1294.49" />
<path d="M1516.47 1172.9L1519.33 1252.89L1511.59 1253.15L1510.57 1282.46L1473.75 1279.21M1499.35 1294.46C1498.8 1296.33 1500.76 1306.95 1501.81 1312.03L1540.73 1313.35L1541.98 1295.34M1557.28 1340.21L1549.3 1337.84L1550.33 1363.68L1545.66 1367.4L1465.46 1364.07L1460.3 1362.54L1461 1296.37L1450.17 1296.74L1452.96 1287.35M1439.45 1286.41L1435.55 1446.09L1408.41 1449.79L1405.45 1421.86L1406.85 1311.99L1409.81 1284.78M1444.06 1372.53L1521.82 1377.19L1570.87 1416.73L1631.76 1545.56L1634.09 1568.72L1626.32 1572.55L1568.77 1446.23L1495.24 1406.59C1478.17 1410.21 1444.09 1417.27 1444.31 1416.52C1444.53 1415.77 1444.24 1386.88 1444.06 1372.53Z" />
<path d="M1658.2 1489.06L1640.03 1496.96L1644.06 1510.92L1626.04 1518.34L1599.45 1465.02M1662.37 1516.34L1657.31 1517.9L1654.39 1513.98L1629.48 1523.96L1635.3 1540.49L1647.86 1536.04L1651.66 1552.48L1672.26 1543.27L1661.54 1519.16" />
<path d="M1568.73 1449.8L1457.53 1496L1453.68 1483.12L1495.7 1470.54L1485.81 1443.62L1414.74 1462.9L1425.4 1521.71L1459.32 1512.36L1461.66 1518.25M1596.85 1511.74L1478.62 1560.96L1461.66 1518.25M1577.34 1470.73L1461.66 1518.25" />
<path d="M1567.69 1446.43L1509 1423.93L1435.88 1446.7" />
<path d="M1781.19 1746.07L1720.96 1778.77" />
<path d="M1665.33 1801.1L1719.6 1779.9L1733.53 1779.43L1743.77 1784.51L1753.57 1799.66L1763.95 1992.16L1761.72 1999.67L1674.72 2019.34L1656.36 2026.16L1623.68 2039.96L1508.42 2067.09L1149.99 2149.83L1136.47 2143.79L1131.65 2134.19L1129.83 1919.72L1127.87 1788.43L1130.93 1778.1L1138.92 1771.79L1574.77 1812.06L1627.47 1808.26L1665.33 1801.1Z" />
<path d="M1729.69 1794.12L1740.92 1801.02L1751.08 1987.33L1748.37 1989.59L1465.62 2056.46L1151.61 2128.87L1145.07 2123.36L1141.79 1787.96L1149.65 1782.12L1526.69 1819.26L1590.53 1824.38L1647.91 1821.98L1729.69 1794.12Z" />
<path d="M1744.62 1869.52L1697.24 1874.37L1697.04 1859.51L1690.94 1857.7L1652.3 1869.23M1652.3 1869.23L1649.18 1822.86M1652.3 1869.23L1655.48 1894.68L1658.28 1919.7M1590.66 1823.91L1587.54 1924.08M1587.54 1924.08L1598.47 1923.4M1587.54 1924.08L1430.6 1936.82L1329.66 1943.17L1259.43 1945.85L1262.85 1882.53M1747.22 1914.19L1658.28 1919.7M1658.28 1919.7L1683.81 2004.16M1658.28 1919.7L1598.47 1923.4M1598.47 1923.4L1622.2 2019.1M1267.62 1794.09L1262.85 1882.53M1204.73 1789.24L1200.63 1878.91M1262.85 1882.53L1143.83 1875.87M1144.05 1923.42L1194.48 1925.54M1258.52 1928.23L1194.48 1925.54M1245.75 1948.95L1204.67 1948.01L1194.95 1930.84L1194.48 1925.54" />
<path d="M1245.82 1928.04L1245.89 1948.48L1246.31 1985.37M1331.07 1943.59L1365.82 2077.95M1381.94 1940.78C1383.75 1942.95 1405.05 2025.92 1415.48 2067.13M1437.58 1937.36L1467.44 2055.46M1481.41 1932.47L1507.55 2045.9M1534.9 1929.42L1557.96 2034.28M1525.47 1819.92L1517.22 1928.78M1476.83 1815.21L1466.74 1933.74M1423.82 1809.72L1417.61 1937.57M1335.21 1800.32L1329.19 1943.03M1284.24 1946.56L1321.12 2089.22M1246.83 2031.47L1255.04 2045.14L1270.1 2101.17M1246.83 2031.47L1145.74 2033.18M1246.83 2031.47L1246.31 1985.37M1144.68 1983.34L1246.31 1985.37" />
<path d="M1254.76 2046.08L1196.07 2064.94L1208.63 2115.63M1743.1 1741.93L1697.23 1764.08L1634.04 1782.64L1588.8 1787.11L1150.94 1746.76L1135.93 1733.63L1132 1722.77L1134.03 1698.35M1527.7 1665.87L1362.69 1650.69L1163.29 1630.94C1158.9 1632.53 1149.7 1635.8 1147.97 1636.11C1146.25 1636.41 1140.72 1644.51 1138.17 1648.52L1134.03 1698.35M1513.45 1734.66L1158.89 1702.65L1134.03 1698.35" />
<path d="M1355.05 1612.69L1374.47 1614.36L1425.6 1619.29L1415.86 1610.79L1397 1607.25L1396.03 1596.75L1382.88 1592.85L1351.93 1456.04" />
<path d="M1426.15 1520.91L1413.55 1523.82L1397.44 1450.63L1353.29 1454.91M1163.95 1632.16L1161.63 1664.66M1155.85 1745.66L1161.63 1664.66M1150.6 1635.86C1150.79 1637.96 1145.42 1707.34 1142.71 1741.77M1323.77 1690.73L1323.54 1679.43L1161.63 1664.66" />
<path d="M1104.1 1708.38L1109.54 1653.82L1105.73 1637.38L1093.73 1626.17L1069.76 1622.64L950.707 1610.86L819.906 1604.28L708.037 1607.91L572.075 1627.37L414.052 1654.08L410.227 1660.1L407.308 1669.96L416.8 1675.83L456.159 1680.85L631.118 1696.94L689.46 1699.92L782.589 1700.96L1076.18 1730.23L1094.82 1722.48L1104.1 1708.38Z" />
<path d="M1098.34 1629.57L1092.24 1724.27M1086.6 1626.1L1080.6 1706.52M1079.03 1727.5L1080.6 1706.52M1108.51 1669.35L967.939 1657.83L787.174 1644.11L643.63 1640.91L559.698 1641.57L511.456 1644.13L443.344 1650M454.315 1676.73L618.407 1669.18C665.565 1669.7 760.286 1670.76 761.899 1670.83C763.512 1670.9 864.85 1678.35 915.318 1682.07M915.318 1682.07C953.697 1684.08 1030.93 1688.23 1032.8 1688.79C1034.68 1689.35 1081.46 1694.01 1104.62 1696.28M915.318 1682.07L912.954 1690.05L1080.6 1706.52" />
<path d="M543.72 1631.74C544.555 1634.43 547.386 1669.92 548.697 1687.33M520.478 1636.08C521.048 1638.29 522.677 1670.6 523.42 1686.48" />
<path d="M1159.67 1601.79L1097.85 1596.75M1097.85 1596.75L1111.29 1591.03L1117.07 1583.55L1116.95 1561.56L1078.19 1376.99L1030.29 1156.02M1097.85 1596.75L1086.36 1595.9L1088.44 1575.07" />
<path d="M1113.63 1564.15L1101.13 1570.15M1088.63 1576.15L1101.13 1570.15M1101.13 1570.15L1116.64 1579.85M1088.08 1578.03L879.114 1559.53L756.118 1545.56L741.185 1552.88L739.516 1558.51L501.977 1588.23L383.694 1608.33L389.119 1617.6L397.117 1625.07L669.407 1583.19L760.866 1576.07L886.782 1580.18L1087.3 1596.18M1086.11 1767.38C1088.59 1767.3 1093.97 1770.73 1096.35 1772.46L1100.84 1781.44L1105.82 2149L1100.41 2158.63L1067.49 2169.81L874.986 2212.95M857.486 2216.87L874.986 2212.95M861.24 2204.2C862.783 2205.88 871.047 2210.74 874.986 2212.95" />
<path d="M868.47 2179.79C869.416 2182.11 871.414 2185.94 872.295 2187.56L877.684 2186.61L882.641 2209.52M881.979 2194.52C951.533 2176.31 1090.93 2140.3 1092.1 2141.88M1092.1 2141.88C1093.27 2143.45 1096.69 2153.96 1098.26 2159.02M1092.1 2141.88L1086.96 1783.46L1081.17 1777.15L867.094 1756.96M812.404 1941.59L803.69 1842.51M803.69 1842.51L795.805 1752.87L803.02 1750.92L867.094 1756.96M803.69 1842.51L868.566 1843.35L867.094 1756.96" />
<path d="M938.064 1763.86L929.922 1917.18L996.359 1918.69M1088.66 1920.8L996.359 1918.69M1087.82 1854.68L998.725 1853.82M998.725 1853.82L1001.95 1770.53M998.725 1853.82L996.359 1918.69" />
<path d="M930.114 1918.25L866.352 1916.33M809.17 1914.6L866.352 1916.33M868.289 1844.29C867.844 1845.79 866.812 1892.94 866.352 1916.33" />
<path d="M1086.11 1767.38L797.073 1739.97L785.599 1744.23L782.262 1755.49L794.217 1903.02L802.394 1989.18L808.188 2050.63M949.479 1918.37C950.957 1925.45 956.195 1988.78 958.211 1988.87M958.211 1988.87C959.825 1988.94 1046.7 1990.06 1089.93 1990.61M958.211 1988.87L958.467 2022.13M1090.6 2074.55L996.967 2076.94M996.967 2076.94L958.896 2077.91L958.467 2022.13M996.967 2076.94L1019.71 2158.73M958.201 2080.26L928.747 2088.34M928.747 2088.34L852.61 2109.23L818.641 2117.04L808.188 2050.63M928.747 2088.34C930.017 2089.57 944.594 2145.16 951.724 2172.8M958.467 2022.13L808.188 2050.63" />
<path d="M954.804 1965.9L865.048 1977.61M865.048 1977.61L861.323 1917.79M865.048 1977.61L802.952 1987.3M811.327 1941.78L830.724 2112.45" />
<path d="M817.232 2116.62L832.1 2171.57M832.1 2171.57L853.624 2198.88L862.369 2205.56M832.1 2171.57L839.731 2154.43L830.027 2114.79" />
<path d="M869.025 2177.91L839.592 2154.9" />
<path d="M865.902 1548.98L1094.85 1503.45L1021.39 1130.92L789.695 1182.28L865.902 1548.98Z" />
<path d="M1089.19 1574.27L1062.56 1546.98L1046.39 1536.06L866.232 1549.59M864.337 1543.92L848.639 1546.93L838.709 1495.99M838.709 1495.99L847.418 1492.45L799.315 1265.29L790.832 1266.35M838.709 1495.99L790.832 1266.35M790.832 1266.35L738.627 1275.39L774.077 1545.26M829.165 1502.36L771.484 1514.37" />
<path d="M778.76 1165.76L781.629 1181.93L773.615 1183.13L789.632 1258.33L738.801 1271.36L727.719 1172.6M778.76 1165.76L727.719 1172.6M778.76 1165.76L1018.16 1131.5M727.719 1172.6L672.315 1178.65L674.003 1191.92L663.555 1194.44L658.443 1180.67L536.075 1199.05L536.927 1185.84M937.773 1127.09L536.927 1185.84M466.503 987.49L462.222 1158.8L471.611 1175.36L489.379 1187.77L506.503 1190.29L536.927 1185.84M497.483 996.666L491.704 1128.22L501.614 1146.47L525.797 1156.18L899.334 1103.45" />
<path d="M518.497 1187.72C518.97 1191.57 520.255 1199.1 521.762 1199.92M536.074 1199.05C532.058 1199.4 523.623 1200.06 522.01 1199.99C521.927 1199.99 521.844 1199.96 521.762 1199.92M521.762 1199.92L441.016 1209.7L438.596 1160.99L427.542 1093.89M397.554 968.598L411.379 1020.18L427.1 1091.21L427.542 1093.89M452.004 984.726L449.404 1086.58L446.345 1096.91L439.374 1101.48L427.542 1093.89" />
<path d="M387.644 964.131L420.808 1115.89L427.644 1166.94L430.516 1210.67L429.792 1299.3L415.441 1406.36L398.151 1504.37L391.111 1516.07L377.986 1517.29L287.134 1510.29L271.732 1517.47L259.216 1532.14L231.269 1626.49L217.327 1635.64L188.365 1640.33L188.122 1651.49L220.127 1645.15L226.194 1650.52L234.4 1650.4L232.817 1640.23L270.568 1533.46L283.936 1521.09L318.114 1519.47L383.793 1528.71L392.121 1536.79L376.845 1607.32L359.41 1623.09L361.305 1628.76L395.709 1624.65L383.417 1609.27L404.375 1514.38L417.755 1438.19L432.977 1338.54L441.036 1242.38L441.016 1209.7M472.464 1205.23C473.897 1207.29 496.246 1284.1 507.242 1322.24L500.87 1202.41M514.934 1201.47L539.04 1580.31M761.383 1508.83L550.336 1524.94L530.219 1255.01L612.03 1246.57M763.73 1509.52L730.943 1290.99L674.322 1297.7L678.257 1377.49L662.038 1378.82L652.935 1242.35L612.03 1246.57M612.03 1246.57L658.22 1238.3L660.862 1229.38L678.82 1229.08L685.361 1289.74L727.97 1285.51L709.483 1187.62L673.723 1192.85L662.701 1192.14L586.123 1190.39L587.758 1202.11L603.369 1201.12" />
<path d="M739.916 1552L552.527 1534.78L538.255 1543.32M537.055 1535.3L547.954 1527.81L536.045 1514.58" />
<path d="M514.912 1585.93L511.692 1536.47L404.22 1523.53M405.609 1505.05L508.718 1517.21L509.724 1496.57L499.878 1402.26L482.104 1320.92L449.969 1208.78M534.857 1199.71L539.847 1205.28L587.011 1202.91M602.292 1201.31L614.03 1246.14" />
<path d="M2167.98 1783.03L2154.06 1783.5L2154.61 1969.51L2167.93 1969.37" />
<path d="M2318.26 1820.4L2301.67 1824.67M2301.67 1824.67L2260.21 1835.37L2265.39 1855.79L2291.66 1858.47L2298.16 1853.76L2301.67 1824.67Z" />
<path d="M2309.36 1822.87C2306.7 1832.97 2301.74 1853.39 2303.13 1854.21C2304.53 1855.03 2306.76 1859.2 2307.71 1861.18L2348.2 1867.56L2340 1817.65M2352.42 1868.81C2353.55 1869.14 2359.85 1891.43 2362.85 1902.53L2319.55 1909.11L2277.17 1924.64L2175.42 1966.49M2331.06 1887.5L2201.74 1943.14L2202.52 1924.99L2187.93 1924.24C2188 1907.92 2188.56 1874.9 2190.24 1873.36C2191.92 1871.81 2218.01 1864.06 2230.85 1860.37L2329.28 1876.25L2331.06 1887.5Z" />
<path d="M2498.03 1887.43L2487.08 1879.59L2396.01 1895.76M2363.13 1901.6L2396.01 1895.76M2396.01 1895.76C2397.12 1897.52 2402.55 1931.14 2405.12 1947.73L2368.7 1951.75M2368.7 1951.75L2362.58 1903.47M2368.7 1951.75L2329.55 1958.09M2275.06 1926.57L2282.89 1965.65L2329.55 1958.09M2319.88 1909.72L2329.55 1958.09" />
<path d="M2283.5 1965.32L2296.79 2051.45C2309.94 2052.46 2336.13 2054.12 2335.71 2052.77C2335.29 2051.42 2334.23 2043.99 2333.75 2040.45L2378.56 2037.38L2382.98 2081.07L2416.19 2082.74L2414.13 2044.86L2407.42 1973.94M2404.98 1948.2L2407.42 1973.94M2507.22 1966.74C2505.72 1966.3 2440.06 1971.36 2407.42 1973.94" />
<path d="M2506.77 2040.64L2413.89 2042.23" />
<path d="M2414.83 2083.87L2414.52 2129.73M2379.23 2135.1L2382.1 2082.34M2497.57 1887.3L2500.09 1966.67L2503.21 2040.61L2498.23 2131.55L2413.41 2133.48L2237.43 2146.71L2167.11 2151.41L2173.71 2053.29L2175.7 1965.55L2179.01 1852.67" />
<path d="M2210.78 1953.99L2224.22 1975.84L2282.75 1966.12M2291.93 2017.85C2290.06 2017.3 2180.8 2029.35 2178.17 2029.59M2175.13 2058.82L2297.12 2052.06L2297.9 2077.82M2299.87 2142.74L2297.9 2077.82M2297.9 2077.82L2168.94 2086.6M2248.13 2082.99L2246.52 2145.32M2334.02 2053.3C2334.82 2054.76 2337.58 2109.66 2338.86 2136.93M2129.82 1960.13L2121.6 1955.14L1805.13 2023.76L1796.86 2031.01L1796.93 2051.46L1805.29 2216.3L1817.02 2219.77L2093.16 2204.56L2118.52 2203.39L2124.82 2073.53L2129.82 1960.13Z" />
<path d="M1814.81 2218.61L1806.68 2037.5L1808.49 2031.4L1923.71 2006.12M2101.28 2046.13L2100.63 1967.31L1923.71 2006.12M2101.28 2046.13L2094.51 2203.43M2101.28 2046.13L1927.8 2037.12L1923.71 2006.12M2119.96 2186.46L2111.11 2176.69L2115.66 2082.05L2124.46 2076.48" />
<path d="M2044.69 1980.35L2040.83 2023.63M2039.41 2039.55L2040.83 2023.63M2040.83 2023.63C2044.98 2024.04 2081.37 2025.43 2099.05 2026.07M1928.6 2037.87L1929.44 2062.63L1930.78 2111.53L1865.99 2109.64M1810.3 2108.01L1865.99 2109.64M2093.15 2163.2L1920.54 2175.38L1920.57 2177.43M1921.05 2213.32L1920.57 2177.43M1920.57 2177.43L1870.34 2179.41M1814.03 2181.61L1870.34 2179.41M1865.99 2109.64L1870.34 2179.41" />
<path d="M2008.99 2042.28L2011.53 2168.13" />
<path d="M1883.69 2175.7C1883.34 2172.74 1880.95 2155.65 1879.79 2147.48L1986.78 2141.39L1990.34 2169" />
<path d="M552.387 1736.93L557.514 1728.24L735.62 1745.76L742.679 1752.96L763.906 1991.56" />
<path d="M735.723 1735.07C737.336 1735.14 744.693 1739.26 748.17 1741.31L758.724 1755.67L785.153 2047.38L795.485 2119.37L807.78 2176.11L794.137 2230.79L857.016 2216.73" />
<path d="M763.906 1991.56L777.006 2117.98L787.371 2172.62L768.462 2236.46L792.313 2231.78" />
<path d="M552.716 1737.54L562.316 1787.86L570.387 1843.35L600.491 2005.45" />
<path d="M563.255 1788.14L585.611 1785.06L587.663 1795.37L606.178 1793.2M606.178 1793.2L609.793 1780.99L691.031 1787.7L696.438 1791.85L704.284 1863.62L627.741 1872.09L615.879 1805.26L609.308 1803.32L606.178 1793.2Z" />
<path d="M618.889 1834.75L571.709 1845.79M617.251 1781.67L620.325 1735.1M677.833 1740.9L672.83 1785.37M700.578 1822.69L745.013 1817.47M751.727 1874.09L662.893 1880.97L659.989 1868.36" />
<path d="M757.138 1933.39C729.045 1936.3 672.716 1941.57 672.146 1939.36C671.575 1937.15 665.519 1899.11 662.562 1880.36" />
<path d="M672.146 1939.36L696.579 2048.2L697.825 2053.68M778.501 2130.17L714.769 2128.14L697.825 2053.68M771.334 2064.73L697.825 2053.68" />
<path d="M765.524 2011.95L688.51 2006.5" />
<path d="M584.962 1921.71C586.311 1921.29 618.427 1917.32 634.316 1915.39M634.316 1915.39L627.881 1871.62M634.316 1915.39L647.864 1981.69M647.864 1981.69L679.538 1974.74M647.864 1981.69L599.867 2000.67" />
<path d="M714.717 2126.59L641.635 2159.57L600.057 2001.74" />
<path d="M645.012 1984.42L663.098 2061.26L649.104 2068.86L656.285 2084.26L626.228 2097.82" />
<path d="M713.171 2126.64L723.884 2187M723.884 2187L787.093 2173.56M723.884 2187L655.477 2202.48L641.584 2158.03" />
<path d="M767.854 2236.79L678.447 2254.21L655.2 2203.42" />
<path d="M684.567 2274.92C687.863 2273.44 879.647 2233.99 975.127 2214.45L1222.42 2156.99L1492.48 2095.05L1613.27 2066.49L1644.92 2054.42L1671.83 2039.42L1709.97 2031.32L1748.53 2021.8L1757.92 2024.58L1765.59 2031.45L1769.12 2062.62L1777.96 2246.5L1789.12 2462.2L1789.05 2469.33L1785.23 2475.35L1757.27 2473.19L1655.99 2473.83L1564.08 2472.13L1513.13 2476.95L1480.13 2481.47" />
<path d="M1553.76 2079.5L1556.94 2091.17M1556.94 2091.17L1676.84 2063.88L1671.55 2040.36M1556.94 2091.17L1543.35 2092.24L1554.42 2135.86L1660.31 2111.06L1665.52 2205.53L1561.85 2209.03L1575.28 2336.06L1642.56 2333.01L1643.81 2356.36L1734.6 2356.7L1734.23 2290.73L1746.93 2290.92L1759.99 2283.04L1759.78 2276.85L1749.24 2267.6L1732.56 2268.79L1730.44 2174.22L1725.53 2056.35L1712.74 2058.18L1708.37 2043.61L1714.7 2029.14M1682.8 2038.59L1687.29 2061.36L1677.26 2062.47M1202.37 2178.11C1203.17 2179.58 1235.47 2207.15 1251.52 2220.76L1385.64 2197.17L1430.35 2163.44L1454.81 2158.43L1445.65 2125.6L1202.37 2178.11Z" />
<path d="M1096.33 2184.49L1105.61 2211.74L1131.66 2203.12L1126.23 2180.07M1573.02 2333.35C1551.5 2333.61 1508.91 2334.68 1510.72 2336.85C1512.53 2339.02 1511.91 2375.32 1511.38 2393.21L1467.54 2392.98L1468.57 2446.39L1576.82 2441.18L1578.2 2458.95L1615.66 2458.3M1615.66 2458.3L1613.52 2436.23L1647.47 2437.09L1644.24 2410.09L1735.24 2407.95L1753.03 2397.9L1758.31 2380.06L1750.71 2366.07L1743.85 2359.95L1732.58 2356.61M1615.66 2458.3L1752.91 2458.62M1752.91 2458.62L1754.53 2465.23L1783.04 2465.51L1783.54 2434.51C1773.5 2433.92 1753.63 2433.1 1754.42 2434.56C1755.21 2436.02 1753.74 2451.21 1752.91 2458.62Z" />
<path d="M1774.2 2433.28L1767.45 2256.15L1733.55 2256.83M1732.31 2238.59C1734.03 2238.28 1752.31 2237.71 1761.24 2237.46L1752.44 2027.56L1747.28 2026.03L1715.41 2031.91" />
<path d="M1647.61 2422.84C1649.11 2423.28 1696.6 2424.07 1720.15 2424.41C1726.6 2422.75 1739.88 2419.53 1741.38 2419.98C1742.88 2420.42 1752.96 2414.22 1757.81 2411.06L1771.02 2394.04M1500.31 2446.09L1502.11 2476.24M1486.25 2447.03L1490.72 2478.48M1464.12 2447.62L1450.52 2448.7L1454.6 2312.56L1456.96 2235.66C1457.07 2226.67 1457.65 2208.49 1459.11 2207.7C1460.57 2206.91 1462.59 2197.67 1463.42 2193.15L1485.83 2177.83L1512.76 2167.94L1535.36 2167.48C1535.4 2171.92 1535.69 2181.17 1536.49 2182.63C1537.28 2184.09 1516.92 2187.21 1506.64 2188.59L1494.47 2195.2L1488.82 2202.21L1482.56 2223.33L1476.39 2256.22L1467.73 2338.92L1463.33 2396.84L1464.12 2447.62Z" />
<path d="M1450.66 2448.23L1449.76 2458.18L1435.03 2457.9M1488.79 2462.59L1469.47 2464.02L1467.25 2471.53M1504.35 2460.05L1578.25 2460.5M1534.97 2165.33C1539.06 2165.31 1552.06 2165.11 1558.04 2165.01L1557.68 2154.18L1635.07 2148.01L1650.35 2146.41L1654.84 2196.75L1558.64 2200.93L1558.62 2182.03L1537.1 2182.3M1547.07 2124.49L1459.75 2148.66L1453.94 2123.46L1545.07 2101.94" />
<path d="M1204.06 2177.59L1105.62 2211.74L1009.69 2242.56L947.252 2249.95M844.521 2264.09L941.96 2250.58L947.252 2249.95M1141.08 2202.34L1134.78 2373.56M947.252 2249.95L927.189 2317.68" />
<path d="M937.302 1126.95L1047.17 1100.78C1082.87 1096.88 1155.88 1088.86 1162.29 1087.9C1168.7 1086.94 1216.11 1088.36 1239.01 1089.18L1400.86 1097.81" />
<path d="M1235.91 1061.71L1108.67 1055.17L1040.06 1064.46L945.452 1083.92L898.063 1102.56" />
<path d="M1052.91 1160.68L1046.15 1130.09M1046.15 1130.09L1021.11 1131.86M1046.15 1130.09L1125.56 1110.21L1209.61 1103.96L1217.7 1123.21M1130.47 1186.72C1131.82 1186.3 1163.35 1177.4 1178.95 1173L1193.36 1205.35" />
<path d="M1067.05 1166.4L1059.08 1127.79" />
<path d="M1215.75 1115.99L1225.15 1110.1L1227.24 1103.06L1249.6 1099.98L1332.61 1104.14L1409.01 1109.93M1409.01 1109.93L1402.13 1098.7M1409.01 1109.93L1399.54 1205.66L1410.17 1212.89L1427.07 1112.72L1429.82 1106.9M1432.57 1101.08L1429.82 1106.9M1429.82 1106.9L1440.62 1110.1" />
<path d="M1266.47 1191.26L1270.01 1117.26L1327.04 1122.92L1327.25 1129.11L1340.95 1131.12L1341.02 1124L1398.15 1127.64L1393.29 1199.21L1361.21 1198.9L1360.93 1186.06L1301.6 1181.25L1300.66 1194.75L1266.47 1191.26Z" />
<path d="M1804.68 2216.63L1814.5 2383.43L1820.66 2455.72L1823.79 2465.83L1834.22 2471.99L1855.13 2472.05L2058.93 2461.45L2069.19 2471.64L2113.67 2467.97L2116.45 2458.58L2117.01 2415.34L2117.03 2413.31M2119.32 2204.14L2117.03 2413.31M2092.71 2223.32C2095 2222.46 2109.4 2222.13 2110.8 2222.55C2111.93 2222.88 2115.1 2225.86 2116.54 2227.31L2116.4 2241.57L2106.11 2248.73L2107.17 2403.75L2117.03 2413.31" />
<path d="M1806.77 2250.94C1809.84 2250.22 1818.57 2247.29 1822.55 2245.92M1822.55 2245.92L2093.33 2228.1M1822.55 2245.92L1821.56 2285.45L1829.77 2285.33L1831.67 2304.78L1837.54 2455.61L1846.28 2462.28L2086.15 2455.73L2092.38 2451.96L2094.74 2443.98L2093.33 2228.1M2093.33 2228.1L2092.57 2223.79" />
<path d="M1831.67 2304.78L1926.22 2297.56M1926.22 2297.56C1927.35 2320.19 1929.88 2365.53 1931.01 2365.86M1926.22 2297.56L2091.62 2287.33M1931.01 2365.86L1891.34 2369.43M1931.01 2365.86C1931.79 2366.1 1983.18 2361.21 2032.33 2356.46M2091.74 2350.68C2075.44 2352.27 2054.11 2354.35 2032.33 2356.46M1834.49 2374.55L1891.34 2369.43M1891.34 2369.43C1892.74 2371.07 1896.24 2430.96 1897.81 2460.7M1951.92 2365.93L1960.86 2456.4M1956.56 2393.35C1957.95 2394.17 2047.03 2389 2091.4 2386.31M2017.37 2391.45C2018.06 2393.28 2019.09 2434.5 2019.52 2454.88M2029.22 2292.84L2032.33 2356.46" />
<path d="M1899.05 2277.26C1899.35 2278.98 1900.6 2292.69 1901.19 2299.34M1899.05 2277.26L1829.82 2286.88M1899.05 2277.26L1957.91 2268.14M1957.91 2268.14L1954.24 2237.44M1957.91 2268.14L2091.34 2260.69M2146.51 2188.2C2146.81 2189.92 2143.52 2264.92 2141.84 2302.2L2144.06 2427.44L2143.54 2467.11" />
<path d="M2144.48 2439.82L2152.75 2432.57L2152.57 2403.92M2146.2 2206.48L2151.99 2212.79L2152.35 2370.16L2152.57 2403.92M2143.09 2242.84L2150.56 2248.62M2152.57 2403.92L2144.34 2412.72M2241.97 2184.82L2162.12 2187.2L2166.38 2386.57L2252.46 2385.52L2251.99 2302.66L2244.25 2302.93C2243.24 2277.61 2241.53 2226.96 2242.77 2226.92C2244.01 2226.88 2286.04 2223.91 2306.9 2222.43L2307.68 2231.85L2333.43 2232.84M2333.43 2232.84L2330.94 2177.47M2333.43 2232.84L2337.85 2304.1L2376.78 2305.42L2379.23 2176.46" />
<path d="M2338.04 2305.18L2251.85 2303.13M2336.11 2303.08L2332.61 2387.3M2332.61 2387.3L2253.54 2385.33M2332.61 2387.3L2482.78 2394M2376.44 2304.81L2483.92 2303.97M2435.34 2305.92L2433.19 2389.02M2482.34 2431.66L2361.12 2428.94L2360.93 2441.65L2288.63 2442.69L2289.05 2455.07L2217.11 2453.16L2215.7 2466.53L2169.09 2467.02M2169.09 2467.02L2166.71 2387.18M2169.09 2467.02L2168.57 2479.12M2168.57 2479.12L2162.99 2479L2162.53 2520.22L2238.9 2515.78L2240.41 2477.94L2168.57 2479.12Z" />
<path d="M2235.33 2515.75L2391.5 2521.16L2477.93 2525.83L2480.49 2463.78L2313.42 2465.87L2255.91 2473.85L2240.46 2479.48" />
<path d="M1484.44 2480.71L1128.85 2488.4M783.884 2504.99L1114.97 2488.7L1128.85 2488.4M1135.04 2367.51L1128.85 2488.4" />
<path d="M926.944 2315.06L878.768 2498.38M684.01 2276.79L779.66 2503.74" />
<path d="M1436.11 2457.71C1436.42 2459.43 1437.39 2474.09 1437.83 2481.2" />
<path d="M845.129 2263.76L692.687 2290.6" />
<path d="M2448.76 1281.59C2449.44 1283.42 2493.9 1372.23 2516.04 1416.4L2697.64 1330.8L2736.25 1298.33M2791.47 1251.89L2736.25 1298.33M2736.25 1298.33L2703.56 1253.93L2658.59 1279.92L2609.89 1204.74M2609.89 1204.74L2501.45 1305.37L2510.77 1315.28L2496.86 1320.86L2487.46 1299.18L2593.86 1193.35L2609.89 1204.74Z" />
<path d="M2602.99 1271.11L2624.64 1306.63L2584.36 1320.22L2587.9 1328.93L2548.91 1348.53L2538.01 1328.45M2538.01 1328.45L2601.58 1270.69M2538.01 1328.45L2521.18 1288.75" />
<path d="M2548.83 1350.55L2569.08 1390.75M2587.3 1329.26L2612.25 1370.86M2579.08 1232.88C2580.89 1235.05 2594.96 1259.71 2601.77 1271.77M2625.38 1305.83C2626.55 1307.4 2644.36 1337.15 2653.12 1351.82M2658.12 1279.78C2659.62 1280.23 2682.71 1313.96 2694.07 1330.77M2496.72 1321.33C2494.78 1322.38 2481.9 1328.85 2475.71 1331.95M2578.82 1399.25L2695.71 1342.49L2748.05 1319.19L2776.16 1312.2L2828.57 1309.34M2828.57 1309.34L2857.83 1308.82C2854.51 1302.22 2847.77 1288.68 2847.35 1287.33C2846.93 1285.98 2844.62 1272.4 2843.52 1265.77M2828.57 1309.34L2833.72 1291.97C2833.94 1283.19 2834.23 1265.06 2833.66 1262.85" />
<path d="M2807.85 1255.21L2759.37 1296.5L2761.96 1299.82L2800.95 1294.01L2832.36 1293.1" />
<path d="M2499.14 1502.78C2500.18 1500.64 2503 1490.31 2504.28 1485.42L2521.75 1466.08L2573.74 1437.07L2752.96 1354.34L2778.91 1347.73L2868.96 1340.19L2952.98 1337.51" />
<path d="M2856.56 1307.93C2858.29 1307.62 2914.42 1305.67 2942.27 1304.72" />
<path d="M2498.72 1504.19L2504.79 1578.49L2526.72 1828.53L2533.91 1835.26L2766.83 1797.03L2768.63 1790.93L2762.54 1697.73L2765.74 1686.94L2824.78 1660L2953.94 1599.72M2943.23 1635.86L2795.47 1700.34L2790.74 1716.3L2800.59 1851.96L2806.21 1862.31L2877.19 1858.83M2528.49 1853.57C2531.45 1853.22 2682.86 1831.73 2758.19 1821.02L2765.59 1820.15L2769.92 1824.5L2774.8 1890.79M2774.8 1890.79L2794.3 1890.44M2774.8 1890.79L2782.55 2111.1M2794.3 1890.44L2869.26 1885.58M2794.3 1890.44L2792.63 1896.07L2796.99 2029.6L2799.64 2103.4M2866.48 1894.97L2797.38 1899.01L2801.09 1995.59M2805.01 2097.33L2803.1 2047.75M2803.1 2047.75L2821.16 2047.99M2803.1 2047.75L2801.09 1995.59M2801.09 1995.59L2837.15 1994.01M2763.37 1827.66L2639.19 1852.15L2571.6 1859.7L2531.57 1862.14L2531 2129.51L2777.96 2126.59L2769.76 1925.03L2763.37 1827.66Z" />
<path d="M2768.28 1890.39L2694.37 1896.86M2644.57 1901.23L2641.54 1852.85M2644.57 1901.23L2649.72 2126.89M2644.57 1901.23L2694.37 1896.86M2695.05 2125.52L2694.37 1896.86" />
<path d="M2696.99 1925.94L2767.41 1924.34M2769.83 1973.05L2696.73 1973.35M2727.17 1975.73L2731.49 2126.61M2643.93 1960.26L2592.49 1959.83M2592.49 1959.83L2587.36 2128.85M2592.49 1959.83L2572.33 1960.67M2532.01 1962.34L2572.33 1960.67M2571.85 1862.33L2572.33 1960.67" />
<path d="M2523.69 1862.87L2522.63 2097.42L2523.07 2128.69L2529.24 2137.16L2540.98 2140.64L2778.66 2138.03L2785.45 2137.49M2785.45 2137.49L2783.11 2109.22M2785.45 2137.49L2802.33 2137.38L2799.5 2103.87" />
<path d="M2531.45 2138.32C2529.46 2138.14 2507.84 2139.33 2497.27 2139.94" />
<path d="M2769.68 1363.38L2561.54 1461.02L2514.75 1488.01L2511.13 1500.21L2521.8 1669.31L2532.54 1789.92L2539.89 1828.86L2687.15 1802.28M2755.07 1678.16L2762.67 1788.65L2687.15 1802.28M2755.07 1678.16L2963.64 1584.21M2755.07 1678.16C2740.16 1683.1 2710.53 1693.36 2711.33 1694.82C2712.12 1696.28 2714.07 1724.05 2714.95 1737.75L2677.15 1737.79L2687.15 1802.28" />
<path d="M2714.76 1736.68L2758.32 1737.84" />
<path d="M2532.95 1788.51L2693.32 1707.35L2608.63 1549.52M2561.4 1461.49L2608.63 1549.52M2516.05 1554.26L2608.63 1549.52" />
<path d="M2621.74 1578.42L2565.38 1606.65L2519.9 1608.5M2521.7 1666.21L2575.27 1661.15L2648.39 1624.6M2657.94 1645.81L2576.6 1677.37C2577.08 1688.33 2578 1705.03 2579.14 1717.95M2679.55 1684.89C2648.25 1701.49 2585.02 1735.11 2582.48 1736.81C2581.29 1737.6 2580.13 1729.21 2579.14 1717.95M2579.14 1717.95L2526.25 1723.22M2614.03 1749.22C2614.98 1751.54 2620.83 1792.93 2623.63 1813.33" />
<path d="M2657 1416.29L2759.13 1674.77M2723.17 1687.6L2642.64 1481.98L2603.22 1497.87L2669.55 1613.51L2646.98 1624.19" />
<path d="M2715.95 1391.37L2752.11 1476.12M2752.11 1476.12L2754.76 1480.98L2742.06 1485.9L2815.46 1650.09M2752.11 1476.12L2807.52 1456.28L2767.44 1365.77" />
<path d="M2742.4 1486.51L2694.22 1509.52M2736.96 1623.78L2791.46 1600.1M2750.22 1498.02C2752.43 1497.45 2762.97 1493.46 2767.97 1491.53L2814.6 1592.66L2861.42 1570.78L2866.84 1552.48L2832.9 1460.22L2806.11 1455.86" />
<path d="M2770.84 1361.17C2771.85 1361.46 2827.6 1358.92 2883.08 1356.29M2961.76 1583.66L2985.92 1574.48L2972.59 1528.15L2959.22 1352.64C2938.5 1353.64 2910.83 1354.98 2883.08 1356.29M2915.55 1605.2L2855.03 1459.63L2908.24 1457.52L2913.88 1455.71M2961.26 1440.55L2913.88 1455.71M2883.08 1356.29L2889.03 1406.9L2913.88 1455.71" />
<path d="M2877.81 1510.28L2969.91 1499.27" />
<path d="M2481.42 2165.88L2498.21 2167.79L2503.01 2172.28L2487.04 2529.55" />
<path d="M2501.69 2169.84L2529.4 2169.37L2540.2 2172.57L2810.94 2172.1" />
<path d="M2536.96 2173.15L2525.96 2177.54L2514.59 2441.72L2511.85 2530.26" />
<path d="M2811.27 2172.71L2812.53 2182.27L2544.49 2180.48L2535.97 2185.11L2523.24 2528.02" />
<path d="M2814.58 2192.58L2546.68 2190.32L2539.03 2362.67L2534.52 2522.68L2542.29 2532.64L2802.05 2541.68L2861.28 2543.39L2875.38 2525.1L2840.65 2194.17L2814.58 2192.58Z" />
<path d="M2546.81 2253.67L2766.83 2248.64M2844.45 2246.87L2766.83 2248.64M2761.5 2194.22L2766.83 2248.64" />
<path d="M2640.19 2193.51L2638.89 2251.33" />
<path d="M2648.37 2252.1L2640.86 2451.55L2642.96 2490.98L2644.01 2535.71" />
<path d="M2641.97 2475.37L2536.85 2476.9" />
<path d="M2539.02 2412.7L2642.73 2410.75" />
<path d="M2594.49 2252.99L2586.65 2410.47" />
<path d="M2742.28 2248.77L2747.24 2368.18L2645.49 2368.68" />
<path d="M2747.24 2368.18L2858.75 2367.51" />
<path d="M2746.17 2368.37L2750.23 2539.09" />
<path d="M1886.15 983.209L1841.01 756.415L1806.83 611.5L1774.59 496.261" />
<path d="M1755.61 498.296L1800.15 656.491L1831.87 797.616L1858.96 944.009L1867.66 976.709" />
<path d="M1863.05 959.516C1862.82 960.267 1858.01 966.192 1855.62 969.061L1856.72 973.98M1837.48 968.28L1848.3 940.342L1852.51 936.482L1857.67 938.012M1845.69 876.767L1844.96 896.464L1825.97 948.532L1820.3 964.213" />
<path d="M1785.04 1084.99L1792.7 1078.07L1801.53 1000.01L1814.24 881.237L1806.15 779.278L1795.39 703.587L1782.76 660.022L1771.16 614.719L1745.67 497.393" />
<path d="M1745.67 497.393L1735.13 460.573L1663.75 484.361L1668.74 503.709L1639 512.769L1643.45 525.32L1612.19 530.868L1617.24 606.907L1626.47 646.404L1614.2 677.489L1625.89 706.989L1612.92 712.849L1587.69 727.332C1593.56 778.766 1605.41 882.282 1605.87 884.869C1606.33 887.456 1607.22 905.012 1607.61 913.466L1705.18 908.157L1704.75 854.421M1704.75 854.421L1636.9 854.235L1634.35 833.565L1738.55 823.074L1737.89 808.072L1758.42 805.984L1766.66 857.441L1751.71 859.65L1748.35 852.019L1704.75 854.421Z" />
<path d="M1706.77 882.08C1710.37 882.33 1779.86 882.967 1814.16 883.254M1702.55 880.829L1606.2 885.478M1598.5 813.246L1759.42 787.076M1807.7 779.226L1759.42 787.076M1789.94 702.996C1788.37 704.164 1718.59 726.111 1683.9 736.939M1683.9 736.939L1673.42 701.666M1683.9 736.939L1689.97 756.096L1748.48 741.262L1759.42 787.076M1673.42 701.666L1592.34 727.175M1673.42 701.666L1780.24 663.36M1769.86 617.396L1715.05 631.795L1627.6 647.76M1617.41 602.874C1620.04 603.653 1714.75 590.86 1761.77 584.366M1618.75 569.061L1749.2 542.349M1743.6 495.759L1644.2 524.52" />
<path d="M1679.22 726.873C1676.15 727.597 1641.88 738.616 1625.12 744.036L1630.24 785.376L1669.49 780.424M1669.49 780.424L1734.2 772.26L1754.17 772.05M1669.49 780.424C1670.76 780.263 1672.95 792.279 1673.89 798.307M1673.06 801.123L1677.28 829.946M1704.83 902.437L1731.23 904.643L1726.77 997.268M1726.77 997.268L1799.34 1003.96M1726.77 997.268L1676.46 998.193M1676.46 998.193L1672.24 1079.66M1676.46 998.193L1583.06 998.096L1491.42 995.461L1492.79 902.94L1606.2 885.478M1604.38 872.683L1551.41 877.415L1552.66 873.191L1482.5 882.532L1477.78 862.244L1475.37 854.891L1601.72 848.918M1595.4 813.35L1521.2 825.067M1615.58 681.47L1606.12 713.388C1554.14 727.433 1449.48 755.422 1446.74 755.019C1444 754.616 1449.5 769.28 1452.59 776.662L1470.6 833.056L1521.2 825.067M1514.08 794.877C1515.55 798.173 1519.44 816.377 1521.2 825.067" />
<path d="M1516.84 794.164L1592.86 784.005" />
<path d="M1490.07 996.591C1490.41 999.553 1486.02 1041.85 1483.78 1062.63L1627.83 1074.47M1784.34 1087.33L1627.83 1074.47M1633.33 1000.73L1627.83 1074.47" />
<path d="M1560.84 1000.71L1554.93 1068.91" />
<path d="M1484.06 1061.7L1409.3 1058.96L1416.96 927.962L1428.95 897.817L1450.07 904.074L1474.03 902.49L1481.03 902.976M1492.04 903.74L1481.03 902.976M1480.15 881.837L1481.03 902.976" />
<path d="M1410.24 1059.23C1398.73 1059.5 1336.17 1050.74 1306.33 1046.32L1310.85 1010.39L1409.32 1022.71" />
<path d="M1937.6 997.426C1920.23 925.056 1886.09 780.388 1888.45 780.68C1890.81 780.972 1907.21 778.239 1915.12 776.836L1905.14 738.139C1918.57 730.714 1945.84 716.906 1947.47 721.064C1949.09 725.222 1957.58 748.397 1961.62 759.465" />
<path d="M1806.7 937.72C1809.67 937.372 1822.66 936.148 1828.78 935.58M1808.04 945.265L1824.47 950.131M1809.98 842.192C1812.99 843.082 1831.47 845.493 1840.34 846.588M1812.62 833.273L1834.93 828.647M1803.58 753.497C1806.32 753.9 1815.36 756.816 1819.54 758.224M1801.06 743.049C1803.38 742.103 1812.11 738.493 1816.18 736.807M1778.47 638.326C1781.05 637.867 1788.87 633.07 1792.46 630.728M1780.66 648.166C1785.65 649.236 1793.09 649.295 1796.18 649.19M1918.16 990.647L1901.27 908.037L1913.29 924.36L1928.14 1001.77L1926.59 1015.61" />
<path d="M1915.75 905.689L1911.44 920.241M1911.2 890.044C1909.7 889.599 1907.13 888.839 1906.03 888.514L1895.12 877.111M1912.22 874.519L1992.34 857.42M1977.88 782.151L2039.42 760.554L2054.79 812.081L2076.48 807.785L2085.54 837.529L1992.34 857.42M1977.88 782.151L1969.25 756.109L1962.18 757.587M1977.88 782.151L1992.34 857.42" />
<path d="M1986.1 828.497L2053.85 811.803M1947.61 720.594C1950.68 719.871 1961.88 716.653 1967.09 715.134L1964.07 708.111L1986.54 702.513M2084.74 836.782L2128.69 826.313L2177.62 811.078M2076.48 807.785L2167.75 785.804M2177.62 811.078L2200.12 804.073L2172.42 713.154L2154.67 719.64L2151.3 706.897L2137.76 709.523C2132.98 688.877 2123.16 647.097 2122.11 645.15C2120.78 642.716 2079.34 658.522 2077.32 658.435C2075.71 658.366 2079.79 671.931 2082.04 678.722L1986.54 702.513M2177.62 811.078C2168.5 782.714 2149.53 725.266 2146.71 722.387L1999.05 762.383L1986.54 702.513" />
<path d="M1975.45 705.867L1986.34 762.192L1973.74 765.096M1870.02 753.265L1879.6 743.338L1904.67 737.999M1865.67 730.023C1867.55 730.579 1874.59 732.665 1877.88 733.638L1890.9 729.325C1879.4 699.199 1856.96 639.113 1859.22 639.78C1861.47 640.448 1869.96 636.836 1873.92 634.946M1873.92 634.946L1788.81 403.461L1811.15 395.271L1794 360.069C1801.92 354.586 1817.94 344.08 1818.62 345.916C1819.3 347.752 1845.34 398.763 1858.28 424.039L1872.88 416.11L1914.4 517.25L1928.33 516.78L1963.07 609.784L1873.92 634.946Z" />
<path d="M1963.02 608.238L1988.83 602.099L1991.04 607.858M2016.18 673.512L1923.68 704.829L1926.67 715.416L1891.51 728.996M2016.18 673.512L2118.85 626.827L2072.49 414.479L2042.5 420.914L1896.18 468.454M2016.18 673.512L1991.04 607.858M1921.72 518.398L1840.19 548.879M1829.6 510.512L1899.38 485.23M1857.34 423.761L1807.97 452.536M1991.04 607.858L2055.45 584.049L2030.39 475.02L1926.94 507.688L1928.66 517.389" />
<path d="M2045.75 1030.48L2036.67 981.842L1993.09 989.355L1999.28 1016.72M2103.01 1047.45L2083.97 979.004C2079.27 980.506 2069.53 983.303 2068.13 982.483C2066.74 981.662 2066.22 976.3 2066.13 973.721L2072.44 967.931L2077.94 956.283L2073.14 938.013L2060.5 930.695L2048.8 896.083L2015.12 908.064L2021.04 936.365L1987.26 945.251L1969.64 868.552L1915.39 881.073L1937.8 976.043L1935.44 984.022" />
<path d="M2182.81 1071.08L2134.64 837.265M2134.64 837.265L1971.16 872.064M2134.64 837.265L2171.61 831.369L2169.37 819.982L2194.77 815.252L2202.73 826.29L2347.76 758.966L2376.24 817.95L2205.52 899.618L2209.31 910.952L2237.61 905.039L2271.5 1064.68L2241.33 1070.04L2246.65 1089.99" />
<path d="M2265.84 1094.15L2296.55 1054.23L2299.47 1044.37L2296.71 1017.51L2275.91 915.363L2278.83 905.505L2299.69 890.24L2338.98 874.817L2351.62 882.135L2371.04 911.374L2384.06 907.062L2369.99 880.43L2369.99 866.644L2377.36 855.552L2410.88 838.93L2403.09 823.858L2275.3 888.121C2272.37 891.679 2266.35 899.359 2265.69 901.612C2265.02 903.865 2261.14 916.946 2259.29 923.204L2285.86 1040.34L2274.74 1064.1L2251.76 1089.97" />
<path d="M2268.38 1095.92L2287.01 1074.38C2290.54 1077.98 2298.1 1085.22 2300.09 1085.4C2302.07 1085.58 2325.49 1061.1 2336.96 1048.84L2315.1 1034.7L2333.68 1011.62C2351.65 994.642 2387.62 960.196 2387.8 958.207C2387.98 956.218 2374.13 941.733 2367.18 934.74C2378.42 922.071 2401.84 897.013 2405.6 898.125C2409.35 899.237 2422.48 908.914 2428.58 913.613L2455.16 884.214L2436.68 869.038L2468.37 839.621L2473.55 846.262L2488.9 837.534L2499.35 848.798L2586.16 759.122" />
<path d="M2448.95 1282.67L2451.45 1274.22L2564.06 1159.51M2564.06 1159.51L2594.66 1194.1M2564.06 1159.51L2652.9 1067.88M2730.21 988.152L2652.9 1067.88M2646.04 1055.12C2646.23 1057.22 2650.69 1064.5 2652.9 1067.88" />
<path d="M2633.9 1071.95L2643.29 1074.73M2588.62 1116.23C2589.79 1117.81 2594.25 1122.5 2596.34 1124.65M2577.88 1128.37L2588.67 1131.57M2532.84 1175.28L2722.99 976.313M2731.65 985.005L2899.37 1158.25L2793.35 1252.44M2794.88 1247.28L2732.01 1169.94L2708.98 1194.26M2708.98 1194.26L2667.62 1150.87M2708.98 1194.26L2692.67 1208.32M2620.17 1101.07L2667.62 1150.87M2641.1 1252.79L2692.67 1208.32M2667.62 1150.87C2664.92 1153.34 2656.58 1162.58 2652.75 1166.89L2692.67 1208.32" />
<path d="M2732.62 1169.61L2769.65 1137.69M2769.65 1137.69C2772.27 1138.47 2815.99 1187.5 2837.52 1211.92M2769.65 1137.69L2764.15 1132.13M2676.14 1043.11L2764.15 1132.13M2764.15 1132.13C2766.24 1130.58 2800.99 1095.07 2818.11 1077.5M2765.31 1023.06L2671.96 1121.01L2723.46 1178.13M2898.76 1158.58L2960.28 1104.3L2786.96 925.824L2729.77 984.449" />
<path d="M2780.27 915.672L2785.52 928.971M2777.57 936.829L2763.49 932.658" />
<path d="M2724.02 974.575L2784.61 911.343M2761.91 894.917L2608.99 1054.36L2527.27 1138.91L2502.99 1167.46M2479.05 1160.36L2638.12 990.488L2744.75 882.175M2732.47 871.902L2608.29 1001.56L2518.02 1094.3L2462.84 1153.01M2444.07 1147.45L2544.89 1041.5L2651.41 930.094L2718.7 863.228M2694.92 846.993L2584.56 959.305L2489.96 1061.48L2414.03 1138.55M2391.97 1132.02L2658.38 856.592L2678.94 837.154M2667.14 827.02L2627.61 867.39L2502.35 997.244L2376.48 1127.43M2353.72 1123.24L2530.11 943.176L2656.45 813.131M2632.39 797.834L2519.36 913.954L2422.26 1010.79L2330.01 1113.66M2310.07 1110.31L2579.71 833.289M2626.39 785.335L2579.71 833.289M2547.51 798.223L2579.71 833.289" />
<path d="M2475.56 846.349L2519.95 894.726M2384.53 920.987L2437.19 975.901M2332.8 1012.89C2334.45 1014.19 2361.17 1034.9 2374.32 1045.1" />
</g>
</svg>
