<svg width="30" height="31" viewBox="0 0 30 31" fill="none" xmlns="http://www.w3.org/2000/svg">
<path d="M16.25 10.3745C17.2446 10.3745 18.1984 10.7696 18.9017 11.4729C19.6049 12.1761 20 13.13 20 14.1245C20 14.456 20.1317 14.774 20.3661 15.0084C20.6005 15.2428 20.9185 15.3745 21.25 15.3745C21.5815 15.3745 21.8995 15.2428 22.1339 15.0084C22.3683 14.774 22.5 14.456 22.5 14.1245C22.5 12.4669 21.8415 10.8772 20.6694 9.70509C19.4973 8.53299 17.9076 7.87451 16.25 7.87451C15.9185 7.87451 15.6005 8.00621 15.3661 8.24063C15.1317 8.47505 15 8.79299 15 9.12451C15 9.45603 15.1317 9.77397 15.3661 10.0084C15.6005 10.2428 15.9185 10.3745 16.25 10.3745Z" fill="#FFEA55"/>
<path d="M16.25 5.37439C18.5706 5.37439 20.7962 6.29626 22.4372 7.93721C24.0781 9.57815 25 11.8037 25 14.1244C25 14.4559 25.1317 14.7739 25.3661 15.0083C25.6005 15.2427 25.9185 15.3744 26.25 15.3744C26.5815 15.3744 26.8995 15.2427 27.1339 15.0083C27.3683 14.7739 27.5 14.4559 27.5 14.1244C27.5 11.1407 26.3147 8.27922 24.205 6.16944C22.0952 4.05965 19.2337 2.87439 16.25 2.87439C15.9185 2.87439 15.6005 3.00609 15.3661 3.24051C15.1317 3.47493 15 3.79287 15 4.12439C15 4.45591 15.1317 4.77385 15.3661 5.00827C15.6005 5.24269 15.9185 5.37439 16.25 5.37439Z" fill="#FFEA55"/>
<path d="M27.1875 20.262C27.1187 20.0613 27.0001 19.8815 26.8426 19.7393C26.6852 19.5972 26.4941 19.4975 26.2875 19.4495L18.7875 17.737C18.5839 17.6909 18.372 17.6964 18.1711 17.7532C17.9703 17.81 17.7868 17.9161 17.6375 18.062C17.4625 18.2245 17.45 18.237 16.6375 19.787C13.9415 18.5447 11.7812 16.3756 10.55 13.6745C12.1375 12.8745 12.15 12.8745 12.3125 12.687C12.4584 12.5377 12.5646 12.3542 12.6213 12.1534C12.6781 11.9525 12.6837 11.7406 12.6375 11.537L10.925 4.12451C10.8771 3.91788 10.7773 3.72685 10.6352 3.5694C10.493 3.41195 10.3132 3.29326 10.1125 3.22451C9.82058 3.12025 9.51914 3.04489 9.2125 2.99951C8.89656 2.92626 8.57417 2.88439 8.25 2.87451C6.72501 2.87451 5.26247 3.48031 4.18414 4.55865C3.1058 5.63698 2.5 7.09952 2.5 8.62451C2.50661 13.7279 4.53686 18.6204 8.1455 22.229C11.7541 25.8377 16.6466 27.8679 21.75 27.8745C22.5051 27.8745 23.2528 27.7258 23.9504 27.4368C24.6481 27.1479 25.2819 26.7243 25.8159 26.1904C26.3498 25.6564 26.7733 25.0226 27.0623 24.3249C27.3513 23.6273 27.5 22.8796 27.5 22.1245C27.5004 21.8064 27.4753 21.4887 27.425 21.1745C27.3725 20.864 27.293 20.5587 27.1875 20.262Z" fill="#FFEA55"/>
</svg>
