<svg width="227" height="41" viewBox="0 0 227 41" fill="none" xmlns="http://www.w3.org/2000/svg">
<g opacity="0.5">
<path d="M82.336 10H5.15965C4.63186 10 4.19494 10.4102 4.16164 10.9369L3.48096 21.704V32.521C3.48096 33.0551 3.90071 33.495 4.43425 33.5199L22.0174 34.3421C22.1131 34.3466 22.1933 34.416 22.2115 34.5101L22.3774 35.367C22.514 36.0727 22.7815 36.7467 23.1661 37.354L23.2393 37.4694C23.6493 38.1169 24.1987 38.6648 24.8473 39.0732C25.3963 39.4189 26.0057 39.6578 26.6435 39.7774L26.7361 39.7948C27.4589 39.9303 28.2111 39.9213 28.9313 39.7723C29.4898 39.6567 30.0356 39.457 30.5357 39.1827L30.6979 39.0938C31.4656 38.6728 32.1203 38.0724 32.606 37.3438C33.0059 36.7439 33.2825 36.0704 33.4195 35.3626L33.5849 34.5079C33.6026 34.4161 33.683 34.3498 33.7766 34.3498H62.1174C62.2061 34.3498 62.2824 34.4127 62.2992 34.4998L62.4427 35.2409C62.595 36.0281 62.9114 36.7745 63.3712 37.4313C63.8424 38.1045 64.4533 38.668 65.1621 39.0836L65.2194 39.1172C65.7607 39.4344 66.3511 39.6592 66.9663 39.7823C67.6852 39.926 68.426 39.9282 69.1458 39.7889C69.803 39.6617 70.4337 39.4182 71.0059 39.0708C71.6765 38.6636 72.2559 38.121 72.7058 37.4783L72.7254 37.4503C73.1939 36.7809 73.5164 36.0204 73.6716 35.2182L73.8107 34.4998C73.8275 34.4127 73.9038 34.3498 73.9925 34.3498H85.5311C85.9099 34.3498 86.2561 34.1358 86.4255 33.797L86.4471 33.7537C86.5166 33.6149 86.5527 33.4618 86.5527 33.3065V24.2452C86.5527 24.1657 86.5432 24.0865 86.5245 24.0093L83.3078 10.764C83.1989 10.3157 82.7974 10 82.336 10Z" stroke="#FFEA55" stroke-miterlimit="16" stroke-linecap="square" stroke-linejoin="round"/>
<path d="M15.1463 12.8252H7.78902C7.48908 12.8252 7.20499 12.9598 7.01506 13.192L6.90833 13.3224C6.77905 13.4804 6.70123 13.6742 6.68533 13.8777L6.07299 21.7157C6.05022 22.0072 6.15613 22.294 6.36284 22.5007L6.48413 22.622C6.67166 22.8095 6.92602 22.9149 7.19123 22.9149H15.1463C15.4281 22.9149 15.6967 22.796 15.8862 22.5876L16.0013 22.461C16.1686 22.277 16.2613 22.0371 16.2613 21.7884V13.9517C16.2613 13.7029 16.1686 13.4631 16.0013 13.279L15.8862 13.1525C15.6967 12.944 15.4281 12.8252 15.1463 12.8252Z" stroke="#FFEA55" stroke-miterlimit="16" stroke-linecap="square" stroke-linejoin="round"/>
<path d="M30.9948 12.8252H18.9626C18.6974 12.8252 18.443 12.9306 18.2555 13.1181L18.0341 13.3395C17.8466 13.527 17.7412 13.7814 17.7412 14.0466V21.7739C17.7412 22.0706 17.873 22.3521 18.101 22.5421L18.2703 22.6831C18.45 22.8329 18.6765 22.9149 18.9104 22.9149H31.049C31.3142 22.9149 31.5685 22.8095 31.7561 22.622L31.8429 22.5351C32.0305 22.3476 32.1358 22.0932 32.1358 21.828V13.9944C32.1358 13.7605 32.0538 13.534 31.9041 13.3542L31.763 13.185C31.573 12.957 31.2916 12.8252 30.9948 12.8252Z" stroke="#FFEA55" stroke-miterlimit="16" stroke-linecap="square" stroke-linejoin="round"/>
<path d="M46.789 12.8252H34.7567C34.46 12.8252 34.1785 12.957 33.9885 13.185L33.8475 13.3542C33.6977 13.534 33.6157 13.7605 33.6157 13.9944V21.8556C33.6157 22.1044 33.7084 22.3442 33.8758 22.5283L33.9908 22.6548C34.1803 22.8633 34.449 22.9821 34.7307 22.9821H46.8142C47.0644 22.9821 47.3055 22.8884 47.4899 22.7193L47.6861 22.5395C47.8927 22.3501 48.0103 22.0826 48.0103 21.8023V14.0466C48.0103 13.7814 47.905 13.527 47.7174 13.3395L47.4961 13.1181C47.3085 12.9306 47.0542 12.8252 46.789 12.8252Z" stroke="#FFEA55" stroke-miterlimit="16" stroke-linecap="square" stroke-linejoin="round"/>
<path d="M72.4998 12.7578H59.2119C58.9294 12.7578 58.6601 12.8773 58.4705 13.0867L58.2913 13.2846C58.1249 13.4685 58.0327 13.7077 58.0327 13.9557V21.8267C58.0327 22.0897 58.1364 22.3422 58.3212 22.5293L58.4746 22.6847C58.6625 22.8749 58.9187 22.982 59.1861 22.982H72.5245C72.7605 22.982 72.989 22.8985 73.1694 22.7463L73.4176 22.5369C73.6427 22.3468 73.7726 22.0672 73.7726 21.7726V14.009C73.7726 13.7294 73.6556 13.4626 73.4499 13.2733L73.1771 13.0221C72.9925 12.8521 72.7507 12.7578 72.4998 12.7578Z" stroke="#FFEA55" stroke-miterlimit="16" stroke-linecap="square" stroke-linejoin="round"/>
<path d="M51.1803 12.7578H50.4897C49.9375 12.7578 49.4897 13.2055 49.4897 13.7578V21.9148C49.4897 22.467 49.9375 22.9148 50.4897 22.9148H51.1803C51.7326 22.9148 52.1803 22.467 52.1803 21.9148V13.7578C52.1803 13.2055 51.7326 12.7578 51.1803 12.7578Z" stroke="#FFEA55" stroke-miterlimit="16" stroke-linecap="square" stroke-linejoin="round"/>
<path d="M55.4181 12.7578H54.7275C54.1753 12.7578 53.7275 13.2055 53.7275 13.7578V21.9148C53.7275 22.467 54.1753 22.9148 54.7275 22.9148H55.4181C55.9704 22.9148 56.4181 22.467 56.4181 21.9148V13.7578C56.4181 13.2055 55.9704 12.7578 55.4181 12.7578Z" stroke="#FFEA55" stroke-miterlimit="16" stroke-linecap="square" stroke-linejoin="round"/>
<path d="M85.0765 24.1661L82.6289 13.5995C82.5239 13.1462 82.12 12.8252 81.6547 12.8252H76.3138C76.0636 12.8252 75.8225 12.919 75.6381 13.088L75.442 13.2679C75.2353 13.4573 75.1177 13.7247 75.1177 14.005V25.4367C75.1177 25.5919 75.1538 25.745 75.2232 25.8839L75.6485 26.7343C75.8178 27.0731 76.1641 27.2871 76.5429 27.2871H82.0574C82.3095 27.2871 82.5522 27.1919 82.7371 27.0205L84.7821 25.1252C85.0451 24.8814 85.1574 24.5155 85.0765 24.1661Z" stroke="#FFEA55" stroke-miterlimit="16" stroke-linecap="square" stroke-linejoin="round"/>
<path d="M98.5304 10.3069L96.8327 12.0724C96.6531 12.2592 96.553 12.5085 96.5536 12.7676L96.5961 33.5021C96.5973 34.0535 97.0447 34.5 97.5961 34.5H104.249C104.346 34.5 104.43 34.5686 104.45 34.6643L104.589 35.3398C104.715 35.9579 104.939 36.5518 105.252 37.0996L105.271 37.1325C105.667 37.8246 106.201 38.4273 106.841 38.903L106.907 38.9519C107.394 39.3146 107.941 39.5908 108.522 39.7684L108.613 39.7963C109.055 39.9313 109.515 40 109.977 40C110.479 40 110.977 39.9191 111.453 39.7605L111.504 39.7434C111.988 39.5821 112.445 39.3476 112.858 39.0481L113.19 38.8077C113.76 38.3941 114.248 37.8777 114.629 37.2849C115.058 36.6176 115.342 35.8675 115.463 35.0834L115.532 34.6325C115.544 34.5563 115.61 34.5 115.687 34.5H135.378C135.452 34.5 135.514 34.5549 135.524 34.6283L135.572 35.0067C135.679 35.8402 135.97 36.6395 136.425 37.3464C136.78 37.8991 137.229 38.3857 137.751 38.7843L137.947 38.9333C138.438 39.3081 138.992 39.5924 139.582 39.7729L139.669 39.7994C140.104 39.9324 140.557 40 141.012 40C141.52 40 142.025 39.9156 142.506 39.7503L142.593 39.7206C143.019 39.5742 143.424 39.3724 143.797 39.1206L144.038 38.9579C144.795 38.4479 145.418 37.7644 145.856 36.9644C146.107 36.5055 146.294 36.0142 146.412 35.5043L146.601 34.6833C146.626 34.576 146.722 34.5 146.832 34.5H150.439C150.778 34.5 151.053 34.2253 151.053 33.8864V33.7955C151.053 33.5068 151.287 33.2727 151.575 33.2727H151.598C151.874 33.2727 152.098 33.0489 152.098 32.7727C152.098 32.4966 151.874 32.2727 151.598 32.2727H151.575C151.287 32.2727 151.053 32.0387 151.053 31.75V23.8783C151.053 23.5553 150.897 23.2522 150.634 23.0645L148.156 21.2943C147.971 21.1626 147.837 20.9723 147.775 20.7544L146.214 15.2716C146.092 14.8419 145.699 14.5455 145.252 14.5455H140.916C140.364 14.5455 139.916 14.0977 139.916 13.5455V12.7486C139.916 12.5008 139.824 12.2619 139.658 12.078L138.078 10.3295C137.888 10.1197 137.619 10 137.336 10H99.2512C98.9792 10 98.7189 10.1108 98.5304 10.3069Z" stroke="#FFEA55" stroke-miterlimit="16" stroke-linecap="square" stroke-linejoin="round"/>
<path d="M139.871 20.0909V18.7273C139.871 18.175 140.319 17.7273 140.871 17.7273H144.943C145.386 17.7273 145.776 18.0181 145.902 18.4423L146.307 19.806C146.498 20.4471 146.018 21.0909 145.349 21.0909H140.871C140.319 21.0909 139.871 20.6432 139.871 20.0909Z" stroke="#FFEA55" stroke-miterlimit="16" stroke-linecap="square" stroke-linejoin="round"/>
<path d="M190.1 20H173.309C173.017 20 172.74 20.1277 172.55 20.3495L162.339 32.2718C162.183 32.453 162.098 32.6837 162.098 32.9223V34.6609C162.098 34.9261 162.204 35.1804 162.391 35.368L163.067 36.0434C163.254 36.231 163.508 36.3363 163.774 36.3363H165.616C165.665 36.3363 165.707 36.3723 165.714 36.4208L165.751 36.6844C165.837 37.2846 166.065 37.8556 166.415 38.3503C166.736 38.804 167.153 39.1819 167.636 39.4578L167.917 39.6187C168.355 39.8686 168.85 40 169.353 40C169.872 40 170.382 39.8604 170.828 39.5957L171.032 39.4752C171.516 39.1881 171.93 38.7958 172.242 38.3272L172.338 38.1838C172.597 37.7954 172.794 37.3691 172.922 36.9202L173.057 36.4475C173.076 36.3817 173.136 36.3363 173.205 36.3363H194.613C194.67 36.3363 194.72 36.3757 194.733 36.4315L194.816 36.7791C194.945 37.3197 195.176 37.8307 195.497 38.2842L195.556 38.3665C195.87 38.8099 196.274 39.1822 196.741 39.4592L197.005 39.6157C197.43 39.8673 197.914 40 198.407 40C198.859 40 199.304 39.8889 199.702 39.6764L199.887 39.5776C200.544 39.2273 201.076 38.6813 201.409 38.0154L201.426 37.9809C201.553 37.7262 201.651 37.4577 201.717 37.1807L201.882 36.4881C201.903 36.3991 201.983 36.3363 202.074 36.3363H203.998C204.28 36.3363 204.549 36.2175 204.738 36.009L205.382 35.3011C205.549 35.117 205.642 34.8772 205.642 34.6284V30.1291C205.642 29.5768 205.194 29.1291 204.642 29.1291H196.378C196.016 29.1291 195.682 28.9333 195.506 28.6172L190.973 20.5119C190.796 20.1958 190.462 20 190.1 20Z" stroke="#FFEA55" stroke-miterlimit="16" stroke-linecap="square" stroke-linejoin="round"/>
<path d="M181.419 23.6038H173.93C173.37 23.6038 172.919 24.0647 172.931 24.6253L173.008 28.2108C173.019 28.7546 173.464 29.1893 174.008 29.1893H181.497C182.057 29.1893 182.508 28.7284 182.496 28.1678L182.419 24.5823C182.408 24.0385 181.963 23.6038 181.419 23.6038Z" stroke="#FFEA55" stroke-miterlimit="16" stroke-linecap="square" stroke-linejoin="round"/>
<path d="M190.579 23.7141L184.955 23.6203C184.405 23.6112 183.95 24.0484 183.939 24.5987L183.862 28.1618C183.85 28.7247 184.305 29.1866 184.868 29.1833L192.394 29.139C193.147 29.1346 193.625 28.3323 193.271 27.6685L191.444 24.2433C191.273 23.9228 190.942 23.7201 190.579 23.7141Z" stroke="#FFEA55" stroke-miterlimit="16" stroke-linecap="square" stroke-linejoin="round"/>
<g opacity="0.8">
<path d="M214.058 1H221.038L226 5.97603V12.9425L221.038 17.877H214.058L209.123 12.9425V5.97603L214.058 1Z" fill="url(#paint0_linear_147_3429)" stroke="#FFEA55"/>
<path d="M217.623 18V40" stroke="#FFEA55"/>
<path d="M217.099 7.19232H214.583V7.77285H215.551V11.6293H216.187V7.77285H217.099V7.19232Z" stroke="#FFEA55"/>
<path d="M221.439 11.6293V7.19232H222.689C222.804 7.19232 222.92 7.20717 223.032 7.23651L223.073 7.24722C223.314 7.31046 223.532 7.44831 223.694 7.63832C224.092 8.10554 224.081 8.80275 223.663 9.25165C223.519 9.40575 223.338 9.5196 223.136 9.58189L223.073 9.6014C222.934 9.64456 222.789 9.66651 222.643 9.66651H221.992V11.6293H221.439Z" stroke="#FFEA55"/>
<path d="M217.832 10.3902V8.44856C217.832 8.37603 217.838 8.30364 217.85 8.23218C218.093 6.83582 220.098 6.8416 220.343 8.23751C220.355 8.30536 220.362 8.37419 220.362 8.44308L220.383 10.3666C220.387 10.7303 220.234 11.08 219.966 11.3255C219.474 11.7755 218.715 11.7724 218.23 11.3146C217.976 11.0743 217.832 10.74 217.832 10.3902Z" stroke="#FFEA55"/>
<path d="M221.992 9.09976V7.71753H222.738C222.932 7.71753 223.119 7.80074 223.251 7.9436C223.497 8.21042 223.497 8.62656 223.245 8.88841C223.116 9.02343 222.937 9.09976 222.75 9.09976H221.992Z" stroke="#FFEA55"/>
<path d="M218.387 10.3797V8.38939C218.387 8.3484 218.391 8.30748 218.398 8.2671C218.535 7.47792 219.668 7.4798 219.806 8.26872C219.813 8.308 219.817 8.34783 219.817 8.38772L219.83 10.3675C219.832 10.5724 219.745 10.7694 219.594 10.9078C219.316 11.1621 218.886 11.1609 218.612 10.9021C218.469 10.7663 218.387 10.5774 218.387 10.3797Z" stroke="#FFEA55"/>
<path d="M213.892 7.8283L213.408 8.11857L213.404 8.11235C213.245 7.86937 212.965 7.73366 212.676 7.75919L212.498 7.79468C212.388 7.81671 212.285 7.86804 212.201 7.94224C212.064 8.0624 211.985 8.23663 211.985 8.41853V8.42606C211.985 8.53249 212.013 8.63703 212.066 8.72913C212.112 8.8094 212.177 8.87791 212.254 8.92936L212.281 8.94767C212.35 8.99359 212.426 9.02773 212.506 9.0487L212.754 9.11367C212.895 9.15049 213.031 9.20282 213.16 9.26972L213.229 9.3054C213.302 9.34342 213.371 9.38886 213.436 9.44102C214.058 9.9483 214.021 10.9111 213.361 11.3687L213.245 11.4486C213.152 11.5135 213.049 11.5632 212.94 11.5959C212.865 11.6182 212.789 11.6324 212.711 11.6384L212.58 11.6485C212.506 11.6542 212.431 11.6545 212.356 11.6494L212.316 11.6465C212.152 11.6352 211.991 11.5934 211.843 11.5232C211.663 11.4385 211.505 11.3143 211.38 11.16L211.335 11.1042L211.791 10.8139C211.949 10.9982 212.18 11.1042 212.422 11.1042H212.496L212.713 11.0771C212.789 11.0676 212.862 11.0438 212.929 11.0069C213.043 10.9444 213.133 10.8471 213.188 10.7293L213.242 10.6118C213.304 10.475 213.314 10.3197 213.269 10.1762C213.209 9.98688 213.06 9.83884 212.871 9.77987L212.551 9.68049L212.109 9.49773C211.981 9.44494 211.864 9.36902 211.764 9.27379C211.681 9.19522 211.611 9.10451 211.555 9.00479L211.552 8.9979C211.429 8.77696 211.381 8.52234 211.414 8.27181L211.418 8.24297L211.475 8.02676C211.536 7.79076 211.676 7.58243 211.87 7.43529C212.044 7.30409 212.253 7.22799 212.47 7.21685L212.676 7.2063L212.868 7.21697C213.069 7.22812 213.264 7.28714 213.437 7.3891C213.573 7.46924 213.693 7.5743 213.791 7.69878L213.892 7.8283Z" stroke="#FFEA55"/>
</g>
</g>
<defs>
<linearGradient id="paint0_linear_147_3429" x1="217.562" y1="1" x2="217.568" y2="26.8062" gradientUnits="userSpaceOnUse">
<stop stop-color="#151515"/>
<stop offset="1" stop-color="#2E3C4B"/>
</linearGradient>
</defs>
</svg>
