<svg width="159" height="1754" viewBox="0 0 159 1754" fill="none" xmlns="http://www.w3.org/2000/svg">
<rect width="157.632" height="1753.65" transform="translate(0.783203)" fill="#090A0D"/>
<path d="M132.143 16.4199H27.0549C21.6138 16.4199 17.2029 20.8308 17.2029 26.2719V131.36C17.2029 136.801 21.6138 141.212 27.0549 141.212H132.143C137.584 141.212 141.995 136.801 141.995 131.36V26.2719C141.995 20.8308 137.584 16.4199 132.143 16.4199Z" fill="url(#paint0_linear_296_998)" stroke="#CCD1D9" stroke-width="2.6272"/>
<path d="M140.422 123.422L80.1231 17.728L18.5137 123.422H140.422Z" stroke="#CCD1D9" stroke-width="2.6272"/>
<path d="M33.1948 104.847H61.7711" stroke="#CCD1D9" stroke-width="1.9704"/>
<path d="M76.1907 104.847H91.1342" stroke="#CCD1D9" stroke-width="1.9704"/>
<path d="M103.98 104.847H125.74" stroke="#CCD1D9" stroke-width="1.9704"/>
<path d="M68.5874 94.9052L78.5498 81.301L79.0742 80.2545L77.7633 67.4353L74.6173 73.1909L63.6063 82.3475L60.9846 77.9L71.4713 66.912L79.0742 50.1685L90.3474 55.9241L99.7854 66.1272V83.6556L94.0177 87.0566V70.3131L89.823 64.5575V77.9L92.1825 86.2718L107.126 115.573L98.7367 120.544H90.3474L98.7367 114.527L84.5797 89.4112L75.1416 100.922L69.3739 120.021L54.1682 118.451V115.573L63.6063 113.48L68.5874 94.9052Z" stroke="#CCD1D9" stroke-width="1.9704"/>
<path d="M83.8566 43.8899C83.8566 46.5225 81.7173 48.6603 79.0741 48.6603C76.4308 48.6603 74.2916 46.5225 74.2916 43.8899C74.2916 41.2572 76.4308 39.1195 79.0741 39.1195C81.7173 39.1195 83.8566 41.2572 83.8566 43.8899Z" stroke="#CCD1D9" stroke-width="1.9704"/>
<circle cx="79.5988" cy="256.152" r="60.7539" fill="url(#paint1_linear_296_998)" stroke="#FFEA55" stroke-width="3.284"/>
<path d="M79.3265 249.744L50.2615 220.483C49.0785 219.292 49.2238 217.33 50.5693 216.326L51.7194 215.468C53.7568 213.948 55.9341 212.625 58.2219 211.517C60.5032 210.412 62.8841 209.525 65.3326 208.869L67.662 208.245L69.8961 207.839C73.1226 207.253 76.3954 206.958 79.6748 206.958C83.1071 206.958 86.5317 207.281 89.9033 207.923L91.5964 208.245L97.3921 209.855L99.9725 210.951C103.462 212.433 106.755 214.341 109.777 216.631C110.889 217.475 110.999 219.106 110.011 220.092L80.2562 249.747C79.9989 250.003 79.5825 250.002 79.3265 249.744Z" stroke="#FFEA55" stroke-width="1.9704"/>
<path d="M80.1464 264.416L109.211 293.677C110.394 294.868 110.249 296.831 108.904 297.834L107.754 298.692C105.716 300.212 103.539 301.535 101.251 302.643C98.9697 303.749 96.5888 304.635 94.1403 305.291L91.8109 305.915L89.5768 306.321C86.3503 306.908 83.0775 307.203 79.7981 307.203C76.3658 307.203 72.9412 306.879 69.5696 306.237L67.8765 305.915L62.0808 304.305L59.5004 303.209C56.0107 301.727 52.7177 299.819 49.6963 297.529C48.584 296.686 48.4736 295.054 49.4622 294.068L79.2167 264.413C79.474 264.157 79.8904 264.158 80.1464 264.416Z" stroke="#FFEA55" stroke-width="1.9704"/>
<path d="M87.0719 256.668L116.326 227.596C117.516 226.413 119.479 226.557 120.483 227.902L121.341 229.052C122.862 231.089 124.185 233.266 125.294 235.554C126.4 237.835 127.287 240.216 127.943 242.664L128.568 244.993L128.975 247.227C129.562 250.453 129.858 253.726 129.859 257.006C129.86 260.438 129.537 263.863 128.896 267.234L128.574 268.928L126.966 274.724L125.87 277.304C124.389 280.794 122.482 284.088 120.193 287.11C119.35 288.222 117.718 288.333 116.732 287.345L87.0698 257.598C86.8133 257.341 86.8143 256.924 87.0719 256.668Z" stroke="#FFEA55" stroke-width="1.9704"/>
<path d="M72.401 257.492L43.1471 286.565C41.9565 287.748 39.9941 287.603 38.9899 286.258L38.1316 285.108C36.6111 283.071 35.2875 280.894 34.1788 278.607C33.0732 276.326 32.1862 273.945 31.5297 271.497L30.9052 269.168L30.4984 266.934C29.9109 263.707 29.6149 260.434 29.6141 257.155C29.6132 253.723 29.9355 250.298 30.5769 246.926L30.8989 245.233L32.5074 239.437L33.6024 236.856C35.0835 233.366 36.9905 230.073 39.2801 227.051C40.123 225.938 41.7548 225.827 42.7404 226.816L72.4031 256.563C72.6596 256.82 72.6586 257.236 72.401 257.492Z" stroke="#FFEA55" stroke-width="1.9704"/>
<circle cx="79.5988" cy="433.487" r="60.7539" fill="url(#paint2_linear_296_998)" stroke="#CCD1D9" stroke-width="3.284"/>
<path d="M130.822 418.249H28.0592C27.0766 418.249 26.2441 418.973 26.1079 419.946L25.4455 424.677C24.5532 431.051 24.6025 437.52 25.5917 443.879L26.0861 447.058C26.2354 448.017 27.0618 448.725 28.0331 448.725H130.838C131.811 448.725 132.639 448.014 132.786 447.051L133.319 443.547C134.285 437.195 134.315 430.737 133.406 424.377L132.773 419.941C132.634 418.97 131.802 418.249 130.822 418.249Z" stroke="#CCD1D9" stroke-width="2.6272"/>
<path d="M17.2029 551.711C17.2029 549.898 18.6732 548.427 20.4869 548.427H138.711C140.524 548.427 141.995 549.898 141.995 551.711V669.935C141.995 671.749 140.524 673.219 138.711 673.219H20.4869C18.6732 673.219 17.2029 671.749 17.2029 669.935V551.711Z" fill="url(#paint3_linear_296_998)" stroke="#CCD1D9" stroke-width="2.6272"/>
<path d="M97.8939 565.206H48.4666V656.178H64.7552V629.175H97.814C98.3673 629.175 98.9193 629.12 99.462 629.012C104.729 627.961 109.178 624.461 111.44 619.59L111.941 618.512C112.528 617.247 112.833 615.868 112.833 614.472V579.625C112.053 572.47 106.667 566.676 99.587 565.379L99.3858 565.342C98.8936 565.251 98.3943 565.206 97.8939 565.206Z" stroke="#CCD1D9" stroke-width="2.6272"/>
<path d="M93.917 581.46H65.2805V612.921H93.917L96.2814 610.561V583.558L93.917 581.46Z" stroke="#CCD1D9" stroke-width="2.6272"/>
<path d="M130.961 838.565H28.5372L27.5301 838.469C22.5358 837.99 19.5599 832.667 21.7672 828.162L74.6529 741.485C74.7737 741.287 74.9258 741.11 75.1034 740.961C77.3978 739.034 80.6517 738.748 83.2472 740.244L84.2913 740.846C84.6782 741.069 85.0026 741.386 85.2345 741.767L137.731 828.162C139.82 832.726 136.794 837.991 131.798 838.483L130.961 838.565Z" fill="url(#paint4_linear_296_998)" stroke="#FFEA55" stroke-width="1.9704"/>
<path d="M132.853 828.872L83.1336 745.972C81.5004 743.346 77.6967 743.293 75.9918 745.873L75.9268 745.972L25.6997 829.003C25.1507 829.911 25.077 831.028 25.5019 832C25.7715 832.617 26.2249 833.135 26.8001 833.483L27.1924 833.721C27.9289 834.168 28.7739 834.404 29.6353 834.404H129.835C130.567 834.404 131.28 834.175 131.876 833.75C132.419 833.362 132.84 832.827 133.09 832.208L133.11 832.157C133.544 831.082 133.449 829.866 132.853 828.872Z" stroke="#FFEA55" stroke-width="1.9704"/>
<path d="M91.1026 775.102C91.1026 776.812 89.6336 778.278 87.72 778.278C85.8065 778.278 84.3375 776.812 84.3375 775.102C84.3375 773.392 85.8065 771.926 87.72 771.926C89.6336 771.926 91.1026 773.392 91.1026 775.102Z" stroke="#FFEA55" stroke-width="1.9704"/>
<path d="M86.4095 779.472L79.6395 775.727L59.9846 779.472L56.4904 790.5L54.0882 789.252L52.7778 791.124L55.8353 792.789L55.1801 793.829L58.6743 795.494L59.1111 794.453L60.6398 795.494L53.6514 832.323H66.973L60.4214 826.289L66.973 804.857L73.0878 813.805V832.323H86.4095L79.6395 826.289V813.805L73.5246 802.568L80.9498 806.314V807.978L86.4095 810.891V809.435L96.6736 814.845L94.2714 818.59L104.972 824.624L110.65 815.469L100.168 809.851L97.984 812.972L86.4095 807.146V779.472Z" stroke="#FFEA55" stroke-width="1.9704"/>
<path d="M80.9499 804.441V789.459L71.3408 797.783L72.2144 799.655L80.9499 804.441Z" stroke="#FFEA55" stroke-width="1.9704"/>
<path d="M61.9501 793.621L59.9846 792.581L65.4443 783.217H72.4327L61.9501 793.621Z" stroke="#FFEA55" stroke-width="1.9704"/>
<path d="M130.428 831.282L117.268 813.044C117.015 812.693 116.497 812.679 116.225 813.016L101.471 831.253C101.123 831.683 101.429 832.323 101.981 832.323H129.895C130.431 832.323 130.741 831.716 130.428 831.282Z" stroke="#FFEA55" stroke-width="1.9704"/>
<path d="M49.3576 830.946L40.0784 823.492C39.8417 823.302 39.5055 823.298 39.2654 823.484L29.6222 830.938C29.1267 831.321 29.3976 832.115 30.0239 832.115H48.9463C49.5665 832.115 49.8411 831.334 49.3576 830.946Z" stroke="#FFEA55" stroke-width="1.9704"/>
<circle cx="79.5988" cy="965.495" r="60.7539" fill="url(#paint5_linear_296_998)" stroke="#CCD1D9" stroke-width="3.284"/>
<path d="M127.628 965.753C127.593 992.404 105.959 1013.98 79.3074 1013.95C52.6556 1013.91 31.0785 992.277 31.1135 965.626C31.1486 938.975 52.7825 917.398 79.4343 917.433C106.086 917.468 127.663 939.101 127.628 965.753Z" stroke="#CCD1D9" stroke-width="3.284"/>
<path d="M53.6899 1080.43H105.303L141.995 1117.23V1168.74L105.303 1205.23H53.6899L17.2029 1168.74V1117.23L53.6899 1080.43Z" fill="url(#paint6_linear_296_998)" stroke="#CCD1D9" stroke-width="3.284"/>
<path d="M103.77 1084.62H55.5296L21.291 1118.97V1167.1L55.5296 1200.93H103.77L137.906 1167.1V1118.97L103.77 1084.62Z" stroke="#CCD1D9" stroke-width="3.284"/>
<path d="M76.1747 1126.22H57.5735V1130.51H64.7278V1159.03H69.4292V1130.51H76.1747V1126.22Z" stroke="#CCD1D9" stroke-width="3.284"/>
<path d="M108.267 1159.03V1126.22H117.504C118.361 1126.22 119.213 1126.33 120.042 1126.55L120.344 1126.63C122.129 1127.1 123.741 1128.12 124.938 1129.52C127.881 1132.97 127.803 1138.13 124.708 1141.45C123.646 1142.59 122.304 1143.43 120.815 1143.89L120.349 1144.04C119.318 1144.35 118.245 1144.52 117.166 1144.52H112.355V1159.03H108.267Z" stroke="#CCD1D9" stroke-width="3.284"/>
<path d="M81.5916 1149.87V1135.51C81.5916 1134.97 81.6377 1134.44 81.7295 1133.91C83.5225 1123.59 98.3503 1123.63 100.163 1133.95C100.251 1134.45 100.298 1134.96 100.303 1135.47L100.454 1149.69C100.483 1152.38 99.3534 1154.97 97.3691 1156.78C93.7324 1160.11 88.1189 1160.09 84.5365 1156.7C82.6567 1154.93 81.5916 1152.45 81.5916 1149.87Z" stroke="#CCD1D9" stroke-width="3.284"/>
<path d="M112.355 1140.33V1130.11H117.869C119.306 1130.11 120.69 1130.72 121.663 1131.78C123.481 1133.75 123.479 1136.83 121.622 1138.76C120.664 1139.76 119.341 1140.33 117.957 1140.33H112.355Z" stroke="#CCD1D9" stroke-width="3.284"/>
<path d="M85.7024 1149.79V1135.07C85.7024 1134.77 85.7285 1134.47 85.7803 1134.17C86.7937 1128.33 95.172 1128.35 96.1962 1134.18C96.2472 1134.47 96.2739 1134.77 96.2758 1135.06L96.3727 1149.7C96.3827 1151.21 95.7415 1152.67 94.6236 1153.69C92.5683 1155.57 89.3914 1155.57 87.3668 1153.65C86.3044 1152.65 85.7024 1151.25 85.7024 1149.79Z" stroke="#CCD1D9" stroke-width="3.284"/>
<path d="M52.4633 1130.92L48.8861 1133.07L48.856 1133.02C47.6789 1131.23 45.6089 1130.22 43.4693 1130.41L42.1572 1130.67C41.3429 1130.84 40.5802 1131.22 39.9568 1131.77C38.9471 1132.65 38.359 1133.94 38.359 1135.29V1135.34C38.359 1136.13 38.5667 1136.9 38.9609 1137.58C39.3046 1138.18 39.7801 1138.68 40.3507 1139.06L40.5538 1139.2C41.063 1139.54 41.6252 1139.79 42.2172 1139.95L44.0515 1140.43C45.091 1140.7 46.097 1141.09 47.0509 1141.58L47.5597 1141.85C48.1019 1142.13 48.6137 1142.46 49.0872 1142.85C53.6928 1146.6 53.4169 1153.72 48.5348 1157.1L47.682 1157.69C46.9901 1158.17 46.2269 1158.54 45.4205 1158.78C44.8708 1158.95 44.3049 1159.05 43.7326 1159.1L42.7632 1159.17C42.2126 1159.21 41.6597 1159.22 41.1088 1159.18L40.8068 1159.16C39.5944 1159.07 38.4083 1158.76 37.3094 1158.24C35.9822 1157.62 34.8133 1156.7 33.8898 1155.56L33.5554 1155.15L36.9282 1153C38.0958 1154.36 39.8005 1155.15 41.5947 1155.15H42.1406L43.7432 1154.95C44.305 1154.88 44.8483 1154.7 45.3444 1154.43C46.1843 1153.96 46.8536 1153.24 47.2538 1152.37L47.6529 1151.51C48.1177 1150.49 48.1894 1149.35 47.8542 1148.28C47.4122 1146.88 46.3129 1145.79 44.9114 1145.35L42.5494 1144.62L39.2777 1143.27C38.3327 1142.88 37.4678 1142.32 36.7266 1141.61C36.115 1141.03 35.5955 1140.36 35.1859 1139.62L35.1576 1139.57C34.25 1137.94 33.8932 1136.06 34.1402 1134.2L34.1686 1133.99L34.5874 1132.39C35.0444 1130.65 36.0753 1129.11 37.5142 1128.02C38.7973 1127.05 40.3421 1126.48 41.9486 1126.4L43.4693 1126.32L44.8894 1126.4C46.374 1126.49 47.8173 1126.92 49.099 1127.68C50.1064 1128.27 50.9934 1129.05 51.7138 1129.97L52.4633 1130.92Z" stroke="#CCD1D9" stroke-width="3.284"/>
<path d="M130.961 1370.57H28.5372L27.5301 1370.48C22.5358 1370 19.5599 1364.67 21.7672 1360.17L74.6529 1273.49C74.7737 1273.29 74.9258 1273.12 75.1034 1272.97C77.3978 1271.04 80.6517 1270.76 83.2472 1272.25L84.2913 1272.85C84.6782 1273.08 85.0026 1273.39 85.2345 1273.77L137.731 1360.17C139.82 1364.73 136.794 1370 131.798 1370.49L130.961 1370.57Z" fill="url(#paint7_linear_296_998)" stroke="#FFEA55" stroke-width="1.9704"/>
<path d="M132.853 1360.88L83.1336 1277.98C81.5004 1275.35 77.6967 1275.3 75.9918 1277.88L75.9268 1277.98L25.6997 1361.01C25.1507 1361.92 25.077 1363.04 25.5019 1364.01C25.7715 1364.62 26.2249 1365.14 26.8001 1365.49L27.1924 1365.73C27.9289 1366.18 28.7739 1366.41 29.6353 1366.41H129.835C130.567 1366.41 131.28 1366.18 131.876 1365.76C132.419 1365.37 132.84 1364.83 133.09 1364.22L133.11 1364.16C133.544 1363.09 133.449 1361.87 132.853 1360.88Z" stroke="#FFEA55" stroke-width="1.9704"/>
<path d="M91.1026 1307.11C91.1026 1308.82 89.6336 1310.29 87.72 1310.29C85.8065 1310.29 84.3375 1308.82 84.3375 1307.11C84.3375 1305.4 85.8065 1303.93 87.72 1303.93C89.6336 1303.93 91.1026 1305.4 91.1026 1307.11Z" stroke="#FFEA55" stroke-width="1.9704"/>
<path d="M86.4095 1311.48L79.6395 1307.73L59.9846 1311.48L56.4904 1322.51L54.0882 1321.26L52.7778 1323.13L55.8353 1324.8L55.1801 1325.84L58.6743 1327.5L59.1111 1326.46L60.6398 1327.5L53.6514 1364.33H66.973L60.4214 1358.3L66.973 1336.86L73.0878 1345.81V1364.33H86.4095L79.6395 1358.3V1345.81L73.5246 1334.58L80.9498 1338.32V1339.99L86.4095 1342.9V1341.44L96.6736 1346.85L94.2714 1350.6L104.972 1356.63L110.65 1347.48L100.168 1341.86L97.984 1344.98L86.4095 1339.15V1311.48Z" stroke="#FFEA55" stroke-width="1.9704"/>
<path d="M80.9499 1336.45V1321.47L71.3408 1329.79L72.2144 1331.66L80.9499 1336.45Z" stroke="#FFEA55" stroke-width="1.9704"/>
<path d="M61.9501 1325.63L59.9846 1324.59L65.4443 1315.22H72.4327L61.9501 1325.63Z" stroke="#FFEA55" stroke-width="1.9704"/>
<path d="M130.428 1363.29L117.268 1345.05C117.015 1344.7 116.497 1344.69 116.225 1345.02L101.471 1363.26C101.123 1363.69 101.429 1364.33 101.981 1364.33H129.895C130.431 1364.33 130.741 1363.72 130.428 1363.29Z" stroke="#FFEA55" stroke-width="1.9704"/>
<path d="M49.3576 1362.95L40.0784 1355.5C39.8417 1355.31 39.5055 1355.31 39.2654 1355.49L29.6222 1362.95C29.1267 1363.33 29.3976 1364.12 30.0239 1364.12H48.9463C49.5665 1364.12 49.8411 1363.34 49.3576 1362.95Z" stroke="#FFEA55" stroke-width="1.9704"/>
<circle cx="79.5988" cy="1497.5" r="60.7539" fill="url(#paint8_linear_296_998)" stroke="#CCD1D9" stroke-width="3.284"/>
<path d="M95.0665 1460.01V1478.89H76.619C72.8774 1478.89 69.1755 1479.66 65.7418 1481.14C57.9477 1484.51 52.16 1491.31 50.0744 1499.55L49.4063 1502.18C48.7384 1504.82 48.4006 1507.53 48.4006 1510.25V1544.43H66.7524V1508.29C66.7524 1506.88 67.0277 1505.48 67.563 1504.17C68.5615 1501.73 70.412 1499.74 72.7708 1498.56L72.9761 1498.45C74.5727 1497.66 76.3332 1497.24 78.1183 1497.24H95.0665V1516.12L132.819 1488.33L95.0665 1460.01Z" stroke="#CCD1D9" stroke-width="2.6272"/>
<path d="M22.6998 1613.15C23.8026 1612.68 24.9891 1612.44 26.1855 1612.44H133.108C133.946 1612.44 134.78 1612.56 135.584 1612.79V1612.79C139.382 1613.9 141.995 1617.43 141.995 1621.39V1621.39C141.995 1622.83 141.647 1624.27 140.981 1625.55L86.5971 1730.17C86.1407 1731.05 85.5247 1731.84 84.7808 1732.49L84.6829 1732.58C81.6659 1735.22 77.1361 1735.16 74.1955 1732.43V1732.43C73.537 1731.82 72.9888 1731.09 72.5748 1730.3L18.2111 1625.55C17.5487 1624.27 17.2029 1622.85 17.2029 1621.42V1621.42C17.2029 1617.81 19.3731 1614.55 22.6998 1613.15V1613.15Z" fill="url(#paint9_linear_296_998)" stroke="#FFEA55" stroke-width="3.284"/>
<path d="M133.155 1617.47H25.8891C25.2499 1617.47 24.6196 1617.62 24.0488 1617.91C22.7341 1618.57 21.8765 1619.89 21.8027 1621.36L21.7983 1621.45C21.7604 1622.2 21.925 1622.95 22.275 1623.62L76.5581 1727.58C77.9865 1729.95 81.4049 1730.02 82.9226 1727.7L83.0019 1727.58L137.117 1623.25C137.341 1622.82 137.483 1622.35 137.534 1621.86C137.746 1619.84 136.364 1617.99 134.361 1617.62L133.946 1617.54C133.685 1617.49 133.42 1617.47 133.155 1617.47Z" stroke="#FFEA55" stroke-width="3.284"/>
<defs>
<linearGradient id="paint0_linear_296_998" x1="79.5988" y1="16.4199" x2="79.6499" y2="207.236" gradientUnits="userSpaceOnUse">
<stop stop-color="#1A1914"/>
<stop offset="1" stop-color="#3C3A31"/>
</linearGradient>
<linearGradient id="paint1_linear_296_998" x1="79.5988" y1="193.756" x2="79.6499" y2="384.572" gradientUnits="userSpaceOnUse">
<stop stop-color="#151515"/>
<stop offset="1" stop-color="#2E3C4B"/>
</linearGradient>
<linearGradient id="paint2_linear_296_998" x1="79.5988" y1="371.091" x2="79.6499" y2="561.907" gradientUnits="userSpaceOnUse">
<stop stop-color="#1A1914"/>
<stop offset="1" stop-color="#3C3A31"/>
</linearGradient>
<linearGradient id="paint3_linear_296_998" x1="79.5988" y1="548.427" x2="79.6499" y2="739.243" gradientUnits="userSpaceOnUse">
<stop stop-color="#1A1914"/>
<stop offset="1" stop-color="#3C3A31"/>
</linearGradient>
<linearGradient id="paint4_linear_296_998" x1="79.5988" y1="737.752" x2="79.6322" y2="891.903" gradientUnits="userSpaceOnUse">
<stop stop-color="#151515"/>
<stop offset="1" stop-color="#2E3C4B"/>
</linearGradient>
<linearGradient id="paint5_linear_296_998" x1="79.5988" y1="903.099" x2="79.6499" y2="1093.92" gradientUnits="userSpaceOnUse">
<stop stop-color="#1A1914"/>
<stop offset="1" stop-color="#3C3A31"/>
</linearGradient>
<linearGradient id="paint6_linear_296_998" x1="79.5988" y1="1080.43" x2="79.6499" y2="1271.25" gradientUnits="userSpaceOnUse">
<stop stop-color="#1A1914"/>
<stop offset="1" stop-color="#3C3A31"/>
</linearGradient>
<linearGradient id="paint7_linear_296_998" x1="79.5988" y1="1269.76" x2="79.6322" y2="1423.91" gradientUnits="userSpaceOnUse">
<stop stop-color="#151515"/>
<stop offset="1" stop-color="#2E3C4B"/>
</linearGradient>
<linearGradient id="paint8_linear_296_998" x1="79.5988" y1="1435.11" x2="79.6499" y2="1625.92" gradientUnits="userSpaceOnUse">
<stop stop-color="#1A1914"/>
<stop offset="1" stop-color="#3C3A31"/>
</linearGradient>
<linearGradient id="paint9_linear_296_998" x1="79.5988" y1="1612.44" x2="79.6499" y2="1803.26" gradientUnits="userSpaceOnUse">
<stop stop-color="#151515"/>
<stop offset="1" stop-color="#2E3C4B"/>
</linearGradient>
</defs>
</svg>
