<svg width="158" height="1754" viewBox="0 0 158 1754" fill="none" xmlns="http://www.w3.org/2000/svg">
<rect width="157.632" height="1753.65" fill="#090A0D"/>
<circle cx="78.8161" cy="78.8158" r="60.7539" fill="url(#paint0_linear_296_871)" stroke="#CCD1D9" stroke-width="3.284"/>
<path d="M130.04 63.5776H27.277C26.2943 63.5776 25.4619 64.3017 25.3256 65.2748L24.6633 70.006C23.771 76.3792 23.8203 82.849 24.8094 89.2079L25.3038 92.3863C25.4531 93.346 26.2795 94.0538 27.2508 94.0538H130.055C131.029 94.0538 131.857 93.3425 132.003 92.3798L132.537 88.8753C133.503 82.5241 133.533 76.0654 132.624 69.7057L131.99 65.2694C131.852 64.2987 131.02 63.5776 130.04 63.5776Z" stroke="#CCD1D9" stroke-width="2.6272"/>
<path d="M16.4204 197.04C16.4204 195.226 17.8907 193.756 19.7044 193.756H137.928C139.742 193.756 141.212 195.226 141.212 197.04V315.264C141.212 317.077 139.742 318.548 137.928 318.548H19.7044C17.8907 318.548 16.4204 317.077 16.4204 315.264V197.04Z" fill="url(#paint1_linear_296_871)" stroke="#CCD1D9" stroke-width="2.6272"/>
<path d="M97.1117 210.535H47.6843V301.507H63.9729V274.504H97.0317C97.5851 274.504 98.1371 274.449 98.6798 274.341C103.946 273.29 108.396 269.79 110.658 264.919L111.158 263.841C111.746 262.575 112.051 261.197 112.051 259.801V224.954C111.271 217.799 105.885 212.005 98.8048 210.707L98.6036 210.67C98.1114 210.58 97.6121 210.535 97.1117 210.535Z" stroke="#CCD1D9" stroke-width="2.6272"/>
<path d="M93.135 226.789H64.4985V258.249H93.135L95.4995 255.89V228.886L93.135 226.789Z" stroke="#CCD1D9" stroke-width="2.6272"/>
<path d="M131.36 371.091H26.2724C20.8313 371.091 16.4204 375.502 16.4204 380.943V486.031C16.4204 491.472 20.8313 495.883 26.2724 495.883H131.36C136.801 495.883 141.212 491.472 141.212 486.031V380.943C141.212 375.502 136.801 371.091 131.36 371.091Z" fill="url(#paint2_linear_296_871)" stroke="#CCD1D9" stroke-width="2.6272"/>
<path d="M139.639 478.093L79.3409 372.399L17.7314 478.093H139.639Z" stroke="#CCD1D9" stroke-width="2.6272"/>
<path d="M32.4128 459.518H60.9891" stroke="#CCD1D9" stroke-width="1.9704"/>
<path d="M75.4082 459.518H90.3518" stroke="#CCD1D9" stroke-width="1.9704"/>
<path d="M103.198 459.518H124.958" stroke="#CCD1D9" stroke-width="1.9704"/>
<path d="M67.8052 449.577L77.7676 435.972L78.2919 434.926L76.9811 422.107L73.8351 427.862L62.824 437.019L60.2023 432.571L70.6891 421.583L78.2919 404.84L89.5651 410.595L99.0032 420.799V438.327L93.2355 441.728V424.984L89.0408 419.229V432.571L91.4003 440.943L106.344 470.244L97.9545 475.215H89.5651L97.9545 469.198L83.7974 444.083L74.3594 455.594L68.5917 474.692L53.386 473.122V470.244L62.824 468.151L67.8052 449.577Z" stroke="#CCD1D9" stroke-width="1.9704"/>
<path d="M83.0746 398.561C83.0746 401.194 80.9354 403.332 78.2921 403.332C75.6489 403.332 73.5096 401.194 73.5096 398.561C73.5096 395.929 75.6489 393.791 78.2921 393.791C80.9354 393.791 83.0746 395.929 83.0746 398.561Z" stroke="#CCD1D9" stroke-width="1.9704"/>
<path d="M130.178 661.23H27.7547L26.7476 661.133C21.7533 660.654 18.7774 655.332 20.9847 650.826L73.8704 564.149C73.9912 563.951 74.1433 563.774 74.3209 563.625C76.6153 561.699 79.8692 561.413 82.4647 562.909L83.5088 563.51C83.8957 563.733 84.2202 564.05 84.452 564.432L136.948 650.826C139.037 655.391 136.012 660.655 131.016 661.147L130.178 661.23Z" fill="url(#paint3_linear_296_871)" stroke="#FFEA55" stroke-width="1.9704"/>
<path d="M132.071 651.537L82.3521 568.636C80.7189 566.01 76.9152 565.958 75.2103 568.538L75.1453 568.636L24.9182 651.668C24.3692 652.575 24.2955 653.693 24.7204 654.665C24.99 655.281 25.4434 655.799 26.0186 656.148L26.4109 656.386C27.1475 656.832 27.9924 657.069 28.8538 657.069H129.054C129.785 657.069 130.499 656.84 131.094 656.414C131.638 656.026 132.059 655.491 132.309 654.872L132.329 654.822C132.763 653.747 132.667 652.531 132.071 651.537Z" stroke="#FFEA55" stroke-width="1.9704"/>
<path d="M90.3206 597.767C90.3206 599.476 88.8516 600.943 86.9381 600.943C85.0245 600.943 83.5555 599.476 83.5555 597.767C83.5555 596.057 85.0245 594.59 86.9381 594.59C88.8516 594.59 90.3206 596.057 90.3206 597.767Z" stroke="#FFEA55" stroke-width="1.9704"/>
<path d="M85.6275 602.136L78.8575 598.391L59.2026 602.136L55.7084 613.165L53.3062 611.916L51.9958 613.789L55.0533 615.453L54.3981 616.494L57.8923 618.158L58.3291 617.118L59.8578 618.158L52.8694 654.988H66.191L59.6394 648.954L66.191 627.522L72.3059 636.469V654.988H85.6275L78.8575 648.954V636.469L72.7426 625.233L80.1678 628.978V630.643L85.6275 633.556V632.099L95.8917 637.509L93.4894 641.255L104.19 647.289L109.868 638.134L99.3859 632.516L97.202 635.637L85.6275 629.811V602.136Z" stroke="#FFEA55" stroke-width="1.9704"/>
<path d="M80.1679 627.106V612.124L70.5588 620.447L71.4324 622.32L80.1679 627.106Z" stroke="#FFEA55" stroke-width="1.9704"/>
<path d="M61.1686 616.286L59.2031 615.245L64.6628 605.882H71.6512L61.1686 616.286Z" stroke="#FFEA55" stroke-width="1.9704"/>
<path d="M129.646 653.946L116.486 635.709C116.233 635.358 115.715 635.344 115.443 635.68L100.688 653.918C100.341 654.347 100.647 654.988 101.199 654.988H129.113C129.649 654.988 129.959 654.381 129.646 653.946Z" stroke="#FFEA55" stroke-width="1.9704"/>
<path d="M48.5756 653.61L39.2964 646.156C39.0597 645.966 38.7236 645.963 38.4834 646.149L28.8402 653.603C28.3447 653.986 28.6156 654.779 29.2419 654.779H48.1643C48.7845 654.779 49.0591 653.999 48.5756 653.61Z" stroke="#FFEA55" stroke-width="1.9704"/>
<circle cx="78.8163" cy="788.159" r="60.7539" fill="url(#paint4_linear_296_871)" stroke="#FFEA55" stroke-width="3.284"/>
<path d="M78.5445 781.751L49.4795 752.49C48.2965 751.299 48.4418 749.336 49.7873 748.333L50.9374 747.475C52.9749 745.955 55.1521 744.632 57.4399 743.524C59.7212 742.418 62.1021 741.532 64.5507 740.876L66.88 740.252L69.1141 739.846C72.3406 739.259 75.6134 738.964 78.8929 738.964C82.3251 738.964 85.7497 739.288 89.1213 739.93L90.8144 740.252L96.6102 741.862L99.1905 742.958C102.68 744.44 105.973 746.348 108.995 748.638C110.107 749.481 110.217 751.113 109.229 752.099L79.4742 781.754C79.2169 782.01 78.8005 782.009 78.5445 781.751Z" stroke="#FFEA55" stroke-width="1.9704"/>
<path d="M79.3642 796.423L108.429 825.685C109.612 826.876 109.467 828.838 108.121 829.842L106.971 830.7C104.934 832.22 102.757 833.543 100.469 834.651C98.1875 835.756 95.8066 836.642 93.358 837.298L91.0287 837.922L88.7946 838.328C85.5681 838.915 82.2953 839.21 79.0158 839.21C75.5836 839.21 72.159 838.887 68.7874 838.244L67.0943 837.922L61.2985 836.312L58.7182 835.216C55.2285 833.734 51.9354 831.826 48.9141 829.536C47.8018 828.693 47.6914 827.061 48.68 826.076L78.4345 796.421C78.6917 796.164 79.1082 796.165 79.3642 796.423Z" stroke="#FFEA55" stroke-width="1.9704"/>
<path d="M86.2904 788.676L115.544 759.603C116.735 758.42 118.697 758.565 119.701 759.91L120.56 761.06C122.08 763.097 123.404 765.274 124.513 767.561C125.618 769.842 126.505 772.223 127.162 774.671L127.786 777L128.193 779.234C128.781 782.461 129.076 785.734 129.077 789.013C129.078 792.445 128.756 795.87 128.115 799.242L127.792 800.935L126.184 806.731L125.089 809.312C123.608 812.802 121.701 816.095 119.411 819.117C118.568 820.23 116.937 820.341 115.951 819.352L86.2883 789.605C86.0318 789.348 86.0328 788.932 86.2904 788.676Z" stroke="#FFEA55" stroke-width="1.9704"/>
<path d="M71.6188 789.5L42.3649 818.572C41.1743 819.755 39.2118 819.611 38.2077 818.265L37.3494 817.116C35.8288 815.078 34.5053 812.902 33.3966 810.614C32.291 808.333 31.404 805.952 30.7475 803.504L30.1229 801.175L29.7162 798.941C29.1287 795.714 28.8327 792.442 28.8319 789.162C28.831 785.73 29.1533 782.305 29.7947 778.934L30.1167 777.24L31.7251 771.444L32.8202 768.864C34.3013 765.374 36.2083 762.08 38.4979 759.058C39.3408 757.946 40.9726 757.835 41.9582 758.823L71.6209 788.57C71.8773 788.827 71.8764 789.244 71.6188 789.5Z" stroke="#FFEA55" stroke-width="1.9704"/>
<circle cx="78.8163" cy="965.495" r="60.7539" fill="url(#paint5_linear_296_871)" stroke="#CCD1D9" stroke-width="3.284"/>
<path d="M126.846 965.752C126.811 992.404 105.177 1013.98 78.5255 1013.95C51.8737 1013.91 30.2965 992.277 30.3316 965.625C30.3666 938.974 52.0005 917.397 78.6523 917.432C105.304 917.467 126.881 939.101 126.846 965.752Z" stroke="#CCD1D9" stroke-width="3.284"/>
<path d="M52.9075 1080.43H104.521L141.212 1117.23V1168.74L104.521 1205.23H52.9075L16.4204 1168.74V1117.23L52.9075 1080.43Z" fill="url(#paint6_linear_296_871)" stroke="#CCD1D9" stroke-width="3.284"/>
<path d="M102.988 1084.62H54.7476L20.509 1118.97V1167.1L54.7476 1200.93H102.988L137.125 1167.1V1118.97L102.988 1084.62Z" stroke="#CCD1D9" stroke-width="3.284"/>
<path d="M75.3923 1126.22H56.791V1130.51H63.9453V1159.03H68.6468V1130.51H75.3923V1126.22Z" stroke="#CCD1D9" stroke-width="3.284"/>
<path d="M107.485 1159.03V1126.22H116.722C117.578 1126.22 118.431 1126.33 119.259 1126.55L119.562 1126.63C121.347 1127.1 122.959 1128.12 124.156 1129.52C127.099 1132.97 127.021 1138.13 123.926 1141.45C122.863 1142.59 121.521 1143.43 120.033 1143.89L119.567 1144.04C118.536 1144.35 117.463 1144.52 116.383 1144.52H111.573V1159.03H107.485Z" stroke="#CCD1D9" stroke-width="3.284"/>
<path d="M80.8091 1149.87V1135.51C80.8091 1134.97 80.8552 1134.44 80.947 1133.91C82.7401 1123.59 97.5679 1123.63 99.3801 1133.95C99.4681 1134.45 99.5153 1134.96 99.5207 1135.47L99.672 1149.69C99.7006 1152.38 98.5709 1154.97 96.5867 1156.78C92.95 1160.11 87.3364 1160.09 83.754 1156.7C81.8743 1154.93 80.8091 1152.45 80.8091 1149.87Z" stroke="#CCD1D9" stroke-width="3.284"/>
<path d="M111.573 1140.33V1130.11H117.086C118.523 1130.11 119.907 1130.72 120.881 1131.78C122.699 1133.75 122.696 1136.83 120.839 1138.76C119.881 1139.76 118.558 1140.33 117.175 1140.33H111.573Z" stroke="#CCD1D9" stroke-width="3.284"/>
<path d="M84.9202 1149.79V1135.07C84.9202 1134.77 84.9462 1134.47 84.9981 1134.17C86.0115 1128.33 94.3898 1128.35 95.414 1134.18C95.465 1134.47 95.4916 1134.77 95.4936 1135.06L95.5904 1149.7C95.6005 1151.21 94.9593 1152.67 93.8414 1153.69C91.7861 1155.57 88.6092 1155.57 86.5845 1153.65C85.5222 1152.65 84.9202 1151.25 84.9202 1149.79Z" stroke="#CCD1D9" stroke-width="3.284"/>
<path d="M51.6808 1130.92L48.1036 1133.07L48.0735 1133.02C46.8964 1131.23 44.8264 1130.22 42.6868 1130.41L41.3747 1130.67C40.5604 1130.84 39.7978 1131.22 39.1743 1131.77C38.1647 1132.65 37.5766 1133.94 37.5766 1135.29V1135.34C37.5766 1136.13 37.7842 1136.9 38.1785 1137.58C38.5221 1138.18 38.9976 1138.68 39.5683 1139.06L39.7714 1139.2C40.2806 1139.54 40.8427 1139.79 41.4347 1139.95L43.2691 1140.43C44.3085 1140.7 45.3145 1141.09 46.2684 1141.58L46.7773 1141.85C47.3194 1142.13 47.8313 1142.46 48.3048 1142.85C52.9104 1146.6 52.6344 1153.72 47.7523 1157.1L46.8995 1157.69C46.2076 1158.17 45.4444 1158.54 44.6381 1158.78C44.0883 1158.95 43.5224 1159.05 42.9502 1159.1L41.9807 1159.17C41.4301 1159.21 40.8772 1159.22 40.3263 1159.18L40.0244 1159.16C38.812 1159.07 37.6259 1158.76 36.5269 1158.24C35.1997 1157.62 34.0308 1156.7 33.1073 1155.56L32.7729 1155.15L36.1457 1153C37.3134 1154.36 39.018 1155.15 40.8122 1155.15H41.3581L42.9607 1154.95C43.5225 1154.88 44.0659 1154.7 44.5619 1154.43C45.4018 1153.96 46.0711 1153.24 46.4713 1152.37L46.8704 1151.51C47.3352 1150.49 47.4069 1149.35 47.0717 1148.28C46.6297 1146.88 45.5304 1145.79 44.1289 1145.35L41.767 1144.62L38.4952 1143.27C37.5502 1142.88 36.6854 1142.32 35.9441 1141.61C35.3326 1141.03 34.813 1140.36 34.4034 1139.62L34.3751 1139.57C33.4675 1137.94 33.1108 1136.06 33.3577 1134.2L33.3862 1133.99L33.8049 1132.39C34.2619 1130.65 35.2928 1129.11 36.7317 1128.02C38.0149 1127.05 39.5597 1126.48 41.1662 1126.4L42.6868 1126.32L44.1069 1126.4C45.5915 1126.49 47.0349 1126.92 48.3165 1127.68C49.3239 1128.27 50.2109 1129.05 50.9313 1129.97L51.6808 1130.92Z" stroke="#CCD1D9" stroke-width="3.284"/>
<path d="M130.178 1370.57H27.7547L26.7476 1370.48C21.7533 1370 18.7774 1364.67 20.9847 1360.17L73.8704 1273.49C73.9912 1273.29 74.1433 1273.12 74.3209 1272.97C76.6153 1271.04 79.8692 1270.76 82.4647 1272.25L83.5088 1272.85C83.8957 1273.08 84.2202 1273.39 84.452 1273.77L136.948 1360.17C139.037 1364.73 136.012 1370 131.016 1370.49L130.178 1370.57Z" fill="url(#paint7_linear_296_871)" stroke="#FFEA55" stroke-width="1.9704"/>
<path d="M132.071 1360.88L82.3521 1277.98C80.7189 1275.35 76.9152 1275.3 75.2103 1277.88L75.1453 1277.98L24.9182 1361.01C24.3692 1361.92 24.2955 1363.04 24.7204 1364.01C24.99 1364.62 25.4434 1365.14 26.0186 1365.49L26.4109 1365.73C27.1475 1366.18 27.9924 1366.41 28.8538 1366.41H129.054C129.785 1366.41 130.499 1366.18 131.094 1365.76C131.638 1365.37 132.059 1364.83 132.309 1364.22L132.329 1364.16C132.763 1363.09 132.667 1361.87 132.071 1360.88Z" stroke="#FFEA55" stroke-width="1.9704"/>
<path d="M90.3206 1307.11C90.3206 1308.82 88.8516 1310.29 86.9381 1310.29C85.0245 1310.29 83.5555 1308.82 83.5555 1307.11C83.5555 1305.4 85.0245 1303.93 86.9381 1303.93C88.8516 1303.93 90.3206 1305.4 90.3206 1307.11Z" stroke="#FFEA55" stroke-width="1.9704"/>
<path d="M85.6275 1311.48L78.8575 1307.73L59.2026 1311.48L55.7084 1322.51L53.3062 1321.26L51.9958 1323.13L55.0533 1324.8L54.3981 1325.84L57.8923 1327.5L58.3291 1326.46L59.8578 1327.5L52.8694 1364.33H66.191L59.6394 1358.3L66.191 1336.86L72.3059 1345.81V1364.33H85.6275L78.8575 1358.3V1345.81L72.7426 1334.58L80.1678 1338.32V1339.99L85.6275 1342.9V1341.44L95.8917 1346.85L93.4894 1350.6L104.19 1356.63L109.868 1347.48L99.3859 1341.86L97.202 1344.98L85.6275 1339.15V1311.48Z" stroke="#FFEA55" stroke-width="1.9704"/>
<path d="M80.1679 1336.45V1321.47L70.5588 1329.79L71.4324 1331.66L80.1679 1336.45Z" stroke="#FFEA55" stroke-width="1.9704"/>
<path d="M61.1686 1325.63L59.2031 1324.59L64.6628 1315.22H71.6512L61.1686 1325.63Z" stroke="#FFEA55" stroke-width="1.9704"/>
<path d="M129.646 1363.29L116.486 1345.05C116.233 1344.7 115.715 1344.69 115.443 1345.02L100.688 1363.26C100.341 1363.69 100.647 1364.33 101.199 1364.33H129.113C129.649 1364.33 129.959 1363.72 129.646 1363.29Z" stroke="#FFEA55" stroke-width="1.9704"/>
<path d="M48.5756 1362.95L39.2964 1355.5C39.0597 1355.31 38.7236 1355.31 38.4834 1355.49L28.8402 1362.95C28.3447 1363.33 28.6156 1364.12 29.2419 1364.12H48.1643C48.7845 1364.12 49.0591 1363.34 48.5756 1362.95Z" stroke="#FFEA55" stroke-width="1.9704"/>
<circle cx="78.8163" cy="1497.5" r="60.7539" fill="url(#paint8_linear_296_871)" stroke="#CCD1D9" stroke-width="3.284"/>
<path d="M94.2843 1460.01V1478.89H75.8368C72.0952 1478.89 68.3933 1479.66 64.9596 1481.14C57.1654 1484.51 51.3778 1491.31 49.2922 1499.55L48.6241 1502.18C47.9562 1504.82 47.6184 1507.53 47.6184 1510.25V1544.43H65.9701V1508.29C65.9701 1506.88 66.2455 1505.48 66.7808 1504.17C67.7793 1501.73 69.6298 1499.74 71.9886 1498.56L72.1939 1498.45C73.7905 1497.66 75.551 1497.24 77.3361 1497.24H94.2843V1516.12L132.036 1488.33L94.2843 1460.01Z" stroke="#CCD1D9" stroke-width="2.6272"/>
<path d="M21.9174 1613.15C23.0202 1612.68 24.2066 1612.44 25.403 1612.44H132.325C133.163 1612.44 133.997 1612.56 134.802 1612.79V1612.79C138.6 1613.9 141.212 1617.43 141.212 1621.39V1621.39C141.212 1622.83 140.865 1624.27 140.199 1625.55L85.8146 1730.17C85.3582 1731.05 84.7423 1731.84 83.9983 1732.49L83.9004 1732.58C80.8834 1735.22 76.3536 1735.16 73.413 1732.43V1732.43C72.7545 1731.82 72.2063 1731.09 71.7923 1730.3L17.4286 1625.55C16.7662 1624.27 16.4204 1622.85 16.4204 1621.42V1621.42C16.4204 1617.81 18.5906 1614.55 21.9174 1613.15V1613.15Z" fill="url(#paint9_linear_296_871)" stroke="#FFEA55" stroke-width="3.284"/>
<path d="M132.373 1617.47H25.1072C24.468 1617.47 23.8377 1617.62 23.2668 1617.91C21.9522 1618.57 21.0945 1619.89 21.0208 1621.36L21.0163 1621.45C20.9785 1622.2 21.143 1622.95 21.493 1623.62L75.7762 1727.58C77.2045 1729.95 80.623 1730.02 82.1406 1727.7L82.22 1727.58L136.335 1623.25C136.559 1622.82 136.701 1622.35 136.752 1621.86C136.964 1619.84 135.582 1617.99 133.579 1617.62L133.164 1617.54C132.903 1617.49 132.638 1617.47 132.373 1617.47Z" stroke="#FFEA55" stroke-width="3.284"/>
<defs>
<linearGradient id="paint0_linear_296_871" x1="78.8161" y1="16.4199" x2="78.8672" y2="207.236" gradientUnits="userSpaceOnUse">
<stop stop-color="#1A1914"/>
<stop offset="1" stop-color="#3C3A31"/>
</linearGradient>
<linearGradient id="paint1_linear_296_871" x1="78.8163" y1="193.756" x2="78.8674" y2="384.572" gradientUnits="userSpaceOnUse">
<stop stop-color="#1A1914"/>
<stop offset="1" stop-color="#3C3A31"/>
</linearGradient>
<linearGradient id="paint2_linear_296_871" x1="78.8163" y1="371.091" x2="78.8674" y2="561.907" gradientUnits="userSpaceOnUse">
<stop stop-color="#1A1914"/>
<stop offset="1" stop-color="#3C3A31"/>
</linearGradient>
<linearGradient id="paint3_linear_296_871" x1="78.8163" y1="560.417" x2="78.8497" y2="714.568" gradientUnits="userSpaceOnUse">
<stop stop-color="#151515"/>
<stop offset="1" stop-color="#2E3C4B"/>
</linearGradient>
<linearGradient id="paint4_linear_296_871" x1="78.8163" y1="725.763" x2="78.8674" y2="916.579" gradientUnits="userSpaceOnUse">
<stop stop-color="#151515"/>
<stop offset="1" stop-color="#2E3C4B"/>
</linearGradient>
<linearGradient id="paint5_linear_296_871" x1="78.8163" y1="903.099" x2="78.8674" y2="1093.91" gradientUnits="userSpaceOnUse">
<stop stop-color="#1A1914"/>
<stop offset="1" stop-color="#3C3A31"/>
</linearGradient>
<linearGradient id="paint6_linear_296_871" x1="78.8163" y1="1080.43" x2="78.8674" y2="1271.25" gradientUnits="userSpaceOnUse">
<stop stop-color="#1A1914"/>
<stop offset="1" stop-color="#3C3A31"/>
</linearGradient>
<linearGradient id="paint7_linear_296_871" x1="78.8163" y1="1269.76" x2="78.8497" y2="1423.91" gradientUnits="userSpaceOnUse">
<stop stop-color="#151515"/>
<stop offset="1" stop-color="#2E3C4B"/>
</linearGradient>
<linearGradient id="paint8_linear_296_871" x1="78.8163" y1="1435.11" x2="78.8674" y2="1625.92" gradientUnits="userSpaceOnUse">
<stop stop-color="#1A1914"/>
<stop offset="1" stop-color="#3C3A31"/>
</linearGradient>
<linearGradient id="paint9_linear_296_871" x1="78.8163" y1="1612.44" x2="78.8674" y2="1803.26" gradientUnits="userSpaceOnUse">
<stop stop-color="#151515"/>
<stop offset="1" stop-color="#2E3C4B"/>
</linearGradient>
</defs>
</svg>
