<svg width="159" height="1754" viewBox="0 0 159 1754" fill="none" xmlns="http://www.w3.org/2000/svg">
<rect width="157.632" height="1753.65" transform="translate(0.891602)" fill="#090A0D"/>
<circle cx="79.7075" cy="78.8158" r="60.7539" fill="url(#paint0_linear_296_938)" stroke="#FFEA55" stroke-width="3.284"/>
<path d="M95.1754 41.3257V60.2018H76.7279C72.9863 60.2018 69.2844 60.9685 65.8507 62.4548C58.0566 65.8284 52.2689 72.6275 50.1833 80.8603L49.5152 83.4976C48.8473 86.1338 48.5095 88.8428 48.5095 91.5623V125.744H66.8613V89.6081C66.8613 88.1944 67.1366 86.7942 67.6719 85.4857C68.6704 83.0449 70.5209 81.0494 72.8797 79.8701L73.085 79.7674C74.6816 78.9691 76.4421 78.5535 78.2272 78.5535H95.1754V97.4296L132.928 69.6398L95.1754 41.3257Z" stroke="#FFEA55" stroke-width="2.6272"/>
<circle cx="79.7075" cy="256.152" r="60.7539" fill="url(#paint1_linear_296_938)" stroke="#FFEA55" stroke-width="3.284"/>
<path d="M127.737 256.409C127.702 283.061 106.068 304.638 79.4163 304.603C52.7645 304.568 31.1874 282.934 31.2224 256.283C31.2574 229.631 52.8913 208.054 79.5431 208.089C106.195 208.124 127.772 229.758 127.737 256.409Z" stroke="#FFEA55" stroke-width="3.284"/>
<path d="M131.069 483.894H28.6458L27.6387 483.797C22.6445 483.318 19.6685 477.996 21.8758 473.49L74.7615 386.813C74.8823 386.615 75.0344 386.438 75.212 386.289C77.5064 384.363 80.7603 384.077 83.3559 385.573L84.4 386.174C84.7869 386.397 85.1113 386.714 85.3432 387.096L137.839 473.49C139.929 478.055 136.903 483.319 131.907 483.812L131.069 483.894Z" fill="url(#paint2_linear_296_938)" stroke="#CCD1D9" stroke-width="1.9704"/>
<path d="M132.962 474.201L83.243 391.3C81.6097 388.674 77.8061 388.622 76.1012 391.202L76.0362 391.3L25.8091 474.332C25.2601 475.239 25.1863 476.357 25.6113 477.329C25.8809 477.945 26.3343 478.463 26.9095 478.812L27.3017 479.05C28.0383 479.496 28.8833 479.733 29.7447 479.733H129.944C130.676 479.733 131.39 479.504 131.985 479.078C132.528 478.69 132.95 478.155 133.199 477.536L133.22 477.486C133.654 476.411 133.558 475.195 132.962 474.201Z" stroke="#CCD1D9" stroke-width="1.9704"/>
<path d="M91.2115 420.431C91.2115 422.14 89.7425 423.607 87.8289 423.607C85.9154 423.607 84.4464 422.14 84.4464 420.431C84.4464 418.721 85.9154 417.254 87.8289 417.254C89.7425 417.254 91.2115 418.721 91.2115 420.431Z" stroke="#CCD1D9" stroke-width="1.9704"/>
<path d="M86.5188 424.801L79.7488 421.055L60.094 424.801L56.5998 435.829L54.1975 434.58L52.8872 436.453L55.9446 438.117L55.2895 439.158L58.7837 440.822L59.2204 439.782L60.7491 440.822L53.7608 477.652H67.0824L60.5308 471.618L67.0824 450.186L73.1972 459.133V477.652H86.5188L79.7488 471.618V459.133L73.634 447.897L81.0591 451.642V453.307L86.5188 456.22V454.764L96.783 460.174L94.3808 463.919L105.082 469.953L110.76 460.798L100.277 455.18L98.0933 458.301L86.5188 452.475V424.801Z" stroke="#CCD1D9" stroke-width="1.9704"/>
<path d="M81.0587 449.77V434.788L71.4497 443.111L72.3233 444.984L81.0587 449.77Z" stroke="#CCD1D9" stroke-width="1.9704"/>
<path d="M62.059 438.95L60.0935 437.909L65.5532 428.546H72.5416L62.059 438.95Z" stroke="#CCD1D9" stroke-width="1.9704"/>
<path d="M130.537 476.61L117.377 458.373C117.124 458.022 116.606 458.008 116.334 458.344L101.579 476.582C101.232 477.011 101.537 477.652 102.09 477.652H130.004C130.54 477.652 130.85 477.045 130.537 476.61Z" stroke="#CCD1D9" stroke-width="1.9704"/>
<path d="M49.4665 476.275L40.1873 468.82C39.9506 468.63 39.6144 468.627 39.3742 468.813L29.7311 476.267C29.2356 476.65 29.5064 477.443 30.1328 477.443H49.0552C49.6753 477.443 49.95 476.663 49.4665 476.275Z" stroke="#CCD1D9" stroke-width="1.9704"/>
<path d="M53.7986 548.427H105.412L142.103 585.221V636.732L105.412 673.219H53.7986L17.3115 636.732V585.221L53.7986 548.427Z" fill="url(#paint3_linear_296_938)" stroke="#FFEA55" stroke-width="3.284"/>
<path d="M103.879 552.618H55.6385L21.3999 586.958V635.097L55.6385 668.927H103.879L138.015 635.097V586.958L103.879 552.618Z" stroke="#FFEA55" stroke-width="3.284"/>
<path d="M76.2843 594.215H57.6831V598.507H64.8374V627.023H69.5388V598.507H76.2843V594.215Z" stroke="#FFEA55" stroke-width="3.284"/>
<path d="M108.377 627.023V594.215H117.614C118.47 594.215 119.323 594.325 120.151 594.542L120.454 594.621C122.239 595.088 123.851 596.108 125.048 597.513C127.991 600.967 127.913 606.123 124.818 609.442C123.755 610.581 122.413 611.423 120.925 611.884L120.459 612.028C119.428 612.347 118.355 612.509 117.275 612.509H112.465V627.023H108.377Z" stroke="#FFEA55" stroke-width="3.284"/>
<path d="M81.7012 617.86V603.504C81.7012 602.967 81.7473 602.432 81.8391 601.904C83.6322 591.579 98.46 591.622 100.272 601.943C100.36 602.445 100.407 602.954 100.413 603.463L100.564 617.686C100.593 620.375 99.463 622.961 97.4787 624.776C93.842 628.103 88.2285 628.081 84.6461 624.695C82.7664 622.919 81.7012 620.447 81.7012 617.86Z" stroke="#FFEA55" stroke-width="3.284"/>
<path d="M112.464 608.319V598.099H117.978C119.415 598.099 120.799 598.714 121.772 599.77C123.591 601.743 123.588 604.82 121.731 606.756C120.773 607.755 119.45 608.319 118.066 608.319H112.464Z" stroke="#FFEA55" stroke-width="3.284"/>
<path d="M85.8115 617.783V603.066C85.8115 602.763 85.8376 602.461 85.8895 602.162C86.9028 596.327 95.2812 596.341 96.3053 602.174C96.3563 602.464 96.383 602.759 96.3849 603.054L96.4818 617.693C96.4918 619.208 95.8506 620.665 94.7328 621.687C92.6774 623.568 89.5005 623.559 87.4759 621.646C86.4135 620.642 85.8115 619.245 85.8115 617.783Z" stroke="#FFEA55" stroke-width="3.284"/>
<path d="M52.5724 598.916L48.9952 601.062L48.9651 601.016C47.788 599.22 45.718 598.216 43.5784 598.405L42.2663 598.667C41.452 598.83 40.6894 599.21 40.0659 599.759C39.0563 600.647 38.4682 601.935 38.4682 603.28V603.336C38.4682 604.123 38.6758 604.896 39.0701 605.577C39.4137 606.171 39.8892 606.677 40.4599 607.058L40.663 607.193C41.1722 607.532 41.7343 607.785 42.3263 607.94L44.1607 608.42C45.2001 608.693 46.2061 609.08 47.16 609.574L47.6689 609.838C48.211 610.119 48.7229 610.455 49.1964 610.841C53.802 614.592 53.526 621.711 48.6439 625.094L47.7912 625.685C47.0992 626.165 46.336 626.532 45.5297 626.774C44.9799 626.939 44.414 627.045 43.8418 627.089L42.8723 627.163C42.3217 627.206 41.7688 627.208 41.2179 627.17L40.916 627.149C39.7036 627.065 38.5175 626.756 37.4185 626.237C36.0913 625.61 34.9224 624.692 33.9989 623.552L33.6646 623.139L37.0373 620.992C38.205 622.355 39.9096 623.139 41.7038 623.139H42.2497L43.8523 622.938C44.4141 622.868 44.9575 622.692 45.4535 622.419C46.2934 621.957 46.9627 621.238 47.3629 620.367L47.762 619.498C48.2268 618.486 48.2985 617.338 47.9633 616.277C47.5213 614.877 46.422 613.782 45.0205 613.346L42.6586 612.612L39.3868 611.26C38.4418 610.87 37.577 610.308 36.8357 609.604C36.2242 609.023 35.7046 608.353 35.295 607.615L35.2667 607.564C34.3591 605.931 34.0024 604.048 34.2493 602.195L34.2778 601.982L34.6965 600.384C35.1535 598.639 36.1844 597.098 37.6233 596.01C38.9065 595.04 40.4513 594.477 42.0578 594.395L43.5784 594.317L44.9985 594.396C46.4831 594.478 47.9265 594.915 49.2081 595.669C50.2155 596.261 51.1025 597.038 51.8229 597.958L52.5724 598.916Z" stroke="#FFEA55" stroke-width="3.284"/>
<path d="M22.8085 726.467C23.9113 726.003 25.0977 725.763 26.2941 725.763H133.216C134.054 725.763 134.888 725.882 135.693 726.115V726.115C139.491 727.217 142.103 730.754 142.103 734.709V734.709C142.103 736.152 141.756 737.594 141.09 738.875L86.7057 843.495C86.2493 844.373 85.6334 845.158 84.8894 845.811L84.7915 845.897C81.7745 848.543 77.2447 848.479 74.3041 845.747V845.747C73.6456 845.136 73.0974 844.416 72.6835 843.618L18.3197 738.868C17.6573 737.591 17.3115 736.174 17.3115 734.736V734.736C17.3115 731.127 19.4817 727.867 22.8085 726.467V726.467Z" fill="url(#paint4_linear_296_938)" stroke="#CCD1D9" stroke-width="3.284"/>
<path d="M133.264 730.791H25.9985C25.3593 730.791 24.729 730.941 24.1581 731.228C22.8435 731.89 21.9858 733.208 21.9121 734.678L21.9077 734.766C21.8698 735.521 22.0344 736.273 22.3843 736.943L76.6675 840.901C78.0959 843.275 81.5143 843.34 83.032 841.023L83.1113 840.901L137.226 736.575C137.451 736.142 137.592 735.67 137.643 735.185C137.856 733.159 136.474 731.31 134.47 730.94L134.056 730.863C133.795 730.815 133.53 730.791 133.264 730.791Z" stroke="#CCD1D9" stroke-width="3.284"/>
<path d="M139.912 961.759L82.9201 904.699C82.4932 904.271 81.9813 903.938 81.4176 903.721L81.3462 903.694C80.3555 903.312 79.2558 903.327 78.276 903.736C77.7785 903.944 77.3266 904.247 76.9457 904.628L19.6122 962.031C19.2086 962.435 18.8787 962.906 18.6374 963.424C18.0255 964.737 18.0255 966.253 18.6374 967.566C18.8787 968.084 19.2086 968.555 19.6122 968.959L76.9457 1026.36C77.3266 1026.74 77.7785 1027.05 78.276 1027.25C79.2558 1027.66 80.3555 1027.68 81.3462 1027.3L81.4176 1027.27C81.9813 1027.05 82.4932 1026.72 82.9201 1026.29L139.912 969.231C140.491 968.651 140.928 967.943 141.187 967.165C141.548 966.081 141.548 964.909 141.187 963.825C140.928 963.047 140.491 962.339 139.912 961.759Z" fill="url(#paint5_linear_296_938)" stroke="#FFEA55" stroke-width="2.6272"/>
<path d="M78.6316 927.997L42.1079 964.565C41.5948 965.078 41.5958 965.911 42.1102 966.423L78.6339 1002.81C79.1456 1003.32 79.9729 1003.32 80.4859 1002.81L117.19 966.426C117.708 965.913 117.709 965.077 117.193 964.562L80.4882 927.994C79.9747 927.483 79.1439 927.484 78.6316 927.997Z" stroke="#FFEA55" stroke-width="2.6272"/>
<path d="M17.3115 1083.72C17.3115 1081.9 18.7818 1080.43 20.5955 1080.43H138.819C140.633 1080.43 142.103 1081.9 142.103 1083.72V1201.94C142.103 1203.76 140.633 1205.23 138.819 1205.23H20.5955C18.7818 1205.23 17.3115 1203.76 17.3115 1201.94V1083.72Z" fill="url(#paint6_linear_296_938)" stroke="#FFEA55" stroke-width="2.6272"/>
<path d="M98.003 1097.21H48.5757V1188.19H64.8643V1161.18H97.9231C98.4764 1161.18 99.0285 1161.13 99.5711 1161.02C104.838 1159.97 109.287 1156.47 111.549 1151.6L112.05 1150.52C112.638 1149.25 112.942 1147.88 112.942 1146.48V1111.63C112.163 1104.48 106.776 1098.68 99.6961 1097.39L99.4949 1097.35C99.0028 1097.26 98.5034 1097.21 98.003 1097.21Z" stroke="#FFEA55" stroke-width="2.6272"/>
<path d="M94.0263 1113.47H65.3899V1144.93H94.0263L96.3908 1142.57V1115.57L94.0263 1113.47Z" stroke="#FFEA55" stroke-width="2.6272"/>
<path d="M140.461 1318.75C140.461 1351.52 113.835 1378.09 80.9809 1378.09C48.1271 1378.09 21.5004 1351.52 21.5004 1318.75C21.5004 1285.98 48.1271 1259.41 80.9809 1259.41C113.835 1259.41 140.461 1285.98 140.461 1318.75Z" fill="url(#paint7_linear_296_938)" stroke="#FFEA55" stroke-width="3.284"/>
<path d="M93.8246 1300.55L80.438 1281.57C80.1944 1281.22 80.3356 1280.74 80.727 1280.58L89.5464 1276.99C91.4717 1276.2 93.467 1275.61 95.5056 1275.2L105.223 1273.26C105.742 1273.16 106.164 1273.68 105.955 1274.16L103.392 1280.13L108.544 1283.76C110.874 1285.4 113 1287.31 114.88 1289.45C117.725 1292.7 119.963 1296.43 121.489 1300.46L122.485 1303.1C124.177 1307.58 125.156 1312.29 125.384 1317.07L125.45 1318.46C125.684 1323.35 124.982 1328.24 123.383 1332.87C123.313 1333.07 123.093 1333.18 122.892 1333.1L108.74 1328.15L109.457 1325.29C110.163 1322.47 110.422 1319.56 110.224 1316.66L110.206 1316.4C109.912 1312.1 108.581 1307.94 106.327 1304.27C105.391 1302.75 104.305 1301.32 103.083 1300.02L97.7891 1294.36L94.9568 1300.44C94.7438 1300.9 94.1155 1300.96 93.8246 1300.55Z" stroke="#FFEA55" stroke-width="2.6272"/>
<path d="M56.9488 1315.75L46.801 1336.63C46.6168 1337.01 46.1274 1337.12 45.7981 1336.86L38.3833 1330.91C36.7557 1329.61 35.2561 1328.15 33.9049 1326.56L27.5042 1319.03C27.1615 1318.63 27.4116 1318.01 27.9381 1317.96L34.4138 1317.3L35.0958 1311.05C35.4053 1308.22 36.0511 1305.43 37.0196 1302.75C38.4829 1298.7 40.6632 1294.94 43.4566 1291.66L45.2906 1289.51C48.3977 1285.86 52.0588 1282.72 56.1409 1280.2L57.3295 1279.46C61.5002 1276.89 66.1237 1275.14 70.9536 1274.29C71.1649 1274.25 71.3663 1274.39 71.4023 1274.6L73.9198 1289.35L71.0627 1290.11C68.2507 1290.86 65.5742 1292.05 63.1304 1293.63L62.8968 1293.78C59.2781 1296.11 56.2796 1299.29 54.1569 1303.03C53.2739 1304.59 52.5502 1306.23 51.9966 1307.93L49.6039 1315.29L56.3098 1314.81C56.8146 1314.77 57.1697 1315.3 56.9488 1315.75Z" stroke="#FFEA55" stroke-width="2.6272"/>
<path d="M89.1253 1340.86L112.361 1339.8C112.783 1339.78 113.113 1340.15 113.038 1340.57L111.337 1349.91C110.964 1351.96 110.396 1353.97 109.642 1355.91L106.065 1365.11C105.873 1365.61 105.207 1365.68 104.909 1365.25L101.241 1359.88L95.4136 1362.26C92.7694 1363.35 90.0062 1364.11 87.182 1364.54C82.9143 1365.19 78.5649 1365.07 74.3408 1364.19L71.5686 1363.61C66.8711 1362.62 62.3574 1360.91 58.1919 1358.54L56.9791 1357.84C52.7228 1355.41 48.969 1352.2 45.9179 1348.37C45.7844 1348.2 45.8131 1347.96 45.9819 1347.82L57.7714 1338.58L59.8057 1340.72C61.808 1342.83 64.1291 1344.61 66.6846 1346L66.9282 1346.13C70.7126 1348.19 74.9405 1349.31 79.2514 1349.38C81.0443 1349.41 82.836 1349.26 84.5993 1348.94L92.2228 1347.52L88.601 1341.87C88.3283 1341.45 88.6196 1340.89 89.1253 1340.86Z" stroke="#FFEA55" stroke-width="2.6272"/>
<path d="M132.251 1435.11H27.1635C21.7224 1435.11 17.3115 1439.52 17.3115 1444.96V1550.05C17.3115 1555.49 21.7224 1559.9 27.1635 1559.9H132.251C137.692 1559.9 142.103 1555.49 142.103 1550.05V1444.96C142.103 1439.52 137.692 1435.11 132.251 1435.11Z" fill="url(#paint8_linear_296_938)" stroke="#FFEA55" stroke-width="2.6272"/>
<path d="M140.531 1542.11L80.2322 1436.41L18.6228 1542.11H140.531Z" stroke="#FFEA55" stroke-width="2.6272"/>
<path d="M33.3042 1523.53H61.8805" stroke="#FFEA55" stroke-width="1.9704"/>
<path d="M76.2996 1523.53H91.2431" stroke="#FFEA55" stroke-width="1.9704"/>
<path d="M104.09 1523.53H125.85" stroke="#FFEA55" stroke-width="1.9704"/>
<path d="M68.6966 1513.59L78.6589 1499.99L79.1833 1498.94L77.8724 1486.12L74.7264 1491.88L63.7154 1501.03L61.0937 1496.59L71.5804 1485.6L79.1833 1468.85L90.4565 1474.61L99.8945 1484.81V1502.34L94.1268 1505.74V1489L89.9322 1483.24V1496.59L92.2917 1504.96L107.235 1534.26L98.8459 1539.23H90.4565L98.8459 1533.21L84.6888 1508.1L75.2508 1519.61L69.4831 1538.71L54.2773 1537.14V1534.26L63.7154 1532.17L68.6966 1513.59Z" stroke="#FFEA55" stroke-width="1.9704"/>
<path d="M83.966 1462.58C83.966 1465.21 81.8267 1467.35 79.1835 1467.35C76.5402 1467.35 74.401 1465.21 74.401 1462.58C74.401 1459.94 76.5402 1457.81 79.1835 1457.81C81.8267 1457.81 83.966 1459.94 83.966 1462.58Z" stroke="#FFEA55" stroke-width="1.9704"/>
<circle cx="79.7075" cy="1674.84" r="60.7539" fill="url(#paint9_linear_296_938)" stroke="#FFEA55" stroke-width="3.284"/>
<path d="M130.931 1659.6H28.1681C27.1854 1659.6 26.353 1660.32 26.2167 1661.3L25.5544 1666.03C24.6621 1672.4 24.7114 1678.87 25.7005 1685.23L26.195 1688.41C26.3443 1689.37 27.1707 1690.08 28.1419 1690.08H130.946C131.92 1690.08 132.748 1689.36 132.894 1688.4L133.428 1684.9C134.394 1678.55 134.424 1672.09 133.515 1665.73L132.881 1661.29C132.743 1660.32 131.911 1659.6 130.931 1659.6Z" stroke="#FFEA55" stroke-width="2.6272"/>
<defs>
<linearGradient id="paint0_linear_296_938" x1="79.7074" y1="16.4199" x2="79.7585" y2="207.236" gradientUnits="userSpaceOnUse">
<stop stop-color="#151515"/>
<stop offset="1" stop-color="#2E3C4B"/>
</linearGradient>
<linearGradient id="paint1_linear_296_938" x1="79.7074" y1="193.756" x2="79.7585" y2="384.572" gradientUnits="userSpaceOnUse">
<stop stop-color="#151515"/>
<stop offset="1" stop-color="#2E3C4B"/>
</linearGradient>
<linearGradient id="paint2_linear_296_938" x1="79.7074" y1="383.081" x2="79.7408" y2="537.232" gradientUnits="userSpaceOnUse">
<stop stop-color="#1A1914"/>
<stop offset="1" stop-color="#3C3A31"/>
</linearGradient>
<linearGradient id="paint3_linear_296_938" x1="79.7074" y1="548.427" x2="79.7585" y2="739.243" gradientUnits="userSpaceOnUse">
<stop stop-color="#151515"/>
<stop offset="1" stop-color="#2E3C4B"/>
</linearGradient>
<linearGradient id="paint4_linear_296_938" x1="79.7074" y1="725.763" x2="79.7585" y2="916.579" gradientUnits="userSpaceOnUse">
<stop stop-color="#1A1914"/>
<stop offset="1" stop-color="#3C3A31"/>
</linearGradient>
<linearGradient id="paint5_linear_296_938" x1="79.7076" y1="903.099" x2="79.759" y2="1093.92" gradientUnits="userSpaceOnUse">
<stop stop-color="#151515"/>
<stop offset="1" stop-color="#2E3C4B"/>
</linearGradient>
<linearGradient id="paint6_linear_296_938" x1="79.7074" y1="1080.43" x2="79.7585" y2="1271.25" gradientUnits="userSpaceOnUse">
<stop stop-color="#151515"/>
<stop offset="1" stop-color="#2E3C4B"/>
</linearGradient>
<linearGradient id="paint7_linear_296_938" x1="80.9809" y1="1257.77" x2="81.0307" y2="1444.25" gradientUnits="userSpaceOnUse">
<stop stop-color="#151515"/>
<stop offset="1" stop-color="#2E3C4B"/>
</linearGradient>
<linearGradient id="paint8_linear_296_938" x1="79.7074" y1="1435.11" x2="79.7585" y2="1625.92" gradientUnits="userSpaceOnUse">
<stop stop-color="#151515"/>
<stop offset="1" stop-color="#2E3C4B"/>
</linearGradient>
<linearGradient id="paint9_linear_296_938" x1="79.7074" y1="1612.44" x2="79.7585" y2="1803.26" gradientUnits="userSpaceOnUse">
<stop stop-color="#151515"/>
<stop offset="1" stop-color="#2E3C4B"/>
</linearGradient>
</defs>
</svg>
