<svg width="159" height="1754" viewBox="0 0 159 1754" fill="none" xmlns="http://www.w3.org/2000/svg">
<rect width="157.632" height="1753.65" transform="translate(0.675049)" fill="#090A0D"/>
<path d="M139.695 75.0798L82.7033 18.0193C82.2764 17.5919 81.7645 17.2589 81.2008 17.0418L81.1294 17.0143C80.1387 16.6328 79.039 16.648 78.0592 17.0568C77.5617 17.2643 77.1098 17.5673 76.7289 17.9487L19.3954 75.3516C18.9918 75.7557 18.6619 76.2272 18.4206 76.7448C17.8087 78.0577 17.8087 79.574 18.4206 80.8869C18.6619 81.4045 18.9918 81.876 19.3954 82.2801L76.7289 139.683C77.1098 140.064 77.5617 140.367 78.0592 140.575C79.039 140.984 80.1387 140.999 81.1294 140.617L81.2008 140.59C81.7645 140.373 82.2764 140.04 82.7033 139.612L139.695 82.5519C140.275 81.9715 140.711 81.2641 140.97 80.4858C141.331 79.4018 141.331 78.2299 140.97 77.1459C140.711 76.3676 140.274 75.6602 139.695 75.0798Z" fill="url(#paint0_linear_296_1065)" stroke="#FFEA55" stroke-width="2.6272"/>
<path d="M78.4134 41.3174L41.8897 77.8853C41.3765 78.3991 41.3776 79.2317 41.892 79.7442L78.4157 116.131C78.9274 116.641 79.7547 116.642 80.2676 116.133L116.972 79.7465C117.49 79.2335 117.491 78.3973 116.974 77.883L80.2699 41.3151C79.7564 40.8035 78.9256 40.8046 78.4134 41.3174Z" stroke="#FFEA55" stroke-width="2.6272"/>
<circle cx="79.4911" cy="256.152" r="60.7539" fill="url(#paint1_linear_296_1065)" stroke="#FFEA55" stroke-width="3.284"/>
<path d="M130.714 240.914H27.9513C26.9686 240.914 26.1362 241.638 25.9999 242.611L25.3376 247.342C24.4453 253.715 24.4946 260.185 25.4837 266.544L25.9782 269.722C26.1275 270.682 26.9539 271.39 27.9251 271.39H130.73C131.703 271.39 132.531 270.678 132.678 269.716L133.211 266.211C134.177 259.86 134.207 253.401 133.298 247.042L132.665 242.605C132.526 241.635 131.695 240.914 130.714 240.914Z" stroke="#FFEA55" stroke-width="2.6272"/>
<path d="M17.0952 374.375C17.0952 372.562 18.5655 371.091 20.3792 371.091H138.603C140.417 371.091 141.887 372.562 141.887 374.375V492.599C141.887 494.413 140.417 495.883 138.603 495.883H20.3792C18.5655 495.883 17.0952 494.413 17.0952 492.599V374.375Z" fill="url(#paint2_linear_296_1065)" stroke="#FFEA55" stroke-width="2.6272"/>
<path d="M97.786 387.87H48.3586V478.842H64.6473V451.839H97.706C98.2594 451.839 98.8114 451.785 99.3541 451.676C104.621 450.625 109.07 447.125 111.332 442.254L111.833 441.176C112.42 439.911 112.725 438.532 112.725 437.137V402.289C111.946 395.134 106.559 389.34 99.4791 388.043L99.2779 388.006C98.7857 387.916 98.2864 387.87 97.786 387.87Z" stroke="#FFEA55" stroke-width="2.6272"/>
<path d="M93.8093 404.125H65.1729V435.585H93.8093L96.1738 433.225V406.222L93.8093 404.125Z" stroke="#FFEA55" stroke-width="2.6272"/>
<path d="M132.035 548.427H26.9472C21.5061 548.427 17.0952 552.838 17.0952 558.279V663.367C17.0952 668.808 21.5061 673.219 26.9472 673.219H132.035C137.476 673.219 141.887 668.808 141.887 663.367V558.279C141.887 552.838 137.476 548.427 132.035 548.427Z" fill="url(#paint3_linear_296_1065)" stroke="#FFEA55" stroke-width="2.6272"/>
<path d="M140.314 655.429L80.0157 549.735L18.4062 655.429H140.314Z" stroke="#FFEA55" stroke-width="2.6272"/>
<path d="M33.0874 636.854H61.6637" stroke="#FFEA55" stroke-width="1.9704"/>
<path d="M76.083 636.854H91.0266" stroke="#FFEA55" stroke-width="1.9704"/>
<path d="M103.873 636.854H125.632" stroke="#FFEA55" stroke-width="1.9704"/>
<path d="M68.48 626.913L78.4424 613.309L78.9667 612.262L77.6559 599.443L74.5099 605.199L63.4988 614.355L60.8772 609.908L71.3639 598.92L78.9667 582.176L90.2399 587.932L99.678 598.135V615.663L93.9103 619.064V602.321L89.7156 596.565V609.908L92.0751 618.28L107.019 647.581L98.6293 652.552H90.2399L98.6293 646.534L84.4723 621.419L75.0342 632.93L69.2665 652.028L54.0608 650.459V647.581L63.4988 645.488L68.48 626.913Z" stroke="#FFEA55" stroke-width="1.9704"/>
<path d="M83.7494 575.897C83.7494 578.53 81.6102 580.668 78.9669 580.668C76.3237 580.668 74.1844 578.53 74.1844 575.897C74.1844 573.265 76.3237 571.127 78.9669 571.127C81.6102 571.127 83.7494 573.265 83.7494 575.897Z" stroke="#FFEA55" stroke-width="1.9704"/>
<path d="M22.5922 726.467C23.695 726.003 24.8814 725.763 26.0778 725.763H133C133.838 725.763 134.672 725.882 135.477 726.115V726.115C139.274 727.217 141.887 730.754 141.887 734.709V734.709C141.887 736.152 141.539 737.594 140.874 738.875L86.4894 843.495C86.033 844.373 85.4171 845.158 84.6731 845.811L84.5752 845.897C81.5582 848.543 77.0284 848.479 74.0878 845.747V845.747C73.4293 845.136 72.8811 844.416 72.4671 843.618L18.1034 738.868C17.441 737.591 17.0952 736.174 17.0952 734.736V734.736C17.0952 731.127 19.2654 727.867 22.5922 726.467V726.467Z" fill="url(#paint4_linear_296_1065)" stroke="#CCD1D9" stroke-width="3.284"/>
<path d="M133.048 730.791H25.782C25.1428 730.791 24.5125 730.941 23.9416 731.228C22.627 731.89 21.7693 733.208 21.6956 734.678L21.6911 734.766C21.6533 735.521 21.8178 736.273 22.1678 736.943L76.451 840.901C77.8793 843.275 81.2978 843.34 82.8154 841.023L82.8948 840.901L137.009 736.575C137.234 736.142 137.376 735.67 137.426 735.185C137.639 733.159 136.257 731.31 134.254 730.94L133.839 730.863C133.578 730.815 133.313 730.791 133.048 730.791Z" stroke="#CCD1D9" stroke-width="3.284"/>
<circle cx="79.4911" cy="965.495" r="60.7539" fill="url(#paint5_linear_296_1065)" stroke="#FFEA55" stroke-width="3.284"/>
<path d="M127.52 965.752C127.485 992.404 105.851 1013.98 79.1995 1013.95C52.5477 1013.91 30.9706 992.277 31.0056 965.625C31.0406 938.974 52.6746 917.397 79.3263 917.432C105.978 917.467 127.555 939.101 127.52 965.752Z" stroke="#FFEA55" stroke-width="3.284"/>
<path d="M130.853 1193.24H28.4295L27.4224 1193.14C22.4281 1192.66 19.4522 1187.34 21.6595 1182.83L74.5452 1096.16C74.666 1095.96 74.8181 1095.78 74.9957 1095.63C77.2901 1093.71 80.544 1093.42 83.1395 1094.92L84.1836 1095.52C84.5705 1095.74 84.895 1096.06 85.1269 1096.44L137.623 1182.83C139.712 1187.4 136.686 1192.66 131.69 1193.15L130.853 1193.24Z" fill="url(#paint6_linear_296_1065)" stroke="#CCD1D9" stroke-width="1.9704"/>
<path d="M132.746 1183.54L83.0264 1100.64C81.3932 1098.02 77.5896 1097.96 75.8846 1100.54L75.8196 1100.64L25.5925 1183.67C25.0435 1184.58 24.9698 1185.7 25.3948 1186.67C25.6643 1187.29 26.1177 1187.81 26.693 1188.15L27.0852 1188.39C27.8218 1188.84 28.6667 1189.08 29.5281 1189.08H129.728C130.46 1189.08 131.173 1188.85 131.769 1188.42C132.312 1188.03 132.733 1187.5 132.983 1186.88L133.003 1186.83C133.437 1185.75 133.342 1184.54 132.746 1183.54Z" stroke="#CCD1D9" stroke-width="1.9704"/>
<path d="M90.9947 1129.77C90.9947 1131.48 89.5257 1132.95 87.6121 1132.95C85.6986 1132.95 84.2296 1131.48 84.2296 1129.77C84.2296 1128.06 85.6986 1126.6 87.6121 1126.6C89.5257 1126.6 90.9947 1128.06 90.9947 1129.77Z" stroke="#CCD1D9" stroke-width="1.9704"/>
<path d="M86.3018 1134.14L79.5318 1130.4L59.8769 1134.14L56.3827 1145.17L53.9805 1143.92L52.6702 1145.8L55.7276 1147.46L55.0724 1148.5L58.5666 1150.17L59.0034 1149.12L60.5321 1150.17L53.5437 1186.99H66.8653L60.3137 1180.96L66.8653 1159.53L72.9802 1168.48V1186.99H86.3018L79.5318 1180.96V1168.48L73.4169 1157.24L80.8421 1160.99V1162.65L86.3018 1165.56V1164.11L96.566 1169.52L94.1637 1173.26L104.865 1179.3L110.543 1170.14L100.06 1164.52L97.8763 1167.64L86.3018 1161.82V1134.14Z" stroke="#CCD1D9" stroke-width="1.9704"/>
<path d="M80.8427 1159.11V1144.13L71.2336 1152.45L72.1072 1154.33L80.8427 1159.11Z" stroke="#CCD1D9" stroke-width="1.9704"/>
<path d="M61.8427 1148.29L59.8772 1147.25L65.3369 1137.89H72.3253L61.8427 1148.29Z" stroke="#CCD1D9" stroke-width="1.9704"/>
<path d="M130.32 1185.95L117.161 1167.72C116.907 1167.37 116.39 1167.35 116.117 1167.69L101.363 1185.92C101.015 1186.35 101.321 1186.99 101.873 1186.99H129.787C130.323 1186.99 130.633 1186.39 130.32 1185.95Z" stroke="#CCD1D9" stroke-width="1.9704"/>
<path d="M49.2502 1185.62L39.971 1178.16C39.7343 1177.97 39.3981 1177.97 39.1579 1178.16L29.5148 1185.61C29.0192 1185.99 29.2901 1186.79 29.9165 1186.79H48.8389C49.459 1186.79 49.7337 1186.01 49.2502 1185.62Z" stroke="#CCD1D9" stroke-width="1.9704"/>
<path d="M140.245 1318.75C140.245 1351.52 113.618 1378.09 80.7645 1378.09C47.9108 1378.09 21.2841 1351.52 21.2841 1318.75C21.2841 1285.98 47.9108 1259.41 80.7645 1259.41C113.618 1259.41 140.245 1285.98 140.245 1318.75Z" fill="url(#paint7_linear_296_1065)" stroke="#FFEA55" stroke-width="3.284"/>
<path d="M93.6083 1300.55L80.2216 1281.57C79.9781 1281.22 80.1193 1280.74 80.5107 1280.58L89.3301 1276.99C91.2554 1276.2 93.2507 1275.61 95.2893 1275.2L105.007 1273.26C105.525 1273.16 105.947 1273.68 105.739 1274.16L103.176 1280.13L108.327 1283.76C110.657 1285.4 112.784 1287.31 114.663 1289.45C117.508 1292.7 119.747 1296.43 121.272 1300.46L122.269 1303.1C123.961 1307.58 124.939 1312.29 125.168 1317.07L125.234 1318.46C125.467 1323.35 124.766 1328.24 123.167 1332.87C123.097 1333.07 122.877 1333.18 122.676 1333.1L108.524 1328.15L109.241 1325.29C109.947 1322.47 110.206 1319.56 110.008 1316.66L109.99 1316.4C109.696 1312.1 108.365 1307.94 106.111 1304.27C105.175 1302.75 104.088 1301.32 102.867 1300.02L97.5727 1294.36L94.7404 1300.44C94.5275 1300.9 93.8992 1300.96 93.6083 1300.55Z" stroke="#FFEA55" stroke-width="2.6272"/>
<path d="M56.7325 1315.75L46.5847 1336.63C46.4005 1337.01 45.9111 1337.12 45.5818 1336.86L38.167 1330.91C36.5394 1329.61 35.0398 1328.15 33.6886 1326.56L27.2879 1319.03C26.9452 1318.63 27.1953 1318.01 27.7218 1317.96L34.1975 1317.3L34.8794 1311.05C35.189 1308.22 35.8348 1305.43 36.8033 1302.75C38.2666 1298.7 40.4469 1294.94 43.2403 1291.66L45.0743 1289.51C48.1814 1285.86 51.8425 1282.72 55.9245 1280.2L57.1132 1279.47C61.2839 1276.89 65.9074 1275.14 70.7373 1274.29C70.9486 1274.25 71.15 1274.39 71.186 1274.6L73.7035 1289.35L70.8464 1290.11C68.0344 1290.86 65.3578 1292.05 62.9141 1293.63L62.6805 1293.78C59.0618 1296.11 56.0633 1299.29 53.9406 1303.03C53.0576 1304.59 52.3339 1306.23 51.7803 1307.93L49.3876 1315.29L56.0935 1314.81C56.5983 1314.78 56.9534 1315.3 56.7325 1315.75Z" stroke="#FFEA55" stroke-width="2.6272"/>
<path d="M88.909 1340.86L112.145 1339.8C112.567 1339.78 112.897 1340.15 112.822 1340.57L111.121 1349.91C110.748 1351.96 110.18 1353.97 109.425 1355.91L105.849 1365.11C105.657 1365.61 104.991 1365.68 104.692 1365.25L101.024 1359.88L95.1973 1362.26C92.5531 1363.35 89.7899 1364.11 86.9657 1364.54C82.698 1365.19 78.3486 1365.07 74.1246 1364.19L71.3524 1363.61C66.6548 1362.62 62.1412 1360.91 57.9756 1358.54L56.7629 1357.84C52.5066 1355.41 48.7528 1352.2 45.7016 1348.37C45.5682 1348.2 45.5969 1347.96 45.7657 1347.82L57.5551 1338.58L59.5895 1340.72C61.5918 1342.83 63.9129 1344.61 66.4683 1346L66.7119 1346.13C70.4963 1348.19 74.7242 1349.31 79.0351 1349.38C80.828 1349.41 82.6197 1349.26 84.383 1348.94L92.0065 1347.52L88.3847 1341.87C88.1121 1341.45 88.4034 1340.89 88.909 1340.86Z" stroke="#FFEA55" stroke-width="2.6272"/>
<path d="M53.5823 1435.11H105.196L141.887 1471.9V1523.41L105.196 1559.9H53.5823L17.0952 1523.41V1471.9L53.5823 1435.11Z" fill="url(#paint8_linear_296_1065)" stroke="#FFEA55" stroke-width="3.284"/>
<path d="M103.663 1439.3H55.4224L21.1838 1473.64V1521.78L55.4224 1555.61H103.663L137.799 1521.78V1473.64L103.663 1439.3Z" stroke="#FFEA55" stroke-width="3.284"/>
<path d="M76.0666 1480.89H57.4653V1485.19H64.6197V1513.7H69.3211V1485.19H76.0666V1480.89Z" stroke="#FFEA55" stroke-width="3.284"/>
<path d="M108.159 1513.7V1480.89H117.396C118.252 1480.89 119.105 1481 119.933 1481.22L120.236 1481.3C122.021 1481.77 123.633 1482.79 124.83 1484.19C127.773 1487.65 127.695 1492.8 124.6 1496.12C123.537 1497.26 122.196 1498.1 120.707 1498.56L120.241 1498.71C119.21 1499.03 118.137 1499.19 117.058 1499.19H112.247V1513.7H108.159Z" stroke="#FFEA55" stroke-width="3.284"/>
<path d="M81.4834 1504.54V1490.18C81.4834 1489.65 81.5296 1489.11 81.6213 1488.58C83.4144 1478.26 98.2422 1478.3 100.054 1488.62C100.142 1489.12 100.19 1489.63 100.195 1490.14L100.346 1504.37C100.375 1507.05 99.2453 1509.64 97.261 1511.46C93.6243 1514.78 88.0108 1514.76 84.4284 1511.37C82.5486 1509.6 81.4834 1507.13 81.4834 1504.54Z" stroke="#FFEA55" stroke-width="3.284"/>
<path d="M112.247 1495V1484.78H117.761C119.198 1484.78 120.582 1485.39 121.555 1486.45C123.374 1488.42 123.371 1491.5 121.514 1493.44C120.556 1494.43 119.233 1495 117.849 1495H112.247Z" stroke="#FFEA55" stroke-width="3.284"/>
<path d="M85.5945 1504.46V1489.74C85.5945 1489.44 85.6206 1489.14 85.6724 1488.84C86.6858 1483.01 95.0641 1483.02 96.0883 1488.85C96.1393 1489.14 96.166 1489.44 96.1679 1489.73L96.2648 1504.37C96.2748 1505.89 95.6336 1507.34 94.5157 1508.37C92.4604 1510.25 89.2835 1510.24 87.2589 1508.32C86.1965 1507.32 85.5945 1505.92 85.5945 1504.46Z" stroke="#FFEA55" stroke-width="3.284"/>
<path d="M52.3556 1485.6L48.7784 1487.74L48.7483 1487.7C47.5712 1485.9 45.5012 1484.9 43.3616 1485.08L42.0495 1485.35C41.2352 1485.51 40.4726 1485.89 39.8491 1486.44C38.8395 1487.33 38.2514 1488.61 38.2514 1489.96V1490.02C38.2514 1490.8 38.459 1491.58 38.8533 1492.26C39.1969 1492.85 39.6724 1493.36 40.2431 1493.74L40.4462 1493.87C40.9554 1494.21 41.5175 1494.46 42.1095 1494.62L43.9439 1495.1C44.9833 1495.37 45.9893 1495.76 46.9432 1496.25L47.4521 1496.52C47.9942 1496.8 48.5061 1497.13 48.9796 1497.52C53.5852 1501.27 53.3092 1508.39 48.4271 1511.77L47.5744 1512.36C46.8824 1512.84 46.1192 1513.21 45.3129 1513.45C44.7631 1513.62 44.1972 1513.72 43.625 1513.77L42.6555 1513.84C42.1049 1513.88 41.552 1513.89 41.0011 1513.85L40.6992 1513.83C39.4868 1513.74 38.3007 1513.44 37.2017 1512.92C35.8745 1512.29 34.7056 1511.37 33.7821 1510.23L33.4478 1509.82L36.8205 1507.67C37.9882 1509.03 39.6928 1509.82 41.487 1509.82H42.0329L43.6355 1509.62C44.1973 1509.55 44.7407 1509.37 45.2367 1509.1C46.0766 1508.64 46.7459 1507.92 47.1461 1507.05L47.5452 1506.18C48.01 1505.17 48.0817 1504.02 47.7465 1502.96C47.3045 1501.56 46.2053 1500.46 44.8037 1500.03L42.4418 1499.29L39.17 1497.94C38.225 1497.55 37.3602 1496.99 36.6189 1496.28C36.0074 1495.7 35.4878 1495.03 35.0782 1494.29L35.0499 1494.24C34.1423 1492.61 33.7856 1490.73 34.0326 1488.87L34.061 1488.66L34.4797 1487.06C34.9367 1485.32 35.9676 1483.78 37.4065 1482.69C38.6897 1481.72 40.2345 1481.16 41.841 1481.07L43.3616 1481L44.7817 1481.07C46.2663 1481.16 47.7097 1481.59 48.9913 1482.35C49.9987 1482.94 50.8857 1483.72 51.6061 1484.64L52.3556 1485.6Z" stroke="#FFEA55" stroke-width="3.284"/>
<circle cx="79.4911" cy="1674.84" r="60.7539" fill="url(#paint9_linear_296_1065)" stroke="#FFEA55" stroke-width="3.284"/>
<path d="M94.9591 1637.35V1656.22H76.5116C72.77 1656.22 69.0681 1656.99 65.6344 1658.48C57.8402 1661.85 52.0526 1668.65 49.967 1676.88L49.2989 1679.52C48.631 1682.16 48.2932 1684.87 48.2932 1687.59V1721.77H66.645V1685.63C66.645 1684.22 66.9203 1682.82 67.4556 1681.51C68.4541 1679.07 70.3046 1677.07 72.6634 1675.89L72.8687 1675.79C74.4653 1674.99 76.2258 1674.58 78.0109 1674.58H94.9591V1693.45L132.711 1665.66L94.9591 1637.35Z" stroke="#FFEA55" stroke-width="2.6272"/>
<defs>
<linearGradient id="paint0_linear_296_1065" x1="79.4908" y1="16.4199" x2="79.5422" y2="207.236" gradientUnits="userSpaceOnUse">
<stop stop-color="#151515"/>
<stop offset="1" stop-color="#2E3C4B"/>
</linearGradient>
<linearGradient id="paint1_linear_296_1065" x1="79.4911" y1="193.756" x2="79.5422" y2="384.572" gradientUnits="userSpaceOnUse">
<stop stop-color="#151515"/>
<stop offset="1" stop-color="#2E3C4B"/>
</linearGradient>
<linearGradient id="paint2_linear_296_1065" x1="79.4911" y1="371.091" x2="79.5422" y2="561.907" gradientUnits="userSpaceOnUse">
<stop stop-color="#151515"/>
<stop offset="1" stop-color="#2E3C4B"/>
</linearGradient>
<linearGradient id="paint3_linear_296_1065" x1="79.4911" y1="548.427" x2="79.5422" y2="739.243" gradientUnits="userSpaceOnUse">
<stop stop-color="#151515"/>
<stop offset="1" stop-color="#2E3C4B"/>
</linearGradient>
<linearGradient id="paint4_linear_296_1065" x1="79.4911" y1="725.763" x2="79.5422" y2="916.579" gradientUnits="userSpaceOnUse">
<stop stop-color="#1A1914"/>
<stop offset="1" stop-color="#3C3A31"/>
</linearGradient>
<linearGradient id="paint5_linear_296_1065" x1="79.4911" y1="903.099" x2="79.5422" y2="1093.91" gradientUnits="userSpaceOnUse">
<stop stop-color="#151515"/>
<stop offset="1" stop-color="#2E3C4B"/>
</linearGradient>
<linearGradient id="paint6_linear_296_1065" x1="79.4911" y1="1092.42" x2="79.5245" y2="1246.57" gradientUnits="userSpaceOnUse">
<stop stop-color="#1A1914"/>
<stop offset="1" stop-color="#3C3A31"/>
</linearGradient>
<linearGradient id="paint7_linear_296_1065" x1="80.7645" y1="1257.77" x2="80.8144" y2="1444.25" gradientUnits="userSpaceOnUse">
<stop stop-color="#151515"/>
<stop offset="1" stop-color="#2E3C4B"/>
</linearGradient>
<linearGradient id="paint8_linear_296_1065" x1="79.4911" y1="1435.11" x2="79.5422" y2="1625.92" gradientUnits="userSpaceOnUse">
<stop stop-color="#151515"/>
<stop offset="1" stop-color="#2E3C4B"/>
</linearGradient>
<linearGradient id="paint9_linear_296_1065" x1="79.4911" y1="1612.44" x2="79.5422" y2="1803.26" gradientUnits="userSpaceOnUse">
<stop stop-color="#151515"/>
<stop offset="1" stop-color="#2E3C4B"/>
</linearGradient>
</defs>
</svg>
