<svg width="33" height="49" viewBox="0 0 33 49" fill="none" xmlns="http://www.w3.org/2000/svg">
<g opacity="0.5">
<path d="M23.7549 6.94645L16.4503 5.39381C13.7492 4.81967 11.0941 6.54391 10.52 9.24499L8.95008 16.631C8.37594 19.332 10.1002 21.9871 12.8013 22.5612L20.1059 24.1139C22.8069 24.688 25.462 22.9638 26.0362 20.2627L27.6061 12.8767C28.1802 10.1757 26.456 7.52058 23.7549 6.94645Z" stroke="#FFEA55"/>
<path d="M14.6201 32.3252L11.7493 45.8313" stroke="#FFEA55" stroke-width="3"/>
<path d="M16.1125 19.5345C13.743 14.4775 13.2156 13.9048 13.6035 12.284C14.1347 10.0638 16.5917 8.64648 19.0911 9.11841C21.5906 9.59033 23.1862 11.7727 22.6549 13.993C22.267 15.6138 21.523 15.9464 17.0428 19.7101C16.749 19.9561 16.2683 19.8653 16.1125 19.5345ZM17.7284 14.8135C18.7698 15.0101 19.7935 14.4196 20.0149 13.4945C20.2363 12.5694 19.5715 11.6601 18.53 11.4634C17.4885 11.2668 16.4648 11.8573 16.2435 12.7824C16.0221 13.7075 16.6869 14.6169 17.7284 14.8135Z" fill="#FFEA55"/>
<path d="M31.2192 5.47176L10.1233 0.987695C10.0595 0.974141 9.99338 0.976492 9.93074 0.994541C9.55013 1.1042 9.21101 1.32517 8.95695 1.62904L8.90529 1.69083C8.85823 1.74712 8.82565 1.81407 8.8104 1.88583L3.17657 28.3909C3.16067 28.4657 3.15835 28.5428 3.16973 28.6184L3.21676 28.931C3.27833 29.3403 3.45788 29.7227 3.73344 30.0315C3.79372 30.099 3.87397 30.1456 3.96252 30.1644L24.9893 34.6338C25.0635 34.6496 25.1406 34.6463 25.2132 34.6244C25.7281 34.4688 26.1703 34.134 26.4598 33.6806L26.5337 33.5649C26.5675 33.5119 26.5916 33.4533 26.6046 33.3917L32.2461 6.85055C32.2592 6.78928 32.257 6.72575 32.2398 6.66551C32.1152 6.228 31.8393 5.84893 31.4613 5.59586L31.3731 5.5368C31.3264 5.50552 31.2741 5.48345 31.2192 5.47176Z" stroke="#FFEA55"/>
</g>
</svg>
