<svg width="651" height="335" viewBox="0 0 651 335" fill="none" xmlns="http://www.w3.org/2000/svg">
<g opacity="0.1">
<circle cx="166.799" cy="263.233" r="13.5593" fill="url(#paint0_linear_271_4156)" stroke="#CCD1D9"/>
<path d="M177.491 263.291C177.483 269.225 172.667 274.028 166.733 274.021C160.8 274.013 155.996 269.197 156.004 263.263C156.012 257.33 160.828 252.526 166.762 252.534C172.695 252.542 177.499 257.358 177.491 263.291Z" stroke="#CCD1D9"/>
<circle cx="188.001" cy="55.7187" r="13.5593" fill="url(#paint1_linear_271_4156)" stroke="#CCD1D9"/>
<path d="M198.693 55.7767C198.685 61.7101 193.869 66.5138 187.935 66.506C182.002 66.4982 177.198 61.6819 177.206 55.7485C177.213 49.8151 182.03 45.0115 187.963 45.0193C193.897 45.0271 198.7 49.8434 198.693 55.7767Z" stroke="#CCD1D9"/>
<circle cx="636.941" cy="168.98" r="13.5593" fill="url(#paint2_linear_271_4156)" stroke="#CCD1D9"/>
<path d="M647.634 169.038C647.626 174.971 642.809 179.775 636.876 179.767C630.943 179.759 626.139 174.943 626.147 169.01C626.154 163.076 630.971 158.273 636.904 158.281C642.838 158.288 647.641 163.105 647.634 169.038Z" stroke="#CCD1D9"/>
<circle cx="427.514" cy="110.212" r="13.5593" fill="url(#paint3_linear_271_4156)" stroke="#CCD1D9"/>
<path d="M438.206 110.27C438.198 116.204 433.382 121.007 427.449 121C421.515 120.992 416.711 116.175 416.719 110.242C416.727 104.309 421.543 99.505 427.477 99.5128C433.41 99.5206 438.214 104.337 438.206 110.27Z" stroke="#CCD1D9"/>
<circle cx="14.0593" cy="76.3013" r="13.5593" fill="url(#paint4_linear_271_4156)" stroke="#CCD1D9"/>
<path d="M24.7514 76.3593C24.7436 82.2926 19.9272 87.0963 13.9938 87.0885C8.0603 87.0807 3.2566 82.2644 3.2644 76.331C3.2722 70.3977 8.08853 65.594 14.022 65.6018C19.9555 65.6096 24.7592 70.4259 24.7514 76.3593Z" stroke="#CCD1D9"/>
<circle cx="152.74" cy="153.852" r="13.5593" fill="url(#paint5_linear_271_4156)" stroke="#CCD1D9"/>
<path d="M164.131 150.419H141.289C140.975 150.419 140.709 150.65 140.665 150.961L140.624 151.256C140.366 153.097 140.38 154.967 140.666 156.804C140.709 157.081 140.948 157.286 141.229 157.286H164.167C164.455 157.286 164.699 157.076 164.742 156.791C165.028 154.914 165.037 153.006 164.768 151.126L164.743 150.95C164.699 150.645 164.439 150.419 164.131 150.419Z" stroke="#CCD1D9"/>
<circle cx="382.468" cy="320.933" r="13.5593" fill="url(#paint6_linear_271_4156)" stroke="#CCD1D9"/>
<path d="M393.859 317.499H371.017C370.703 317.499 370.437 317.731 370.394 318.042L370.352 318.336C370.095 320.178 370.109 322.047 370.395 323.884C370.438 324.162 370.677 324.366 370.957 324.366H393.895C394.183 324.366 394.428 324.156 394.471 323.871C394.757 321.995 394.765 320.086 394.497 318.207L394.472 318.03C394.428 317.725 394.167 317.499 393.859 317.499Z" stroke="#CCD1D9"/>
<circle cx="601.68" cy="267.114" r="13.5593" fill="url(#paint7_linear_271_4156)" stroke="#CCD1D9"/>
<path d="M613.07 263.68H590.228C589.914 263.68 589.648 263.912 589.605 264.223L589.563 264.517C589.306 266.359 589.32 268.228 589.606 270.065C589.649 270.343 589.888 270.547 590.168 270.547H613.106C613.394 270.547 613.639 270.337 613.682 270.053C613.968 268.176 613.976 266.267 613.708 264.388L613.683 264.211C613.639 263.907 613.378 263.68 613.07 263.68Z" stroke="#CCD1D9"/>
<circle cx="479.308" cy="219.031" r="13.5593" fill="url(#paint8_linear_271_4156)" stroke="#CCD1D9"/>
<path d="M490.698 215.597H467.856C467.542 215.597 467.276 215.829 467.232 216.14L467.191 216.434C466.933 218.276 466.948 220.145 467.233 221.982C467.277 222.26 467.515 222.464 467.796 222.464H490.734C491.022 222.464 491.266 222.254 491.31 221.97C491.595 220.093 491.604 218.184 491.336 216.305L491.31 216.128C491.267 215.824 491.006 215.597 490.698 215.597Z" stroke="#CCD1D9"/>
<circle cx="264.763" cy="153.852" r="13.5593" fill="url(#paint9_linear_271_4156)" stroke="#CCD1D9"/>
<path d="M268.249 145.405V149.658H264.092C263.249 149.658 262.415 149.831 261.641 150.166C259.885 150.926 258.581 152.458 258.111 154.313L257.961 154.906C257.81 155.501 257.734 156.112 257.734 156.726V164.426H261.869V156.284C261.869 155.966 261.931 155.65 262.051 155.355C262.276 154.805 262.693 154.356 263.225 154.09L263.271 154.067C263.631 153.887 264.028 153.793 264.43 153.793H268.249V158.046L276.755 151.785L268.249 145.405Z" stroke="#CCD1D9"/>
<circle cx="249.327" cy="256.503" r="13.2401" fill="url(#paint10_linear_271_4156)" stroke="#CCD1D9"/>
<path d="M251.366 251.195L249.462 248.49C249.276 248.225 249.384 247.856 249.683 247.734L249.778 247.696C251.192 247.118 252.657 246.677 254.155 246.378C254.535 246.302 254.845 246.683 254.692 247.04L254.365 247.801L255.522 248.618C256.047 248.988 256.526 249.419 256.948 249.903C257.588 250.633 258.09 251.472 258.433 252.381L258.657 252.976C259.038 253.985 259.258 255.048 259.309 256.126L259.324 256.439C259.377 257.541 259.219 258.642 258.859 259.684C258.844 259.73 258.794 259.754 258.749 259.738L255.568 258.622L255.729 257.977C255.888 257.342 255.946 256.686 255.901 256.033L255.897 255.972C255.831 255.005 255.532 254.068 255.026 253.241C254.815 252.898 254.57 252.576 254.295 252.282L253.106 251.007L253.09 251.041C252.766 251.738 251.808 251.824 251.366 251.195Z" stroke="#CCD1D9"/>
<path d="M243.282 257.155L241.839 260.132C241.698 260.423 241.323 260.507 241.071 260.304L240.991 260.24C239.801 259.283 238.704 258.216 237.716 257.051C237.466 256.756 237.649 256.3 238.035 256.261L238.859 256.177L239.013 254.769C239.082 254.131 239.227 253.503 239.445 252.899C239.774 251.986 240.264 251.139 240.893 250.399L241.305 249.914C242.003 249.092 242.826 248.384 243.743 247.817L244.01 247.652C244.948 247.072 245.988 246.676 247.073 246.485C247.121 246.477 247.166 246.509 247.174 246.556L247.74 249.88L247.098 250.051C246.466 250.22 245.864 250.487 245.315 250.843L245.263 250.876C244.449 251.403 243.775 252.118 243.297 252.962C243.099 253.313 242.936 253.683 242.812 254.066L242.274 255.724L242.31 255.722C243.078 255.667 243.617 256.463 243.282 257.155Z" stroke="#CCD1D9"/>
<path d="M252.632 261.418L255.937 261.266C256.26 261.251 256.513 261.54 256.455 261.858L256.436 261.959C256.163 263.462 255.748 264.935 255.196 266.359C255.056 266.72 254.568 266.776 254.349 266.456L253.883 265.771L252.572 266.308C251.978 266.552 251.357 266.724 250.722 266.821C249.763 266.967 248.785 266.94 247.835 266.741L247.212 266.611C246.156 266.389 245.142 266.004 244.205 265.468L243.933 265.312C242.976 264.765 242.132 264.04 241.446 263.177C241.416 263.139 241.423 263.084 241.46 263.055L244.111 260.972L244.568 261.454C245.018 261.929 245.54 262.33 246.115 262.644L246.169 262.673C247.02 263.137 247.97 263.388 248.94 263.405C249.343 263.412 249.745 263.379 250.141 263.305L251.855 262.987L251.836 262.956C251.421 262.307 251.863 261.453 252.632 261.418Z" stroke="#CCD1D9"/>
<circle cx="521.627" cy="104.157" r="13.2401" fill="url(#paint11_linear_271_4156)" stroke="#CCD1D9"/>
<path d="M523.666 98.8487L521.762 96.1434C521.576 95.879 521.684 95.5103 521.983 95.3881L522.078 95.3494C523.492 94.7723 524.957 94.331 526.455 94.0316C526.835 93.9555 527.145 94.3371 526.992 94.6934L526.665 95.4551L527.822 96.2718C528.347 96.642 528.826 97.0732 529.248 97.5564C529.888 98.2869 530.39 99.1263 530.733 100.035L530.957 100.63C531.338 101.639 531.558 102.702 531.609 103.78L531.624 104.093C531.677 105.194 531.519 106.296 531.159 107.338C531.144 107.383 531.094 107.407 531.049 107.391L527.868 106.275L528.029 105.63C528.188 104.996 528.246 104.34 528.201 103.687L528.197 103.626C528.131 102.658 527.832 101.722 527.326 100.895C527.115 100.552 526.87 100.23 526.596 99.9356L525.406 98.6611L525.391 98.6943C525.066 99.3923 524.109 99.478 523.666 98.8487Z" stroke="#CCD1D9"/>
<path d="M515.582 104.809L514.138 107.785C513.997 108.076 513.622 108.16 513.371 107.958L513.291 107.894C512.1 106.937 511.004 105.869 510.016 104.705C509.765 104.409 509.949 103.953 510.335 103.914L511.159 103.83L511.312 102.422C511.382 101.784 511.527 101.157 511.745 100.553C512.074 99.6393 512.564 98.7926 513.192 98.0527L513.604 97.5678C514.303 96.7455 515.126 96.0379 516.043 95.4706L516.31 95.3055C517.248 94.7258 518.287 94.3299 519.373 94.1389C519.421 94.1306 519.466 94.1624 519.474 94.2099L520.04 97.533L519.398 97.7046C518.765 97.8736 518.164 98.1407 517.614 98.4961L517.563 98.5296C516.749 99.0561 516.074 99.7718 515.597 100.615C515.399 100.966 515.236 101.336 515.112 101.719L514.574 103.378L514.61 103.375C515.378 103.32 515.917 104.116 515.582 104.809Z" stroke="#CCD1D9"/>
<path d="M524.931 109.072L528.235 108.92C528.558 108.905 528.811 109.194 528.753 109.512L528.735 109.613C528.462 111.116 528.047 112.589 527.495 114.013C527.355 114.374 526.867 114.43 526.648 114.11L526.181 113.425L524.871 113.962C524.277 114.206 523.656 114.378 523.021 114.475C522.062 114.621 521.083 114.594 520.133 114.395L519.511 114.265C518.455 114.043 517.44 113.658 516.504 113.122L516.232 112.966C515.275 112.419 514.431 111.694 513.745 110.831C513.715 110.793 513.721 110.738 513.759 110.709L516.409 108.626L516.867 109.108C517.317 109.583 517.839 109.984 518.413 110.298L518.467 110.327C519.318 110.791 520.269 111.042 521.238 111.059C521.641 111.066 522.044 111.033 522.44 110.959L524.154 110.641L524.134 110.61C523.72 109.961 524.162 109.107 524.931 109.072Z" stroke="#CCD1D9"/>
<circle cx="270.528" cy="48.9885" r="13.2401" fill="url(#paint12_linear_271_4156)" stroke="#CCD1D9"/>
<path d="M272.567 43.6801L270.663 40.9748C270.477 40.7104 270.585 40.3417 270.885 40.2195L270.98 40.1808C272.393 39.6037 273.859 39.1625 275.356 38.863C275.736 38.787 276.046 39.1685 275.893 39.5249L275.567 40.2865L276.724 41.1032C277.248 41.4734 277.727 41.9046 278.15 42.3878C278.789 43.1183 279.292 43.9577 279.634 44.866L279.859 45.4613C280.239 46.4707 280.459 47.5336 280.511 48.6111L280.525 48.9246C280.578 50.0258 280.42 51.127 280.061 52.1692C280.045 52.2148 279.995 52.2388 279.95 52.2229L276.769 51.1068L276.93 50.4619C277.089 49.8271 277.147 49.1713 277.103 48.5185L277.098 48.457C277.033 47.4899 276.734 46.5531 276.227 45.7266C276.016 45.3831 275.772 45.0616 275.497 44.767L274.307 43.4925L274.292 43.5258C273.968 44.2237 273.01 44.3094 272.567 43.6801Z" stroke="#CCD1D9"/>
<path d="M264.483 49.6401L263.04 52.6168C262.899 52.9076 262.524 52.9919 262.272 52.7894L262.192 52.7251C261.002 51.7683 259.905 50.7005 258.918 49.5361C258.667 49.2404 258.85 48.7847 259.236 48.7455L260.06 48.6617L260.214 47.2539C260.283 46.6156 260.428 45.9879 260.646 45.3839C260.975 44.4707 261.465 43.624 262.094 42.8841L262.506 42.3992C263.204 41.5769 264.027 40.8693 264.945 40.302L265.211 40.137C266.149 39.5572 267.189 39.1613 268.275 38.9703C268.322 38.962 268.367 38.9938 268.375 39.0413L268.941 42.3644L268.299 42.5361C267.667 42.705 267.065 42.9721 266.516 43.3275L266.464 43.361C265.65 43.8875 264.976 44.6032 264.498 45.4469C264.3 45.7976 264.137 46.1674 264.013 46.5507L263.475 48.209L263.512 48.2064C264.279 48.1514 264.819 48.9477 264.483 49.6401Z" stroke="#CCD1D9"/>
<path d="M273.833 53.9034L277.138 53.7514C277.461 53.7365 277.714 54.0257 277.656 54.3438L277.638 54.4447C277.365 55.9471 276.949 57.4202 276.398 58.844C276.257 59.2055 275.769 59.2616 275.551 58.9413L275.084 58.2568L273.773 58.7938C273.179 59.0372 272.558 59.2092 271.924 59.3061C270.964 59.4527 269.986 59.4258 269.036 59.2266L268.413 59.0961C267.358 58.8747 266.343 58.4891 265.407 57.9535L265.134 57.7976C264.177 57.2501 263.333 56.5255 262.647 55.6624C262.617 55.6247 262.624 55.5698 262.662 55.54L265.312 53.457L265.769 53.9395C266.219 54.4144 266.741 54.8158 267.316 55.129L267.37 55.1585C268.221 55.6225 269.172 55.8737 270.141 55.8905C270.544 55.8975 270.946 55.864 271.343 55.7904L273.057 55.4719L273.037 55.441C272.622 54.7927 273.065 53.9388 273.833 53.9034Z" stroke="#CCD1D9"/>
<path d="M313.317 287.586L300.46 274.729C300.364 274.632 300.248 274.557 300.121 274.508L300.105 274.502C299.881 274.416 299.633 274.42 299.412 274.512C299.3 274.558 299.198 274.627 299.112 274.713L286.178 287.647C286.087 287.738 286.012 287.844 285.958 287.961C285.82 288.257 285.82 288.598 285.958 288.894C286.012 289.011 286.087 289.117 286.178 289.208L299.112 302.142C299.198 302.228 299.3 302.296 299.412 302.343C299.633 302.435 299.881 302.439 300.105 302.353L300.121 302.347C300.248 302.298 300.364 302.223 300.46 302.126L313.317 289.269C313.448 289.138 313.546 288.979 313.605 288.804C313.686 288.559 313.686 288.295 313.605 288.051C313.546 287.876 313.448 287.716 313.317 287.586Z" fill="url(#paint13_linear_271_4156)" stroke="#CCD1D9"/>
<path d="M298.303 281.18L292.473 287.01C291.691 287.792 291.693 289.061 292.477 289.842L298.307 295.643C299.086 296.418 300.344 296.419 301.125 295.646L306.984 289.845C307.773 289.064 307.774 287.789 306.987 287.006L301.128 281.176C300.347 280.399 299.083 280.4 298.303 281.18Z" stroke="#CCD1D9"/>
<path d="M585.617 135.24L572.76 122.382C572.664 122.286 572.548 122.211 572.421 122.162L572.405 122.156C572.181 122.07 571.933 122.073 571.712 122.165C571.6 122.212 571.498 122.281 571.412 122.367L558.478 135.301C558.387 135.392 558.312 135.498 558.258 135.614C558.12 135.91 558.12 136.252 558.258 136.548C558.312 136.665 558.387 136.771 558.478 136.862L571.412 149.796C571.498 149.882 571.6 149.95 571.712 149.997C571.933 150.089 572.181 150.093 572.405 150.007L572.421 150C572.548 149.951 572.664 149.876 572.76 149.78L585.617 136.923C585.748 136.792 585.846 136.633 585.905 136.458C585.986 136.213 585.986 135.949 585.905 135.705C585.846 135.53 585.748 135.37 585.617 135.24Z" fill="url(#paint14_linear_271_4156)" stroke="#CCD1D9"/>
<path d="M570.603 128.834L564.773 134.664C563.991 135.446 563.993 136.715 564.777 137.496L570.607 143.297C571.386 144.072 572.644 144.073 573.425 143.3L579.284 137.499C580.073 136.718 580.074 135.443 579.287 134.66L573.428 128.83C572.647 128.052 571.383 128.054 570.603 128.834Z" stroke="#CCD1D9"/>
<path d="M350.266 69.2737L337.408 56.4166C337.312 56.3202 337.196 56.2451 337.069 56.1961L337.053 56.1899C336.83 56.104 336.582 56.1074 336.361 56.1995C336.248 56.2463 336.146 56.3146 336.06 56.4006L323.126 69.3348C323.035 69.4258 322.961 69.532 322.906 69.6485C322.768 69.9444 322.768 70.2862 322.906 70.582C322.961 70.6986 323.035 70.8048 323.126 70.8957L336.06 83.83C336.146 83.916 336.248 83.9843 336.361 84.0311C336.582 84.1232 336.83 84.1266 337.053 84.0407L337.069 84.0345C337.196 83.9855 337.312 83.9104 337.408 83.814L350.266 70.9569C350.396 70.8263 350.495 70.667 350.553 70.4917C350.635 70.2474 350.635 69.9832 350.553 69.7389C350.495 69.5636 350.396 69.4043 350.266 69.2737Z" fill="url(#paint15_linear_271_4156)" stroke="#CCD1D9"/>
<path d="M335.252 62.8676L329.422 68.6976C328.639 69.48 328.641 70.7491 329.425 71.5296L335.255 77.3307C336.034 78.1057 337.292 78.1073 338.073 77.3342L343.932 71.533C344.721 70.7518 344.723 69.4773 343.936 68.6941L338.077 62.8641C337.295 62.0864 336.031 62.0879 335.252 62.8676Z" stroke="#CCD1D9"/>
<path d="M77.2339 89.5189L64.3768 76.6618C64.2804 76.5654 64.1649 76.4903 64.0376 76.4414L64.0215 76.4352C63.7981 76.3492 63.5501 76.3526 63.3291 76.4447C63.2168 76.4915 63.1148 76.5598 63.0288 76.6459L50.0945 89.5801C50.0036 89.671 49.9292 89.7772 49.8748 89.8938C49.7367 90.1896 49.7367 90.5314 49.8748 90.8273C49.9292 90.9439 50.0036 91.05 50.0945 91.141L63.0288 104.075C63.1148 104.161 63.2168 104.23 63.3291 104.276C63.5501 104.368 63.7981 104.372 64.0215 104.286L64.0376 104.28C64.1649 104.231 64.2804 104.156 64.3768 104.059L77.2339 91.2022C77.3646 91.0715 77.463 90.9122 77.5215 90.7369C77.6029 90.4926 77.6029 90.2285 77.5215 89.9841C77.463 89.8088 77.3646 89.6496 77.2339 89.5189Z" fill="url(#paint16_linear_271_4156)" stroke="#CCD1D9"/>
<path d="M62.2192 83.1129L56.3892 88.9429C55.6067 89.7253 55.6083 90.9943 56.3927 91.7748L62.2227 97.5759C63.0015 98.3509 64.2598 98.3525 65.0406 97.5794L70.8994 91.7783C71.6884 90.997 71.69 89.7226 70.9029 88.9394L65.0441 83.1094C64.2625 82.3316 62.9988 82.3332 62.2192 83.1129Z" stroke="#CCD1D9"/>
<path d="M344.564 204.067C344.564 201.305 346.803 199.067 349.564 199.067H367.624C370.385 199.067 372.624 201.305 372.624 204.067V222.185C372.624 224.947 370.385 227.185 367.624 227.185H349.564C346.803 227.185 344.564 224.947 344.564 222.185V204.067Z" fill="url(#paint17_linear_271_4156)" stroke="#CCD1D9"/>
<path d="M362.707 202.847H351.594V223.345H355.256V217.261H362.689C362.814 217.261 362.938 217.249 363.06 217.224C364.244 216.987 365.244 216.2 365.752 215.104L365.866 214.858C365.998 214.573 366.067 214.263 366.067 213.949V206.096C365.891 204.484 364.678 203.178 363.083 202.885L363.043 202.878C362.932 202.858 362.82 202.847 362.707 202.847Z" stroke="#CCD1D9"/>
<path d="M361.814 206.51H355.375V213.599H361.814L362.346 213.067V206.982L361.814 206.51Z" stroke="#CCD1D9"/>
<path d="M108.482 6C108.482 3.23857 110.72 1 113.482 1H131.541C134.302 1 136.541 3.23858 136.541 6V24.1185C136.541 26.88 134.302 29.1185 131.541 29.1185H113.482C110.72 29.1185 108.482 26.8799 108.482 24.1185V6Z" fill="url(#paint18_linear_271_4156)" stroke="#CCD1D9"/>
<path d="M126.624 4.78064H115.511V25.2788H119.174V19.1943H126.607C126.731 19.1943 126.856 19.182 126.978 19.1576C128.162 18.9208 129.162 18.1333 129.669 17.0378L129.784 16.7909C129.916 16.5063 129.984 16.1963 129.984 15.8826V8.02963C129.809 6.41731 128.595 5.11149 127 4.81851L126.961 4.81126C126.85 4.79089 126.737 4.78064 126.624 4.78064Z" stroke="#CCD1D9"/>
<path d="M125.731 8.44312H119.292V15.5318H125.731L126.263 15.0002V8.9157L125.731 8.44312Z" stroke="#CCD1D9"/>
<path d="M333.464 133.719H311.404C309.747 133.719 308.404 135.063 308.404 136.719V158.838C308.404 160.495 309.747 161.838 311.404 161.838H333.464C335.12 161.838 336.464 160.495 336.464 158.838V136.719C336.464 135.063 335.12 133.719 333.464 133.719Z" fill="url(#paint19_linear_271_4156)" stroke="#CCD1D9"/>
<path d="M336.11 157.829L322.552 134.014L308.699 157.829H336.11Z" stroke="#CCD1D9"/>
<path d="M312 153.644H318.425" stroke="#CCD1D9"/>
<path d="M321.668 153.644H325.028" stroke="#CCD1D9"/>
<path d="M327.916 153.644H332.809" stroke="#CCD1D9"/>
<path d="M319.958 151.404L322.198 148.339L322.316 148.103L322.021 145.214L321.314 146.511L318.838 148.575L318.248 147.572L320.606 145.097L322.316 141.324L324.85 142.621L326.973 144.92V148.869L325.676 149.636V145.863L324.733 144.566V147.572L325.263 149.459L328.623 156.061L326.737 157.181H324.85L326.737 155.825L323.554 150.166L321.431 152.76L320.135 157.063L316.716 156.709V156.061L318.838 155.589L319.958 151.404Z" stroke="#CCD1D9"/>
<circle cx="322.315" cy="139.909" r="0.796871" stroke="#CCD1D9"/>
<path d="M518.371 304.624H496.312C494.655 304.624 493.312 305.967 493.312 307.624V329.742C493.312 331.399 494.655 332.742 496.312 332.742H518.371C520.028 332.742 521.371 331.399 521.371 329.742V307.624C521.371 305.967 520.028 304.624 518.371 304.624Z" fill="url(#paint20_linear_271_4156)" stroke="#CCD1D9"/>
<path d="M521.017 328.734L507.459 304.919L493.606 328.734H521.017Z" stroke="#CCD1D9"/>
<path d="M496.907 324.549H503.333" stroke="#CCD1D9"/>
<path d="M506.574 324.549H509.934" stroke="#CCD1D9"/>
<path d="M512.823 324.549H517.716" stroke="#CCD1D9"/>
<path d="M504.865 322.309L507.105 319.243L507.223 319.007L506.929 316.119L506.221 317.416L503.745 319.479L503.156 318.477L505.514 316.001L507.223 312.228L509.758 313.525L511.88 315.824V319.774L510.583 320.54V316.767L509.64 315.471V318.477L510.171 320.363L513.531 326.966L511.644 328.086H509.758L511.644 326.73L508.461 321.071L506.339 323.664L505.042 327.968L501.623 327.614V326.966L503.745 326.494L504.865 322.309Z" stroke="#CCD1D9"/>
<circle cx="507.224" cy="310.813" r="0.796871" stroke="#CCD1D9"/>
<path d="M124.755 220.718H97.9989C97.6669 220.718 97.3373 220.647 97.0348 220.51C96.2007 220.133 95.6602 219.301 95.6602 218.386C95.6602 217.975 95.769 217.571 95.9756 217.216L109.681 193.639C109.916 193.236 110.289 192.933 110.731 192.785C111.094 192.664 111.485 192.655 111.853 192.758L111.924 192.778C112.465 192.929 112.926 193.286 113.207 193.773L126.78 217.216C126.986 217.571 127.094 217.974 127.094 218.384C127.094 219.301 126.554 220.133 125.719 220.51C125.416 220.647 125.087 220.718 124.755 220.718Z" fill="url(#paint21_linear_271_4156)" stroke="#CCD1D9"/>
<path d="M125.773 217.964L112.294 194.375C111.861 193.645 110.809 193.631 110.357 194.349L110.34 194.375L96.7231 218.002C96.5751 218.259 96.5551 218.57 96.6691 218.843C96.7441 219.023 96.8724 219.176 97.0368 219.28L97.1223 219.335C97.3268 219.465 97.5642 219.534 97.8065 219.534H124.94C125.146 219.534 125.347 219.467 125.512 219.343C125.656 219.236 125.766 219.09 125.83 218.923L125.843 218.889C125.96 218.585 125.934 218.246 125.773 217.964Z" stroke="#CCD1D9"/>
<circle cx="113.537" cy="202.663" r="0.683938" stroke="#CCD1D9"/>
<path d="M113.183 203.906L111.348 202.841L106.02 203.906L105.073 207.044L104.421 206.688L104.066 207.221L104.895 207.695L104.717 207.991L105.665 208.464L105.783 208.168L106.197 208.464L104.303 218.942H107.914L106.138 217.226L107.914 211.128L109.572 213.674V218.942H113.183L111.348 217.226V213.674L109.69 210.477L111.703 211.543V212.016L113.183 212.845V212.431L115.965 213.97L115.314 215.035L118.214 216.752L119.753 214.147L116.912 212.549L116.32 213.437L113.183 211.779V203.906Z" stroke="#CCD1D9"/>
<path d="M111.702 211.01V206.748L109.098 209.116L109.334 209.648L111.702 211.01Z" stroke="#CCD1D9"/>
<path d="M106.552 207.932L106.02 207.636L107.5 204.972H109.394L106.552 207.932Z" stroke="#CCD1D9"/>
<path d="M124.241 217.376L122.189 214.391C121.804 213.832 120.987 213.809 120.573 214.347L118.272 217.332C117.765 217.989 118.234 218.942 119.064 218.942H123.417C124.222 218.942 124.697 218.039 124.241 217.376Z" stroke="#CCD1D9"/>
<path d="M101.441 217.119L101.147 216.871C100.78 216.561 100.245 216.556 99.8721 216.859L99.5667 217.107C98.8353 217.7 99.2549 218.883 100.197 218.883H100.796C101.728 218.883 102.153 217.72 101.441 217.119Z" stroke="#CCD1D9"/>
<path d="M451.323 285.897H424.566C424.234 285.897 423.905 285.826 423.602 285.689C422.768 285.312 422.228 284.48 422.228 283.565C422.228 283.154 422.336 282.75 422.543 282.394L436.249 258.818C436.483 258.415 436.857 258.111 437.299 257.964C437.662 257.843 438.052 257.833 438.421 257.937L438.491 257.956C439.033 258.108 439.493 258.465 439.775 258.951L453.348 282.395C453.553 282.75 453.661 283.153 453.661 283.563C453.661 284.479 453.121 285.312 452.286 285.689C451.984 285.826 451.654 285.897 451.323 285.897Z" fill="url(#paint22_linear_271_4156)" stroke="#CCD1D9"/>
<path d="M452.341 283.143L438.862 259.554C438.43 258.824 437.378 258.81 436.925 259.528L436.909 259.554L423.292 283.181C423.144 283.438 423.124 283.749 423.238 284.022C423.313 284.202 423.441 284.355 423.605 284.459L423.691 284.514C423.895 284.644 424.133 284.713 424.375 284.713H451.509C451.715 284.713 451.916 284.646 452.081 284.522C452.224 284.415 452.334 284.269 452.398 284.102L452.412 284.067C452.528 283.764 452.502 283.425 452.341 283.143Z" stroke="#CCD1D9"/>
<circle cx="440.105" cy="267.842" r="0.683938" stroke="#CCD1D9"/>
<path d="M439.75 269.085L437.915 268.019L432.587 269.085L431.64 272.222L430.989 271.867L430.634 272.4L431.463 272.873L431.285 273.169L432.232 273.643L432.351 273.347L432.765 273.643L430.871 284.121H434.482L432.706 282.404L434.482 276.307L436.139 278.852V284.121H439.75L437.915 282.404V278.852L436.258 275.656L438.27 276.721V277.195L439.75 278.024V277.609L442.532 279.148L441.881 280.214L444.782 281.931L446.321 279.326L443.48 277.728L442.888 278.616L439.75 276.958V269.085Z" stroke="#CCD1D9"/>
<path d="M438.27 276.189V271.926L435.665 274.294L435.902 274.827L438.27 276.189Z" stroke="#CCD1D9"/>
<path d="M433.12 273.11L432.587 272.814L434.067 270.151H435.961L433.12 273.11Z" stroke="#CCD1D9"/>
<path d="M450.808 282.554L448.756 279.569C448.372 279.01 447.554 278.988 447.14 279.525L444.839 282.51C444.332 283.168 444.801 284.121 445.631 284.121H449.984C450.789 284.121 451.265 283.218 450.808 282.554Z" stroke="#CCD1D9"/>
<path d="M428.008 282.298L427.714 282.05C427.347 281.74 426.812 281.735 426.44 282.038L426.134 282.286C425.403 282.879 425.822 284.062 426.764 284.062H427.364C428.296 284.062 428.721 282.899 428.008 282.298Z" stroke="#CCD1D9"/>
<path d="M488.271 67.5846H461.514C461.183 67.5846 460.853 67.5133 460.55 67.3766C459.716 67 459.176 66.1676 459.176 65.2524C459.176 64.8413 459.285 64.4375 459.491 64.0821L473.197 40.5059C473.431 40.1028 473.805 39.7991 474.247 39.6517C474.61 39.5307 475.001 39.5212 475.369 39.6243L475.439 39.6441C475.981 39.7956 476.441 40.1527 476.723 40.6391L490.296 64.0829C490.501 64.4378 490.609 64.8407 490.609 65.2508C490.609 66.167 490.069 66.9997 489.234 67.3768C488.932 67.5134 488.603 67.5846 488.271 67.5846Z" fill="url(#paint23_linear_271_4156)" stroke="#CCD1D9"/>
<path d="M489.288 64.8303L475.809 41.2421C475.377 40.5118 474.325 40.4976 473.872 41.216L473.856 41.2421L460.239 64.8686C460.091 65.1254 460.071 65.4365 460.185 65.7101C460.26 65.89 460.388 66.0425 460.552 66.1471L460.638 66.2016C460.842 66.3317 461.08 66.4008 461.322 66.4008H488.456C488.662 66.4008 488.863 66.3339 489.028 66.2101C489.171 66.1026 489.281 65.9569 489.346 65.7897L489.359 65.7552C489.475 65.452 489.45 65.1124 489.288 64.8303Z" stroke="#CCD1D9"/>
<circle cx="477.053" cy="49.5296" r="0.683938" stroke="#CCD1D9"/>
<path d="M476.698 50.7727L474.863 49.7072L469.535 50.7727L468.588 53.9101L467.937 53.555L467.582 54.0877L468.411 54.5613L468.233 54.8573L469.18 55.3309L469.299 55.0349L469.713 55.3309L467.819 65.8087H471.43L469.654 64.092L471.43 57.9947L473.087 60.5402V65.8087H476.698L474.863 64.092V60.5402L473.206 57.3436L475.218 58.4091V58.8827L476.698 59.7114V59.2971L479.48 60.8362L478.829 61.9017L481.73 63.6184L483.269 61.0138L480.428 59.4154L479.836 60.3034L476.698 58.6459V50.7727Z" stroke="#CCD1D9"/>
<path d="M475.219 57.8764V53.6143L472.614 55.9821L472.851 56.5149L475.219 57.8764Z" stroke="#CCD1D9"/>
<path d="M470.068 54.7981L469.535 54.5021L471.015 51.8383H472.91L470.068 54.7981Z" stroke="#CCD1D9"/>
<path d="M487.756 64.2421L485.704 61.2571C485.32 60.6981 484.502 60.6759 484.088 61.2131L481.787 64.1981C481.281 64.8556 481.749 65.8086 482.579 65.8086H486.932C487.738 65.8086 488.213 64.9056 487.756 64.2421Z" stroke="#CCD1D9"/>
<path d="M464.956 63.985L464.663 63.7373C464.296 63.4279 463.761 63.4228 463.388 63.7252L463.083 63.973C462.351 64.5664 462.771 65.7496 463.713 65.7496H464.312C465.244 65.7496 465.669 64.5861 464.956 63.985Z" stroke="#CCD1D9"/>
<path d="M146.124 322.114H119.368C119.036 322.114 118.706 322.042 118.404 321.906C117.57 321.529 117.029 320.697 117.029 319.781C117.029 319.37 117.138 318.967 117.345 318.611L131.051 295.035C131.285 294.632 131.658 294.328 132.101 294.181C132.463 294.06 132.854 294.05 133.222 294.153L133.293 294.173C133.834 294.325 134.295 294.682 134.576 295.168L148.149 318.612C148.355 318.967 148.463 319.37 148.463 319.78C148.463 320.696 147.923 321.529 147.088 321.906C146.785 322.042 146.456 322.114 146.124 322.114Z" fill="url(#paint24_linear_271_4156)" stroke="#CCD1D9"/>
<path d="M147.142 319.359L133.663 295.771C133.23 295.041 132.178 295.027 131.726 295.745L131.709 295.771L118.092 319.398C117.944 319.654 117.924 319.966 118.038 320.239C118.113 320.419 118.242 320.572 118.406 320.676L118.491 320.731C118.696 320.861 118.933 320.93 119.176 320.93H146.309C146.516 320.93 146.716 320.863 146.881 320.739C147.025 320.632 147.135 320.486 147.199 320.319L147.212 320.284C147.329 319.981 147.303 319.641 147.142 319.359Z" stroke="#CCD1D9"/>
<circle cx="132.766" cy="303.821" r="2.15971" stroke="#CCD1D9"/>
<circle cx="132.766" cy="309.879" r="2.15971" stroke="#CCD1D9"/>
<circle cx="132.766" cy="315.938" r="2.15971" stroke="#CCD1D9"/>
<path d="M432.765 181.69H406.008C405.676 181.69 405.347 181.618 405.044 181.482C404.21 181.105 403.67 180.273 403.67 179.357C403.67 178.946 403.779 178.543 403.985 178.187L417.691 154.611C417.925 154.208 418.299 153.904 418.741 153.757C419.104 153.636 419.494 153.626 419.863 153.729L419.933 153.749C420.475 153.901 420.935 154.258 421.217 154.744L434.79 178.188C434.995 178.543 435.103 178.946 435.103 179.356C435.103 180.272 434.563 181.105 433.728 181.482C433.426 181.618 433.096 181.69 432.765 181.69Z" fill="url(#paint25_linear_271_4156)" stroke="#CCD1D9"/>
<path d="M433.782 178.935L420.303 155.347C419.871 154.617 418.819 154.602 418.366 155.321L418.35 155.347L404.733 178.973C404.585 179.23 404.565 179.541 404.679 179.815C404.754 179.995 404.882 180.147 405.046 180.252L405.132 180.306C405.336 180.436 405.574 180.506 405.816 180.506H432.95C433.156 180.506 433.357 180.439 433.522 180.315C433.665 180.207 433.775 180.062 433.839 179.894L433.853 179.86C433.969 179.557 433.944 179.217 433.782 178.935Z" stroke="#CCD1D9"/>
<circle cx="419.407" cy="163.397" r="2.15971" stroke="#CCD1D9"/>
<circle cx="419.407" cy="169.455" r="2.15971" stroke="#CCD1D9"/>
<circle cx="419.407" cy="175.514" r="2.15971" stroke="#CCD1D9"/>
<circle cx="220.956" cy="310.81" r="13.5593" fill="url(#paint26_linear_271_4156)" stroke="#CCD1D9"/>
<path d="M220.292 308.76L214.345 302.773C214.078 302.504 214.111 302.062 214.414 301.836L214.673 301.643C215.132 301.3 215.623 301.002 216.138 300.752C216.652 300.503 217.189 300.304 217.74 300.156L218.265 300.015L218.769 299.924C219.496 299.792 220.233 299.725 220.972 299.725C221.745 299.725 222.517 299.798 223.277 299.943L223.658 300.015L224.964 300.378L225.546 300.625C226.332 300.959 227.074 301.389 227.755 301.905C228.005 302.095 228.03 302.463 227.808 302.685L221.708 308.764C221.316 309.154 220.682 309.153 220.292 308.76Z" stroke="#CCD1D9"/>
<path d="M221.68 313.277L227.628 319.265C227.894 319.534 227.861 319.976 227.558 320.202L227.299 320.395C226.84 320.738 226.35 321.036 225.834 321.285C225.32 321.534 224.784 321.734 224.232 321.882L223.707 322.023L223.204 322.114C222.477 322.246 221.739 322.313 221 322.313C220.227 322.313 219.455 322.24 218.695 322.095L218.314 322.023L217.008 321.66L216.427 321.413C215.64 321.079 214.898 320.649 214.218 320.133C213.967 319.943 213.942 319.575 214.165 319.353L220.265 313.274C220.656 312.883 221.29 312.885 221.68 313.277Z" stroke="#CCD1D9"/>
<path d="M223.245 310.324L229.231 304.375C229.499 304.109 229.941 304.141 230.167 304.444L230.361 304.704C230.703 305.163 231.002 305.653 231.252 306.168C231.501 306.682 231.7 307.219 231.848 307.771L231.989 308.295L232.081 308.799C232.213 309.526 232.28 310.263 232.28 311.002C232.28 311.775 232.208 312.547 232.063 313.307L231.991 313.688L231.628 314.994L231.381 315.576C231.048 316.362 230.618 317.104 230.102 317.785C229.912 318.036 229.544 318.061 229.322 317.838L223.241 311.74C222.851 311.348 222.852 310.714 223.245 310.324Z" stroke="#CCD1D9"/>
<path d="M218.728 311.713L212.742 317.662C212.473 317.929 212.031 317.896 211.805 317.593L211.612 317.334C211.269 316.875 210.971 316.385 210.721 315.869C210.472 315.355 210.272 314.819 210.124 314.267L209.983 313.742L209.892 313.239C209.759 312.512 209.693 311.774 209.692 311.036C209.692 310.262 209.765 309.491 209.909 308.731L209.982 308.349L210.344 307.043L210.591 306.462C210.925 305.675 211.354 304.933 211.87 304.252C212.06 304.002 212.428 303.977 212.65 304.199L218.731 310.298C219.122 310.689 219.12 311.323 218.728 311.713Z" stroke="#CCD1D9"/>
<circle cx="242.157" cy="103.295" r="13.5593" fill="url(#paint27_linear_271_4156)" stroke="#CCD1D9"/>
<path d="M241.495 101.246L235.547 95.258C235.281 94.9897 235.313 94.5475 235.616 94.3213L235.876 94.128C236.335 93.7855 236.825 93.4874 237.341 93.2377C237.855 92.9887 238.391 92.789 238.943 92.6412L239.468 92.5007L239.971 92.4091C240.698 92.2769 241.436 92.2104 242.175 92.2104C242.948 92.2104 243.72 92.2833 244.479 92.428L244.861 92.5007L246.167 92.8634L246.748 93.1103C247.534 93.4442 248.276 93.8741 248.957 94.3902C249.208 94.5802 249.233 94.9479 249.01 95.1699L242.91 101.249C242.518 101.64 241.884 101.638 241.495 101.246Z" stroke="#CCD1D9"/>
<path d="M242.882 105.763L248.829 111.751C249.096 112.019 249.063 112.461 248.76 112.687L248.501 112.881C248.042 113.223 247.551 113.521 247.036 113.771C246.522 114.02 245.985 114.22 245.433 114.367L244.909 114.508L244.405 114.599C243.678 114.732 242.941 114.798 242.202 114.798C241.428 114.798 240.657 114.725 239.897 114.581L239.516 114.508L238.21 114.145L237.628 113.898C236.842 113.564 236.1 113.134 235.419 112.618C235.169 112.428 235.144 112.061 235.366 111.839L241.466 105.759C241.858 105.369 242.492 105.37 242.882 105.763Z" stroke="#CCD1D9"/>
<path d="M244.447 102.81L250.433 96.8607C250.702 96.594 251.144 96.6267 251.37 96.9298L251.563 97.1889C251.906 97.6479 252.204 98.1384 252.454 98.6538C252.703 99.1678 252.903 99.7042 253.051 100.256L253.192 100.781L253.283 101.284C253.416 102.011 253.482 102.748 253.483 103.487C253.483 104.261 253.41 105.032 253.266 105.792L253.193 106.174L252.831 107.48L252.584 108.061C252.25 108.848 251.82 109.59 251.305 110.271C251.115 110.521 250.747 110.546 250.525 110.324L244.444 104.225C244.053 103.834 244.055 103.2 244.447 102.81Z" stroke="#CCD1D9"/>
<path d="M239.93 104.199L233.944 110.148C233.676 110.415 233.234 110.382 233.007 110.079L232.814 109.82C232.471 109.361 232.173 108.87 231.923 108.355C231.674 107.841 231.474 107.304 231.327 106.753L231.186 106.228L231.094 105.724C230.962 104.998 230.895 104.26 230.895 103.521C230.895 102.748 230.967 101.976 231.112 101.216L231.184 100.835L231.547 99.5289L231.794 98.9474C232.127 98.161 232.557 97.4189 233.073 96.738C233.263 96.4873 233.63 96.4623 233.853 96.685L239.934 102.783C240.324 103.175 240.323 103.809 239.93 104.199Z" stroke="#CCD1D9"/>
<circle cx="507.595" cy="170.386" r="13.5593" fill="url(#paint28_linear_271_4156)" stroke="#CCD1D9"/>
<path d="M506.932 168.337L500.984 162.349C500.718 162.081 500.751 161.638 501.054 161.412L501.313 161.219C501.772 160.876 502.263 160.578 502.778 160.329C503.292 160.08 503.829 159.88 504.38 159.732L504.905 159.591L505.409 159.5C506.136 159.368 506.873 159.301 507.612 159.301C508.385 159.301 509.157 159.374 509.917 159.519L510.298 159.591L511.604 159.954L512.185 160.201C512.972 160.535 513.714 160.965 514.395 161.481C514.645 161.671 514.67 162.039 514.447 162.261L508.347 168.34C507.956 168.731 507.322 168.729 506.932 168.337Z" stroke="#CCD1D9"/>
<path d="M508.32 172.854L514.268 178.841C514.534 179.11 514.501 179.552 514.198 179.778L513.939 179.971C513.48 180.314 512.989 180.612 512.474 180.862C511.96 181.111 511.423 181.31 510.872 181.458L510.347 181.599L509.843 181.69C509.116 181.822 508.379 181.889 507.64 181.889C506.867 181.889 506.095 181.816 505.335 181.671L504.954 181.599L503.648 181.236L503.067 180.989C502.28 180.655 501.538 180.225 500.857 179.709C500.607 179.519 500.582 179.151 500.805 178.929L506.905 172.85C507.296 172.46 507.93 172.461 508.32 172.854Z" stroke="#CCD1D9"/>
<path d="M509.884 169.901L515.871 163.951C516.139 163.685 516.581 163.717 516.807 164.021L517.001 164.28C517.343 164.739 517.641 165.229 517.891 165.745C518.14 166.259 518.34 166.795 518.488 167.347L518.629 167.872L518.721 168.375C518.853 169.102 518.92 169.839 518.92 170.578C518.92 171.352 518.847 172.123 518.703 172.883L518.63 173.264L518.268 174.57L518.021 175.152C517.687 175.938 517.258 176.68 516.742 177.361C516.552 177.612 516.184 177.637 515.962 177.414L509.881 171.316C509.491 170.924 509.492 170.29 509.884 169.901Z" stroke="#CCD1D9"/>
<path d="M505.368 171.29L499.381 177.239C499.113 177.505 498.671 177.473 498.445 177.17L498.251 176.91C497.909 176.451 497.61 175.961 497.361 175.446C497.112 174.932 496.912 174.395 496.764 173.844L496.623 173.319L496.531 172.815C496.399 172.088 496.332 171.351 496.332 170.612C496.332 169.839 496.405 169.067 496.549 168.307L496.622 167.926L496.984 166.62L497.231 166.038C497.565 165.252 497.994 164.51 498.51 163.829C498.7 163.578 499.068 163.553 499.29 163.776L505.371 169.874C505.761 170.266 505.76 170.9 505.368 171.29Z" stroke="#CCD1D9"/>
<circle cx="369.421" cy="282.973" r="13.5593" fill="url(#paint29_linear_271_4156)" stroke="#CCD1D9"/>
<path d="M380.113 283.031C380.105 288.964 375.289 293.768 369.356 293.76C363.422 293.752 358.618 288.936 358.626 283.002C358.634 277.069 363.45 272.265 369.384 272.273C375.317 272.281 380.121 277.097 380.113 283.031Z" stroke="#CCD1D9"/>
<path d="M367.394 276.953H362.484C361.936 276.953 361.492 277.397 361.492 277.944C361.492 278.491 361.936 278.935 362.484 278.935H364.631C365.331 278.935 365.815 279.636 365.566 280.29L362.812 287.536C362.565 288.186 363.045 288.883 363.741 288.883C364.155 288.883 364.526 288.627 364.671 288.239L368.33 278.518C368.372 278.405 368.394 278.286 368.394 278.166V277.953C368.394 277.401 367.946 276.953 367.394 276.953Z" stroke="#CCD1D9" stroke-miterlimit="16" stroke-linecap="square" stroke-linejoin="round"/>
<path d="M376.662 278.717L376.514 278.504C376.082 277.881 375.44 277.424 374.711 277.216C374.113 277.045 373.474 277.048 372.879 277.228C372.207 277.431 371.62 277.846 371.204 278.411L371.034 278.643C370.697 279.102 370.459 279.626 370.335 280.182L370.009 281.652C369.936 282.335 369.926 283.024 369.98 283.71L370.009 284.074L370.256 285.353C370.383 286.009 370.66 286.626 371.066 287.157L371.276 287.431C371.67 287.946 372.214 288.331 372.831 288.533C373.453 288.736 374.126 288.744 374.752 288.554C375.459 288.34 376.069 287.886 376.479 287.271L376.681 286.97C376.954 286.56 377.153 286.105 377.269 285.627L377.497 284.683C377.595 284.278 377.661 283.866 377.695 283.45C377.734 282.962 377.729 282.471 377.678 281.983L377.644 281.652L377.269 280.075C377.153 279.589 376.947 279.128 376.662 278.717Z" stroke="#CCD1D9" stroke-miterlimit="16" stroke-linecap="square" stroke-linejoin="round"/>
<path d="M375.218 280.229L375.014 279.819C374.868 279.525 374.616 279.294 374.312 279.173C373.992 279.045 373.63 279.047 373.313 279.181C373.034 279.299 372.804 279.51 372.663 279.778L372.449 280.185C372.318 280.435 372.228 280.705 372.184 280.983L372.006 282.104L371.954 282.789L372.006 283.719L372.147 284.735C372.193 285.067 372.298 285.387 372.459 285.68L372.692 286.107C372.826 286.352 373.036 286.547 373.289 286.663C373.62 286.814 374 286.819 374.334 286.677C374.626 286.553 374.863 286.327 375 286.04L375.224 285.569C375.33 285.348 375.404 285.114 375.446 284.874L375.645 283.719L375.698 282.814L375.645 282.104L375.445 280.929C375.404 280.686 375.327 280.45 375.218 280.229Z" stroke="#CCD1D9" stroke-miterlimit="16" stroke-linecap="square" stroke-linejoin="round"/>
<circle cx="406.369" cy="64.6603" r="13.5593" fill="url(#paint30_linear_271_4156)" stroke="#CCD1D9"/>
<path d="M417.061 64.7184C417.053 70.6518 412.237 75.4554 406.303 75.4476C400.37 75.4398 395.566 70.6235 395.574 64.6902C395.582 58.7568 400.398 53.9531 406.332 53.9609C412.265 53.9687 417.069 58.785 417.061 64.7184Z" stroke="#CCD1D9"/>
<path d="M404.342 58.6401H399.432C398.884 58.6401 398.44 59.0839 398.44 59.6313C398.44 60.1786 398.884 60.6224 399.432 60.6224H401.579C402.279 60.6224 402.763 61.3232 402.514 61.9777L399.76 69.2232C399.513 69.8737 399.993 70.5703 400.689 70.5703C401.103 70.5703 401.474 70.3138 401.619 69.9264L405.278 60.2053C405.32 60.0927 405.342 59.9734 405.342 59.8531V59.6401C405.342 59.0879 404.894 58.6401 404.342 58.6401Z" stroke="#CCD1D9" stroke-miterlimit="16" stroke-linecap="square" stroke-linejoin="round"/>
<path d="M413.609 60.4044L413.461 60.1911C413.029 59.5679 412.387 59.1116 411.658 58.9032C411.06 58.7325 410.421 58.7356 409.826 58.9152C409.154 59.1179 408.567 59.5331 408.151 60.0983L407.981 60.3303C407.644 60.7892 407.406 61.3133 407.282 61.8691L406.956 63.3388C406.883 64.0225 406.873 64.7116 406.927 65.3971L406.956 65.7615L407.203 67.0405C407.33 67.6962 407.607 68.3136 408.013 68.8441L408.223 69.118C408.617 69.6336 409.161 70.0185 409.778 70.2202C410.4 70.4235 411.073 70.4316 411.699 70.2415C412.406 70.0269 413.017 69.5735 413.426 68.9587L413.628 68.6568C413.901 68.2471 414.1 67.7926 414.216 67.3139L414.444 66.37C414.542 65.965 414.608 65.5529 414.642 65.1376C414.681 64.6491 414.676 64.158 414.625 63.6706L414.591 63.3388L414.216 61.7624C414.1 61.2759 413.894 60.8153 413.609 60.4044Z" stroke="#CCD1D9" stroke-miterlimit="16" stroke-linecap="square" stroke-linejoin="round"/>
<path d="M412.165 61.9168L411.962 61.5062C411.816 61.2129 411.564 60.982 411.26 60.8605C410.94 60.7326 410.578 60.7344 410.26 60.8684C409.981 60.9863 409.752 61.1974 409.611 61.4657L409.397 61.8723C409.266 62.1223 409.176 62.3921 409.132 62.671L408.954 63.7916L408.901 64.4768L408.954 65.4068L409.094 66.4229C409.14 66.7542 409.246 67.0745 409.407 67.368L409.64 67.7949C409.774 68.0398 409.983 68.2349 410.237 68.3509C410.568 68.5021 410.948 68.5068 411.282 68.3648C411.574 68.2409 411.811 68.0141 411.948 67.7279L412.172 67.2565C412.277 67.0359 412.352 66.8019 412.393 66.5611L412.593 65.4068L412.646 64.5013L412.593 63.7916L412.393 62.6164C412.352 62.3734 412.275 62.1376 412.165 61.9168Z" stroke="#CCD1D9" stroke-miterlimit="16" stroke-linecap="square" stroke-linejoin="round"/>
<circle cx="46.9579" cy="161.838" r="13.5593" fill="url(#paint31_linear_271_4156)" stroke="#CCD1D9"/>
<path d="M57.6503 161.896C57.6425 167.829 52.8262 172.633 46.8927 172.625C40.9592 172.617 36.1555 167.801 36.1633 161.868C36.1711 155.934 40.9875 151.131 46.9209 151.138C52.8544 151.146 57.6581 155.963 57.6503 161.896Z" stroke="#CCD1D9"/>
<path d="M44.9307 155.818H40.0207C39.4733 155.818 39.0295 156.261 39.0295 156.809C39.0295 157.356 39.4733 157.8 40.0207 157.8H42.1682C42.8683 157.8 43.3517 158.501 43.103 159.155L40.3491 166.401C40.1019 167.051 40.5824 167.748 41.2782 167.748C41.6921 167.748 42.0627 167.491 42.2085 167.104L45.8666 157.383C45.909 157.27 45.9307 157.151 45.9307 157.031V156.818C45.9307 156.265 45.483 155.818 44.9307 155.818Z" stroke="#CCD1D9" stroke-miterlimit="16" stroke-linecap="square" stroke-linejoin="round"/>
<path d="M54.1992 157.582L54.0512 157.369C53.6188 156.746 52.977 156.289 52.2477 156.081C51.6503 155.91 51.0106 155.913 50.4158 156.093C49.7444 156.295 49.1568 156.711 48.7415 157.276L48.5711 157.508C48.234 157.967 47.996 158.491 47.8725 159.047L47.5459 160.516C47.4727 161.2 47.463 161.889 47.5171 162.575L47.5459 162.939L47.7934 164.218C47.9204 164.874 48.1976 165.491 48.6033 166.022L48.8127 166.296C49.207 166.811 49.7513 167.196 50.3682 167.398C50.9902 167.601 51.6628 167.609 52.289 167.419C52.996 167.205 53.6066 166.751 54.0165 166.136L54.2177 165.834C54.4908 165.425 54.6899 164.97 54.8057 164.492L55.034 163.548C55.132 163.143 55.1981 162.731 55.2318 162.315C55.2714 161.827 55.266 161.336 55.2156 160.848L55.1812 160.516L54.8059 158.94C54.6901 158.453 54.4843 157.993 54.1992 157.582Z" stroke="#CCD1D9" stroke-miterlimit="16" stroke-linecap="square" stroke-linejoin="round"/>
<path d="M52.7545 159.094L52.5509 158.684C52.4054 158.391 52.1528 158.16 51.8488 158.038C51.5288 157.91 51.167 157.912 50.8496 158.046C50.5704 158.164 50.3408 158.375 50.1998 158.643L49.9862 159.05C49.8549 159.3 49.7653 159.57 49.721 159.849L49.543 160.969L49.4905 161.654L49.543 162.584L49.6836 163.6C49.7294 163.932 49.8352 164.252 49.9956 164.546L50.229 164.972C50.3629 165.217 50.5725 165.412 50.8263 165.529C51.1568 165.68 51.5366 165.684 51.8711 165.542C52.163 165.419 52.4002 165.192 52.5366 164.906L52.7613 164.434C52.8665 164.214 52.9409 163.98 52.9826 163.739L53.1822 162.584L53.2347 161.679L53.1822 160.969L52.9822 159.794C52.9408 159.551 52.8641 159.315 52.7545 159.094Z" stroke="#CCD1D9" stroke-miterlimit="16" stroke-linecap="square" stroke-linejoin="round"/>
<circle cx="133.337" cy="84.9057" r="13.5593" fill="url(#paint32_linear_271_4156)" stroke="#CCD1D9"/>
<path d="M144.029 84.9636C144.021 90.897 139.205 95.7007 133.271 95.6929C127.338 95.6851 122.534 90.8688 122.542 84.9354C122.55 79.002 127.366 74.1984 133.299 74.2062C139.233 74.214 144.037 79.0303 144.029 84.9636Z" stroke="#CCD1D9"/>
<path d="M131.309 78.8855H126.399C125.852 78.8855 125.408 79.3292 125.408 79.8766C125.408 80.424 125.852 80.8677 126.399 80.8677H128.547C129.247 80.8677 129.73 81.5686 129.482 82.223L126.728 89.4686C126.481 90.1191 126.961 90.8157 127.657 90.8157C128.071 90.8157 128.441 90.5592 128.587 90.1718L132.245 80.4507C132.288 80.3381 132.309 80.2188 132.309 80.0985V79.8855C132.309 79.3332 131.862 78.8855 131.309 78.8855Z" stroke="#CCD1D9" stroke-miterlimit="16" stroke-linecap="square" stroke-linejoin="round"/>
<path d="M140.577 80.6498L140.429 80.4365C139.996 79.8133 139.355 79.357 138.625 79.1486C138.028 78.9779 137.388 78.981 136.794 79.1605C136.122 79.3632 135.534 79.7784 135.119 80.3437L134.949 80.5756C134.612 81.0345 134.374 81.5586 134.25 82.1145L133.924 83.5842C133.85 84.2679 133.841 84.957 133.895 85.6425L133.924 86.0069L134.171 87.2858C134.298 87.9416 134.575 88.5589 134.981 89.0895L135.19 89.3634C135.585 89.879 136.129 90.2639 136.746 90.4655C137.368 90.6689 138.04 90.677 138.667 90.4869C139.374 90.2723 139.984 89.8188 140.394 89.204L140.595 88.9022C140.869 88.4925 141.068 88.0379 141.183 87.5593L141.412 86.6153C141.51 86.2103 141.576 85.7983 141.61 85.3829C141.649 84.8945 141.644 84.4034 141.593 83.9159L141.559 83.5842L141.184 82.0077C141.068 81.5212 140.862 81.0607 140.577 80.6498Z" stroke="#CCD1D9" stroke-miterlimit="16" stroke-linecap="square" stroke-linejoin="round"/>
<path d="M139.133 82.162L138.93 81.7515C138.784 81.4582 138.531 81.2272 138.227 81.1057C137.907 80.9778 137.546 80.9796 137.228 81.1137C136.949 81.2315 136.719 81.4426 136.579 81.7109L136.365 82.1176C136.234 82.3676 136.144 82.6374 136.1 82.9163L135.922 84.0369L135.869 84.7221L135.922 85.652L136.062 86.6681C136.108 86.9995 136.214 87.3197 136.374 87.6132L136.608 88.0401C136.742 88.285 136.951 88.4801 137.205 88.5962C137.535 88.7473 137.915 88.7521 138.25 88.61C138.542 88.4861 138.779 88.2594 138.915 87.9732L139.14 87.5018C139.245 87.2812 139.32 87.0472 139.361 86.8064L139.561 85.652L139.613 84.7465L139.561 84.0369L139.361 82.8617C139.319 82.6186 139.243 82.3829 139.133 82.162Z" stroke="#CCD1D9" stroke-miterlimit="16" stroke-linecap="square" stroke-linejoin="round"/>
<circle cx="582.278" cy="198.167" r="13.5593" fill="url(#paint33_linear_271_4156)" stroke="#CCD1D9"/>
<path d="M592.97 198.225C592.962 204.158 588.146 208.962 582.213 208.954C576.279 208.946 571.475 204.13 571.483 198.197C571.491 192.263 576.307 187.46 582.241 187.468C588.174 187.475 592.978 192.292 592.97 198.225Z" stroke="#CCD1D9"/>
<path d="M580.25 192.147H575.34C574.792 192.147 574.349 192.591 574.349 193.138C574.349 193.685 574.792 194.129 575.34 194.129H577.487C578.187 194.129 578.671 194.83 578.422 195.484L575.668 202.73C575.421 203.38 575.901 204.077 576.597 204.077C577.011 204.077 577.382 203.821 577.528 203.433L581.186 193.712C581.228 193.599 581.25 193.48 581.25 193.36V193.147C581.25 192.595 580.802 192.147 580.25 192.147Z" stroke="#CCD1D9" stroke-miterlimit="16" stroke-linecap="square" stroke-linejoin="round"/>
<path d="M589.518 193.911L589.37 193.698C588.938 193.075 588.296 192.618 587.567 192.41C586.969 192.239 586.33 192.242 585.735 192.422C585.063 192.625 584.476 193.04 584.061 193.605L583.89 193.837C583.553 194.296 583.315 194.82 583.192 195.376L582.865 196.846C582.792 197.529 582.782 198.218 582.836 198.904L582.865 199.268L583.113 200.547C583.239 201.203 583.517 201.82 583.922 202.351L584.132 202.625C584.526 203.14 585.07 203.525 585.687 203.727C586.309 203.93 586.982 203.938 587.608 203.748C588.315 203.534 588.926 203.08 589.336 202.465L589.537 202.164C589.81 201.754 590.009 201.299 590.125 200.821L590.353 199.877C590.451 199.472 590.517 199.06 590.551 198.644C590.591 198.156 590.585 197.665 590.535 197.177L590.5 196.846L590.125 195.269C590.009 194.783 589.803 194.322 589.518 193.911Z" stroke="#CCD1D9" stroke-miterlimit="16" stroke-linecap="square" stroke-linejoin="round"/>
<path d="M588.076 195.423L587.872 195.013C587.726 194.72 587.474 194.489 587.17 194.367C586.85 194.239 586.488 194.241 586.171 194.375C585.891 194.493 585.662 194.704 585.521 194.972L585.307 195.379C585.176 195.629 585.086 195.899 585.042 196.178L584.864 197.298L584.812 197.984L584.864 198.913L585.005 199.93C585.05 200.261 585.156 200.581 585.317 200.875L585.55 201.302C585.684 201.547 585.893 201.742 586.147 201.858C586.478 202.009 586.858 202.014 587.192 201.872C587.484 201.748 587.721 201.521 587.858 201.235L588.082 200.763C588.188 200.543 588.262 200.309 588.304 200.068L588.503 198.913L588.556 198.008L588.503 197.298L588.303 196.123C588.262 195.88 588.185 195.644 588.076 195.423Z" stroke="#CCD1D9" stroke-miterlimit="16" stroke-linecap="square" stroke-linejoin="round"/>
<circle cx="53.4252" cy="262.109" r="13.5593" fill="url(#paint34_linear_271_4156)" stroke="#CCD1D9"/>
<path d="M64.1175 262.167C64.1097 268.1 59.2933 272.904 53.3599 272.896C47.4264 272.888 42.6227 268.072 42.6305 262.139C42.6383 256.205 47.4546 251.402 53.3881 251.409C59.3216 251.417 64.1253 256.233 64.1175 262.167Z" stroke="#CCD1D9"/>
<path d="M51.397 256.088H46.487C45.9396 256.088 45.4958 256.532 45.4958 257.08C45.4958 257.627 45.9396 258.071 46.487 258.071H48.6345C49.3346 258.071 49.818 258.771 49.5693 259.426L46.8154 266.671C46.5682 267.322 47.0487 268.019 47.7445 268.019C48.1584 268.019 48.529 267.762 48.6748 267.375L52.3329 257.654C52.3753 257.541 52.397 257.422 52.397 257.301V257.088C52.397 256.536 51.9493 256.088 51.397 256.088Z" stroke="#CCD1D9" stroke-miterlimit="16" stroke-linecap="square" stroke-linejoin="round"/>
<path d="M60.6656 257.853L60.5176 257.639C60.0852 257.016 59.4434 256.56 58.7141 256.352C58.1167 256.181 57.4771 256.184 56.8823 256.364C56.2108 256.566 55.6232 256.981 55.208 257.547L55.0375 257.779C54.7004 258.238 54.4625 258.762 54.3389 259.318L54.0123 260.787C53.9391 261.471 53.9295 262.16 53.9836 262.845L54.0123 263.21L54.2599 264.489C54.3868 265.145 54.664 265.762 55.0697 266.292L55.2792 266.566C55.6734 267.082 56.2177 267.467 56.8346 267.669C57.4566 267.872 58.1292 267.88 58.7554 267.69C59.4624 267.475 60.073 267.022 60.4829 266.407L60.6841 266.105C60.9573 265.695 61.1563 265.241 61.2721 264.762L61.5005 263.818C61.5984 263.413 61.6646 263.001 61.6983 262.586C61.7379 262.097 61.7324 261.606 61.682 261.119L61.6477 260.787L61.2723 259.211C61.1565 258.724 60.9507 258.264 60.6656 257.853Z" stroke="#CCD1D9" stroke-miterlimit="16" stroke-linecap="square" stroke-linejoin="round"/>
<path d="M59.2216 259.365L59.0179 258.954C58.8724 258.661 58.6199 258.43 58.3158 258.309C57.9958 258.181 57.6341 258.183 57.3166 258.317C57.0374 258.435 56.8078 258.646 56.6669 258.914L56.4533 259.321C56.3219 259.571 56.2324 259.84 56.188 260.119L56.01 261.24L55.9575 261.925L56.01 262.855L56.1506 263.871C56.1965 264.202 56.3022 264.523 56.4627 264.816L56.6961 265.243C56.83 265.488 57.0395 265.683 57.2934 265.799C57.6239 265.95 58.0037 265.955 58.3382 265.813C58.63 265.689 58.8673 265.462 59.0037 265.176L59.2284 264.705C59.3335 264.484 59.4079 264.25 59.4496 264.009L59.6493 262.855L59.7018 261.95L59.6493 261.24L59.4492 260.065C59.4078 259.822 59.3312 259.586 59.2216 259.365Z" stroke="#CCD1D9" stroke-miterlimit="16" stroke-linecap="square" stroke-linejoin="round"/>
<path d="M287.494 209.415H299.124L307.391 217.705V229.312L299.124 237.533H287.494L279.272 229.312V217.705L287.494 209.415Z" fill="url(#paint35_linear_271_4156)" stroke="#CCD1D9"/>
<path d="M298.778 210.359H287.908L280.193 218.097V228.943L287.908 236.566H298.778L306.47 228.943V218.097L298.778 210.359Z" stroke="#CCD1D9"/>
<path d="M292.561 219.732H288.369V220.699H289.981V227.124H291.041V220.699H292.561V219.732Z" stroke="#CCD1D9"/>
<path d="M299.792 227.124V219.732H301.873C302.066 219.732 302.258 219.757 302.445 219.806L302.513 219.823C302.915 219.929 303.279 220.158 303.548 220.475C304.211 221.253 304.194 222.415 303.496 223.163C303.257 223.42 302.955 223.609 302.619 223.713L302.514 223.746C302.282 223.818 302.04 223.854 301.797 223.854H300.713V227.124H299.792Z" stroke="#CCD1D9"/>
<path d="M293.781 225.06V221.825C293.781 221.704 293.792 221.583 293.812 221.464C294.216 219.138 297.557 219.148 297.966 221.473C297.986 221.586 297.996 221.701 297.997 221.816L298.031 225.021C298.038 225.626 297.783 226.209 297.336 226.618C296.517 227.368 295.252 227.363 294.445 226.6C294.021 226.2 293.781 225.643 293.781 225.06Z" stroke="#CCD1D9"/>
<path d="M300.712 222.91V220.607H301.955C302.278 220.607 302.59 220.746 302.809 220.984C303.219 221.428 303.219 222.122 302.8 222.558C302.584 222.783 302.286 222.91 301.974 222.91H300.712Z" stroke="#CCD1D9"/>
<path d="M294.707 225.042V221.726C294.707 221.658 294.713 221.59 294.725 221.522C294.953 220.208 296.841 220.211 297.072 221.525C297.083 221.591 297.089 221.657 297.09 221.723L297.112 225.022C297.114 225.363 296.969 225.692 296.717 225.922C296.254 226.346 295.538 226.344 295.082 225.913C294.843 225.686 294.707 225.372 294.707 225.042Z" stroke="#CCD1D9"/>
<path d="M287.218 220.791L286.412 221.275L286.405 221.264C286.14 220.859 285.673 220.633 285.191 220.676L284.895 220.735C284.712 220.772 284.54 220.857 284.4 220.981C284.172 221.181 284.04 221.471 284.04 221.774V221.787C284.04 221.964 284.086 222.138 284.175 222.292C284.253 222.426 284.36 222.54 284.488 222.626L284.534 222.656C284.649 222.733 284.776 222.789 284.909 222.824L285.322 222.933C285.557 222.994 285.783 223.081 285.998 223.193L286.113 223.252C286.235 223.315 286.35 223.391 286.457 223.478C287.495 224.323 287.433 225.927 286.332 226.69L286.14 226.823C285.984 226.931 285.812 227.014 285.631 227.068C285.507 227.105 285.379 227.129 285.25 227.139L285.032 227.156C284.908 227.165 284.783 227.166 284.659 227.157L284.591 227.153C284.318 227.134 284.051 227.064 283.803 226.947C283.504 226.806 283.241 226.599 283.033 226.342L282.957 226.249L283.717 225.765C283.98 226.072 284.364 226.249 284.769 226.249H284.892L285.253 226.204C285.379 226.188 285.502 226.148 285.614 226.087C285.803 225.983 285.954 225.821 286.044 225.624L286.134 225.429C286.238 225.201 286.255 224.942 286.179 224.703C286.08 224.387 285.832 224.141 285.516 224.043L284.984 223.877L284.247 223.572C284.034 223.485 283.839 223.358 283.672 223.199C283.534 223.068 283.417 222.917 283.325 222.751L283.318 222.74C283.114 222.372 283.033 221.947 283.089 221.53L283.095 221.482L283.19 221.122C283.293 220.729 283.525 220.381 283.849 220.136C284.138 219.918 284.486 219.791 284.848 219.772L285.191 219.755L285.511 219.773C285.846 219.791 286.171 219.889 286.46 220.059C286.687 220.193 286.886 220.368 287.049 220.575L287.218 220.791Z" stroke="#CCD1D9"/>
<path d="M559.794 57.0684H571.423L579.691 65.3588V76.9655L571.423 85.1869H559.794L551.572 76.9655V65.3588L559.794 57.0684Z" fill="url(#paint36_linear_271_4156)" stroke="#CCD1D9"/>
<path d="M571.078 58.0127H560.208L552.493 65.7505V76.5972L560.208 84.2198H571.078L578.769 76.5972V65.7505L571.078 58.0127Z" stroke="#CCD1D9"/>
<path d="M564.86 67.3853H560.668V68.3525H562.28V74.7777H563.34V68.3525H564.86V67.3853Z" stroke="#CCD1D9"/>
<path d="M572.091 74.7777V67.3853H574.172C574.365 67.3853 574.557 67.4101 574.744 67.4589L574.812 67.4768C575.214 67.5822 575.577 67.8118 575.847 68.1284C576.51 68.9068 576.493 70.0684 575.795 70.8163C575.556 71.0731 575.253 71.2628 574.918 71.3666L574.813 71.3991C574.581 71.471 574.339 71.5075 574.096 71.5075H573.012V74.7777H572.091Z" stroke="#CCD1D9"/>
<path d="M566.08 72.7132V69.4783C566.08 69.3575 566.09 69.2369 566.111 69.1178C566.515 66.7914 569.856 66.801 570.265 69.1267C570.284 69.2397 570.295 69.3544 570.296 69.4692L570.33 72.674C570.337 73.2799 570.082 73.8625 569.635 74.2715C568.816 75.0212 567.551 75.0162 566.744 74.2533C566.32 73.853 566.08 73.296 566.08 72.7132Z" stroke="#CCD1D9"/>
<path d="M573.012 70.5632V68.2603H574.254C574.578 68.2603 574.89 68.3989 575.109 68.6369C575.519 69.0814 575.518 69.7748 575.1 70.211C574.884 70.436 574.586 70.5632 574.274 70.5632H573.012Z" stroke="#CCD1D9"/>
<path d="M567.007 72.6956V69.3796C567.007 69.3113 567.013 69.2432 567.025 69.1759C567.253 67.8611 569.141 67.8642 569.371 69.1786C569.383 69.244 569.389 69.3104 569.389 69.3768L569.411 72.6754C569.413 73.0168 569.269 73.345 569.017 73.5754C568.554 73.9991 567.838 73.9972 567.382 73.566C567.143 73.3398 567.007 73.025 567.007 72.6956Z" stroke="#CCD1D9"/>
<path d="M559.517 68.4445L558.711 68.9281L558.705 68.9178C558.439 68.5129 557.973 68.2868 557.491 68.3294L557.195 68.3885C557.012 68.4252 556.84 68.5107 556.699 68.6343C556.472 68.8345 556.339 69.1248 556.339 69.4279V69.4404C556.339 69.6177 556.386 69.7919 556.475 69.9454C556.552 70.0791 556.66 70.1932 556.788 70.279L556.834 70.3095C556.949 70.386 557.075 70.4428 557.209 70.4778L557.622 70.586C557.856 70.6474 558.083 70.7346 558.298 70.846L558.412 70.9055C558.535 70.9688 558.65 71.0445 558.757 71.1314C559.794 71.9766 559.732 73.5808 558.632 74.3431L558.44 74.4763C558.284 74.5843 558.112 74.6671 557.93 74.7216C557.807 74.7588 557.679 74.7825 557.55 74.7924L557.332 74.8092C557.208 74.8188 557.083 74.8193 556.959 74.8107L556.891 74.806C556.618 74.7872 556.35 74.7175 556.103 74.6006C555.804 74.4594 555.54 74.2525 555.332 73.9955L555.257 73.9024L556.017 73.4188C556.28 73.7257 556.664 73.9024 557.068 73.9024H557.191L557.552 73.8573C557.679 73.8414 557.802 73.8017 557.913 73.7403C558.103 73.6362 558.253 73.4741 558.344 73.2778L558.433 73.0821C558.538 72.8542 558.554 72.5954 558.479 72.3563C558.379 72.0409 558.132 71.7942 557.816 71.696L557.284 71.5304L556.546 71.2259C556.333 71.138 556.139 71.0115 555.971 70.8528C555.834 70.7219 555.717 70.5708 555.624 70.4046L555.618 70.3932C555.413 70.0251 555.333 69.6008 555.389 69.1834L555.395 69.1354L555.489 68.7752C555.592 68.382 555.825 68.0349 556.149 67.7897C556.438 67.5711 556.786 67.4443 557.148 67.4258L557.491 67.4082L557.811 67.426C558.145 67.4446 558.471 67.5429 558.759 67.7128C558.986 67.8463 559.186 68.0213 559.348 68.2287L559.517 68.4445Z" stroke="#CCD1D9"/>
<path d="M51.4111 11.3475H63.0408L71.3082 19.638V31.2447L63.0408 39.4661H51.4111L43.1897 31.2447V19.638L51.4111 11.3475Z" fill="url(#paint37_linear_271_4156)" stroke="#CCD1D9"/>
<path d="M62.6961 12.2919H51.8263L44.1116 20.0296V30.8764L51.8263 38.499H62.6961L70.3878 30.8764V20.0296L62.6961 12.2919Z" stroke="#CCD1D9"/>
<path d="M56.4785 21.6645H52.2872V22.6317H53.8993V29.0568H54.9586V22.6317H56.4785V21.6645Z" stroke="#CCD1D9"/>
<path d="M63.7097 29.0568V21.6645H65.7911C65.984 21.6645 66.1761 21.6892 66.3628 21.7381L66.4309 21.756C66.8332 21.8613 67.1964 22.091 67.4661 22.4076C68.1292 23.186 68.1116 24.3476 67.4142 25.0955C67.1748 25.3523 66.8725 25.5419 66.5371 25.6457L66.4321 25.6782C66.1998 25.7501 65.958 25.7867 65.7148 25.7867H64.6308V29.0568H63.7097Z" stroke="#CCD1D9"/>
<path d="M57.6991 26.9924V23.7575C57.6991 23.6367 57.7095 23.5161 57.7301 23.397C58.1342 21.0705 61.4752 21.0802 61.8835 23.4059C61.9034 23.5189 61.914 23.6336 61.9152 23.7484L61.9493 26.9531C61.9558 27.5591 61.7012 28.1416 61.2541 28.5507C60.4347 29.3004 59.1698 29.2953 58.3626 28.5325C57.9391 28.1322 57.6991 27.5752 57.6991 26.9924Z" stroke="#CCD1D9"/>
<path d="M64.631 24.8426V22.5397H65.8734C66.197 22.5397 66.5089 22.6783 66.7283 22.9163C67.138 23.3609 67.1374 24.0542 66.7189 24.4905C66.5032 24.7154 66.205 24.8426 65.8933 24.8426H64.631Z" stroke="#CCD1D9"/>
<path d="M58.6251 26.9749V23.6589C58.6251 23.5906 58.631 23.5225 58.6427 23.4552C58.871 22.1403 60.7589 22.1435 60.9896 23.4579C61.0011 23.5233 61.0071 23.5897 61.0076 23.6561L61.0294 26.9547C61.0316 27.2961 60.8872 27.6243 60.6353 27.8547C60.1722 28.2784 59.4563 28.2765 59.0001 27.8453C58.7608 27.6191 58.6251 27.3043 58.6251 26.9749Z" stroke="#CCD1D9"/>
<path d="M51.1355 22.7238L50.3295 23.2074L50.3227 23.1971C50.0575 22.7922 49.591 22.5661 49.1089 22.6087L48.8133 22.6678C48.6298 22.7045 48.458 22.79 48.3175 22.9136C48.09 23.1138 47.9575 23.4041 47.9575 23.7072V23.7197C47.9575 23.897 48.0043 24.0712 48.0931 24.2247C48.1705 24.3584 48.2777 24.4725 48.4063 24.5583L48.452 24.5888C48.5668 24.6653 48.6934 24.7221 48.8268 24.7571L49.2401 24.8653C49.4744 24.9267 49.701 25.0139 49.916 25.1253L50.0306 25.1848C50.1528 25.2481 50.2681 25.3238 50.3748 25.4107C51.4126 26.2559 51.3504 27.8601 50.2503 28.6224L50.0582 28.7556C49.9023 28.8636 49.7303 28.9464 49.5486 29.0009C49.4247 29.0381 49.2972 29.0618 49.1683 29.0717L48.9498 29.0885C48.8258 29.0981 48.7012 29.0986 48.5771 29.09L48.509 29.0853C48.2359 29.0665 47.9686 28.9968 47.721 28.8799C47.4219 28.7387 47.1586 28.5318 46.9505 28.2748L46.8751 28.1817L47.6351 27.6981C47.8982 28.005 48.2823 28.1817 48.6866 28.1817H48.8096L49.1707 28.1366C49.2972 28.1207 49.4197 28.081 49.5315 28.0196C49.7207 27.9155 49.8715 27.7534 49.9617 27.5571L50.0516 27.3614C50.1563 27.1335 50.1725 26.8747 50.097 26.6356C49.9974 26.3202 49.7497 26.0735 49.4339 25.9753L48.9017 25.8097L48.1645 25.5052C47.9515 25.4173 47.7567 25.2908 47.5897 25.1321C47.4519 25.0012 47.3348 24.8501 47.2425 24.6839L47.2361 24.6725C47.0316 24.3044 46.9512 23.8801 47.0069 23.4627L47.0133 23.4147L47.1076 23.0545C47.2106 22.6613 47.4429 22.3142 47.7671 22.069C48.0562 21.8504 48.4043 21.7236 48.7663 21.7051L49.1089 21.6875L49.4289 21.7053C49.7634 21.7239 50.0887 21.8222 50.3774 21.9921C50.6044 22.1256 50.8043 22.3006 50.9666 22.508L51.1355 22.7238Z" stroke="#CCD1D9"/>
<path d="M199.368 187.4C199.617 187.306 199.88 187.257 200.146 187.257H226.924C227.111 187.257 227.297 187.281 227.478 187.329L227.66 187.376C228.514 187.6 229.109 188.371 229.109 189.253V189.253C229.109 189.593 229.019 189.927 228.85 190.222L215.304 213.741C215.173 213.968 215.001 214.168 214.796 214.33L214.769 214.351C214.015 214.948 212.946 214.933 212.21 214.315V214.315C212.027 214.163 211.873 213.979 211.755 213.773L198.209 190.216C198.042 189.925 197.954 189.596 197.954 189.26V189.26C197.954 188.464 198.446 187.75 199.191 187.467L199.368 187.4Z" fill="url(#paint38_linear_271_4156)" stroke="#CCD1D9"/>
<path d="M226.913 188.39H200.096C199.954 188.39 199.813 188.421 199.683 188.48L199.63 188.504C199.324 188.643 199.121 188.94 199.102 189.276C199.092 189.452 199.134 189.627 199.222 189.779L212.772 213.201C213.146 213.761 213.963 213.777 214.358 213.232L214.381 213.201L227.889 189.697C227.946 189.597 227.983 189.487 227.996 189.373C228.048 188.924 227.739 188.513 227.294 188.439L227.089 188.405C227.031 188.395 226.972 188.39 226.913 188.39Z" stroke="#CCD1D9"/>
<path d="M525.937 252.579C526.186 252.484 526.45 252.436 526.716 252.436H553.493C553.68 252.436 553.866 252.46 554.047 252.507L554.229 252.555C555.083 252.778 555.678 253.55 555.678 254.432V254.432C555.678 254.772 555.589 255.106 555.419 255.4L541.873 278.92C541.742 279.146 541.57 279.346 541.365 279.509L541.338 279.53C540.585 280.126 539.516 280.111 538.779 279.494V279.494C538.597 279.341 538.443 279.157 538.324 278.951L524.779 255.395C524.611 255.104 524.523 254.774 524.523 254.439V254.439C524.523 253.642 525.016 252.929 525.76 252.646L525.937 252.579Z" fill="url(#paint39_linear_271_4156)" stroke="#CCD1D9"/>
<path d="M553.483 253.569H526.666C526.523 253.569 526.382 253.599 526.252 253.658L526.2 253.682C525.893 253.821 525.69 254.119 525.671 254.455C525.661 254.631 525.703 254.805 525.791 254.958L539.342 278.379C539.715 278.939 540.532 278.955 540.927 278.41L540.95 278.379L554.458 254.875C554.515 254.776 554.552 254.665 554.565 254.551C554.617 254.102 554.308 253.692 553.863 253.617L553.658 253.583C553.6 253.573 553.541 253.569 553.483 253.569Z" stroke="#CCD1D9"/>
</g>
<defs>
<linearGradient id="paint0_linear_271_4156" x1="166.799" y1="249.174" x2="166.81" y2="292.169" gradientUnits="userSpaceOnUse">
<stop stop-color="#151515"/>
<stop offset="1" stop-color="#2E3C4B"/>
</linearGradient>
<linearGradient id="paint1_linear_271_4156" x1="188.001" y1="41.6594" x2="188.012" y2="84.6547" gradientUnits="userSpaceOnUse">
<stop stop-color="#151515"/>
<stop offset="1" stop-color="#2E3C4B"/>
</linearGradient>
<linearGradient id="paint2_linear_271_4156" x1="636.941" y1="154.921" x2="636.953" y2="197.916" gradientUnits="userSpaceOnUse">
<stop stop-color="#151515"/>
<stop offset="1" stop-color="#2E3C4B"/>
</linearGradient>
<linearGradient id="paint3_linear_271_4156" x1="427.514" y1="96.1531" x2="427.526" y2="139.148" gradientUnits="userSpaceOnUse">
<stop stop-color="#151515"/>
<stop offset="1" stop-color="#2E3C4B"/>
</linearGradient>
<linearGradient id="paint4_linear_271_4156" x1="14.0593" y1="62.2421" x2="14.0708" y2="105.237" gradientUnits="userSpaceOnUse">
<stop stop-color="#151515"/>
<stop offset="1" stop-color="#2E3C4B"/>
</linearGradient>
<linearGradient id="paint5_linear_271_4156" x1="152.74" y1="139.793" x2="152.751" y2="182.788" gradientUnits="userSpaceOnUse">
<stop stop-color="#151515"/>
<stop offset="1" stop-color="#2E3C4B"/>
</linearGradient>
<linearGradient id="paint6_linear_271_4156" x1="382.468" y1="306.873" x2="382.48" y2="349.869" gradientUnits="userSpaceOnUse">
<stop stop-color="#151515"/>
<stop offset="1" stop-color="#2E3C4B"/>
</linearGradient>
<linearGradient id="paint7_linear_271_4156" x1="601.68" y1="253.054" x2="601.691" y2="296.05" gradientUnits="userSpaceOnUse">
<stop stop-color="#151515"/>
<stop offset="1" stop-color="#2E3C4B"/>
</linearGradient>
<linearGradient id="paint8_linear_271_4156" x1="479.308" y1="204.972" x2="479.32" y2="247.967" gradientUnits="userSpaceOnUse">
<stop stop-color="#151515"/>
<stop offset="1" stop-color="#2E3C4B"/>
</linearGradient>
<linearGradient id="paint9_linear_271_4156" x1="264.763" y1="139.793" x2="264.775" y2="182.788" gradientUnits="userSpaceOnUse">
<stop stop-color="#151515"/>
<stop offset="1" stop-color="#2E3C4B"/>
</linearGradient>
<linearGradient id="paint10_linear_271_4156" x1="249.327" y1="242.763" x2="249.338" y2="284.782" gradientUnits="userSpaceOnUse">
<stop stop-color="#151515"/>
<stop offset="1" stop-color="#2E3C4B"/>
</linearGradient>
<linearGradient id="paint11_linear_271_4156" x1="521.627" y1="90.417" x2="521.638" y2="132.436" gradientUnits="userSpaceOnUse">
<stop stop-color="#151515"/>
<stop offset="1" stop-color="#2E3C4B"/>
</linearGradient>
<linearGradient id="paint12_linear_271_4156" x1="270.528" y1="35.2484" x2="270.54" y2="77.2676" gradientUnits="userSpaceOnUse">
<stop stop-color="#151515"/>
<stop offset="1" stop-color="#2E3C4B"/>
</linearGradient>
<linearGradient id="paint13_linear_271_4156" x1="299.735" y1="274.368" x2="299.747" y2="317.363" gradientUnits="userSpaceOnUse">
<stop stop-color="#151515"/>
<stop offset="1" stop-color="#2E3C4B"/>
</linearGradient>
<linearGradient id="paint14_linear_271_4156" x1="572.035" y1="122.022" x2="572.047" y2="165.017" gradientUnits="userSpaceOnUse">
<stop stop-color="#151515"/>
<stop offset="1" stop-color="#2E3C4B"/>
</linearGradient>
<linearGradient id="paint15_linear_271_4156" x1="336.684" y1="56.056" x2="336.695" y2="99.0513" gradientUnits="userSpaceOnUse">
<stop stop-color="#151515"/>
<stop offset="1" stop-color="#2E3C4B"/>
</linearGradient>
<linearGradient id="paint16_linear_271_4156" x1="63.6519" y1="76.3013" x2="63.6635" y2="119.297" gradientUnits="userSpaceOnUse">
<stop stop-color="#151515"/>
<stop offset="1" stop-color="#2E3C4B"/>
</linearGradient>
<linearGradient id="paint17_linear_271_4156" x1="358.594" y1="199.067" x2="358.606" y2="242.062" gradientUnits="userSpaceOnUse">
<stop stop-color="#151515"/>
<stop offset="1" stop-color="#2E3C4B"/>
</linearGradient>
<linearGradient id="paint18_linear_271_4156" x1="122.511" y1="1" x2="122.523" y2="43.9953" gradientUnits="userSpaceOnUse">
<stop stop-color="#151515"/>
<stop offset="1" stop-color="#2E3C4B"/>
</linearGradient>
<linearGradient id="paint19_linear_271_4156" x1="322.434" y1="133.719" x2="322.445" y2="176.715" gradientUnits="userSpaceOnUse">
<stop stop-color="#151515"/>
<stop offset="1" stop-color="#2E3C4B"/>
</linearGradient>
<linearGradient id="paint20_linear_271_4156" x1="507.341" y1="304.624" x2="507.353" y2="347.619" gradientUnits="userSpaceOnUse">
<stop stop-color="#151515"/>
<stop offset="1" stop-color="#2E3C4B"/>
</linearGradient>
<linearGradient id="paint21_linear_271_4156" x1="111.377" y1="192.6" x2="111.387" y2="235.595" gradientUnits="userSpaceOnUse">
<stop stop-color="#151515"/>
<stop offset="1" stop-color="#2E3C4B"/>
</linearGradient>
<linearGradient id="paint22_linear_271_4156" x1="437.944" y1="257.778" x2="437.955" y2="300.774" gradientUnits="userSpaceOnUse">
<stop stop-color="#151515"/>
<stop offset="1" stop-color="#2E3C4B"/>
</linearGradient>
<linearGradient id="paint23_linear_271_4156" x1="474.893" y1="39.4661" x2="474.903" y2="82.4614" gradientUnits="userSpaceOnUse">
<stop stop-color="#151515"/>
<stop offset="1" stop-color="#2E3C4B"/>
</linearGradient>
<linearGradient id="paint24_linear_271_4156" x1="132.746" y1="293.995" x2="132.756" y2="336.99" gradientUnits="userSpaceOnUse">
<stop stop-color="#151515"/>
<stop offset="1" stop-color="#2E3C4B"/>
</linearGradient>
<linearGradient id="paint25_linear_271_4156" x1="419.386" y1="153.571" x2="419.397" y2="196.566" gradientUnits="userSpaceOnUse">
<stop stop-color="#151515"/>
<stop offset="1" stop-color="#2E3C4B"/>
</linearGradient>
<linearGradient id="paint26_linear_271_4156" x1="220.956" y1="296.75" x2="220.967" y2="339.746" gradientUnits="userSpaceOnUse">
<stop stop-color="#151515"/>
<stop offset="1" stop-color="#2E3C4B"/>
</linearGradient>
<linearGradient id="paint27_linear_271_4156" x1="242.157" y1="89.2358" x2="242.169" y2="132.231" gradientUnits="userSpaceOnUse">
<stop stop-color="#151515"/>
<stop offset="1" stop-color="#2E3C4B"/>
</linearGradient>
<linearGradient id="paint28_linear_271_4156" x1="507.595" y1="156.327" x2="507.607" y2="199.322" gradientUnits="userSpaceOnUse">
<stop stop-color="#151515"/>
<stop offset="1" stop-color="#2E3C4B"/>
</linearGradient>
<linearGradient id="paint29_linear_271_4156" x1="369.421" y1="268.913" x2="369.432" y2="311.909" gradientUnits="userSpaceOnUse">
<stop stop-color="#151515"/>
<stop offset="1" stop-color="#2E3C4B"/>
</linearGradient>
<linearGradient id="paint30_linear_271_4156" x1="406.369" y1="50.6011" x2="406.38" y2="93.5964" gradientUnits="userSpaceOnUse">
<stop stop-color="#151515"/>
<stop offset="1" stop-color="#2E3C4B"/>
</linearGradient>
<linearGradient id="paint31_linear_271_4156" x1="46.9579" y1="147.779" x2="46.9695" y2="190.774" gradientUnits="userSpaceOnUse">
<stop stop-color="#151515"/>
<stop offset="1" stop-color="#2E3C4B"/>
</linearGradient>
<linearGradient id="paint32_linear_271_4156" x1="133.337" y1="70.8464" x2="133.348" y2="113.842" gradientUnits="userSpaceOnUse">
<stop stop-color="#151515"/>
<stop offset="1" stop-color="#2E3C4B"/>
</linearGradient>
<linearGradient id="paint33_linear_271_4156" x1="582.278" y1="184.108" x2="582.29" y2="227.103" gradientUnits="userSpaceOnUse">
<stop stop-color="#151515"/>
<stop offset="1" stop-color="#2E3C4B"/>
</linearGradient>
<linearGradient id="paint34_linear_271_4156" x1="53.4252" y1="248.049" x2="53.4367" y2="291.045" gradientUnits="userSpaceOnUse">
<stop stop-color="#151515"/>
<stop offset="1" stop-color="#2E3C4B"/>
</linearGradient>
<linearGradient id="paint35_linear_271_4156" x1="293.332" y1="209.415" x2="293.343" y2="252.41" gradientUnits="userSpaceOnUse">
<stop stop-color="#151515"/>
<stop offset="1" stop-color="#2E3C4B"/>
</linearGradient>
<linearGradient id="paint36_linear_271_4156" x1="565.632" y1="57.0684" x2="565.643" y2="100.064" gradientUnits="userSpaceOnUse">
<stop stop-color="#151515"/>
<stop offset="1" stop-color="#2E3C4B"/>
</linearGradient>
<linearGradient id="paint37_linear_271_4156" x1="57.249" y1="11.3475" x2="57.2605" y2="54.3429" gradientUnits="userSpaceOnUse">
<stop stop-color="#151515"/>
<stop offset="1" stop-color="#2E3C4B"/>
</linearGradient>
<linearGradient id="paint38_linear_271_4156" x1="213.531" y1="187.257" x2="213.542" y2="230.253" gradientUnits="userSpaceOnUse">
<stop stop-color="#151515"/>
<stop offset="1" stop-color="#2E3C4B"/>
</linearGradient>
<linearGradient id="paint39_linear_271_4156" x1="540.101" y1="252.436" x2="540.111" y2="295.431" gradientUnits="userSpaceOnUse">
<stop stop-color="#151515"/>
<stop offset="1" stop-color="#2E3C4B"/>
</linearGradient>
</defs>
</svg>
