<svg width="55" height="78" viewBox="0 0 55 78" fill="none" xmlns="http://www.w3.org/2000/svg">
<g opacity="0.5">
<path d="M28.6551 27.9084L28.6551 27.9084C28.5656 27.8848 28.4903 27.8276 28.4449 27.7509C28.3996 27.6744 28.3875 27.5848 28.4093 27.5015L28.4099 27.499L28.4927 27.1758L28.4928 27.1759L28.4951 27.1659C28.7089 26.2531 29.0796 25.5943 29.6262 25.0883C30.1802 24.5752 30.9503 24.1864 32.0171 23.8779L32.0188 23.8774C33.0193 23.5842 33.7932 23.2543 34.3718 22.7734C34.9675 22.2784 35.3166 21.6573 35.5327 20.8635C35.7833 19.9426 35.6407 19.0304 35.1446 18.2768C34.6512 17.5274 33.8315 16.9684 32.7808 16.6913C31.8735 16.4519 31.008 16.4758 30.2493 16.7662C29.4879 17.0575 28.8684 17.6042 28.4381 18.3494L28.4378 18.35C28.3045 18.5815 28.0783 18.6648 27.9199 18.6231L26.6501 18.2881C26.5515 18.2621 26.4804 18.1999 26.4439 18.132C26.4095 18.0678 26.4063 18.002 26.4346 17.9385C26.9865 16.7285 27.8654 15.8116 29.0127 15.3015C30.1616 14.7907 31.6237 14.6686 33.3704 15.1294C36.8494 16.047 38.48 18.6644 37.7582 21.3159C37.2253 23.2736 35.8879 24.3977 33.8825 24.9784C32.8252 25.2764 32.0414 25.5968 31.4695 26.0702C30.8768 26.5608 30.5581 27.1757 30.3454 27.957L30.3323 28.0053C30.3095 28.0889 30.2537 28.1614 30.1754 28.2061C30.0968 28.2508 30.002 28.2637 29.9119 28.2399L28.6551 27.9084ZM29.4886 32.4096C29.293 33.1281 28.5933 33.5368 27.8385 33.3377C27.1101 33.1455 26.6983 32.444 26.8944 31.7236C27.0905 31.0032 27.8034 30.5983 28.5319 30.7905C29.2861 30.9894 29.6852 31.6873 29.4886 32.4096Z" fill="#FFEA55" stroke="#FFEA55"/>
<path d="M43.3387 12.7416L26.313 8.17959C23.6457 7.46488 20.904 9.04779 20.1893 11.7151L15.5932 28.8679C14.8785 31.5352 16.4614 34.2769 19.1288 34.9916L36.1545 39.5537C38.8218 40.2684 41.5635 38.6855 42.2782 36.0181L46.8743 18.8653C47.589 16.198 46.0061 13.4563 43.3387 12.7416Z" stroke="#FFEA55"/>
<path d="M24.0029 51.3158L18.3509 72.4096" stroke="#FFEA55" stroke-width="3"/>
<path d="M52.4404 10.2775L19.493 1.44923C19.3934 1.42254 19.2887 1.42078 19.1883 1.4441C18.5781 1.58579 18.0242 1.90672 17.5978 2.36563L17.5111 2.45894C17.4321 2.54395 17.3751 2.64699 17.3451 2.75907L6.25316 44.1546C6.22185 44.2715 6.21182 44.393 6.22353 44.5134L6.27193 45.011C6.3353 45.6624 6.58724 46.2813 6.99689 46.7918C7.0865 46.9034 7.20939 46.9836 7.3477 47.0207L40.1873 55.82C40.3032 55.8511 40.4251 55.8523 40.5416 55.8237C41.3678 55.6206 42.0939 55.1285 42.5886 54.4363L42.7149 54.2597C42.7727 54.1788 42.8155 54.0881 42.8413 53.992L53.9483 12.5401C53.9739 12.4444 53.9758 12.3439 53.9537 12.2473C53.7931 11.546 53.3887 10.9245 52.8126 10.4935L52.6782 10.3929C52.607 10.3397 52.5263 10.3005 52.4404 10.2775Z" stroke="#FFEA55"/>
</g>
</svg>
