<svg width="25" height="30" viewBox="0 0 25 30" fill="none" xmlns="http://www.w3.org/2000/svg">
<path d="M13.7015 29.9115C11.8771 30.3695 10.1844 28.9878 10.0603 27.2016C9.92292 25.1979 9.6214 23.3563 9.24355 22.259C9.00501 21.572 8.32945 20.3278 7.25887 19.1331C6.19591 17.9423 4.81236 16.8832 3.19217 16.4424C1.90976 16.0912 0.602539 14.9806 0.602539 13.3585V5.72505C0.602539 4.1125 1.90403 2.93123 3.36583 2.77474C5.40777 2.5591 6.35049 1.98278 7.3123 1.395L7.4039 1.33966C7.92297 1.02288 8.50693 0.673648 9.255 0.41602C10.0126 0.152668 10.8981 0 12.0526 0H18.7319C20.52 0 21.7833 0.912192 22.4226 2.03049C22.7356 2.57818 22.9073 3.18885 22.9073 3.77281C22.9073 4.06288 22.8635 4.36821 22.7604 4.65828C23.144 5.15827 23.4856 5.7594 23.6917 6.3758C23.9016 7.00556 24.0199 7.82996 23.6993 8.5704C23.831 8.81849 23.9283 9.08184 24.0027 9.33947C24.1497 9.85472 24.2184 10.4215 24.2184 10.973C24.2184 11.5245 24.1497 12.0913 24.0027 12.6066C23.9359 12.8356 23.8501 13.0722 23.7394 13.2993C24.4913 14.389 24.5371 15.5893 24.1859 16.6065C23.7928 17.7362 22.8844 18.7057 21.8959 19.0339C20.2795 19.574 18.4552 19.5606 17.0945 19.4366C16.812 19.4111 16.5302 19.3793 16.2491 19.3411C16.9115 22.1768 16.8709 25.1314 16.1308 27.9478C15.8674 28.9172 15.0812 29.5661 14.1995 29.7874L13.7015 29.9115ZM18.7319 1.90835H12.0526C11.0794 1.90835 10.4057 2.03812 9.87712 2.21941C9.34088 2.40452 8.9115 2.65642 8.39624 2.96939L8.31991 3.0171C7.26078 3.66212 6.03371 4.4102 3.56812 4.67355C2.93264 4.74034 2.51089 5.22697 2.51089 5.72314V13.3585C2.51089 13.8451 2.94218 14.3947 3.69407 14.5989C5.78371 15.1714 7.46688 16.5015 8.6825 17.8603C9.8943 19.2152 10.713 20.6751 11.045 21.6331C11.5088 22.9689 11.8217 25.007 11.9649 27.0719C12.0126 27.7627 12.6519 28.2073 13.2377 28.0604L13.7377 27.9363C14.0431 27.86 14.2301 27.6615 14.2873 27.4497C15.067 24.4797 14.9709 21.3475 14.0106 18.4309C13.9567 18.2688 13.9473 18.0952 13.9834 17.9283C14.0195 17.7613 14.0997 17.6071 14.2157 17.4818C14.3317 17.3564 14.4792 17.2645 14.6429 17.2156C14.8065 17.1667 14.9803 17.1626 15.1461 17.2038H15.1518L15.1785 17.2114L15.2892 17.2362C15.9418 17.3748 16.6019 17.4748 17.2663 17.5358C18.5315 17.6503 20.0467 17.6389 21.2929 17.2248C21.6268 17.1122 22.1516 16.6504 22.3806 15.9824C22.5848 15.3947 22.5467 14.7038 21.873 14.034L21.1994 13.3585L21.873 12.6829C21.9551 12.6027 22.0734 12.4157 22.1669 12.0818C22.2585 11.7631 22.31 11.3757 22.31 10.973C22.31 10.5704 22.2585 10.183 22.1669 9.86427C22.0715 9.53221 21.9551 9.34329 21.873 9.26313L21.1994 8.58758L21.873 7.91202C21.9627 7.82233 22.081 7.57615 21.8826 6.98075C21.6755 6.4059 21.3468 5.88254 20.9188 5.44643L20.2452 4.77088L20.9188 4.09532C20.9303 4.08578 20.9971 3.9999 20.9971 3.7709C20.9883 3.49164 20.9089 3.21916 20.7662 2.97894C20.4494 2.42742 19.8063 1.90835 18.7319 1.90835Z" fill="white"/>
</svg>
