<svg width="25" height="30" viewBox="0 0 25 30" fill="none" xmlns="http://www.w3.org/2000/svg">
<path d="M10.0606 2.79709C10.1846 1.01282 11.8773 -0.366885 13.7016 0.0872924L14.1997 0.213241C15.0833 0.434604 15.8676 1.08343 16.1309 2.05476C16.5507 3.61193 17.148 6.84652 16.2492 10.6612C16.5303 10.6224 16.8121 10.5899 17.0946 10.5639C18.4552 10.4399 20.2796 10.4265 21.8959 10.9646C22.8844 11.2948 23.7928 12.2642 24.1859 13.3939C24.537 14.4091 24.4912 15.6114 23.7393 16.701C23.85 16.9281 23.9359 17.1628 24.0027 17.3937C24.1496 17.909 24.2183 18.4757 24.2183 19.0272C24.2183 19.5787 24.1496 20.1455 24.0027 20.6607C23.9283 20.9184 23.8309 21.1817 23.6974 21.4317C24.0199 22.1702 23.9015 22.9946 23.6916 23.6224C23.4767 24.2424 23.1622 24.8231 22.7604 25.3418C22.8634 25.6319 22.9054 25.9372 22.9054 26.2292C22.9054 26.8112 22.7356 27.4219 22.4226 27.9696C21.7852 29.0878 20.52 30 18.7319 30H12.0529C10.8983 30 10.011 29.8454 9.25529 29.584C8.6055 29.3467 7.98456 29.0369 7.40423 28.6604L7.31263 28.6031C6.35085 28.0173 5.40624 27.441 3.36626 27.2253C1.90449 27.0688 0.603027 25.8895 0.603027 24.2751V16.6419C0.603027 15.0198 1.91022 13.9092 3.1926 13.5599C4.81275 13.1172 6.19627 12.0581 7.26111 10.8692C8.32976 9.67272 9.0053 8.42659 9.24384 7.74151C9.62359 6.64423 9.9232 4.80463 10.0606 2.799V2.79709Z" fill="#FFEA55"/>
</svg>
