<svg width="306" height="86" viewBox="0 0 306 86" fill="none" xmlns="http://www.w3.org/2000/svg">
<path d="M80.1201 80.9726H7.35987C6.45721 80.9726 5.56082 80.7786 4.73816 80.4071C2.46998 79.3828 1 77.1193 1 74.6305C1 73.5126 1.29598 72.4145 1.85785 71.448L39.1291 7.33523C39.7664 6.23909 40.7816 5.41308 41.9845 5.01213C42.9712 4.68322 44.0338 4.65732 45.0354 4.93776L45.2273 4.99151C46.6992 5.40363 47.9517 6.37469 48.7175 7.69746L85.6269 71.4502C86.1857 72.4154 86.48 73.5109 86.48 74.6262C86.48 77.1176 85.0114 79.3821 82.7409 80.4075C81.9182 80.7791 81.0228 80.9726 80.1201 80.9726Z" fill="url(#paint0_linear_147_4247)" stroke="#FFEA55"/>
<path d="M82.8899 73.4823L46.2354 9.33692C45.0585 7.35094 42.1978 7.31236 40.9678 9.26589L40.9231 9.33692L3.89247 73.5866C3.48997 74.2849 3.43573 75.1309 3.74574 75.8749C3.94953 76.364 4.29849 76.7788 4.74551 77.0633L4.97814 77.2113C5.53422 77.5652 6.17966 77.7531 6.83878 77.7531H80.6257C81.1866 77.7531 81.7324 77.5712 82.1812 77.2346C82.5709 76.9423 82.8704 76.5461 83.0453 76.0913L83.0814 75.9976C83.3986 75.173 83.3282 74.2494 82.8899 73.4823Z" stroke="#FFEA55"/>
<path d="M50.5266 31.2285C50.5266 34.9469 47.5122 37.9613 43.7938 37.9613C40.0754 37.9613 37.061 34.9469 37.061 31.2285C37.061 27.5101 40.0754 24.4957 43.7938 24.4957C47.5122 24.4957 50.5266 27.5101 50.5266 31.2285Z" stroke="#FFEA55"/>
<path d="M50.5266 47.7032C50.5266 51.4216 47.5122 54.436 43.7938 54.436C40.0754 54.436 37.061 51.4216 37.061 47.7032C37.061 43.9848 40.0754 40.9705 43.7938 40.9705C47.5122 40.9705 50.5266 43.9848 50.5266 47.7032Z" stroke="#FFEA55"/>
<path d="M50.5266 64.1778C50.5266 67.8963 47.5122 70.9106 43.7938 70.9106C40.0754 70.9106 37.061 67.8963 37.061 64.1778C37.061 60.4594 40.0754 57.4451 43.7938 57.4451C47.5122 57.4451 50.5266 60.4594 50.5266 64.1778Z" stroke="#FFEA55"/>
<path d="M195.26 41.7697C195.26 64.5623 176.783 83.0394 153.99 83.0394C131.197 83.0394 112.72 64.5623 112.72 41.7697C112.72 18.9771 131.197 0.5 153.99 0.5C176.783 0.5 195.26 18.9771 195.26 41.7697Z" fill="url(#paint1_linear_147_4247)" stroke="#FFEA55"/>
<path d="M162.218 28.5195L154.017 16.8645C153.647 16.3389 153.861 15.606 154.456 15.3631L157.408 14.1585C160.344 12.9601 163.387 12.0438 166.497 11.4218L169.53 10.8152C170.32 10.6573 170.962 11.4496 170.645 12.1897L169.306 15.3155L172.823 17.7983C174.417 18.9238 175.872 20.2347 177.158 21.7035C179.101 23.9243 180.629 26.4761 181.671 29.2372L182.353 31.0469C183.51 34.1155 184.179 37.3465 184.335 40.6223L184.38 41.5752C184.539 44.923 184.06 48.2705 182.967 51.439C182.92 51.5774 182.768 51.6505 182.63 51.6021L172.961 48.2092L173.451 46.2486C173.933 44.3188 174.11 42.3253 173.975 40.3407L173.962 40.1537C173.761 37.2138 172.852 34.366 171.313 31.8536C170.672 30.8092 169.929 29.8318 169.093 28.9363L165.477 25.0618L163.943 28.3652C163.619 29.0631 162.661 29.1488 162.218 28.5195Z" stroke="#FFEA55"/>
<path d="M137.152 40.5736L130.935 53.3975C130.654 53.9757 129.909 54.1432 129.408 53.7406L126.924 51.7432C124.452 49.7563 122.175 47.5387 120.124 45.1205L118.123 42.7618C117.602 42.1478 117.983 41.2014 118.784 41.12L122.167 40.7762L122.634 36.4964C122.845 34.5562 123.286 32.6479 123.948 30.8118C124.948 28.0356 126.439 25.4615 128.349 23.2123L129.601 21.7382C131.724 19.2386 134.226 17.0873 137.015 15.3627L137.827 14.8611C140.677 13.0986 143.838 11.895 147.138 11.3144C147.283 11.2891 147.42 11.3859 147.444 11.5302L149.165 21.6325L147.213 22.1543C145.291 22.6679 143.462 23.4798 141.791 24.5603L141.634 24.6621C139.16 26.2627 137.11 28.4383 135.659 31.0032C135.056 32.0694 134.562 33.1936 134.184 34.3587L132.548 39.4L136.181 39.1399C136.948 39.0849 137.488 39.8812 137.152 40.5736Z" stroke="#FFEA55"/>
<path d="M160.507 56.8727L174.744 56.2177C175.386 56.1881 175.888 56.7631 175.774 57.3954L175.204 60.5318C174.637 63.652 173.775 66.7111 172.628 69.6679L171.51 72.5519C171.219 73.3026 170.206 73.4191 169.752 72.754L167.835 69.9447L163.852 71.5771C162.046 72.3171 160.158 72.84 158.229 73.1347C155.312 73.5804 152.338 73.4985 149.45 72.8929L147.557 72.4961C144.348 71.8231 141.263 70.6511 138.417 69.0225L137.589 68.5488C134.68 66.8845 132.114 64.6816 130.029 62.0577C129.938 61.9431 129.957 61.7763 130.072 61.6858L138.129 55.3534L139.519 56.8201C140.888 58.2639 142.474 59.4841 144.221 60.4363L144.385 60.526C146.972 61.9366 149.863 62.7001 152.809 62.7513C154.034 62.7726 155.258 62.6706 156.462 62.4469L161.673 61.4787L159.711 58.4103C159.296 57.762 159.739 56.908 160.507 56.8727Z" stroke="#FFEA55"/>
<circle cx="262.5" cy="42.74" r="42.24" fill="url(#paint2_linear_147_4247)" stroke="#FFEA55"/>
<path d="M261.925 37.9602L242.404 18.3076C241.594 17.4918 241.694 16.1476 242.615 15.4601L243.403 14.8723C244.799 13.8312 246.29 12.9249 247.857 12.1659C249.42 11.409 251.051 10.8018 252.728 10.3526L254.323 9.92519L255.854 9.64695C258.064 9.24511 260.306 9.04297 262.552 9.04297C264.903 9.04297 267.249 9.26439 269.558 9.70429L270.718 9.92519L274.688 11.028L276.456 11.7785C278.846 12.7936 281.102 14.1005 283.171 15.6694C283.933 16.247 284.009 17.3647 283.332 18.0396L263.341 37.9638C262.949 38.3541 262.315 38.3525 261.925 37.9602Z" stroke="#FFEA55"/>
<path d="M263.263 48.7918L282.784 68.4443C283.594 69.2601 283.495 70.6043 282.573 71.2919L281.785 71.8796C280.39 72.9208 278.898 73.827 277.331 74.5861C275.769 75.343 274.138 75.9501 272.461 76.3994L270.865 76.8268L269.335 77.105C267.125 77.5068 264.883 77.709 262.636 77.709C260.285 77.709 257.94 77.4876 255.63 77.0477L254.47 76.8268L250.5 75.724L248.733 74.9734C246.343 73.9583 244.087 72.6515 242.017 71.0826C241.255 70.505 241.18 69.3872 241.857 68.7123L261.848 48.7882C262.24 48.3979 262.874 48.3995 263.263 48.7918Z" stroke="#FFEA55"/>
<path d="M268.01 42.7051L287.658 23.1793C288.473 22.3688 289.817 22.468 290.505 23.3894L291.093 24.1771C292.135 25.5724 293.041 27.0636 293.801 28.6305C294.558 30.1929 295.166 31.8236 295.615 33.5007L296.043 35.0962L296.322 36.6264C296.724 38.8364 296.927 41.0782 296.928 43.3245C296.928 45.6755 296.707 48.0214 296.268 50.331L296.047 51.4908L294.946 55.4611L294.196 57.2287C293.181 59.6194 291.875 61.8754 290.306 63.9454C289.729 64.7074 288.611 64.7833 287.936 64.1063L268.007 44.1205C267.616 43.729 267.618 43.0949 268.01 42.7051Z" stroke="#FFEA55"/>
<path d="M257.178 44.0463L237.531 63.5721C236.715 64.3826 235.371 64.2835 234.683 63.362L234.095 62.5744C233.054 61.179 232.147 59.6879 231.388 58.121C230.63 56.5585 230.023 54.9278 229.573 53.2507L229.145 51.6553L228.867 50.125C228.464 47.915 228.262 45.6733 228.261 43.4269C228.26 41.0759 228.481 38.7301 228.92 36.4205L229.141 35.2607L230.243 31.2904L230.993 29.5227C232.007 27.1321 233.314 24.8761 234.882 22.8061C235.459 22.044 236.577 21.9681 237.252 22.6451L257.182 42.6309C257.572 43.0225 257.571 43.6566 257.178 44.0463Z" stroke="#FFEA55"/>
<defs>
<linearGradient id="paint0_linear_147_4247" x1="43.74" y1="4.50745" x2="43.768" y2="121.428" gradientUnits="userSpaceOnUse">
<stop stop-color="#151515"/>
<stop offset="1" stop-color="#2E3C4B"/>
</linearGradient>
<linearGradient id="paint1_linear_147_4247" x1="153.99" y1="1.01952e-09" x2="154.024" y2="127.738" gradientUnits="userSpaceOnUse">
<stop stop-color="#151515"/>
<stop offset="1" stop-color="#2E3C4B"/>
</linearGradient>
<linearGradient id="paint2_linear_147_4247" x1="262.5" y1="1.0432e-09" x2="262.535" y2="130.705" gradientUnits="userSpaceOnUse">
<stop stop-color="#151515"/>
<stop offset="1" stop-color="#2E3C4B"/>
</linearGradient>
</defs>
</svg>
