<svg width="1281" height="354" viewBox="0 0 1281 354" fill="none" xmlns="http://www.w3.org/2000/svg">
<mask id="path-1-inside-1_239_546" fill="white">
<path d="M0 4.99999C0 2.23857 2.23858 0 5 0H1276C1278.76 0 1281 2.23858 1281 5V349C1281 351.761 1278.76 354 1276 354H5.00001C2.23859 354 0 351.761 0 349V4.99999Z"/>
</mask>
<path d="M0 4.99999C0 2.23857 2.23858 0 5 0H1276C1278.76 0 1281 2.23858 1281 5V349C1281 351.761 1278.76 354 1276 354H5.00001C2.23859 354 0 351.761 0 349V4.99999Z" fill="#171616"/>
<path fill-rule="evenodd" clip-rule="evenodd" d="M2.8783 355.146C3.51036 355.673 4.22501 356.105 5.00001 356.418C5.92644 356.793 6.9391 357 8 357H17.71V355.5V352.5V351H5.00001C3.81302 351 2.72263 350.835 1.86512 350.558C0.7277 350.192 0 349.63 0 349C0 351.47 1.11929 353.678 2.8783 355.146ZM43.13 351V352.5V355.5V357H68.55V355.5V352.5V351H43.13ZM93.97 351V352.5V355.5V357H119.39V355.5V352.5V351H93.97ZM144.81 351V352.5V355.5V357H170.23V355.5V352.5V351H144.81ZM195.65 351V352.5V355.5V357H221.07V355.5V352.5V351H195.65ZM246.49 351V352.5V355.5V357H271.91V355.5V352.5V351H246.49ZM297.33 351V352.5V355.5V357H322.75V355.5V352.5V351H297.33ZM348.17 351V352.5V355.5V357H373.59V355.5V352.5V351H348.17ZM399.01 351V352.5V355.5V357H424.43V355.5V352.5V351H399.01ZM449.85 351V352.5V355.5V357H475.27V355.5V352.5V351H449.85ZM500.69 351V352.5V355.5V357H526.11V355.5V352.5V351H500.69ZM551.53 351V352.5V355.5V357H576.95V355.5V352.5V351H551.53ZM602.37 351V352.5V355.5V357H627.79V355.5V352.5V351H602.37ZM653.21 351V352.5V355.5V357H678.63V355.5V352.5V351H653.21ZM704.05 351V352.5V355.5V357H729.47V355.5V352.5V351H704.05ZM754.89 351V352.5V355.5V357H780.31V355.5V352.5V351H754.89ZM805.73 351V352.5V355.5V357H831.15V355.5V352.5V351H805.73ZM856.57 351V352.5V355.5V357H881.99V355.5V352.5V351H856.57ZM907.41 351V352.5V355.5V357H932.83V355.5V352.5V351H907.41ZM958.25 351V352.5V355.5V357H983.67V355.5V352.5V351H958.25ZM1009.09 351V352.5V355.5V357H1034.51V355.5V352.5V351H1009.09ZM1059.93 351V352.5V355.5V357H1085.35V355.5V352.5V351H1059.93ZM1110.77 351V352.5V355.5V357H1136.19V355.5V352.5V351H1110.77ZM1161.61 351V352.5V355.5V357H1187.03V355.5V352.5V351H1161.61ZM1212.45 351V352.5V355.5V357H1237.87V355.5V352.5V351H1212.45ZM1263.29 351V352.5V355.5V357H1273C1274.06 357 1275.07 356.793 1276 356.418C1276.78 356.105 1277.49 355.673 1278.12 355.146C1279.88 353.678 1281 351.47 1281 349C1281 349.63 1280.27 350.192 1279.13 350.558C1278.28 350.835 1277.19 351 1276 351H1263.29ZM1.86511 3.44184C0.727701 3.80844 0 4.37023 0 5C0 2.53011 1.11929 0.321637 2.87831 -1.14585C3.51036 -1.67314 4.225 -2.10477 5 -2.41848C5.92643 -2.79349 6.9391 -3 8 -3H17.71V-1.5V1.5V3H5C3.81301 3 2.72262 3.16545 1.86511 3.44184ZM43.13 3H68.55V1.5V-1.5V-3H43.13V-1.5V1.5V3ZM93.97 -3V-1.5V1.5V3H119.39V1.5V-1.5V-3H93.97ZM144.81 -3V-1.5V1.5V3H170.23V1.5V-1.5V-3H144.81ZM195.65 -3V-1.5V1.5V3H221.07V1.5V-1.5V-3H195.65ZM246.49 -3V-1.5V1.5V3H271.91V1.5V-1.5V-3H246.49ZM297.33 -3V-1.5V1.5V3H322.75V1.5V-1.5V-3H297.33ZM348.17 -3V-1.5V1.5V3H373.59V1.5V-1.5V-3H348.17ZM399.01 -3V-1.5V1.5V3H424.43V1.5V-1.5V-3H399.01ZM449.85 -3V-1.5V1.5V3H475.27V1.5V-1.5V-3H449.85ZM500.69 -3V-1.5V1.5V3H526.11V1.5V-1.5V-3H500.69ZM551.53 -3V-1.5V1.5V3H576.95V1.5V-1.5V-3H551.53ZM602.37 -3V-1.5V1.5V3H627.79V1.5V-1.5V-3H602.37ZM653.21 -3V-1.5V1.5V3H678.63V1.5V-1.5V-3H653.21ZM704.05 -3V-1.5V1.5V3H729.47V1.5V-1.5V-3H704.05ZM754.89 -3V-1.5V1.5V3H780.31V1.5V-1.5V-3H754.89ZM805.73 -3V-1.5V1.5V3H831.15V1.5V-1.5V-3H805.73ZM856.57 -3V-1.5V1.5V3H881.99V1.5V-1.5V-3H856.57ZM907.41 -3V-1.5V1.5V3H932.83V1.5V-1.5V-3H907.41ZM958.25 -3V-1.5V1.5V3H983.67V1.5V-1.5V-3H958.25ZM1009.09 -3V-1.5V1.5V3H1034.51V1.5V-1.5V-3H1009.09ZM1059.93 -3V-1.5V1.5V3H1085.35V1.5V-1.5V-3H1059.93ZM1110.77 -3V-1.5V1.5V3H1136.19V1.5V-1.5V-3H1110.77ZM1161.61 -3V-1.5V1.5V3H1187.03V1.5V-1.5V-3H1161.61ZM1212.45 -3V-1.5V1.5V3H1237.87V1.5V-1.5V-3H1212.45ZM1263.29 -3V-1.5V1.5V3H1276C1277.19 3 1278.28 3.16545 1279.13 3.44183C1280.27 3.80843 1281 4.37022 1281 5C1281 2.53012 1279.88 0.321651 1278.12 -1.14583C1277.49 -1.67314 1276.78 -2.10478 1276 -2.41849C1275.07 -2.7935 1274.06 -3 1273 -3H1263.29Z" fill="white" mask="url(#path-1-inside-1_239_546)"/>
</svg>
