<svg width="1317" height="390" viewBox="0 0 1317 390" fill="none" xmlns="http://www.w3.org/2000/svg">
<g filter="url(#filter0_d_239_546)">
<mask id="path-1-inside-1_239_546" fill="white">
<path d="M18 17C18 14.2386 20.2386 12 23 12H1294C1296.76 12 1299 14.2386 1299 17V361C1299 363.761 1296.76 366 1294 366H23C20.2386 366 18 363.761 18 361V17Z"/>
</mask>
<path d="M18 17C18 14.2386 20.2386 12 23 12H1294C1296.76 12 1299 14.2386 1299 17V361C1299 363.761 1296.76 366 1294 366H23C20.2386 366 18 363.761 18 361V17Z" fill="url(#paint0_linear_239_546)" shape-rendering="crispEdges"/>
<path fill-rule="evenodd" clip-rule="evenodd" d="M20.8783 367.146C21.5104 367.673 22.225 368.105 23 368.418C23.9264 368.793 24.9391 369 26 369H35.71V367.5V364.5V363H23C21.813 363 20.7226 362.835 19.8651 362.558C18.7277 362.192 18 361.63 18 361C18 363.47 19.1193 365.678 20.8783 367.146ZM61.13 363V364.5V367.5V369H86.55V367.5V364.5V363H61.13ZM111.97 363V364.5V367.5V369H137.39V367.5V364.5V363H111.97ZM162.81 363V364.5V367.5V369H188.23V367.5V364.5V363H162.81ZM213.65 363V364.5V367.5V369H239.07V367.5V364.5V363H213.65ZM264.49 363V364.5V367.5V369H289.91V367.5V364.5V363H264.49ZM315.33 363V364.5V367.5V369H340.75V367.5V364.5V363H315.33ZM366.17 363V364.5V367.5V369H391.59V367.5V364.5V363H366.17ZM417.01 363V364.5V367.5V369H442.43V367.5V364.5V363H417.01ZM467.85 363V364.5V367.5V369H493.27V367.5V364.5V363H467.85ZM518.69 363V364.5V367.5V369H544.11V367.5V364.5V363H518.69ZM569.53 363V364.5V367.5V369H594.95V367.5V364.5V363H569.53ZM620.37 363V364.5V367.5V369H645.79V367.5V364.5V363H620.37ZM671.21 363V364.5V367.5V369H696.63V367.5V364.5V363H671.21ZM722.05 363V364.5V367.5V369H747.47V367.5V364.5V363H722.05ZM772.89 363V364.5V367.5V369H798.31V367.5V364.5V363H772.89ZM823.73 363V364.5V367.5V369H849.15V367.5V364.5V363H823.73ZM874.57 363V364.5V367.5V369H899.99V367.5V364.5V363H874.57ZM925.41 363V364.5V367.5V369H950.83V367.5V364.5V363H925.41ZM976.25 363V364.5V367.5V369H1001.67V367.5V364.5V363H976.25ZM1027.09 363V364.5V367.5V369H1052.51V367.5V364.5V363H1027.09ZM1077.93 363V364.5V367.5V369H1103.35V367.5V364.5V363H1077.93ZM1128.77 363V364.5V367.5V369H1154.19V367.5V364.5V363H1128.77ZM1179.61 363V364.5V367.5V369H1205.03V367.5V364.5V363H1179.61ZM1230.45 363V364.5V367.5V369H1255.87V367.5V364.5V363H1230.45ZM1281.29 363V364.5V367.5V369H1291C1292.06 369 1293.07 368.793 1294 368.418C1294.78 368.105 1295.49 367.673 1296.12 367.146C1297.88 365.678 1299 363.47 1299 361C1299 361.63 1298.27 362.192 1297.13 362.558C1296.28 362.835 1295.19 363 1294 363H1281.29ZM19.8651 15.4418C18.7277 15.8084 18 16.3702 18 17C18 14.5301 19.1193 12.3216 20.8783 10.8542C21.5104 10.3269 22.225 9.89523 23 9.58152C23.9264 9.20651 24.9391 9 26 9H35.71V10.5V13.5V15H23C21.813 15 20.7226 15.1654 19.8651 15.4418ZM61.13 15H86.55V13.5V10.5V9H61.13V10.5V13.5V15ZM111.97 9V10.5V13.5V15H137.39V13.5V10.5V9H111.97ZM162.81 9V10.5V13.5V15H188.23V13.5V10.5V9H162.81ZM213.65 9V10.5V13.5V15H239.07V13.5V10.5V9H213.65ZM264.49 9V10.5V13.5V15H289.91V13.5V10.5V9H264.49ZM315.33 9V10.5V13.5V15H340.75V13.5V10.5V9H315.33ZM366.17 9V10.5V13.5V15H391.59V13.5V10.5V9H366.17ZM417.01 9V10.5V13.5V15H442.43V13.5V10.5V9H417.01ZM467.85 9V10.5V13.5V15H493.27V13.5V10.5V9H467.85ZM518.69 9V10.5V13.5V15H544.11V13.5V10.5V9H518.69ZM569.53 9V10.5V13.5V15H594.95V13.5V10.5V9H569.53ZM620.37 9V10.5V13.5V15H645.79V13.5V10.5V9H620.37ZM671.21 9V10.5V13.5V15H696.63V13.5V10.5V9H671.21ZM722.05 9V10.5V13.5V15H747.47V13.5V10.5V9H722.05ZM772.89 9V10.5V13.5V15H798.31V13.5V10.5V9H772.89ZM823.73 9V10.5V13.5V15H849.15V13.5V10.5V9H823.73ZM874.57 9V10.5V13.5V15H899.99V13.5V10.5V9H874.57ZM925.41 9V10.5V13.5V15H950.83V13.5V10.5V9H925.41ZM976.25 9V10.5V13.5V15H1001.67V13.5V10.5V9H976.25ZM1027.09 9V10.5V13.5V15H1052.51V13.5V10.5V9H1027.09ZM1077.93 9V10.5V13.5V15H1103.35V13.5V10.5V9H1077.93ZM1128.77 9V10.5V13.5V15H1154.19V13.5V10.5V9H1128.77ZM1179.61 9V10.5V13.5V15H1205.03V13.5V10.5V9H1179.61ZM1230.45 9V10.5V13.5V15H1255.87V13.5V10.5V9H1230.45ZM1281.29 9V10.5V13.5V15H1294C1295.19 15 1296.28 15.1654 1297.13 15.4418C1298.27 15.8084 1299 16.3702 1299 17C1299 14.5301 1297.88 12.3217 1296.12 10.8542C1295.49 10.3269 1294.78 9.89522 1294 9.58151C1293.07 9.2065 1292.06 9 1291 9H1281.29Z" fill="white" mask="url(#path-1-inside-1_239_546)"/>
</g>
<defs>
<filter id="filter0_d_239_546" x="0" y="0" width="1317" height="390" filterUnits="userSpaceOnUse" color-interpolation-filters="sRGB">
<feFlood flood-opacity="0" result="BackgroundImageFix"/>
<feColorMatrix in="SourceAlpha" type="matrix" values="0 0 0 0 0 0 0 0 0 0 0 0 0 0 0 0 0 0 127 0" result="hardAlpha"/>
<feMorphology radius="6" operator="dilate" in="SourceAlpha" result="effect1_dropShadow_239_546"/>
<feOffset dy="6"/>
<feGaussianBlur stdDeviation="6"/>
<feComposite in2="hardAlpha" operator="out"/>
<feColorMatrix type="matrix" values="0 0 0 0 0 0 0 0 0 0 0 0 0 0 0 0 0 0 0.25 0"/>
<feBlend mode="normal" in2="BackgroundImageFix" result="effect1_dropShadow_239_546"/>
<feBlend mode="normal" in="SourceGraphic" in2="effect1_dropShadow_239_546" result="shape"/>
</filter>
<linearGradient id="paint0_linear_239_546" x1="37.0909" y1="12" x2="1293.73" y2="336.516" gradientUnits="userSpaceOnUse">
<stop stop-color="#373737" stop-opacity="0.38"/>
<stop offset="1" stop-color="#242323" stop-opacity="0.29"/>
</linearGradient>
</defs>
</svg>
