<svg width="1163" height="2030" viewBox="0 0 1163 2030" fill="none" xmlns="http://www.w3.org/2000/svg">
<g opacity="0.8">
<rect width="157.632" height="1753.65" transform="matrix(1 0 -0.224951 0.97437 394.486 320.568)" fill="#090A0D"/>
<circle cx="62.3959" cy="62.3959" r="60.7539" transform="matrix(1 0 -0.224951 0.97437 407.213 336.567)" fill="url(#paint0_linear_220_852)" stroke="#CCD1D9" stroke-width="3.284"/>
<path d="M510.224 382.516H407.461C406.479 382.516 405.483 383.222 405.128 384.17L403.402 388.78C401.076 394.99 399.669 401.294 399.228 407.489L399.008 410.586C398.941 411.522 399.608 412.211 400.58 412.211H503.384C504.358 412.211 505.346 411.518 505.709 410.58L507.03 407.165C509.425 400.977 510.908 394.684 511.43 388.487L511.794 384.164C511.874 383.219 511.205 382.516 510.224 382.516Z" stroke="#CCD1D9" stroke-width="2.6272"/>
<path d="M366.583 512.557C366.991 510.79 368.792 509.357 370.605 509.357H488.829C490.643 509.357 491.782 510.79 491.374 512.557L464.78 627.751C464.372 629.518 462.571 630.951 460.757 630.951H342.533C340.72 630.951 339.58 629.518 339.988 627.751L366.583 512.557Z" fill="url(#paint1_linear_220_852)" stroke="#CCD1D9" stroke-width="2.6272"/>
<path d="M444.238 525.706H394.811L374.347 614.347H390.635L396.71 588.035H429.769C430.322 588.035 430.886 587.982 431.453 587.877C436.956 586.853 442.193 583.442 445.551 578.696L446.294 577.646C447.166 576.413 447.781 575.07 448.095 573.71L455.934 539.756C456.764 532.784 452.681 527.138 445.893 525.874L445.7 525.838C445.228 525.75 444.739 525.706 444.238 525.706Z" stroke="#CCD1D9" stroke-width="2.6272"/>
<path d="M436.605 541.544H407.969L400.892 572.198H429.528L432.423 569.899L438.498 543.588L436.605 541.544Z" stroke="#CCD1D9" stroke-width="2.6272"/>
<path d="M442.369 682.148H337.281C331.84 682.148 326.437 686.446 325.213 691.748L301.573 794.142C300.349 799.444 303.768 803.742 309.209 803.742H414.297C419.738 803.742 425.141 799.444 426.365 794.142L450.005 691.748C451.229 686.446 447.81 682.148 442.369 682.148Z" fill="url(#paint2_linear_220_852)" stroke="#CCD1D9" stroke-width="2.6272"/>
<path d="M426.578 786.408L390.056 683.423L304.67 786.408H426.578Z" stroke="#CCD1D9" stroke-width="2.6272"/>
<path d="M323.53 768.309H352.106" stroke="#CCD1D9" stroke-width="1.9704"/>
<path d="M366.525 768.309H381.469" stroke="#CCD1D9" stroke-width="1.9704"/>
<path d="M394.315 768.309H416.075" stroke="#CCD1D9" stroke-width="1.9704"/>
<path d="M361.159 758.622L374.182 745.367L374.941 744.347L376.514 731.856L372.073 737.465L359.003 746.387L357.381 742.053L370.34 731.347L381.709 715.032L391.688 720.64L398.83 730.582L394.887 747.661L388.355 750.975L392.121 734.661L389.221 729.052L386.22 742.053L386.696 750.21L395.048 778.76L385.541 783.604H377.151L386.894 777.741L378.387 753.269L366.359 764.485L356.296 783.094L341.443 781.564L342.09 778.76L351.999 776.721L361.159 758.622Z" stroke="#CCD1D9" stroke-width="1.9704"/>
<path d="M387.904 708.914C387.312 711.479 384.692 713.562 382.048 713.562C379.405 713.562 377.747 711.479 378.339 708.914C378.931 706.349 381.551 704.266 384.195 704.266C386.838 704.266 388.496 706.349 387.904 708.914Z" stroke="#CCD1D9" stroke-width="1.9704"/>
<path d="M375.92 964.85H273.496L272.511 964.756C267.625 964.289 265.846 959.103 269.067 954.713L341.451 870.258C341.616 870.065 341.808 869.892 342.019 869.747C344.747 867.87 348.065 867.591 350.324 869.049L351.233 869.635C351.569 869.852 351.823 870.161 351.969 870.533L385.03 954.713C386.093 959.161 381.883 964.29 376.776 964.77L375.92 964.85Z" fill="url(#paint3_linear_220_852)" stroke="#FFEA55" stroke-width="1.9704"/>
<path d="M379.993 955.405L348.923 874.629C347.88 872.071 344.088 872.02 341.803 874.534L341.716 874.629L272.811 955.533C272.058 956.417 271.733 957.506 271.939 958.453C272.07 959.054 272.407 959.558 272.903 959.898L273.242 960.13C273.878 960.565 274.67 960.795 275.532 960.795H375.731C376.463 960.795 377.228 960.572 377.919 960.158C378.55 959.78 379.091 959.258 379.48 958.655L379.512 958.606C380.188 957.559 380.366 956.374 379.993 955.405Z" stroke="#FFEA55" stroke-width="1.9704"/>
<path d="M350.339 903.013C349.954 904.679 348.155 906.108 346.241 906.108C344.328 906.108 343.189 904.679 343.573 903.013C343.958 901.347 345.757 899.918 347.671 899.918C349.584 899.918 350.723 901.347 350.339 903.013Z" stroke="#FFEA55" stroke-width="1.9704"/>
<path d="M344.662 907.271L338.735 903.622L318.237 907.271L312.262 918.016L310.141 916.8L308.409 918.625L311.092 920.247L310.203 921.26L313.323 922.882L313.994 921.868L315.288 922.882L300.015 958.768H313.337L308.143 952.888L319.515 932.006L323.617 940.724L319.452 958.768H332.773L327.361 952.888L330.169 940.724L326.582 929.775L333.164 933.425L332.79 935.047L337.594 937.885L337.922 936.466L346.969 941.737L343.724 945.387L353.068 951.266L360.806 942.346L351.587 936.871L348.701 939.913L338.437 934.236L344.662 907.271Z" stroke="#FFEA55" stroke-width="1.9704"/>
<path d="M333.586 931.6L336.956 917.003L325.475 925.113L325.927 926.937L333.586 931.6Z" stroke="#FFEA55" stroke-width="1.9704"/>
<path d="M317.021 921.058L315.289 920.044L322.855 910.92H329.844L317.021 921.058Z" stroke="#FFEA55" stroke-width="1.9704"/>
<path d="M377.026 957.754L367.969 939.984C367.795 939.642 367.28 939.628 366.932 939.956L348.075 957.726C347.631 958.144 347.793 958.768 348.345 958.768H376.259C376.795 958.768 377.242 958.177 377.026 957.754Z" stroke="#FFEA55" stroke-width="1.9704"/>
<path d="M296.031 957.426L288.429 950.163C288.235 949.978 287.899 949.975 287.617 950.156L276.298 957.419C275.716 957.792 275.808 958.565 276.435 958.565H295.357C295.977 958.565 296.427 957.805 296.031 957.426Z" stroke="#FFEA55" stroke-width="1.9704"/>
<circle cx="62.3959" cy="62.3959" r="60.7539" transform="matrix(1 0 -0.224951 0.97437 247.646 1027.73)" fill="url(#paint4_linear_220_852)" stroke="#FFEA55" stroke-width="3.284"/>
<path d="M297.175 1082.28L274.692 1053.77C273.777 1052.61 274.364 1050.7 275.935 1049.72L277.278 1048.88C279.658 1047.4 282.133 1046.11 284.67 1045.04C287.2 1043.96 289.78 1043.09 292.376 1042.46L294.846 1041.85L297.171 1041.45C300.53 1040.88 303.869 1040.59 307.148 1040.59C310.58 1040.59 313.932 1040.91 317.16 1041.53L318.78 1041.85L324.214 1043.42L326.547 1044.48C329.704 1045.93 332.568 1047.79 335.074 1050.02C335.996 1050.84 335.74 1052.43 334.53 1053.39L298.104 1082.29C297.789 1082.54 297.373 1082.53 297.175 1082.28Z" stroke="#FFEA55" stroke-width="1.9704"/>
<path d="M294.694 1096.58L317.177 1125.09C318.092 1126.25 317.505 1128.16 315.934 1129.14L314.591 1129.98C312.211 1131.46 309.736 1132.75 307.199 1133.83C304.67 1134.9 302.089 1135.77 299.493 1136.41L297.023 1137.01L294.698 1137.41C291.34 1137.98 288 1138.27 284.721 1138.27C281.289 1138.27 277.937 1137.95 274.71 1137.33L273.089 1137.01L267.655 1135.44L265.322 1134.38C262.165 1132.93 259.301 1131.07 256.795 1128.84C255.873 1128.02 256.129 1126.43 257.34 1125.47L293.765 1096.58C294.08 1096.33 294.496 1096.33 294.694 1096.58Z" stroke="#FFEA55" stroke-width="1.9704"/>
<path d="M303.363 1089.03L339.157 1060.7C340.614 1059.55 342.544 1059.69 343.245 1061L343.845 1062.12C344.907 1064.11 345.741 1066.23 346.335 1068.46C346.928 1070.68 347.279 1073 347.385 1075.38L347.485 1077.65L347.39 1079.83C347.251 1082.97 346.811 1086.16 346.074 1089.36C345.303 1092.7 344.21 1096.04 342.81 1099.32L342.107 1100.97L339.195 1106.62L337.52 1109.14C335.253 1112.54 332.606 1115.75 329.636 1118.69C328.543 1119.77 326.886 1119.88 326.123 1118.92L303.152 1089.94C302.953 1089.68 303.048 1089.28 303.363 1089.03Z" stroke="#FFEA55" stroke-width="1.9704"/>
<path d="M288.506 1089.83L252.713 1118.16C251.256 1119.31 249.326 1119.17 248.624 1117.86L248.025 1116.74C246.962 1114.76 246.129 1112.63 245.534 1110.41C244.942 1108.18 244.59 1105.86 244.485 1103.48L244.384 1101.21L244.48 1099.03C244.618 1095.89 245.058 1092.7 245.795 1089.5C246.566 1086.16 247.659 1082.82 249.059 1079.54L249.762 1077.89L252.674 1072.24L254.35 1069.72C256.616 1066.32 259.264 1063.12 262.233 1060.17C263.326 1059.09 264.983 1058.98 265.746 1059.94L288.718 1088.93C288.916 1089.18 288.822 1089.58 288.506 1089.83Z" stroke="#FFEA55" stroke-width="1.9704"/>
<circle cx="62.3959" cy="62.3959" r="60.7539" transform="matrix(1 0 -0.224951 0.97437 207.753 1200.52)" fill="url(#paint5_linear_220_852)" stroke="#CCD1D9" stroke-width="3.284"/>
<path d="M304.085 1261.57C298.055 1287.54 271.567 1308.56 244.923 1308.53C218.279 1308.49 201.569 1287.41 207.599 1261.45C213.629 1235.48 240.117 1214.45 266.761 1214.49C293.405 1214.52 310.115 1235.6 304.085 1261.57Z" stroke="#CCD1D9" stroke-width="3.284"/>
<path d="M204.349 1373.31H255.962L284.377 1409.16L272.789 1459.35L227.89 1494.9H176.277L147.997 1459.35L159.585 1409.16L204.349 1373.31Z" fill="url(#paint6_linear_220_852)" stroke="#CCD1D9" stroke-width="3.284"/>
<path d="M253.487 1377.39H205.246L163.283 1410.85L152.454 1457.76L179.082 1490.72H227.323L269.069 1457.76L279.898 1410.85L253.487 1377.39Z" stroke="#CCD1D9" stroke-width="3.284"/>
<path d="M216.533 1417.93H197.932L196.967 1422.11H204.121L197.706 1449.89H202.408L208.822 1422.11H215.568L216.533 1417.93Z" stroke="#CCD1D9" stroke-width="3.284"/>
<path d="M241.246 1449.89L248.626 1417.93H257.863C258.719 1417.93 259.547 1418.03 260.327 1418.24L260.611 1418.32C262.292 1418.78 263.674 1419.77 264.555 1421.14C266.721 1424.5 265.483 1429.53 261.641 1432.76C260.323 1433.87 258.791 1434.69 257.2 1435.14L256.701 1435.28C255.598 1435.59 254.489 1435.75 253.409 1435.75H248.599L245.334 1449.89H241.246Z" stroke="#CCD1D9" stroke-width="3.284"/>
<path d="M216.631 1440.96L219.861 1426.98C219.981 1426.45 220.148 1425.93 220.359 1425.42C224.474 1415.36 239.292 1415.4 238.783 1425.46C238.758 1425.94 238.691 1426.44 238.581 1426.94L235.533 1440.8C234.957 1443.42 233.246 1445.93 230.853 1447.7C226.468 1450.95 220.859 1450.92 218.039 1447.62C216.558 1445.89 216.049 1443.48 216.631 1440.96Z" stroke="#CCD1D9" stroke-width="3.284"/>
<path d="M249.541 1431.67L251.84 1421.71H257.354C258.79 1421.71 260.036 1422.31 260.772 1423.34C262.146 1425.26 261.452 1428.26 259.159 1430.15C257.977 1431.12 256.526 1431.67 255.143 1431.67H249.541Z" stroke="#CCD1D9" stroke-width="3.284"/>
<path d="M220.76 1440.89L224.07 1426.55C224.138 1426.25 224.233 1425.96 224.352 1425.67C226.678 1419.98 235.053 1420 234.765 1425.68C234.75 1425.96 234.711 1426.25 234.647 1426.54L231.45 1440.8C231.119 1442.28 230.151 1443.7 228.803 1444.69C226.324 1446.53 223.149 1446.52 221.555 1444.65C220.719 1443.67 220.431 1442.31 220.76 1440.89Z" stroke="#CCD1D9" stroke-width="3.284"/>
<path d="M191.765 1422.51L187.705 1424.6L187.685 1424.55C186.912 1422.8 185.068 1421.82 182.886 1422.01L181.514 1422.26C180.664 1422.42 179.815 1422.79 179.069 1423.33C177.859 1424.19 176.981 1425.45 176.679 1426.76L176.666 1426.81C176.489 1427.58 176.523 1428.33 176.764 1429C176.974 1429.57 177.336 1430.07 177.821 1430.44L177.993 1430.57C178.426 1430.9 178.931 1431.15 179.489 1431.3L181.215 1431.77C182.193 1432.03 183.112 1432.41 183.955 1432.89L184.404 1433.15C184.883 1433.42 185.319 1433.75 185.706 1434.13C189.468 1437.78 187.59 1444.72 181.947 1448.01L180.962 1448.59C180.162 1449.06 179.316 1449.41 178.455 1449.65C177.868 1449.81 177.279 1449.91 176.697 1449.96L175.71 1450.03C175.15 1450.07 174.597 1450.07 174.054 1450.04L173.757 1450.02C172.564 1449.93 171.447 1449.63 170.465 1449.13C169.279 1448.52 168.316 1447.62 167.649 1446.51L167.408 1446.11L171.263 1444.02C172.125 1445.34 173.653 1446.11 175.447 1446.11H175.993L177.641 1445.91C178.218 1445.84 178.801 1445.67 179.359 1445.41C180.303 1444.96 181.134 1444.26 181.73 1443.41L182.324 1442.56C183.017 1441.57 183.347 1440.46 183.25 1439.42C183.123 1438.06 182.27 1436.99 180.967 1436.57L178.77 1435.85L175.802 1434.53C174.945 1434.15 174.206 1433.61 173.624 1432.92C173.143 1432.35 172.774 1431.7 172.53 1430.98L172.513 1430.93C171.973 1429.34 172.04 1427.51 172.704 1425.7L172.78 1425.49L173.559 1423.94C174.408 1422.24 175.786 1420.73 177.469 1419.67C178.971 1418.73 180.642 1418.18 182.267 1418.1L183.805 1418.02L185.208 1418.1C186.674 1418.18 188.019 1418.61 189.131 1419.34C190.005 1419.92 190.717 1420.68 191.231 1421.57L191.765 1422.51Z" stroke="#CCD1D9" stroke-width="3.284"/>
<path d="M216.353 1656.01H113.929L112.944 1655.92C108.057 1655.45 106.279 1650.27 109.499 1645.88L181.883 1561.42C182.048 1561.23 182.24 1561.06 182.452 1560.91C185.179 1559.03 188.498 1558.75 190.757 1560.21L191.665 1560.8C192.002 1561.02 192.255 1561.32 192.401 1561.7L225.463 1645.88C226.525 1650.32 222.315 1655.45 217.208 1655.93L216.353 1656.01Z" fill="url(#paint7_linear_220_852)" stroke="#FFEA55" stroke-width="1.9704"/>
<path d="M220.426 1646.57L189.356 1565.79C188.313 1563.23 184.521 1563.18 182.236 1565.7L182.149 1565.79L113.244 1646.7C112.491 1647.58 112.165 1648.67 112.372 1649.62C112.503 1650.22 112.84 1650.72 113.336 1651.06L113.675 1651.29C114.311 1651.73 115.103 1651.96 115.964 1651.96H216.164C216.896 1651.96 217.661 1651.74 218.352 1651.32C218.983 1650.94 219.524 1650.42 219.913 1649.82L219.945 1649.77C220.621 1648.72 220.799 1647.54 220.426 1646.57Z" stroke="#FFEA55" stroke-width="1.9704"/>
<path d="M190.771 1594.18C190.386 1595.84 188.587 1597.27 186.674 1597.27C184.76 1597.27 183.621 1595.84 184.006 1594.18C184.39 1592.51 186.189 1591.08 188.103 1591.08C190.016 1591.08 191.156 1592.51 190.771 1594.18Z" stroke="#FFEA55" stroke-width="1.9704"/>
<path d="M185.095 1598.43L179.168 1594.78L158.67 1598.43L152.695 1609.18L150.574 1607.96L148.842 1609.79L151.525 1611.41L150.636 1612.42L153.756 1614.05L154.427 1613.03L155.721 1614.05L140.448 1649.93H153.77L148.575 1644.05L159.948 1623.17L164.05 1631.89L159.884 1649.93H173.206L167.793 1644.05L170.602 1631.89L167.015 1620.94L173.597 1624.59L173.223 1626.21L178.027 1629.05L178.355 1627.63L187.402 1632.9L184.157 1636.55L193.501 1642.43L201.238 1633.51L192.02 1628.03L189.134 1631.08L178.87 1625.4L185.095 1598.43Z" stroke="#FFEA55" stroke-width="1.9704"/>
<path d="M174.018 1622.76L177.389 1608.17L165.907 1616.28L166.36 1618.1L174.018 1622.76Z" stroke="#FFEA55" stroke-width="1.9704"/>
<path d="M157.453 1612.22L155.722 1611.21L163.288 1602.08H170.276L157.453 1612.22Z" stroke="#FFEA55" stroke-width="1.9704"/>
<path d="M217.458 1648.92L208.401 1631.15C208.227 1630.8 207.713 1630.79 207.365 1631.12L188.508 1648.89C188.064 1649.31 188.225 1649.93 188.778 1649.93H216.692C217.227 1649.93 217.674 1649.34 217.458 1648.92Z" stroke="#FFEA55" stroke-width="1.9704"/>
<path d="M136.464 1648.59L128.861 1641.33C128.668 1641.14 128.332 1641.14 128.05 1641.32L116.73 1648.58C116.148 1648.96 116.241 1649.73 116.867 1649.73H135.79C136.41 1649.73 136.86 1648.97 136.464 1648.59Z" stroke="#FFEA55" stroke-width="1.9704"/>
<circle cx="62.3959" cy="62.3959" r="60.7539" transform="matrix(1 0 -0.224951 0.97437 88.0781 1718.89)" fill="url(#paint8_linear_220_852)" stroke="#CCD1D9" stroke-width="3.284"/>
<path d="M160.339 1743.16L156.093 1761.55H137.646C133.904 1761.55 130.03 1762.3 126.262 1763.75C117.709 1767.03 110.392 1773.66 106.454 1781.68L105.193 1784.25C103.932 1786.82 102.985 1789.46 102.373 1792.11L94.6837 1825.41H113.035L121.164 1790.21C121.482 1788.83 122.072 1787.46 122.902 1786.19C124.45 1783.81 126.749 1781.87 129.373 1780.72L129.602 1780.62C131.378 1779.84 133.232 1779.43 135.017 1779.43H151.965L147.719 1797.83L191.722 1770.75L160.339 1743.16Z" stroke="#CCD1D9" stroke-width="2.6272"/>
<path d="M53.5249 1892.37C54.7321 1891.92 55.9725 1891.68 57.1689 1891.68H164.091C164.929 1891.68 165.736 1891.8 166.489 1892.03V1892.03C170.038 1893.1 171.855 1896.55 170.966 1900.4V1900.4C170.641 1901.81 169.969 1903.21 169.015 1904.46L91.0967 2006.4C90.4427 2007.25 89.6501 2008.02 88.7594 2008.65L88.6422 2008.74C85.0298 2011.32 80.5145 2011.25 78.1883 2008.59V2008.59C77.6674 2008 77.2812 2007.29 77.0467 2006.52L46.2466 1904.45C45.8713 1903.21 45.8443 1901.83 46.1677 1900.43V1900.43C46.9796 1896.91 49.8833 1893.73 53.5249 1892.37V1892.37Z" fill="url(#paint9_linear_220_852)" stroke="#FFEA55" stroke-width="3.284"/>
<path d="M163.008 1896.58H55.7419C55.1027 1896.58 54.4387 1896.73 53.8032 1897.01C52.3396 1897.65 51.1856 1898.94 50.7812 1900.37L50.7569 1900.46C50.5491 1901.19 50.5446 1901.92 50.7438 1902.58L81.6415 2003.87C82.5358 2006.18 85.9396 2006.25 87.9787 2003.99L88.0853 2003.87L165.668 1902.22C165.99 1901.8 166.238 1901.34 166.398 1900.86C167.066 1898.89 166.1 1897.09 164.18 1896.73L163.783 1896.65C163.533 1896.61 163.273 1896.58 163.008 1896.58Z" stroke="#FFEA55" stroke-width="3.284"/>
<rect width="157.632" height="1753.65" transform="matrix(1 0 -0.224951 0.97437 600.473 202.513)" fill="#090A0D"/>
<circle cx="62.3959" cy="62.3959" r="60.7539" transform="matrix(1 0 -0.224951 0.97437 613.199 218.512)" fill="url(#paint10_linear_220_852)" stroke="#FFEA55" stroke-width="3.284"/>
<path d="M685.46 242.78L681.214 261.172H662.766C659.025 261.172 655.15 261.919 651.382 263.367C642.829 266.654 635.512 273.279 631.574 281.301L630.313 283.871C629.052 286.439 628.105 289.079 627.493 291.729L619.804 325.034H638.156L646.285 289.825C646.603 288.447 647.193 287.083 648.022 285.808C649.57 283.43 651.869 281.485 654.494 280.336L654.722 280.236C656.498 279.458 658.352 279.053 660.137 279.053H677.085L672.839 297.446L716.843 270.368L685.46 242.78Z" stroke="#FFEA55" stroke-width="2.6272"/>
<circle cx="62.3959" cy="62.3959" r="60.7539" transform="matrix(1 0 -0.224951 0.97437 573.307 391.303)" fill="url(#paint11_linear_220_852)" stroke="#FFEA55" stroke-width="3.284"/>
<path d="M669.638 452.351C663.608 478.319 637.12 499.343 610.476 499.309C583.832 499.275 567.122 478.196 573.152 452.227C579.182 426.259 605.67 405.235 632.314 405.269C658.958 405.303 675.668 426.383 669.638 452.351Z" stroke="#FFEA55" stroke-width="3.284"/>
<path d="M621.798 674.005H519.375L518.389 673.911C513.503 673.444 511.724 668.258 514.945 663.868L587.329 579.412C587.494 579.219 587.686 579.047 587.897 578.902C590.625 577.025 593.943 576.746 596.202 578.204L597.111 578.79C597.448 579.007 597.701 579.316 597.847 579.688L630.908 663.868C631.971 668.316 627.761 673.445 622.654 673.925L621.798 674.005Z" fill="url(#paint12_linear_220_852)" stroke="#CCD1D9" stroke-width="1.9704"/>
<path d="M625.872 664.56L594.801 583.784C593.758 581.225 589.967 581.174 587.681 583.688L587.594 583.784L518.689 664.688C517.936 665.572 517.611 666.661 517.817 667.608C517.948 668.208 518.285 668.713 518.782 669.053L519.12 669.285C519.756 669.72 520.548 669.95 521.41 669.95H621.609C622.341 669.95 623.106 669.727 623.797 669.313C624.428 668.934 624.969 668.413 625.358 667.81L625.39 667.761C626.066 666.714 626.244 665.529 625.872 664.56Z" stroke="#CCD1D9" stroke-width="1.9704"/>
<path d="M596.216 612.168C595.832 613.834 594.033 615.263 592.119 615.263C590.206 615.263 589.067 613.834 589.451 612.168C589.836 610.502 591.635 609.073 593.548 609.073C595.462 609.073 596.601 610.502 596.216 612.168Z" stroke="#CCD1D9" stroke-width="1.9704"/>
<path d="M590.541 616.426L584.613 612.776L564.116 616.426L558.141 627.171L556.019 625.955L554.288 627.779L556.971 629.401L556.082 630.415L559.201 632.037L559.872 631.023L561.167 632.037L545.894 667.923H559.215L554.021 662.043L565.394 641.16L569.496 649.878L565.33 667.923H578.652L573.239 662.043L576.047 649.878L572.46 638.93L579.043 642.58L578.668 644.202L583.473 647.04L583.8 645.621L592.848 650.892L589.603 654.541L598.946 660.421L606.684 651.5L597.465 646.026L594.579 649.067L584.315 643.391L590.541 616.426Z" stroke="#CCD1D9" stroke-width="1.9704"/>
<path d="M579.464 640.755L582.834 626.158L571.353 634.267L571.805 636.092L579.464 640.755Z" stroke="#CCD1D9" stroke-width="1.9704"/>
<path d="M562.898 630.212L561.167 629.199L568.733 620.075H575.721L562.898 630.212Z" stroke="#CCD1D9" stroke-width="1.9704"/>
<path d="M622.904 666.908L613.847 649.138C613.673 648.796 613.158 648.782 612.81 649.11L593.953 666.88C593.509 667.299 593.671 667.923 594.223 667.923H622.137C622.673 667.923 623.12 667.332 622.904 666.908Z" stroke="#CCD1D9" stroke-width="1.9704"/>
<path d="M541.909 666.581L534.307 659.318C534.113 659.133 533.778 659.129 533.496 659.31L522.176 666.574C521.594 666.947 521.686 667.72 522.313 667.72H541.235C541.855 667.72 542.305 666.959 541.909 666.581Z" stroke="#CCD1D9" stroke-width="1.9704"/>
<path d="M530.01 736.884H581.623L610.038 772.735L598.451 822.926L553.551 858.478H501.938L473.659 822.926L485.246 772.735L530.01 736.884Z" fill="url(#paint13_linear_220_852)" stroke="#FFEA55" stroke-width="3.284"/>
<path d="M579.148 740.967H530.907L488.944 774.428L478.115 821.332L504.744 854.295H552.984L594.731 821.332L605.559 774.428L579.148 740.967Z" stroke="#FFEA55" stroke-width="3.284"/>
<path d="M542.196 781.499H523.594L522.629 785.681H529.783L523.369 813.465H528.07L534.484 785.681H541.23L542.196 781.499Z" stroke="#FFEA55" stroke-width="3.284"/>
<path d="M566.908 813.465L574.288 781.499H583.525C584.382 781.499 585.21 781.606 585.989 781.817L586.274 781.894C587.954 782.35 589.336 783.343 590.217 784.712C592.383 788.078 591.145 793.101 587.304 796.335C585.985 797.446 584.454 798.266 582.862 798.715L582.363 798.855C581.26 799.166 580.151 799.324 579.071 799.324H574.261L570.996 813.465H566.908Z" stroke="#FFEA55" stroke-width="3.284"/>
<path d="M542.293 804.538L545.523 790.549C545.644 790.027 545.81 789.505 546.021 788.99C550.136 778.93 564.955 778.972 564.445 789.029C564.42 789.518 564.353 790.014 564.244 790.51L561.195 804.368C560.619 806.989 558.908 809.508 556.515 811.277C552.13 814.519 546.522 814.497 543.701 811.198C542.221 809.467 541.712 807.058 542.293 804.538Z" stroke="#FFEA55" stroke-width="3.284"/>
<path d="M575.203 795.241L577.502 785.283H583.016C584.453 785.283 585.699 785.882 586.434 786.912C587.809 788.834 587.114 791.832 584.821 793.719C583.639 794.691 582.189 795.241 580.805 795.241H575.203Z" stroke="#FFEA55" stroke-width="3.284"/>
<path d="M546.421 804.462L549.732 790.123C549.8 789.828 549.894 789.533 550.013 789.242C552.339 783.556 560.714 783.57 560.426 789.254C560.412 789.537 560.373 789.824 560.308 790.111L557.112 804.375C556.781 805.851 555.812 807.27 554.464 808.267C551.986 810.099 548.811 810.091 547.217 808.226C546.38 807.248 546.093 805.887 546.421 804.462Z" stroke="#FFEA55" stroke-width="3.284"/>
<path d="M517.426 786.079L513.366 788.171L513.346 788.126C512.573 786.375 510.729 785.398 508.547 785.582L507.176 785.837C506.325 785.996 505.477 786.366 504.73 786.9C503.52 787.766 502.643 789.021 502.34 790.332L502.327 790.386C502.15 791.153 502.184 791.906 502.425 792.57C502.635 793.148 502.997 793.642 503.482 794.012L503.655 794.144C504.088 794.475 504.593 794.721 505.15 794.872L506.876 795.34C507.854 795.605 508.773 795.982 509.616 796.464L510.066 796.721C510.544 796.995 510.981 797.323 511.367 797.699C515.129 801.353 513.252 808.29 507.609 811.587L506.623 812.163C505.823 812.63 504.977 812.988 504.117 813.224C503.53 813.384 502.94 813.487 502.358 813.53L501.372 813.603C500.812 813.644 500.258 813.646 499.716 813.609L499.419 813.589C498.225 813.507 497.108 813.206 496.126 812.7C494.94 812.09 493.978 811.195 493.311 810.084L493.069 809.681L496.925 807.59C497.786 808.917 499.314 809.681 501.109 809.681H501.654L503.302 809.486C503.88 809.418 504.463 809.246 505.02 808.98C505.964 808.53 506.795 807.829 507.391 806.98L507.986 806.134C508.678 805.148 509.008 804.029 508.912 802.995C508.784 801.631 507.931 800.565 506.628 800.14L504.431 799.424L501.464 798.107C500.606 797.727 499.868 797.18 499.285 796.494C498.804 795.928 498.435 795.274 498.192 794.556L498.175 794.506C497.635 792.914 497.702 791.08 498.365 789.275L498.442 789.067L499.22 787.509C500.07 785.809 501.447 784.308 503.131 783.248C504.632 782.303 506.303 781.754 507.928 781.674L509.467 781.598L510.869 781.675C512.335 781.755 513.68 782.181 514.792 782.915C515.666 783.493 516.379 784.249 516.892 785.146L517.426 786.079Z" stroke="#FFEA55" stroke-width="3.284"/>
<path d="M458.97 910.361C460.177 909.909 461.418 909.675 462.614 909.675H569.536C570.374 909.675 571.181 909.79 571.934 910.018V910.018C575.483 911.092 577.3 914.538 576.411 918.391V918.391C576.086 919.798 575.414 921.202 574.46 922.45L496.542 1024.39C495.888 1025.24 495.095 1026.01 494.204 1026.65L494.087 1026.73C490.475 1029.31 485.96 1029.24 483.633 1026.58V1026.58C483.112 1025.99 482.726 1025.29 482.492 1024.51L451.692 922.443C451.316 921.2 451.289 919.819 451.613 918.418V918.418C452.425 914.901 455.328 911.725 458.97 910.361V910.361Z" fill="url(#paint14_linear_220_852)" stroke="#CCD1D9" stroke-width="3.284"/>
<path d="M568.453 914.574H461.187C460.548 914.574 459.884 914.72 459.248 915C457.785 915.645 456.631 916.928 456.227 918.361L456.202 918.447C455.994 919.183 455.99 919.915 456.189 920.568L487.087 1021.86C487.981 1024.18 491.385 1024.24 493.424 1021.98L493.531 1021.86L571.114 920.209C571.436 919.787 571.683 919.328 571.843 918.855C572.512 916.881 571.546 915.079 569.626 914.719L569.228 914.644C568.978 914.597 568.718 914.574 568.453 914.574Z" stroke="#CCD1D9" stroke-width="3.284"/>
<path d="M523.144 1139.62L478.988 1084.02C478.658 1083.61 478.221 1083.28 477.706 1083.07L477.641 1083.05C476.736 1082.67 475.632 1082.69 474.561 1083.09C474.017 1083.29 473.496 1083.58 473.03 1083.96L402.783 1139.89C402.289 1140.28 401.853 1140.74 401.495 1141.24C400.588 1142.52 400.247 1144 400.563 1145.28C400.688 1145.78 400.912 1146.24 401.225 1146.64L445.646 1202.57C445.941 1202.94 446.324 1203.24 446.775 1203.44C447.663 1203.84 448.759 1203.85 449.836 1203.48L449.913 1203.45C450.526 1203.24 451.113 1202.92 451.636 1202.5L521.463 1146.9C522.173 1146.34 522.769 1145.65 523.203 1144.89C523.808 1143.83 524.072 1142.69 523.955 1141.64C523.871 1140.88 523.593 1140.19 523.144 1139.62Z" fill="url(#paint15_linear_220_852)" stroke="#FFEA55" stroke-width="2.6272"/>
<path d="M469.459 1106.73L424.709 1142.36C424.08 1142.86 423.894 1143.67 424.293 1144.17L452.632 1179.62C453.029 1180.12 453.856 1180.12 454.483 1179.62L499.373 1144.17C500.006 1143.67 500.195 1142.85 499.794 1142.35L471.316 1106.72C470.917 1106.22 470.086 1106.23 469.459 1106.73Z" stroke="#FFEA55" stroke-width="2.6272"/>
<path d="M373.109 1258.46C373.517 1256.69 375.318 1255.26 377.132 1255.26H495.356C497.169 1255.26 498.309 1256.69 497.901 1258.46L471.306 1373.65C470.898 1375.42 469.097 1376.85 467.283 1376.85H349.06C347.246 1376.85 346.106 1375.42 346.514 1373.65L373.109 1258.46Z" fill="url(#paint16_linear_220_852)" stroke="#FFEA55" stroke-width="2.6272"/>
<path d="M450.765 1271.6H401.337L380.873 1360.25H397.162L403.236 1333.93H436.295C436.848 1333.93 437.413 1333.88 437.98 1333.78C443.483 1332.75 448.719 1329.34 452.077 1324.6L452.82 1323.55C453.693 1322.31 454.307 1320.97 454.621 1319.61L462.46 1285.65C463.29 1278.68 459.207 1273.04 452.419 1271.77L452.226 1271.74C451.754 1271.65 451.265 1271.6 450.765 1271.6Z" stroke="#FFEA55" stroke-width="2.6272"/>
<path d="M443.132 1287.44H414.495L407.418 1318.1H436.055L438.95 1315.8L445.024 1289.49L443.132 1287.44Z" stroke="#FFEA55" stroke-width="2.6272"/>
<path d="M443.388 1487.46C436.017 1519.39 403.413 1545.28 370.56 1545.28C337.706 1545.28 317.056 1519.39 324.427 1487.46C331.798 1455.54 364.402 1429.65 397.256 1429.65C430.109 1429.65 450.759 1455.54 443.388 1487.46Z" fill="url(#paint17_linear_220_852)" stroke="#FFEA55" stroke-width="3.284"/>
<path d="M400.846 1469.73L391.729 1451.23C391.563 1450.9 391.813 1450.43 392.24 1450.27L401.867 1446.77C403.969 1446.01 406.099 1445.43 408.229 1445.03L418.383 1443.14C418.925 1443.04 419.23 1443.55 418.911 1444.02L415.006 1449.83L419.342 1453.37C421.303 1454.97 422.999 1456.83 424.397 1458.92C426.512 1462.08 427.912 1465.71 428.529 1469.64L428.932 1472.21C429.618 1476.58 429.535 1481.17 428.687 1485.83L428.441 1487.18C427.575 1491.95 425.773 1496.71 423.134 1501.22C423.019 1501.42 422.775 1501.52 422.59 1501.45L409.552 1496.62L410.913 1493.84C412.253 1491.09 413.166 1488.25 413.62 1485.43L413.662 1485.17C414.334 1480.99 413.94 1476.93 412.511 1473.36C411.918 1471.87 411.151 1470.48 410.224 1469.21L406.203 1463.7L402.001 1469.63C401.685 1470.07 401.044 1470.13 400.846 1469.73Z" stroke="#FFEA55" stroke-width="2.6272"/>
<path d="M360.55 1484.54L345.704 1504.89C345.435 1505.26 344.921 1505.37 344.651 1505.11L338.574 1499.31C337.24 1498.04 336.068 1496.62 335.075 1495.07L330.367 1487.74C330.115 1487.35 330.505 1486.74 331.043 1486.69L337.667 1486.05L339.753 1479.97C340.701 1477.2 341.973 1474.49 343.545 1471.87C345.92 1467.93 348.945 1464.27 352.477 1461.07L354.795 1458.97C358.724 1455.41 363.091 1452.35 367.74 1449.9L369.093 1449.19C373.843 1446.68 378.861 1444.97 383.882 1444.14C384.101 1444.11 384.271 1444.24 384.259 1444.45L383.46 1458.82L380.431 1459.56C377.45 1460.29 374.507 1461.45 371.709 1462.98L371.441 1463.13C367.297 1465.41 363.584 1468.5 360.62 1472.15C359.386 1473.67 358.293 1475.27 357.357 1476.92L353.309 1484.09L360.122 1483.63C360.635 1483.59 360.873 1484.1 360.55 1484.54Z" stroke="#FFEA55" stroke-width="2.6272"/>
<path d="M387.078 1509.01L410.554 1507.97C410.98 1507.95 411.225 1508.32 411.056 1508.72L407.255 1517.82C406.421 1519.82 405.401 1521.78 404.209 1523.67L398.562 1532.64C398.26 1533.12 397.576 1533.19 397.376 1532.77L394.915 1527.54L388.552 1529.86C385.664 1530.92 382.729 1531.66 379.808 1532.08C375.394 1532.71 371.072 1532.6 367.046 1531.74L364.405 1531.17C359.928 1530.21 355.799 1528.55 352.169 1526.23L351.112 1525.56C347.402 1523.19 344.371 1520.06 342.182 1516.32C342.086 1516.16 342.17 1515.92 342.368 1515.79L356.237 1506.79L357.79 1508.87C359.318 1510.93 361.238 1512.66 363.481 1514.02L363.695 1514.15C367.016 1516.15 370.993 1517.24 375.288 1517.31C377.073 1517.34 378.899 1517.19 380.736 1516.88L388.677 1515.5L386.326 1509.99C386.149 1509.58 386.567 1509.03 387.078 1509.01Z" stroke="#FFEA55" stroke-width="2.6272"/>
<path d="M409.004 1600.84H303.916C298.475 1600.84 293.072 1605.14 291.848 1610.44L268.208 1712.83C266.984 1718.13 270.403 1722.43 275.844 1722.43H380.932C386.373 1722.43 391.776 1718.13 393 1712.83L416.64 1610.44C417.864 1605.14 414.445 1600.84 409.004 1600.84Z" fill="url(#paint18_linear_220_852)" stroke="#FFEA55" stroke-width="2.6272"/>
<path d="M393.213 1705.1L356.69 1602.11L271.305 1705.1H393.213Z" stroke="#FFEA55" stroke-width="2.6272"/>
<path d="M290.165 1687H318.741" stroke="#FFEA55" stroke-width="1.9704"/>
<path d="M333.16 1687H348.104" stroke="#FFEA55" stroke-width="1.9704"/>
<path d="M360.95 1687H382.71" stroke="#FFEA55" stroke-width="1.9704"/>
<path d="M327.794 1677.31L340.816 1664.06L341.576 1663.04L343.149 1650.55L338.708 1656.15L325.637 1665.08L324.016 1660.74L336.975 1650.04L348.344 1633.72L358.322 1639.33L365.465 1649.27L361.522 1666.35L354.989 1669.66L358.756 1653.35L355.856 1647.74L352.855 1660.74L353.331 1668.9L361.683 1697.45L352.176 1702.29H343.786L353.529 1696.43L345.022 1671.96L332.994 1683.17L322.93 1701.78L308.078 1700.25L308.725 1697.45L318.634 1695.41L327.794 1677.31Z" stroke="#FFEA55" stroke-width="1.9704"/>
<path d="M354.539 1627.6C353.947 1630.17 351.327 1632.25 348.684 1632.25C346.04 1632.25 344.382 1630.17 344.974 1627.6C345.566 1625.04 348.187 1622.96 350.83 1622.96C353.473 1622.96 355.131 1625.04 354.539 1627.6Z" stroke="#FFEA55" stroke-width="1.9704"/>
<circle cx="62.3959" cy="62.3959" r="60.7539" transform="matrix(1 0 -0.224951 0.97437 254.172 1773.63)" fill="url(#paint19_linear_220_852)" stroke="#FFEA55" stroke-width="3.284"/>
<path d="M357.183 1819.58H254.421C253.438 1819.58 252.443 1820.28 252.087 1821.23L250.361 1825.84C248.035 1832.05 246.629 1838.36 246.187 1844.55L245.967 1847.65C245.9 1848.58 246.567 1849.27 247.539 1849.27H350.343C351.317 1849.27 352.305 1848.58 352.668 1847.64L353.989 1844.23C356.385 1838.04 357.867 1831.75 358.389 1825.55L358.753 1821.23C358.833 1820.28 358.164 1819.58 357.183 1819.58Z" stroke="#FFEA55" stroke-width="2.6272"/>
<rect width="157.632" height="1753.65" transform="matrix(1 0 -0.224951 0.97437 825.495 0)" fill="#090A0D"/>
<path d="M953.161 15.999H848.073C842.632 15.999 837.229 20.2969 836.005 25.5985L812.365 127.993C811.141 133.295 814.56 137.592 820.001 137.592H925.089C930.53 137.592 935.933 133.295 937.157 127.993L960.797 25.5985C962.021 20.2969 958.602 15.999 953.161 15.999Z" fill="url(#paint20_linear_220_852)" stroke="#CCD1D9" stroke-width="2.6272"/>
<path d="M937.37 120.258L900.847 17.2734L815.462 120.258H937.37Z" stroke="#CCD1D9" stroke-width="2.6272"/>
<path d="M834.321 102.16H862.898" stroke="#CCD1D9" stroke-width="1.9704"/>
<path d="M877.317 102.16H892.261" stroke="#CCD1D9" stroke-width="1.9704"/>
<path d="M905.107 102.16H926.867" stroke="#CCD1D9" stroke-width="1.9704"/>
<path d="M871.95 92.4729L884.973 79.2174L885.733 78.1978L887.306 65.7071L882.865 71.3151L869.794 80.2371L868.173 75.9036L881.131 65.1972L892.501 48.8828L902.479 54.4909L909.622 64.4325L905.679 81.5117L899.146 84.8255L902.913 68.5111L900.013 62.903L897.011 75.9036L897.488 84.0608L905.84 112.611L896.332 117.454H887.943L897.686 111.591L889.178 87.1197L877.151 98.3359L867.087 116.945L852.235 115.415L852.882 112.611L862.791 110.572L871.95 92.4729Z" stroke="#CCD1D9" stroke-width="1.9704"/>
<path d="M898.695 42.7648C898.103 45.33 895.483 47.413 892.84 47.413C890.197 47.413 888.538 45.33 889.13 42.7648C889.723 40.1996 892.343 38.1167 894.986 38.1167C897.629 38.1167 899.288 40.1996 898.695 42.7648Z" stroke="#CCD1D9" stroke-width="1.9704"/>
<circle cx="62.3959" cy="62.3959" r="60.7539" transform="matrix(1 0 -0.224951 0.97437 798.329 188.79)" fill="url(#paint21_linear_220_852)" stroke="#FFEA55" stroke-width="3.284"/>
<path d="M847.858 243.343L825.375 214.832C824.46 213.671 825.047 211.759 826.618 210.781L827.961 209.945C830.341 208.464 832.816 207.175 835.353 206.095C837.883 205.018 840.463 204.155 843.059 203.516L845.529 202.908L847.854 202.512C851.213 201.94 854.552 201.653 857.831 201.653C861.264 201.653 864.615 201.968 867.843 202.594L869.463 202.908L874.897 204.476L877.231 205.544C880.387 206.988 883.251 208.847 885.757 211.079C886.68 211.9 886.423 213.49 885.213 214.45L848.787 243.345C848.472 243.595 848.056 243.594 847.858 243.343Z" stroke="#FFEA55" stroke-width="1.9704"/>
<path d="M845.377 257.638L867.86 286.15C868.775 287.31 868.188 289.222 866.617 290.2L865.274 291.036C862.894 292.518 860.42 293.807 857.883 294.886C855.353 295.963 852.772 296.827 850.176 297.466L847.707 298.074L845.381 298.469C842.023 299.041 838.683 299.329 835.404 299.329C831.972 299.329 828.62 299.014 825.393 298.388L823.772 298.074L818.339 296.505L816.005 295.437C812.848 293.993 809.985 292.134 807.478 289.903C806.556 289.081 806.812 287.491 808.023 286.531L844.448 257.636C844.763 257.386 845.179 257.387 845.377 257.638Z" stroke="#FFEA55" stroke-width="1.9704"/>
<path d="M854.046 250.089L889.84 221.762C891.297 220.609 893.227 220.75 893.928 222.061L894.528 223.181C895.59 225.166 896.424 227.287 897.018 229.516C897.611 231.739 897.962 234.058 898.068 236.444L898.168 238.713L898.073 240.89C897.934 244.034 897.494 247.223 896.757 250.418C895.986 253.762 894.893 257.099 893.493 260.385L892.791 262.034L889.878 267.682L888.203 270.196C885.937 273.597 883.289 276.806 880.319 279.751C879.226 280.835 877.569 280.943 876.806 279.98L853.835 250.995C853.636 250.745 853.731 250.339 854.046 250.089Z" stroke="#FFEA55" stroke-width="1.9704"/>
<path d="M839.19 250.892L803.396 279.22C801.939 280.372 800.009 280.231 799.308 278.921L798.708 277.8C797.646 275.815 796.812 273.694 796.218 271.465C795.625 269.243 795.274 266.923 795.168 264.538L795.067 262.268L795.163 260.091C795.301 256.948 795.742 253.759 796.479 250.563C797.25 247.219 798.343 243.882 799.742 240.597L800.445 238.947L803.358 233.3L805.033 230.785C807.299 227.384 809.947 224.175 812.917 221.231C814.01 220.147 815.667 220.039 816.43 221.002L839.401 249.986C839.6 250.237 839.505 250.643 839.19 250.892Z" stroke="#FFEA55" stroke-width="1.9704"/>
<circle cx="62.3959" cy="62.3959" r="60.7539" transform="matrix(1 0 -0.224951 0.97437 758.438 361.581)" fill="url(#paint22_linear_220_852)" stroke="#CCD1D9" stroke-width="3.284"/>
<path d="M861.448 407.53H758.685C757.703 407.53 756.707 408.235 756.352 409.183L754.626 413.793C752.3 420.003 750.894 426.307 750.452 432.503L750.232 435.6C750.165 436.535 750.832 437.225 751.804 437.225H854.608C855.582 437.225 856.57 436.532 856.933 435.594L858.254 432.179C860.65 425.991 862.132 419.698 862.654 413.501L863.018 409.178C863.098 408.232 862.429 407.53 861.448 407.53Z" stroke="#CCD1D9" stroke-width="2.6272"/>
<path d="M717.807 537.571C718.215 535.804 720.016 534.371 721.829 534.371H840.053C841.867 534.371 843.007 535.804 842.599 537.571L816.004 652.765C815.596 654.532 813.795 655.965 811.981 655.965H693.757C691.944 655.965 690.804 654.532 691.212 652.765L717.807 537.571Z" fill="url(#paint23_linear_220_852)" stroke="#CCD1D9" stroke-width="2.6272"/>
<path d="M795.462 550.72H746.035L725.57 639.36H741.859L747.933 613.049H780.992C781.546 613.049 782.11 612.996 782.677 612.89C788.18 611.866 793.417 608.456 796.774 603.71L797.517 602.66C798.39 601.427 799.005 600.083 799.318 598.723L807.157 564.769C807.988 557.797 803.904 552.152 797.116 550.888L796.923 550.852C796.452 550.764 795.962 550.72 795.462 550.72Z" stroke="#CCD1D9" stroke-width="2.6272"/>
<path d="M787.829 566.558H759.192L752.115 597.211H780.752L783.647 594.912L789.722 568.601L787.829 566.558Z" stroke="#CCD1D9" stroke-width="2.6272"/>
<path d="M767.036 817.073H664.613L663.627 816.979C658.741 816.512 656.962 811.326 660.183 806.936L732.567 722.48C732.732 722.287 732.924 722.115 733.135 721.97C735.863 720.093 739.181 719.814 741.44 721.271L742.349 721.858C742.686 722.075 742.939 722.384 743.085 722.756L776.147 806.936C777.209 811.383 772.999 816.513 767.892 816.992L767.036 817.073Z" fill="url(#paint24_linear_220_852)" stroke="#FFEA55" stroke-width="1.9704"/>
<path d="M771.109 807.628L740.038 726.852C738.996 724.293 735.204 724.242 732.919 726.756L732.831 726.852L663.926 807.756C663.173 808.64 662.848 809.729 663.054 810.676C663.185 811.276 663.522 811.781 664.019 812.121L664.358 812.353C664.994 812.788 665.786 813.018 666.647 813.018H766.847C767.579 813.018 768.344 812.795 769.035 812.38C769.665 812.002 770.207 811.481 770.596 810.878L770.627 810.829C771.303 809.781 771.481 808.596 771.109 807.628Z" stroke="#FFEA55" stroke-width="1.9704"/>
<path d="M741.454 755.236C741.07 756.902 739.271 758.331 737.357 758.331C735.444 758.331 734.305 756.902 734.689 755.236C735.074 753.57 736.873 752.141 738.786 752.141C740.7 752.141 741.839 753.57 741.454 755.236Z" stroke="#FFEA55" stroke-width="1.9704"/>
<path d="M735.778 759.494L729.851 755.844L709.354 759.494L703.379 770.239L701.257 769.023L699.526 770.847L702.209 772.469L701.319 773.483L704.439 775.105L705.11 774.091L706.405 775.105L691.131 810.99H704.453L699.259 805.111L710.631 784.228L714.734 792.946L710.568 810.99H723.889L718.477 805.111L721.285 792.946L717.698 781.998L724.281 785.648L723.906 787.269L728.71 790.108L729.038 788.689L738.085 793.96L734.841 797.609L744.184 803.489L751.922 794.568L742.703 789.094L739.817 792.135L729.553 786.458L735.778 759.494Z" stroke="#FFEA55" stroke-width="1.9704"/>
<path d="M724.702 783.823L728.072 769.226L716.591 777.335L717.043 779.16L724.702 783.823Z" stroke="#FFEA55" stroke-width="1.9704"/>
<path d="M708.136 773.28L706.405 772.267L713.971 763.143H720.959L708.136 773.28Z" stroke="#FFEA55" stroke-width="1.9704"/>
<path d="M768.142 809.976L759.085 792.206C758.91 791.864 758.396 791.85 758.048 792.178L739.191 809.948C738.747 810.367 738.908 810.991 739.461 810.991H767.375C767.911 810.991 768.358 810.4 768.142 809.976Z" stroke="#FFEA55" stroke-width="1.9704"/>
<path d="M687.147 809.649L679.545 802.386C679.351 802.2 679.015 802.197 678.733 802.378L667.413 809.641C666.832 810.015 666.924 810.788 667.551 810.788H686.473C687.093 810.788 687.543 810.027 687.147 809.649Z" stroke="#FFEA55" stroke-width="1.9704"/>
<circle cx="62.3959" cy="62.3959" r="60.7539" transform="matrix(1 0 -0.224951 0.97437 638.762 879.953)" fill="url(#paint25_linear_220_852)" stroke="#CCD1D9" stroke-width="3.284"/>
<path d="M735.093 941.001C729.063 966.969 702.575 987.993 675.931 987.959C649.287 987.925 632.577 966.846 638.607 940.877C644.637 914.909 671.125 893.885 697.769 893.919C724.413 893.953 741.123 915.032 735.093 941.001Z" stroke="#CCD1D9" stroke-width="3.284"/>
<path d="M635.357 1052.74H686.971L715.385 1088.59L703.798 1138.78L658.898 1174.34H607.285L579.006 1138.78L590.593 1088.59L635.357 1052.74Z" fill="url(#paint26_linear_220_852)" stroke="#CCD1D9" stroke-width="3.284"/>
<path d="M684.495 1056.83H636.254L594.291 1090.29L583.462 1137.19L610.09 1170.15H658.331L700.077 1137.19L710.906 1090.29L684.495 1056.83Z" stroke="#CCD1D9" stroke-width="3.284"/>
<path d="M647.542 1097.36H628.941L627.975 1101.54H635.129L628.715 1129.32H633.416L639.831 1101.54H646.576L647.542 1097.36Z" stroke="#CCD1D9" stroke-width="3.284"/>
<path d="M672.254 1129.32L679.634 1097.36H688.871C689.728 1097.36 690.556 1097.46 691.335 1097.68L691.62 1097.75C693.3 1098.21 694.683 1099.2 695.563 1100.57C697.729 1103.94 696.491 1108.96 692.65 1112.19C691.331 1113.3 689.8 1114.12 688.208 1114.57L687.709 1114.71C686.607 1115.03 685.497 1115.18 684.417 1115.18H679.607L676.342 1129.32H672.254Z" stroke="#CCD1D9" stroke-width="3.284"/>
<path d="M647.64 1120.4L650.869 1106.41C650.99 1105.89 651.156 1105.36 651.367 1104.85C655.483 1094.79 670.301 1094.83 669.791 1104.89C669.766 1105.38 669.699 1105.87 669.59 1106.37L666.542 1120.23C665.965 1122.85 664.254 1125.37 661.861 1127.14C657.476 1130.38 651.868 1130.36 649.047 1127.06C647.567 1125.33 647.058 1122.92 647.64 1120.4Z" stroke="#CCD1D9" stroke-width="3.284"/>
<path d="M680.55 1111.1L682.849 1101.14H688.362C689.799 1101.14 691.045 1101.74 691.781 1102.77C693.155 1104.69 692.46 1107.69 690.168 1109.58C688.985 1110.55 687.535 1111.1 686.152 1111.1H680.55Z" stroke="#CCD1D9" stroke-width="3.284"/>
<path d="M651.768 1120.32L655.079 1105.98C655.147 1105.69 655.241 1105.39 655.36 1105.1C657.686 1099.41 666.061 1099.43 665.773 1105.11C665.759 1105.4 665.719 1105.68 665.655 1105.97L662.459 1120.23C662.128 1121.71 661.159 1123.13 659.811 1124.13C657.333 1125.96 654.158 1125.95 652.563 1124.08C651.727 1123.11 651.439 1121.75 651.768 1120.32Z" stroke="#CCD1D9" stroke-width="3.284"/>
<path d="M622.773 1101.94L618.713 1104.03L618.693 1103.98C617.92 1102.23 616.076 1101.26 613.894 1101.44L612.523 1101.7C611.672 1101.85 610.824 1102.22 610.077 1102.76C608.867 1103.62 607.989 1104.88 607.687 1106.19L607.674 1106.25C607.497 1107.01 607.531 1107.76 607.772 1108.43C607.982 1109.01 608.344 1109.5 608.829 1109.87L609.001 1110C609.434 1110.33 609.94 1110.58 610.497 1110.73L612.223 1111.2C613.201 1111.46 614.12 1111.84 614.963 1112.32L615.412 1112.58C615.891 1112.85 616.327 1113.18 616.714 1113.56C620.476 1117.21 618.599 1124.15 612.955 1127.45L611.97 1128.02C611.17 1128.49 610.324 1128.85 609.463 1129.08C608.876 1129.24 608.287 1129.35 607.705 1129.39L606.718 1129.46C606.158 1129.5 605.605 1129.5 605.062 1129.47L604.765 1129.45C603.572 1129.37 602.455 1129.06 601.473 1128.56C600.287 1127.95 599.324 1127.05 598.657 1125.94L598.416 1125.54L602.272 1123.45C603.133 1124.78 604.661 1125.54 606.455 1125.54H607.001L608.649 1125.34C609.226 1125.28 609.809 1125.1 610.367 1124.84C611.311 1124.39 612.142 1123.69 612.738 1122.84L613.332 1121.99C614.025 1121.01 614.355 1119.89 614.258 1118.85C614.131 1117.49 613.278 1116.42 611.975 1116L609.778 1115.28L606.81 1113.97C605.953 1113.59 605.215 1113.04 604.632 1112.35C604.151 1111.79 603.782 1111.13 603.538 1110.41L603.522 1110.36C602.981 1108.77 603.048 1106.94 603.712 1105.13L603.788 1104.93L604.567 1103.37C605.416 1101.67 606.794 1100.17 608.477 1099.11C609.979 1098.16 611.65 1097.61 613.275 1097.53L614.813 1097.46L616.216 1097.53C617.682 1097.61 619.027 1098.04 620.139 1098.77C621.013 1099.35 621.725 1100.11 622.239 1101.01L622.773 1101.94Z" stroke="#CCD1D9" stroke-width="3.284"/>
<path d="M647.361 1335.44H544.937L543.952 1335.35C539.065 1334.88 537.287 1329.7 540.507 1325.31L612.891 1240.85C613.057 1240.66 613.248 1240.49 613.46 1240.34C616.187 1238.46 619.506 1238.19 621.765 1239.64L622.673 1240.23C623.01 1240.45 623.263 1240.76 623.409 1241.13L656.471 1325.31C657.533 1329.76 653.323 1334.88 648.217 1335.36L647.361 1335.44Z" fill="url(#paint27_linear_220_852)" stroke="#FFEA55" stroke-width="1.9704"/>
<path d="M651.433 1326L620.362 1245.22C619.32 1242.67 615.528 1242.61 613.243 1245.13L613.156 1245.22L544.251 1326.13C543.497 1327.01 543.172 1328.1 543.379 1329.05C543.509 1329.65 543.846 1330.15 544.343 1330.49L544.682 1330.72C545.318 1331.16 546.11 1331.39 546.971 1331.39H647.171C647.903 1331.39 648.668 1331.17 649.359 1330.75C649.989 1330.37 650.531 1329.85 650.92 1329.25L650.952 1329.2C651.627 1328.15 651.806 1326.97 651.433 1326Z" stroke="#FFEA55" stroke-width="1.9704"/>
<path d="M621.779 1273.61C621.394 1275.27 619.595 1276.7 617.681 1276.7C615.768 1276.7 614.629 1275.27 615.013 1273.61C615.398 1271.94 617.197 1270.51 619.11 1270.51C621.024 1270.51 622.163 1271.94 621.779 1273.61Z" stroke="#FFEA55" stroke-width="1.9704"/>
<path d="M616.103 1277.87L610.175 1274.22L589.678 1277.87L583.703 1288.61L581.581 1287.39L579.85 1289.22L582.533 1290.84L581.644 1291.85L584.763 1293.48L585.434 1292.46L586.729 1293.48L571.456 1329.36H584.777L579.583 1323.48L590.956 1302.6L595.058 1311.32L590.892 1329.36H604.214L598.801 1323.48L601.609 1311.32L598.022 1300.37L604.605 1304.02L604.23 1305.64L609.035 1308.48L609.362 1307.06L618.41 1312.33L615.165 1315.98L624.508 1321.86L632.246 1312.94L623.027 1307.47L620.141 1310.51L609.877 1304.83L616.103 1277.87Z" stroke="#FFEA55" stroke-width="1.9704"/>
<path d="M605.026 1302.2L608.396 1287.6L596.915 1295.71L597.367 1297.53L605.026 1302.2Z" stroke="#FFEA55" stroke-width="1.9704"/>
<path d="M588.461 1291.65L586.729 1290.64L594.295 1281.52H601.284L588.461 1291.65Z" stroke="#FFEA55" stroke-width="1.9704"/>
<path d="M648.466 1328.35L639.409 1310.58C639.235 1310.24 638.72 1310.22 638.372 1310.55L619.515 1328.32C619.071 1328.74 619.233 1329.36 619.785 1329.36H647.699C648.235 1329.36 648.682 1328.77 648.466 1328.35Z" stroke="#FFEA55" stroke-width="1.9704"/>
<path d="M567.471 1328.02L559.869 1320.76C559.675 1320.57 559.34 1320.57 559.058 1320.75L547.738 1328.01C547.156 1328.39 547.248 1329.16 547.875 1329.16H566.797C567.417 1329.16 567.867 1328.4 567.471 1328.02Z" stroke="#FFEA55" stroke-width="1.9704"/>
<circle cx="62.3959" cy="62.3959" r="60.7539" transform="matrix(1 0 -0.224951 0.97437 519.086 1398.32)" fill="url(#paint28_linear_220_852)" stroke="#CCD1D9" stroke-width="3.284"/>
<path d="M591.347 1422.59L587.101 1440.98H568.654C564.912 1440.98 561.038 1441.73 557.27 1443.18C548.717 1446.47 541.4 1453.09 537.462 1461.11L536.201 1463.68C534.94 1466.25 533.993 1468.89 533.381 1471.54L525.692 1504.85H544.043L552.172 1469.64C552.49 1468.26 553.081 1466.9 553.91 1465.62C555.458 1463.24 557.757 1461.3 560.381 1460.15L560.61 1460.05C562.386 1459.27 564.24 1458.87 566.025 1458.87H582.973L578.727 1477.26L622.73 1450.18L591.347 1422.59Z" stroke="#CCD1D9" stroke-width="2.6272"/>
<path d="M484.533 1571.8C485.74 1571.35 486.981 1571.12 488.177 1571.12H595.099C595.937 1571.12 596.744 1571.23 597.497 1571.46V1571.46C601.046 1572.53 602.863 1575.98 601.974 1579.83V1579.83C601.649 1581.24 600.977 1582.64 600.023 1583.89L522.105 1685.83C521.451 1686.68 520.658 1687.45 519.767 1688.09L519.65 1688.17C516.038 1690.75 511.523 1690.69 509.196 1688.02V1688.02C508.675 1687.43 508.289 1686.73 508.055 1685.95L477.255 1583.88C476.879 1582.64 476.852 1581.26 477.176 1579.86V1579.86C477.988 1576.34 480.891 1573.16 484.533 1571.8V1571.8Z" fill="url(#paint29_linear_220_852)" stroke="#FFEA55" stroke-width="3.284"/>
<path d="M594.016 1576.01H486.75C486.111 1576.01 485.447 1576.16 484.811 1576.44C483.347 1577.09 482.193 1578.37 481.789 1579.8L481.765 1579.89C481.557 1580.62 481.552 1581.36 481.752 1582.01L512.649 1683.3C513.544 1685.62 516.947 1685.68 518.986 1683.42L519.093 1683.3L596.676 1581.65C596.998 1581.23 597.246 1580.77 597.406 1580.3C598.074 1578.32 597.108 1576.52 595.188 1576.16L594.791 1576.08C594.54 1576.04 594.281 1576.01 594.016 1576.01Z" stroke="#FFEA55" stroke-width="3.284"/>
<rect width="157.632" height="1753.65" transform="matrix(1 0 -0.224951 0.97437 1004.5 0)" fill="#090A0D"/>
<path d="M1126.63 73.1555L1082.47 17.5574C1082.14 17.141 1081.7 16.8165 1081.19 16.605L1081.12 16.5782C1080.22 16.2065 1079.11 16.2213 1078.04 16.6196C1077.5 16.8218 1076.98 17.117 1076.51 17.4886L1006.27 73.4203C1005.77 73.814 1005.33 74.2734 1004.98 74.7778C1004.07 76.057 1003.73 77.5345 1004.05 78.8137C1004.17 79.3181 1004.39 79.7775 1004.71 80.1712L1049.13 136.103C1049.42 136.474 1049.81 136.77 1050.26 136.972C1051.14 137.37 1052.24 137.385 1053.32 137.013L1053.4 136.987C1054.01 136.775 1054.59 136.451 1055.12 136.034L1124.95 80.436C1125.66 79.8705 1126.25 79.1813 1126.69 78.4229C1127.29 77.3666 1127.55 76.2248 1127.44 75.1686C1127.35 74.4102 1127.08 73.721 1126.63 73.1555Z" fill="url(#paint30_linear_220_852)" stroke="#FFEA55" stroke-width="2.6272"/>
<path d="M1072.94 40.2585L1028.19 75.8891C1027.56 76.3897 1027.38 77.201 1027.77 77.7004L1056.11 113.155C1056.51 113.651 1057.34 113.652 1057.96 113.157L1102.85 77.7026C1103.49 77.2028 1103.68 76.388 1103.28 75.8869L1074.8 40.2562C1074.4 39.7578 1073.57 39.7588 1072.94 40.2585Z" stroke="#FFEA55" stroke-width="2.6272"/>
<circle cx="62.3959" cy="62.3959" r="60.7539" transform="matrix(1 0 -0.224951 0.97437 977.33 188.79)" fill="url(#paint31_linear_220_852)" stroke="#FFEA55" stroke-width="3.284"/>
<path d="M1080.34 234.739H977.578C976.595 234.739 975.6 235.444 975.245 236.392L973.518 241.002C971.192 247.212 969.786 253.516 969.345 259.712L969.124 262.809C969.058 263.744 969.725 264.434 970.696 264.434H1073.5C1074.47 264.434 1075.46 263.741 1075.83 262.803L1077.15 259.388C1079.54 253.2 1081.02 246.907 1081.55 240.71L1081.91 236.387C1081.99 235.441 1081.32 234.739 1080.34 234.739Z" stroke="#FFEA55" stroke-width="2.6272"/>
<path d="M936.699 364.78C937.107 363.013 938.908 361.581 940.722 361.581H1058.95C1060.76 361.581 1061.9 363.013 1061.49 364.78L1034.9 479.974C1034.49 481.741 1032.69 483.174 1030.87 483.174H912.65C910.836 483.174 909.697 481.741 910.105 479.974L936.699 364.78Z" fill="url(#paint32_linear_220_852)" stroke="#FFEA55" stroke-width="2.6272"/>
<path d="M1014.35 377.929H964.927L944.462 466.57H960.751L966.826 440.259H999.884C1000.44 440.259 1001 440.205 1001.57 440.1C1007.07 439.076 1012.31 435.666 1015.67 430.919L1016.41 429.869C1017.28 428.636 1017.9 427.293 1018.21 425.933L1026.05 391.979C1026.88 385.007 1022.8 379.362 1016.01 378.097L1015.82 378.061C1015.34 377.973 1014.85 377.929 1014.35 377.929Z" stroke="#FFEA55" stroke-width="2.6272"/>
<path d="M1006.72 393.767H978.084L971.007 424.421H999.644L1002.54 422.122L1008.61 395.811L1006.72 393.767Z" stroke="#FFEA55" stroke-width="2.6272"/>
<path d="M1012.49 534.371H907.398C901.957 534.371 896.554 538.669 895.33 543.971L871.69 646.365C870.466 651.667 873.885 655.965 879.326 655.965H984.414C989.855 655.965 995.258 651.667 996.482 646.365L1020.12 543.971C1021.35 538.669 1017.93 534.371 1012.49 534.371Z" fill="url(#paint33_linear_220_852)" stroke="#FFEA55" stroke-width="2.6272"/>
<path d="M996.695 638.63L960.172 535.646L874.787 638.63H996.695Z" stroke="#FFEA55" stroke-width="2.6272"/>
<path d="M893.646 620.532H922.223" stroke="#FFEA55" stroke-width="1.9704"/>
<path d="M936.642 620.532H951.586" stroke="#FFEA55" stroke-width="1.9704"/>
<path d="M964.432 620.532H986.192" stroke="#FFEA55" stroke-width="1.9704"/>
<path d="M931.275 610.845L944.298 597.59L945.057 596.57L946.63 584.079L942.19 589.687L929.119 598.609L927.498 594.276L940.456 583.569L951.825 567.255L961.804 572.863L968.947 582.805L965.004 599.884L958.471 603.198L962.237 586.883L959.337 581.275L956.336 594.276L956.812 602.433L965.165 630.983L955.657 635.826H947.268L957.011 629.963L948.503 605.492L936.476 616.708L926.412 635.317L911.559 633.787L912.207 630.983L922.115 628.944L931.275 610.845Z" stroke="#FFEA55" stroke-width="1.9704"/>
<path d="M958.021 561.137C957.428 563.702 954.808 565.785 952.165 565.785C949.522 565.785 947.863 563.702 948.456 561.137C949.048 558.572 951.668 556.489 954.311 556.489C956.954 556.489 958.613 558.572 958.021 561.137Z" stroke="#FFEA55" stroke-width="1.9704"/>
<path d="M862.993 707.847C864.2 707.395 865.44 707.162 866.637 707.162H973.559C974.397 707.162 975.204 707.277 975.957 707.505V707.505C979.506 708.578 981.323 712.025 980.434 715.878V715.878C980.109 717.284 979.437 718.689 978.483 719.937L900.565 821.876C899.911 822.731 899.118 823.496 898.227 824.132L898.11 824.216C894.498 826.794 889.983 826.732 887.656 824.071V824.071C887.135 823.475 886.749 822.773 886.515 821.996L855.715 719.93C855.339 718.687 855.312 717.306 855.636 715.905V715.905C856.448 712.388 859.351 709.211 862.993 707.847V707.847Z" fill="url(#paint34_linear_220_852)" stroke="#CCD1D9" stroke-width="3.284"/>
<path d="M972.475 712.061H865.21C864.57 712.061 863.907 712.206 863.271 712.487C861.807 713.132 860.653 714.415 860.249 715.848L860.225 715.934C860.017 716.67 860.012 717.402 860.212 718.055L891.109 819.349C892.004 821.662 895.407 821.725 897.446 819.467L897.553 819.349L975.136 717.696C975.458 717.274 975.706 716.815 975.866 716.342C976.534 714.368 975.568 712.566 973.648 712.206L973.251 712.131C973 712.084 972.741 712.061 972.475 712.061Z" stroke="#CCD1D9" stroke-width="3.284"/>
<circle cx="62.3959" cy="62.3959" r="60.7539" transform="matrix(1 0 -0.224951 0.97437 817.762 879.953)" fill="url(#paint35_linear_220_852)" stroke="#FFEA55" stroke-width="3.284"/>
<path d="M914.093 941.001C908.063 966.969 881.575 987.993 854.931 987.959C828.287 987.925 811.577 966.846 817.607 940.877C823.637 914.909 850.125 893.885 876.769 893.919C903.413 893.953 920.123 915.032 914.093 941.001Z" stroke="#FFEA55" stroke-width="3.284"/>
<path d="M866.253 1162.65H763.83L762.844 1162.56C757.958 1162.09 756.179 1156.91 759.4 1152.52L831.784 1068.06C831.949 1067.87 832.141 1067.7 832.352 1067.55C835.08 1065.67 838.398 1065.4 840.657 1066.85L841.566 1067.44C841.903 1067.66 842.156 1067.97 842.302 1068.34L875.364 1152.52C876.426 1156.97 872.216 1162.09 867.109 1162.57L866.253 1162.65Z" fill="url(#paint36_linear_220_852)" stroke="#CCD1D9" stroke-width="1.9704"/>
<path d="M870.326 1153.21L839.256 1072.43C838.213 1069.87 834.421 1069.82 832.136 1072.34L832.049 1072.43L763.144 1153.34C762.39 1154.22 762.065 1155.31 762.272 1156.26C762.403 1156.86 762.739 1157.36 763.236 1157.7L763.575 1157.93C764.211 1158.37 765.003 1158.6 765.864 1158.6H866.064C866.796 1158.6 867.561 1158.38 868.252 1157.96C868.882 1157.58 869.424 1157.06 869.813 1156.46L869.845 1156.41C870.521 1155.36 870.699 1154.18 870.326 1153.21Z" stroke="#CCD1D9" stroke-width="1.9704"/>
<path d="M840.671 1100.82C840.286 1102.48 838.488 1103.91 836.574 1103.91C834.66 1103.91 833.521 1102.48 833.906 1100.82C834.291 1099.15 836.089 1097.72 838.003 1097.72C839.917 1097.72 841.056 1099.15 840.671 1100.82Z" stroke="#CCD1D9" stroke-width="1.9704"/>
<path d="M834.995 1105.08L829.068 1101.43L808.57 1105.08L802.595 1115.82L800.474 1114.6L798.742 1116.43L801.425 1118.05L800.536 1119.06L803.656 1120.69L804.327 1119.67L805.621 1120.69L790.348 1156.57H803.67L798.476 1150.69L809.848 1129.81L813.95 1138.53L809.785 1156.57H823.106L817.694 1150.69L820.502 1138.53L816.915 1127.58L823.497 1131.23L823.123 1132.85L827.927 1135.69L828.255 1134.27L837.302 1139.54L834.057 1143.19L843.401 1149.07L851.139 1140.15L841.92 1134.68L839.034 1137.72L828.77 1132.04L834.995 1105.08Z" stroke="#CCD1D9" stroke-width="1.9704"/>
<path d="M823.919 1129.4L827.289 1114.81L815.808 1122.92L816.26 1124.74L823.919 1129.4Z" stroke="#CCD1D9" stroke-width="1.9704"/>
<path d="M807.353 1118.86L805.622 1117.85L813.188 1108.72H820.176L807.353 1118.86Z" stroke="#CCD1D9" stroke-width="1.9704"/>
<path d="M867.359 1155.56L858.302 1137.79C858.127 1137.45 857.613 1137.43 857.265 1137.76L838.408 1155.53C837.964 1155.95 838.125 1156.57 838.678 1156.57H866.592C867.127 1156.57 867.574 1155.98 867.359 1155.56Z" stroke="#CCD1D9" stroke-width="1.9704"/>
<path d="M786.364 1155.23L778.762 1147.97C778.568 1147.78 778.233 1147.78 777.951 1147.96L766.631 1155.22C766.049 1155.6 766.141 1156.37 766.768 1156.37H785.69C786.31 1156.37 786.761 1155.61 786.364 1155.23Z" stroke="#CCD1D9" stroke-width="1.9704"/>
<path d="M847.411 1284.95C840.04 1316.88 807.436 1342.77 774.582 1342.77C741.729 1342.77 721.079 1316.88 728.45 1284.95C735.821 1253.02 768.425 1227.13 801.278 1227.13C834.132 1227.13 854.782 1253.02 847.411 1284.95Z" fill="url(#paint37_linear_220_852)" stroke="#FFEA55" stroke-width="3.284"/>
<path d="M804.869 1267.21L795.752 1248.72C795.586 1248.38 795.836 1247.91 796.263 1247.76L805.89 1244.26C807.992 1243.5 810.122 1242.91 812.252 1242.52L822.406 1240.63C822.948 1240.53 823.252 1241.03 822.934 1241.51L819.029 1247.32L823.365 1250.86C825.326 1252.45 827.022 1254.32 828.42 1256.4C830.535 1259.56 831.935 1263.2 832.552 1267.13L832.955 1269.7C833.641 1274.06 833.558 1278.66 832.71 1283.32L832.464 1284.67C831.598 1289.43 829.796 1294.2 827.157 1298.71C827.042 1298.9 826.798 1299.01 826.612 1298.94L813.575 1294.11L814.936 1291.32C816.276 1288.58 817.189 1285.74 817.643 1282.92L817.685 1282.66C818.357 1278.47 817.963 1274.42 816.534 1270.84C815.941 1269.36 815.174 1267.97 814.247 1266.7L810.226 1261.18L806.024 1267.11C805.708 1267.56 805.067 1267.61 804.869 1267.21Z" stroke="#FFEA55" stroke-width="2.6272"/>
<path d="M764.573 1282.03L749.727 1302.38C749.458 1302.75 748.944 1302.85 748.674 1302.6L742.597 1296.8C741.263 1295.53 740.091 1294.11 739.097 1292.56L734.39 1285.23C734.138 1284.83 734.528 1284.23 735.066 1284.18L741.69 1283.54L743.776 1277.45C744.724 1274.69 745.996 1271.97 747.568 1269.36C749.943 1265.41 752.968 1261.75 756.5 1258.56L758.818 1256.46C762.747 1252.9 767.114 1249.84 771.763 1247.39L773.116 1246.67C777.866 1244.17 782.884 1242.45 787.905 1241.63C788.124 1241.59 788.294 1241.73 788.282 1241.94L787.482 1256.31L784.454 1257.05C781.473 1257.78 778.53 1258.93 775.732 1260.47L775.464 1260.62C771.32 1262.89 767.607 1265.99 764.642 1269.63C763.409 1271.15 762.316 1272.75 761.38 1274.41L757.332 1281.58L764.145 1281.11C764.658 1281.08 764.896 1281.59 764.573 1282.03Z" stroke="#FFEA55" stroke-width="2.6272"/>
<path d="M791.101 1306.5L814.577 1305.46C815.003 1305.44 815.248 1305.81 815.079 1306.21L811.278 1315.31C810.444 1317.31 809.424 1319.26 808.232 1321.16L802.585 1330.13C802.283 1330.61 801.599 1330.68 801.399 1330.26L798.938 1325.03L792.574 1327.35C789.687 1328.4 786.752 1329.15 783.831 1329.57C779.417 1330.2 775.095 1330.08 771.069 1329.22L768.428 1328.66C763.951 1327.7 759.822 1326.03 756.192 1323.72L755.135 1323.04C751.425 1320.68 748.394 1317.54 746.205 1313.81C746.109 1313.65 746.193 1313.41 746.391 1313.28L760.26 1304.27L761.813 1306.36C763.341 1308.41 765.261 1310.15 767.504 1311.5L767.718 1311.63C771.039 1313.64 775.016 1314.72 779.31 1314.8C781.096 1314.83 782.922 1314.68 784.759 1314.36L792.7 1312.99L790.349 1307.48C790.172 1307.07 790.59 1306.52 791.101 1306.5Z" stroke="#FFEA55" stroke-width="2.6272"/>
<path d="M734.574 1398.32H786.187L814.602 1434.18L803.015 1484.37L758.115 1519.92H706.502L678.223 1484.37L689.81 1434.18L734.574 1398.32Z" fill="url(#paint38_linear_220_852)" stroke="#FFEA55" stroke-width="3.284"/>
<path d="M783.712 1402.41H735.471L693.508 1435.87L682.679 1482.77L709.308 1515.74H757.548L799.295 1482.77L810.123 1435.87L783.712 1402.41Z" stroke="#FFEA55" stroke-width="3.284"/>
<path d="M746.759 1442.94H728.157L727.192 1447.12H734.346L727.932 1474.91H732.633L739.047 1447.12H745.793L746.759 1442.94Z" stroke="#FFEA55" stroke-width="3.284"/>
<path d="M771.471 1474.91L778.851 1442.94H788.088C788.944 1442.94 789.772 1443.05 790.552 1443.26L790.837 1443.33C792.517 1443.79 793.899 1444.78 794.78 1446.15C796.946 1449.52 795.708 1454.54 791.867 1457.78C790.548 1458.89 789.017 1459.71 787.425 1460.16L786.926 1460.3C785.823 1460.61 784.714 1460.76 783.634 1460.76H778.824L775.559 1474.91H771.471Z" stroke="#FFEA55" stroke-width="3.284"/>
<path d="M746.856 1465.98L750.086 1451.99C750.207 1451.47 750.373 1450.95 750.584 1450.43C754.699 1440.37 769.518 1440.41 769.008 1450.47C768.983 1450.96 768.916 1451.45 768.807 1451.95L765.758 1465.81C765.182 1468.43 763.471 1470.95 761.078 1472.72C756.693 1475.96 751.085 1475.94 748.264 1472.64C746.784 1470.91 746.275 1468.5 746.856 1465.98Z" stroke="#FFEA55" stroke-width="3.284"/>
<path d="M779.766 1456.68L782.065 1446.72H787.579C789.016 1446.72 790.262 1447.32 790.997 1448.35C792.372 1450.27 791.677 1453.27 789.384 1455.16C788.202 1456.13 786.752 1456.68 785.368 1456.68H779.766Z" stroke="#FFEA55" stroke-width="3.284"/>
<path d="M750.984 1465.9L754.295 1451.56C754.363 1451.27 754.457 1450.97 754.576 1450.68C756.902 1445 765.277 1445.01 764.989 1450.69C764.975 1450.98 764.935 1451.26 764.871 1451.55L761.675 1465.82C761.344 1467.29 760.375 1468.71 759.027 1469.71C756.549 1471.54 753.374 1471.53 751.78 1469.67C750.943 1468.69 750.656 1467.33 750.984 1465.9Z" stroke="#FFEA55" stroke-width="3.284"/>
<path d="M721.99 1447.52L717.93 1449.61L717.91 1449.57C717.137 1447.82 715.293 1446.84 713.111 1447.02L711.74 1447.28C710.889 1447.44 710.041 1447.81 709.294 1448.34C708.084 1449.21 707.207 1450.46 706.904 1451.77L706.891 1451.83C706.714 1452.59 706.748 1453.35 706.989 1454.01C707.199 1454.59 707.561 1455.08 708.046 1455.45L708.219 1455.58C708.651 1455.92 709.157 1456.16 709.714 1456.31L711.44 1456.78C712.418 1457.05 713.337 1457.42 714.18 1457.9L714.63 1458.16C715.108 1458.44 715.545 1458.76 715.931 1459.14C719.693 1462.79 717.816 1469.73 712.173 1473.03L711.187 1473.6C710.387 1474.07 709.541 1474.43 708.68 1474.66C708.094 1474.82 707.504 1474.93 706.922 1474.97L705.936 1475.04C705.376 1475.08 704.822 1475.09 704.28 1475.05L703.983 1475.03C702.789 1474.95 701.672 1474.65 700.69 1474.14C699.504 1473.53 698.542 1472.64 697.875 1471.52L697.633 1471.12L701.489 1469.03C702.35 1470.36 703.878 1471.12 705.673 1471.12H706.218L707.866 1470.93C708.444 1470.86 709.027 1470.69 709.584 1470.42C710.528 1469.97 711.359 1469.27 711.955 1468.42L712.55 1467.57C713.242 1466.59 713.572 1465.47 713.476 1464.44C713.348 1463.07 712.495 1462.01 711.192 1461.58L708.995 1460.86L706.028 1459.55C705.17 1459.17 704.432 1458.62 703.849 1457.93C703.368 1457.37 702.999 1456.71 702.756 1456L702.739 1455.95C702.199 1454.35 702.265 1452.52 702.929 1450.72L703.006 1450.51L703.784 1448.95C704.634 1447.25 706.011 1445.75 707.695 1444.69C709.196 1443.74 710.867 1443.19 712.492 1443.11L714.031 1443.04L715.433 1443.12C716.899 1443.2 718.244 1443.62 719.356 1444.36C720.23 1444.93 720.943 1445.69 721.456 1446.59L721.99 1447.52Z" stroke="#FFEA55" stroke-width="3.284"/>
<circle cx="62.3959" cy="62.3959" r="60.7539" transform="matrix(1 0 -0.224951 0.97437 658.195 1571.12)" fill="url(#paint39_linear_220_852)" stroke="#FFEA55" stroke-width="3.284"/>
<path d="M730.456 1595.38L726.21 1613.78H707.762C704.021 1613.78 700.146 1614.52 696.378 1615.97C687.825 1619.26 680.508 1625.88 676.57 1633.9L675.309 1636.47C674.048 1639.04 673.101 1641.68 672.489 1644.33L664.8 1677.64H683.152L691.281 1642.43C691.599 1641.05 692.189 1639.69 693.019 1638.41C694.566 1636.03 696.866 1634.09 699.49 1632.94L699.718 1632.84C701.494 1632.06 703.348 1631.66 705.133 1631.66H722.081L717.835 1650.05L761.839 1622.97L730.456 1595.38Z" stroke="#FFEA55" stroke-width="2.6272"/>
</g>
<defs>
<linearGradient id="paint0_linear_220_852" x1="62.3959" y1="1.52297e-09" x2="62.447" y2="190.816" gradientUnits="userSpaceOnUse">
<stop stop-color="#1A1914"/>
<stop offset="1" stop-color="#3C3A31"/>
</linearGradient>
<linearGradient id="paint1_linear_220_852" x1="429.717" y1="509.357" x2="429.766" y2="695.272" gradientUnits="userSpaceOnUse">
<stop stop-color="#1A1914"/>
<stop offset="1" stop-color="#3C3A31"/>
</linearGradient>
<linearGradient id="paint2_linear_220_852" x1="389.825" y1="682.148" x2="389.874" y2="868.063" gradientUnits="userSpaceOnUse">
<stop stop-color="#1A1914"/>
<stop offset="1" stop-color="#3C3A31"/>
</linearGradient>
<linearGradient id="paint3_linear_220_852" x1="347.236" y1="866.621" x2="347.268" y2="1016.81" gradientUnits="userSpaceOnUse">
<stop stop-color="#151515"/>
<stop offset="1" stop-color="#2E3C4B"/>
</linearGradient>
<linearGradient id="paint4_linear_220_852" x1="62.3959" y1="1.52297e-09" x2="62.447" y2="190.816" gradientUnits="userSpaceOnUse">
<stop stop-color="#151515"/>
<stop offset="1" stop-color="#2E3C4B"/>
</linearGradient>
<linearGradient id="paint5_linear_220_852" x1="62.3959" y1="1.52297e-09" x2="62.447" y2="190.816" gradientUnits="userSpaceOnUse">
<stop stop-color="#1A1914"/>
<stop offset="1" stop-color="#3C3A31"/>
</linearGradient>
<linearGradient id="paint6_linear_220_852" x1="230.257" y1="1373.31" x2="230.306" y2="1559.23" gradientUnits="userSpaceOnUse">
<stop stop-color="#1A1914"/>
<stop offset="1" stop-color="#3C3A31"/>
</linearGradient>
<linearGradient id="paint7_linear_220_852" x1="187.669" y1="1557.78" x2="187.7" y2="1707.98" gradientUnits="userSpaceOnUse">
<stop stop-color="#151515"/>
<stop offset="1" stop-color="#2E3C4B"/>
</linearGradient>
<linearGradient id="paint8_linear_220_852" x1="62.3959" y1="1.52297e-09" x2="62.447" y2="190.816" gradientUnits="userSpaceOnUse">
<stop stop-color="#1A1914"/>
<stop offset="1" stop-color="#3C3A31"/>
</linearGradient>
<linearGradient id="paint9_linear_220_852" x1="110.582" y1="1891.68" x2="110.631" y2="2077.6" gradientUnits="userSpaceOnUse">
<stop stop-color="#151515"/>
<stop offset="1" stop-color="#2E3C4B"/>
</linearGradient>
<linearGradient id="paint10_linear_220_852" x1="62.3959" y1="1.52297e-09" x2="62.447" y2="190.816" gradientUnits="userSpaceOnUse">
<stop stop-color="#151515"/>
<stop offset="1" stop-color="#2E3C4B"/>
</linearGradient>
<linearGradient id="paint11_linear_220_852" x1="62.3959" y1="1.52297e-09" x2="62.447" y2="190.816" gradientUnits="userSpaceOnUse">
<stop stop-color="#151515"/>
<stop offset="1" stop-color="#2E3C4B"/>
</linearGradient>
<linearGradient id="paint12_linear_220_852" x1="593.114" y1="575.776" x2="593.146" y2="725.968" gradientUnits="userSpaceOnUse">
<stop stop-color="#1A1914"/>
<stop offset="1" stop-color="#3C3A31"/>
</linearGradient>
<linearGradient id="paint13_linear_220_852" x1="555.919" y1="736.884" x2="555.967" y2="922.799" gradientUnits="userSpaceOnUse">
<stop stop-color="#151515"/>
<stop offset="1" stop-color="#2E3C4B"/>
</linearGradient>
<linearGradient id="paint14_linear_220_852" x1="516.027" y1="909.675" x2="516.076" y2="1095.59" gradientUnits="userSpaceOnUse">
<stop stop-color="#1A1914"/>
<stop offset="1" stop-color="#3C3A31"/>
</linearGradient>
<linearGradient id="paint15_linear_220_852" x1="476.136" y1="1082.47" x2="476.184" y2="1268.38" gradientUnits="userSpaceOnUse">
<stop stop-color="#151515"/>
<stop offset="1" stop-color="#2E3C4B"/>
</linearGradient>
<linearGradient id="paint16_linear_220_852" x1="436.244" y1="1255.26" x2="436.292" y2="1441.17" gradientUnits="userSpaceOnUse">
<stop stop-color="#151515"/>
<stop offset="1" stop-color="#2E3C4B"/>
</linearGradient>
<linearGradient id="paint17_linear_220_852" x1="397.625" y1="1428.05" x2="397.672" y2="1609.74" gradientUnits="userSpaceOnUse">
<stop stop-color="#151515"/>
<stop offset="1" stop-color="#2E3C4B"/>
</linearGradient>
<linearGradient id="paint18_linear_220_852" x1="356.46" y1="1600.84" x2="356.508" y2="1786.75" gradientUnits="userSpaceOnUse">
<stop stop-color="#151515"/>
<stop offset="1" stop-color="#2E3C4B"/>
</linearGradient>
<linearGradient id="paint19_linear_220_852" x1="62.3959" y1="1.52297e-09" x2="62.447" y2="190.816" gradientUnits="userSpaceOnUse">
<stop stop-color="#151515"/>
<stop offset="1" stop-color="#2E3C4B"/>
</linearGradient>
<linearGradient id="paint20_linear_220_852" x1="900.617" y1="15.999" x2="900.666" y2="201.913" gradientUnits="userSpaceOnUse">
<stop stop-color="#1A1914"/>
<stop offset="1" stop-color="#3C3A31"/>
</linearGradient>
<linearGradient id="paint21_linear_220_852" x1="62.3959" y1="1.52297e-09" x2="62.447" y2="190.816" gradientUnits="userSpaceOnUse">
<stop stop-color="#151515"/>
<stop offset="1" stop-color="#2E3C4B"/>
</linearGradient>
<linearGradient id="paint22_linear_220_852" x1="62.3959" y1="1.52297e-09" x2="62.447" y2="190.816" gradientUnits="userSpaceOnUse">
<stop stop-color="#1A1914"/>
<stop offset="1" stop-color="#3C3A31"/>
</linearGradient>
<linearGradient id="paint23_linear_220_852" x1="780.941" y1="534.371" x2="780.99" y2="720.285" gradientUnits="userSpaceOnUse">
<stop stop-color="#1A1914"/>
<stop offset="1" stop-color="#3C3A31"/>
</linearGradient>
<linearGradient id="paint24_linear_220_852" x1="738.352" y1="718.844" x2="738.384" y2="869.036" gradientUnits="userSpaceOnUse">
<stop stop-color="#151515"/>
<stop offset="1" stop-color="#2E3C4B"/>
</linearGradient>
<linearGradient id="paint25_linear_220_852" x1="62.3959" y1="1.52297e-09" x2="62.447" y2="190.816" gradientUnits="userSpaceOnUse">
<stop stop-color="#1A1914"/>
<stop offset="1" stop-color="#3C3A31"/>
</linearGradient>
<linearGradient id="paint26_linear_220_852" x1="661.266" y1="1052.74" x2="661.315" y2="1238.66" gradientUnits="userSpaceOnUse">
<stop stop-color="#1A1914"/>
<stop offset="1" stop-color="#3C3A31"/>
</linearGradient>
<linearGradient id="paint27_linear_220_852" x1="618.677" y1="1237.22" x2="618.708" y2="1387.41" gradientUnits="userSpaceOnUse">
<stop stop-color="#151515"/>
<stop offset="1" stop-color="#2E3C4B"/>
</linearGradient>
<linearGradient id="paint28_linear_220_852" x1="62.3959" y1="1.52297e-09" x2="62.447" y2="190.816" gradientUnits="userSpaceOnUse">
<stop stop-color="#1A1914"/>
<stop offset="1" stop-color="#3C3A31"/>
</linearGradient>
<linearGradient id="paint29_linear_220_852" x1="541.59" y1="1571.12" x2="541.639" y2="1757.03" gradientUnits="userSpaceOnUse">
<stop stop-color="#151515"/>
<stop offset="1" stop-color="#2E3C4B"/>
</linearGradient>
<linearGradient id="paint30_linear_220_852" x1="1079.62" y1="15.999" x2="1079.67" y2="201.913" gradientUnits="userSpaceOnUse">
<stop stop-color="#151515"/>
<stop offset="1" stop-color="#2E3C4B"/>
</linearGradient>
<linearGradient id="paint31_linear_220_852" x1="62.3959" y1="1.52297e-09" x2="62.447" y2="190.816" gradientUnits="userSpaceOnUse">
<stop stop-color="#151515"/>
<stop offset="1" stop-color="#2E3C4B"/>
</linearGradient>
<linearGradient id="paint32_linear_220_852" x1="999.834" y1="361.581" x2="999.882" y2="547.495" gradientUnits="userSpaceOnUse">
<stop stop-color="#151515"/>
<stop offset="1" stop-color="#2E3C4B"/>
</linearGradient>
<linearGradient id="paint33_linear_220_852" x1="959.942" y1="534.371" x2="959.99" y2="720.285" gradientUnits="userSpaceOnUse">
<stop stop-color="#151515"/>
<stop offset="1" stop-color="#2E3C4B"/>
</linearGradient>
<linearGradient id="paint34_linear_220_852" x1="920.05" y1="707.162" x2="920.099" y2="893.076" gradientUnits="userSpaceOnUse">
<stop stop-color="#1A1914"/>
<stop offset="1" stop-color="#3C3A31"/>
</linearGradient>
<linearGradient id="paint35_linear_220_852" x1="62.3959" y1="1.52297e-09" x2="62.447" y2="190.816" gradientUnits="userSpaceOnUse">
<stop stop-color="#151515"/>
<stop offset="1" stop-color="#2E3C4B"/>
</linearGradient>
<linearGradient id="paint36_linear_220_852" x1="837.569" y1="1064.43" x2="837.601" y2="1214.62" gradientUnits="userSpaceOnUse">
<stop stop-color="#1A1914"/>
<stop offset="1" stop-color="#3C3A31"/>
</linearGradient>
<linearGradient id="paint37_linear_220_852" x1="801.648" y1="1225.53" x2="801.695" y2="1407.23" gradientUnits="userSpaceOnUse">
<stop stop-color="#151515"/>
<stop offset="1" stop-color="#2E3C4B"/>
</linearGradient>
<linearGradient id="paint38_linear_220_852" x1="760.483" y1="1398.32" x2="760.531" y2="1584.24" gradientUnits="userSpaceOnUse">
<stop stop-color="#151515"/>
<stop offset="1" stop-color="#2E3C4B"/>
</linearGradient>
<linearGradient id="paint39_linear_220_852" x1="62.3959" y1="1.52297e-09" x2="62.447" y2="190.816" gradientUnits="userSpaceOnUse">
<stop stop-color="#151515"/>
<stop offset="1" stop-color="#2E3C4B"/>
</linearGradient>
</defs>
</svg>
