<svg width="692" height="1754" viewBox="0 0 692 1754" fill="none" xmlns="http://www.w3.org/2000/svg">
<rect width="157.632" height="1753.65" fill="#090A0D"/>
<circle cx="78.8158" cy="78.8158" r="60.7539" fill="url(#paint0_linear_220_1420)" stroke="#CCD1D9" stroke-width="3.284"/>
<path d="M130.039 63.5779H27.2768C26.2941 63.5779 25.4616 64.3019 25.3254 65.2751L24.663 70.0062C23.7708 76.3795 23.82 82.8492 24.8092 89.2081L25.3036 92.3865C25.4529 93.3463 26.2793 94.054 27.2506 94.054H130.055C131.029 94.054 131.857 93.3427 132.003 92.3801L132.536 88.8755C133.503 82.5243 133.532 76.0657 132.624 69.7059L131.99 65.2696C131.851 64.2989 131.02 63.5779 130.039 63.5779Z" stroke="#CCD1D9" stroke-width="2.6272"/>
<path d="M16.4199 197.04C16.4199 195.226 17.8902 193.756 19.7039 193.756H137.928C139.741 193.756 141.212 195.226 141.212 197.04V315.263C141.212 317.077 139.741 318.547 137.928 318.547H19.7039C17.8902 318.547 16.4199 317.077 16.4199 315.263V197.04Z" fill="url(#paint1_linear_220_1420)" stroke="#CCD1D9" stroke-width="2.6272"/>
<path d="M97.1114 210.534H47.6841V301.507H63.9727V274.503H97.0315C97.5848 274.503 98.1369 274.449 98.6795 274.341C103.946 273.289 108.396 269.789 110.658 264.919L111.158 263.841C111.746 262.575 112.05 261.196 112.05 259.801V224.954C111.271 217.798 105.884 212.005 98.8045 210.707L98.6033 210.67C98.1112 210.58 97.6118 210.534 97.1114 210.534Z" stroke="#CCD1D9" stroke-width="2.6272"/>
<path d="M93.1345 226.789H64.498V258.249H93.1345L95.499 255.889V228.886L93.1345 226.789Z" stroke="#CCD1D9" stroke-width="2.6272"/>
<path d="M131.36 371.092H26.2719C20.8308 371.092 16.4199 375.502 16.4199 380.944V486.031C16.4199 491.473 20.8308 495.883 26.2719 495.883H131.36C136.801 495.883 141.212 491.473 141.212 486.031V380.944C141.212 375.502 136.801 371.092 131.36 371.092Z" fill="url(#paint2_linear_220_1420)" stroke="#CCD1D9" stroke-width="2.6272"/>
<path d="M139.639 478.093L79.3404 372.4L17.731 478.093H139.639Z" stroke="#CCD1D9" stroke-width="2.6272"/>
<path d="M32.4121 459.519H60.9884" stroke="#CCD1D9" stroke-width="1.9704"/>
<path d="M75.4077 459.519H90.3513" stroke="#CCD1D9" stroke-width="1.9704"/>
<path d="M103.198 459.519H124.958" stroke="#CCD1D9" stroke-width="1.9704"/>
<path d="M67.805 449.577L77.7673 435.973L78.2917 434.926L76.9808 422.107L73.8348 427.863L62.8238 437.019L60.2021 432.572L70.6888 421.584L78.2917 404.84L89.5649 410.596L99.0029 420.799V438.327L93.2352 441.728V424.985L89.0406 419.229V432.572L91.4001 440.944L106.344 470.245L97.9543 475.216H89.5649L97.9543 469.198L83.7972 444.083L74.3592 455.594L68.5915 474.692L53.3857 473.123V470.245L62.8238 468.152L67.805 449.577Z" stroke="#CCD1D9" stroke-width="1.9704"/>
<path d="M83.0741 398.562C83.0741 401.194 80.9349 403.332 78.2916 403.332C75.6484 403.332 73.5091 401.194 73.5091 398.562C73.5091 395.929 75.6484 393.791 78.2916 393.791C80.9349 393.791 83.0741 395.929 83.0741 398.562Z" stroke="#CCD1D9" stroke-width="1.9704"/>
<path d="M130.178 661.23H27.7542L26.7471 661.133C21.7529 660.654 18.7769 655.331 20.9842 650.826L73.8699 564.149C73.9907 563.951 74.1428 563.774 74.3204 563.625C76.6148 561.699 79.8687 561.412 82.4643 562.908L83.5084 563.51C83.8953 563.733 84.2197 564.05 84.4516 564.432L136.948 650.826C139.037 655.391 136.011 660.655 131.015 661.147L130.178 661.23Z" fill="url(#paint3_linear_220_1420)" stroke="#FFEA55" stroke-width="1.9704"/>
<path d="M132.07 651.536L82.3514 568.636C80.7181 566.01 76.9145 565.957 75.2096 568.537L75.1446 568.636L24.9175 651.667C24.3685 652.575 24.2947 653.693 24.7197 654.664C24.9893 655.281 25.4427 655.799 26.0179 656.147L26.4101 656.385C27.1467 656.832 27.9917 657.068 28.8531 657.068H129.053C129.785 657.068 130.498 656.839 131.094 656.414C131.637 656.026 132.058 655.491 132.308 654.872L132.328 654.821C132.762 653.746 132.667 652.53 132.07 651.536Z" stroke="#FFEA55" stroke-width="1.9704"/>
<path d="M90.3201 597.767C90.3201 599.476 88.8511 600.943 86.9376 600.943C85.024 600.943 83.555 599.476 83.555 597.767C83.555 596.057 85.024 594.59 86.9376 594.59C88.8511 594.59 90.3201 596.057 90.3201 597.767Z" stroke="#FFEA55" stroke-width="1.9704"/>
<path d="M85.6267 602.136L78.8567 598.391L59.2019 602.136L55.7077 613.164L53.3054 611.916L51.9951 613.788L55.0525 615.453L54.3974 616.493L57.8916 618.158L58.3283 617.117L59.8571 618.158L52.8687 654.987H66.1903L59.6387 648.953L66.1903 627.521L72.3051 636.469V654.987H85.6267L78.8567 648.953V636.469L72.7419 625.232L80.1671 628.978V630.642L85.6267 633.556V632.099L95.8909 637.509L93.4887 641.254L104.19 647.289L109.868 638.133L99.3851 632.515L97.2013 635.636L85.6267 629.81V602.136Z" stroke="#FFEA55" stroke-width="1.9704"/>
<path d="M80.1671 627.105V612.124L70.5581 620.447L71.4317 622.32L80.1671 627.105Z" stroke="#FFEA55" stroke-width="1.9704"/>
<path d="M61.1681 616.285L59.2026 615.245L64.6623 605.881H71.6507L61.1681 616.285Z" stroke="#FFEA55" stroke-width="1.9704"/>
<path d="M129.645 653.946L116.486 635.709C116.232 635.358 115.715 635.343 115.442 635.68L100.688 653.917C100.34 654.347 100.646 654.987 101.198 654.987H129.113C129.648 654.987 129.959 654.381 129.645 653.946Z" stroke="#FFEA55" stroke-width="1.9704"/>
<path d="M48.5751 653.61L39.2959 646.156C39.0592 645.966 38.7231 645.963 38.4829 646.149L28.8398 653.603C28.3442 653.986 28.6151 654.779 29.2414 654.779H48.1638C48.784 654.779 49.0586 653.999 48.5751 653.61Z" stroke="#FFEA55" stroke-width="1.9704"/>
<circle cx="78.8158" cy="788.159" r="60.7539" fill="url(#paint4_linear_220_1420)" stroke="#FFEA55" stroke-width="3.284"/>
<path d="M78.5441 781.751L49.479 752.49C48.296 751.299 48.4413 749.337 49.7868 748.333L50.9369 747.475C52.9744 745.955 55.1516 744.632 57.4394 743.524C59.7207 742.419 62.1016 741.532 64.5502 740.876L66.8795 740.253L69.1136 739.846C72.3401 739.26 75.6129 738.965 78.8924 738.965C82.3246 738.965 85.7492 739.288 89.1208 739.93L90.8139 740.253L96.6097 741.862L99.19 742.958C102.68 744.44 105.973 746.348 108.994 748.638C110.106 749.482 110.217 751.113 109.228 752.099L79.4737 781.754C79.2165 782.01 78.8 782.009 78.5441 781.751Z" stroke="#FFEA55" stroke-width="1.9704"/>
<path d="M79.3637 796.423L108.429 825.685C109.612 826.876 109.466 828.838 108.121 829.842L106.971 830.7C104.933 832.22 102.756 833.543 100.468 834.651C98.187 835.756 95.8061 836.642 93.3575 837.298L91.0282 837.922L88.7941 838.328C85.5676 838.915 82.2948 839.21 79.0154 839.21C75.5831 839.21 72.1585 838.887 68.7869 838.244L67.0938 837.922L61.298 836.312L58.7177 835.216C55.228 833.734 51.9349 831.826 48.9136 829.536C47.8013 828.693 47.6909 827.061 48.6795 826.076L78.434 796.421C78.6913 796.164 79.1077 796.165 79.3637 796.423Z" stroke="#FFEA55" stroke-width="1.9704"/>
<path d="M86.2896 788.676L115.544 759.603C116.734 758.42 118.697 758.564 119.701 759.91L120.559 761.059C122.08 763.097 123.403 765.273 124.512 767.561C125.617 769.842 126.504 772.223 127.161 774.671L127.786 777L128.192 779.234C128.78 782.461 129.076 785.733 129.077 789.013C129.077 792.445 128.755 795.87 128.114 799.241L127.792 800.935L126.183 806.731L125.088 809.311C123.607 812.802 121.7 816.095 119.411 819.117C118.568 820.23 116.936 820.34 115.95 819.352L86.2875 789.605C86.0311 789.348 86.032 788.932 86.2896 788.676Z" stroke="#FFEA55" stroke-width="1.9704"/>
<path d="M71.6186 789.499L42.3647 818.572C41.174 819.755 39.2116 819.61 38.2075 818.265L37.3491 817.115C35.8286 815.078 34.5051 812.901 33.3963 810.614C32.2907 808.333 31.4037 805.952 30.7472 803.504L30.1227 801.175L29.7159 798.941C29.1284 795.714 28.8325 792.442 28.8316 789.162C28.8307 785.73 29.1531 782.305 29.7944 778.933L30.1165 777.24L31.7249 771.444L32.82 768.863C34.301 765.373 36.208 762.08 38.4976 759.058C39.3406 757.945 40.9723 757.834 41.9579 758.823L71.6207 788.57C71.8771 788.827 71.8762 789.243 71.6186 789.499Z" stroke="#FFEA55" stroke-width="1.9704"/>
<circle cx="78.8158" cy="965.495" r="60.7539" fill="url(#paint5_linear_220_1420)" stroke="#CCD1D9" stroke-width="3.284"/>
<path d="M126.845 965.753C126.81 992.404 105.177 1013.98 78.5247 1013.95C51.8729 1013.91 30.2958 992.278 30.3308 965.626C30.3658 938.975 51.9997 917.398 78.6515 917.433C105.303 917.468 126.88 939.102 126.845 965.753Z" stroke="#CCD1D9" stroke-width="3.284"/>
<path d="M52.907 1080.43H104.52L141.212 1117.23V1168.74L104.52 1205.23H52.907L16.4199 1168.74V1117.23L52.907 1080.43Z" fill="url(#paint6_linear_220_1420)" stroke="#CCD1D9" stroke-width="3.284"/>
<path d="M102.988 1084.62H54.7473L20.5088 1118.97V1167.1L54.7473 1200.93H102.988L137.124 1167.1V1118.97L102.988 1084.62Z" stroke="#CCD1D9" stroke-width="3.284"/>
<path d="M75.3923 1126.22H56.791V1130.51H63.9453V1159.03H68.6468V1130.51H75.3923V1126.22Z" stroke="#CCD1D9" stroke-width="3.284"/>
<path d="M107.485 1159.03V1126.22H116.722C117.578 1126.22 118.431 1126.33 119.259 1126.55L119.562 1126.63C121.347 1127.1 122.959 1128.12 124.156 1129.52C127.099 1132.97 127.021 1138.13 123.926 1141.45C122.863 1142.59 121.521 1143.43 120.033 1143.89L119.567 1144.04C118.536 1144.35 117.463 1144.52 116.383 1144.52H111.573V1159.03H107.485Z" stroke="#CCD1D9" stroke-width="3.284"/>
<path d="M80.8091 1149.87V1135.51C80.8091 1134.97 80.8552 1134.44 80.947 1133.91C82.7401 1123.59 97.5679 1123.63 99.3801 1133.95C99.4681 1134.45 99.5153 1134.96 99.5207 1135.47L99.672 1149.69C99.7006 1152.38 98.5709 1154.97 96.5867 1156.78C92.95 1160.11 87.3364 1160.09 83.754 1156.7C81.8743 1154.93 80.8091 1152.45 80.8091 1149.87Z" stroke="#CCD1D9" stroke-width="3.284"/>
<path d="M111.572 1140.33V1130.11H117.086C118.523 1130.11 119.907 1130.72 120.88 1131.78C122.698 1133.75 122.696 1136.83 120.839 1138.76C119.881 1139.76 118.558 1140.33 117.174 1140.33H111.572Z" stroke="#CCD1D9" stroke-width="3.284"/>
<path d="M84.9199 1149.79V1135.07C84.9199 1134.77 84.946 1134.47 84.9979 1134.17C86.0112 1128.33 94.3895 1128.35 95.4137 1134.18C95.4647 1134.47 95.4914 1134.77 95.4933 1135.06L95.5902 1149.7C95.6002 1151.21 94.959 1152.67 93.8412 1153.69C91.7858 1155.57 88.6089 1155.57 86.5843 1153.65C85.5219 1152.65 84.9199 1151.25 84.9199 1149.79Z" stroke="#CCD1D9" stroke-width="3.284"/>
<path d="M51.6808 1130.92L48.1036 1133.07L48.0735 1133.02C46.8964 1131.23 44.8264 1130.22 42.6868 1130.41L41.3747 1130.67C40.5604 1130.84 39.7978 1131.22 39.1743 1131.77C38.1647 1132.65 37.5766 1133.94 37.5766 1135.29V1135.34C37.5766 1136.13 37.7842 1136.9 38.1785 1137.58C38.5221 1138.18 38.9976 1138.68 39.5683 1139.06L39.7714 1139.2C40.2806 1139.54 40.8427 1139.79 41.4347 1139.95L43.2691 1140.43C44.3085 1140.7 45.3145 1141.09 46.2684 1141.58L46.7773 1141.85C47.3194 1142.13 47.8313 1142.46 48.3048 1142.85C52.9104 1146.6 52.6344 1153.72 47.7523 1157.1L46.8995 1157.69C46.2076 1158.17 45.4444 1158.54 44.6381 1158.78C44.0883 1158.95 43.5224 1159.05 42.9502 1159.1L41.9807 1159.17C41.4301 1159.21 40.8772 1159.22 40.3263 1159.18L40.0244 1159.16C38.812 1159.07 37.6259 1158.76 36.5269 1158.24C35.1997 1157.62 34.0308 1156.7 33.1073 1155.56L32.7729 1155.15L36.1457 1153C37.3134 1154.36 39.018 1155.15 40.8122 1155.15H41.3581L42.9607 1154.95C43.5225 1154.88 44.0659 1154.7 44.5619 1154.43C45.4018 1153.96 46.0711 1153.24 46.4713 1152.37L46.8704 1151.51C47.3352 1150.49 47.4069 1149.35 47.0717 1148.28C46.6297 1146.88 45.5304 1145.79 44.1289 1145.35L41.767 1144.62L38.4952 1143.27C37.5502 1142.88 36.6854 1142.32 35.9441 1141.61C35.3326 1141.03 34.813 1140.36 34.4034 1139.62L34.3751 1139.57C33.4675 1137.94 33.1108 1136.06 33.3577 1134.2L33.3862 1133.99L33.8049 1132.39C34.2619 1130.65 35.2928 1129.11 36.7317 1128.02C38.0149 1127.05 39.5597 1126.48 41.1662 1126.4L42.6868 1126.32L44.1069 1126.4C45.5915 1126.49 47.0349 1126.92 48.3165 1127.68C49.3239 1128.27 50.2109 1129.05 50.9313 1129.97L51.6808 1130.92Z" stroke="#CCD1D9" stroke-width="3.284"/>
<path d="M130.178 1370.57H27.7542L26.7471 1370.48C21.7529 1370 18.7769 1364.67 20.9842 1360.17L73.8699 1273.49C73.9907 1273.29 74.1428 1273.12 74.3204 1272.97C76.6148 1271.04 79.8687 1270.76 82.4643 1272.25L83.5084 1272.85C83.8953 1273.08 84.2197 1273.39 84.4516 1273.77L136.948 1360.17C139.037 1364.73 136.011 1370 131.015 1370.49L130.178 1370.57Z" fill="url(#paint7_linear_220_1420)" stroke="#FFEA55" stroke-width="1.9704"/>
<path d="M132.07 1360.88L82.3514 1277.98C80.7181 1275.35 76.9145 1275.3 75.2096 1277.88L75.1446 1277.98L24.9175 1361.01C24.3685 1361.92 24.2947 1363.04 24.7197 1364.01C24.9893 1364.62 25.4427 1365.14 26.0179 1365.49L26.4101 1365.73C27.1467 1366.18 27.9917 1366.41 28.8531 1366.41H129.053C129.785 1366.41 130.498 1366.18 131.094 1365.76C131.637 1365.37 132.058 1364.83 132.308 1364.22L132.328 1364.16C132.762 1363.09 132.667 1361.87 132.07 1360.88Z" stroke="#FFEA55" stroke-width="1.9704"/>
<path d="M90.3201 1307.11C90.3201 1308.82 88.8511 1310.29 86.9376 1310.29C85.024 1310.29 83.555 1308.82 83.555 1307.11C83.555 1305.4 85.024 1303.93 86.9376 1303.93C88.8511 1303.93 90.3201 1305.4 90.3201 1307.11Z" stroke="#FFEA55" stroke-width="1.9704"/>
<path d="M85.6267 1311.48L78.8567 1307.73L59.2019 1311.48L55.7077 1322.51L53.3054 1321.26L51.9951 1323.13L55.0525 1324.8L54.3974 1325.84L57.8916 1327.5L58.3283 1326.46L59.8571 1327.5L52.8687 1364.33H66.1903L59.6387 1358.3L66.1903 1336.86L72.3051 1345.81V1364.33H85.6267L78.8567 1358.3V1345.81L72.7419 1334.58L80.1671 1338.32V1339.99L85.6267 1342.9V1341.44L95.8909 1346.85L93.4887 1350.6L104.19 1356.63L109.868 1347.48L99.3851 1341.86L97.2013 1344.98L85.6267 1339.15V1311.48Z" stroke="#FFEA55" stroke-width="1.9704"/>
<path d="M80.1671 1336.45V1321.47L70.5581 1329.79L71.4317 1331.66L80.1671 1336.45Z" stroke="#FFEA55" stroke-width="1.9704"/>
<path d="M61.1681 1325.63L59.2026 1324.59L64.6623 1315.22H71.6507L61.1681 1325.63Z" stroke="#FFEA55" stroke-width="1.9704"/>
<path d="M129.645 1363.29L116.486 1345.05C116.232 1344.7 115.715 1344.69 115.442 1345.02L100.688 1363.26C100.34 1363.69 100.646 1364.33 101.198 1364.33H129.113C129.648 1364.33 129.959 1363.72 129.645 1363.29Z" stroke="#FFEA55" stroke-width="1.9704"/>
<path d="M48.5751 1362.95L39.2959 1355.5C39.0592 1355.31 38.7231 1355.31 38.4829 1355.49L28.8398 1362.95C28.3442 1363.33 28.6151 1364.12 29.2414 1364.12H48.1638C48.784 1364.12 49.0586 1363.34 48.5751 1362.95Z" stroke="#FFEA55" stroke-width="1.9704"/>
<circle cx="78.8158" cy="1497.5" r="60.7539" fill="url(#paint8_linear_220_1420)" stroke="#CCD1D9" stroke-width="3.284"/>
<path d="M94.284 1460.01V1478.89H75.8365C72.095 1478.89 68.3931 1479.66 64.9593 1481.14C57.1652 1484.52 51.3776 1491.31 49.2919 1499.55L48.6238 1502.18C47.956 1504.82 47.6182 1507.53 47.6182 1510.25V1544.43H65.9699V1508.29C65.9699 1506.88 66.2452 1505.48 66.7805 1504.17C67.779 1501.73 69.6296 1499.74 71.9883 1498.56L72.1936 1498.45C73.7902 1497.66 75.5508 1497.24 77.3358 1497.24H94.284V1516.12L132.036 1488.33L94.284 1460.01Z" stroke="#CCD1D9" stroke-width="2.6272"/>
<path d="M21.9169 1613.15C23.0197 1612.68 24.2061 1612.44 25.4025 1612.44H132.325C133.163 1612.44 133.997 1612.56 134.801 1612.79V1612.79C138.599 1613.9 141.212 1617.43 141.212 1621.39V1621.39C141.212 1622.83 140.864 1624.27 140.198 1625.55L85.8141 1730.17C85.3577 1731.05 84.7418 1731.84 83.9978 1732.49L83.8999 1732.58C80.8829 1735.22 76.3531 1735.16 73.4125 1732.43V1732.43C72.754 1731.81 72.2058 1731.09 71.7919 1730.3L17.4281 1625.55C16.7657 1624.27 16.4199 1622.85 16.4199 1621.42V1621.42C16.4199 1617.81 18.5901 1614.55 21.9169 1613.15V1613.15Z" fill="url(#paint9_linear_220_1420)" stroke="#FFEA55" stroke-width="3.284"/>
<path d="M132.372 1617.47H25.1067C24.4675 1617.47 23.8372 1617.62 23.2663 1617.91C21.9517 1618.57 21.094 1619.89 21.0203 1621.36L21.0158 1621.45C20.978 1622.2 21.1425 1622.95 21.4925 1623.62L75.7757 1727.58C77.204 1729.95 80.6225 1730.02 82.1401 1727.7L82.2195 1727.58L136.334 1623.25C136.559 1622.82 136.7 1622.35 136.751 1621.86C136.964 1619.84 135.582 1617.99 133.578 1617.62L133.164 1617.54C132.903 1617.49 132.638 1617.47 132.372 1617.47Z" stroke="#FFEA55" stroke-width="3.284"/>
<rect width="157.632" height="1753.65" transform="translate(177.892)" fill="#090A0D"/>
<circle cx="256.707" cy="78.8158" r="60.7539" fill="url(#paint10_linear_220_1420)" stroke="#FFEA55" stroke-width="3.284"/>
<path d="M272.175 41.3259V60.202H253.728C249.986 60.202 246.284 60.9688 242.85 62.455C235.056 65.8286 229.269 72.6277 227.183 80.8605L226.515 83.4978C225.847 86.134 225.509 88.843 225.509 91.5625V125.744H243.861V89.6083C243.861 88.1946 244.136 86.7944 244.672 85.486C245.67 83.0451 247.521 81.0497 249.879 79.8703L250.085 79.7677C251.681 78.9694 253.442 78.5537 255.227 78.5537H272.175V97.4298L309.927 69.64L272.175 41.3259Z" stroke="#FFEA55" stroke-width="2.6272"/>
<circle cx="256.707" cy="256.152" r="60.7539" fill="url(#paint11_linear_220_1420)" stroke="#FFEA55" stroke-width="3.284"/>
<path d="M304.737 256.409C304.702 283.061 283.068 304.638 256.416 304.603C229.765 304.568 208.187 282.934 208.222 256.283C208.257 229.631 229.891 208.054 256.543 208.089C283.195 208.124 304.772 229.758 304.737 256.409Z" stroke="#FFEA55" stroke-width="3.284"/>
<path d="M308.069 483.894H205.646L204.639 483.797C199.644 483.318 196.669 477.996 198.876 473.49L251.762 386.813C251.882 386.615 252.034 386.438 252.212 386.289C254.506 384.363 257.76 384.077 260.356 385.573L261.4 386.174C261.787 386.397 262.111 386.714 262.343 387.096L314.839 473.49C316.929 478.055 313.903 483.319 308.907 483.812L308.069 483.894Z" fill="url(#paint12_linear_220_1420)" stroke="#CCD1D9" stroke-width="1.9704"/>
<path d="M309.962 474.2L260.243 391.3C258.61 388.674 254.806 388.622 253.101 391.202L253.036 391.3L202.809 474.332C202.26 475.239 202.186 476.357 202.611 477.329C202.881 477.945 203.334 478.463 203.91 478.812L204.302 479.05C205.038 479.496 205.883 479.732 206.745 479.732H306.944C307.676 479.732 308.39 479.504 308.985 479.078C309.528 478.69 309.95 478.155 310.199 477.536L310.22 477.486C310.654 476.411 310.558 475.195 309.962 474.2Z" stroke="#CCD1D9" stroke-width="1.9704"/>
<path d="M268.211 420.431C268.211 422.141 266.742 423.607 264.829 423.607C262.915 423.607 261.446 422.141 261.446 420.431C261.446 418.721 262.915 417.254 264.829 417.254C266.742 417.254 268.211 418.721 268.211 420.431Z" stroke="#CCD1D9" stroke-width="1.9704"/>
<path d="M263.519 424.8L256.749 421.055L237.094 424.8L233.6 435.828L231.198 434.58L229.887 436.453L232.945 438.117L232.289 439.158L235.784 440.822L236.22 439.782L237.749 440.822L230.761 477.652H244.082L237.531 471.617L244.082 450.186L250.197 459.133V477.652H263.519L256.749 471.617V459.133L250.634 447.897L258.059 451.642V453.307L263.519 456.22V454.763L273.783 460.173L271.381 463.919L282.082 469.953L287.76 460.798L277.277 455.179L275.093 458.301L263.519 452.474V424.8Z" stroke="#CCD1D9" stroke-width="1.9704"/>
<path d="M258.059 449.77V434.788L248.45 443.111L249.323 444.984L258.059 449.77Z" stroke="#CCD1D9" stroke-width="1.9704"/>
<path d="M239.059 438.949L237.094 437.909L242.553 428.546H249.542L239.059 438.949Z" stroke="#CCD1D9" stroke-width="1.9704"/>
<path d="M307.537 476.61L294.377 458.373C294.124 458.022 293.606 458.008 293.334 458.344L278.579 476.582C278.232 477.011 278.538 477.652 279.09 477.652H307.004C307.54 477.652 307.85 477.045 307.537 476.61Z" stroke="#CCD1D9" stroke-width="1.9704"/>
<path d="M226.466 476.275L217.187 468.82C216.95 468.63 216.614 468.627 216.374 468.813L206.731 476.267C206.235 476.65 206.506 477.444 207.133 477.444H226.055C226.675 477.444 226.95 476.663 226.466 476.275Z" stroke="#CCD1D9" stroke-width="1.9704"/>
<path d="M230.799 548.427H282.412L319.103 585.221V636.732L282.412 673.219H230.799L194.312 636.732V585.221L230.799 548.427Z" fill="url(#paint13_linear_220_1420)" stroke="#FFEA55" stroke-width="3.284"/>
<path d="M280.879 552.618H232.638L198.4 586.958V635.097L232.638 668.927H280.879L315.015 635.097V586.958L280.879 552.618Z" stroke="#FFEA55" stroke-width="3.284"/>
<path d="M253.284 594.215H234.683V598.507H241.837V627.023H246.538V598.507H253.284V594.215Z" stroke="#FFEA55" stroke-width="3.284"/>
<path d="M285.376 627.023V594.215H294.614C295.47 594.215 296.322 594.325 297.151 594.542L297.453 594.621C299.239 595.088 300.851 596.108 302.047 597.513C304.99 600.967 304.912 606.123 301.817 609.442C300.755 610.581 299.413 611.423 297.925 611.884L297.459 612.028C296.428 612.347 295.354 612.509 294.275 612.509H289.464V627.023H285.376Z" stroke="#FFEA55" stroke-width="3.284"/>
<path d="M258.701 617.86V603.504C258.701 602.967 258.747 602.432 258.839 601.904C260.632 591.579 275.459 591.622 277.272 601.943C277.36 602.445 277.407 602.954 277.412 603.463L277.564 617.686C277.592 620.375 276.463 622.961 274.478 624.776C270.842 628.103 265.228 628.081 261.646 624.695C259.766 622.919 258.701 620.447 258.701 617.86Z" stroke="#FFEA55" stroke-width="3.284"/>
<path d="M289.464 608.319V598.099H294.978C296.415 598.099 297.799 598.714 298.772 599.77C300.591 601.743 300.588 604.82 298.731 606.756C297.773 607.755 296.45 608.319 295.066 608.319H289.464Z" stroke="#FFEA55" stroke-width="3.284"/>
<path d="M262.812 617.783V603.066C262.812 602.763 262.838 602.46 262.889 602.162C263.903 596.326 272.281 596.34 273.305 602.174C273.356 602.464 273.383 602.759 273.385 603.054L273.482 617.693C273.492 619.208 272.851 620.664 271.733 621.687C269.677 623.568 266.501 623.559 264.476 621.645C263.414 620.641 262.812 619.244 262.812 617.783Z" stroke="#FFEA55" stroke-width="3.284"/>
<path d="M229.572 598.916L225.995 601.062L225.965 601.016C224.788 599.22 222.718 598.216 220.578 598.405L219.266 598.667C218.452 598.83 217.689 599.21 217.065 599.759C216.056 600.647 215.468 601.935 215.468 603.28V603.336C215.468 604.123 215.675 604.896 216.07 605.577C216.413 606.171 216.889 606.677 217.459 607.058L217.662 607.193C218.172 607.532 218.734 607.785 219.326 607.94L221.16 608.42C222.2 608.693 223.206 609.08 224.16 609.574L224.668 609.838C225.211 610.119 225.722 610.455 226.196 610.841C230.801 614.592 230.526 621.711 225.643 625.094L224.791 625.685C224.099 626.165 223.336 626.532 222.529 626.774C221.979 626.939 221.414 627.045 220.841 627.089L219.872 627.163C219.321 627.206 218.768 627.208 218.217 627.17L217.915 627.149C216.703 627.065 215.517 626.756 214.418 626.237C213.091 625.61 211.922 624.692 210.998 623.552L210.664 623.139L214.037 620.992C215.204 622.355 216.909 623.139 218.703 623.139H219.249L220.852 622.938C221.414 622.868 221.957 622.692 222.453 622.419C223.293 621.957 223.962 621.238 224.362 620.367L224.762 619.498C225.226 618.486 225.298 617.338 224.963 616.277C224.521 614.877 223.422 613.782 222.02 613.346L219.658 612.612L216.386 611.26C215.441 610.87 214.576 610.308 213.835 609.604C213.224 609.023 212.704 608.353 212.295 607.615L212.266 607.564C211.359 605.931 211.002 604.048 211.249 602.195L211.277 601.982L211.696 600.384C212.153 598.639 213.184 597.098 214.623 596.01C215.906 595.04 217.451 594.477 219.057 594.395L220.578 594.317L221.998 594.396C223.483 594.478 224.926 594.915 226.208 595.669C227.215 596.261 228.102 597.038 228.822 597.958L229.572 598.916Z" stroke="#FFEA55" stroke-width="3.284"/>
<path d="M199.808 726.467C200.911 726.003 202.098 725.763 203.294 725.763H310.216C311.054 725.763 311.888 725.882 312.693 726.115V726.115C316.491 727.217 319.103 730.754 319.103 734.709V734.709C319.103 736.152 318.756 737.594 318.09 738.875L263.706 843.495C263.249 844.373 262.633 845.158 261.889 845.811L261.792 845.897C258.775 848.543 254.245 848.479 251.304 845.747V845.747C250.646 845.136 250.097 844.416 249.683 843.618L195.32 738.868C194.657 737.591 194.312 736.174 194.312 734.736V734.736C194.312 731.127 196.482 727.867 199.808 726.467V726.467Z" fill="url(#paint14_linear_220_1420)" stroke="#CCD1D9" stroke-width="3.284"/>
<path d="M310.265 730.791H202.999C202.36 730.791 201.729 730.941 201.158 731.228C199.844 731.89 198.986 733.208 198.912 734.678L198.908 734.766C198.87 735.521 199.035 736.273 199.385 736.943L253.668 840.901C255.096 843.275 258.515 843.34 260.032 841.023L260.112 840.901L314.226 736.575C314.451 736.142 314.592 735.67 314.643 735.185C314.856 733.159 313.474 731.31 311.471 730.94L311.056 730.863C310.795 730.815 310.53 730.791 310.265 730.791Z" stroke="#CCD1D9" stroke-width="3.284"/>
<path d="M316.911 961.759L259.92 904.699C259.493 904.271 258.981 903.938 258.417 903.721L258.346 903.694C257.355 903.312 256.256 903.327 255.276 903.736C254.778 903.944 254.326 904.247 253.945 904.628L196.612 962.031C196.208 962.435 195.878 962.906 195.637 963.424C195.025 964.737 195.025 966.253 195.637 967.566C195.878 968.084 196.208 968.555 196.612 968.959L253.945 1026.36C254.326 1026.74 254.778 1027.05 255.276 1027.25C256.256 1027.66 257.355 1027.68 258.346 1027.3L258.417 1027.27C258.981 1027.05 259.493 1026.72 259.92 1026.29L316.911 969.231C317.491 968.651 317.928 967.943 318.187 967.165C318.548 966.081 318.548 964.909 318.187 963.825C317.928 963.047 317.491 962.339 316.911 961.759Z" fill="url(#paint15_linear_220_1420)" stroke="#FFEA55" stroke-width="2.6272"/>
<path d="M255.631 927.997L219.108 964.565C218.595 965.078 218.596 965.911 219.11 966.423L255.634 1002.81C256.145 1003.32 256.973 1003.32 257.486 1002.81L294.19 966.426C294.708 965.913 294.709 965.077 294.192 964.562L257.488 927.994C256.974 927.483 256.144 927.484 255.631 927.997Z" stroke="#FFEA55" stroke-width="2.6272"/>
<path d="M194.312 1083.72C194.312 1081.9 195.782 1080.43 197.596 1080.43H315.819C317.633 1080.43 319.103 1081.9 319.103 1083.72V1201.94C319.103 1203.76 317.633 1205.23 315.819 1205.23H197.596C195.782 1205.23 194.312 1203.76 194.312 1201.94V1083.72Z" fill="url(#paint16_linear_220_1420)" stroke="#FFEA55" stroke-width="2.6272"/>
<path d="M275.003 1097.21H225.576V1188.19H241.864V1161.18H274.923C275.476 1161.18 276.028 1161.13 276.571 1161.02C281.838 1159.97 286.287 1156.47 288.549 1151.6L289.05 1150.52C289.638 1149.25 289.942 1147.88 289.942 1146.48V1111.63C289.163 1104.48 283.776 1098.68 276.696 1097.39L276.495 1097.35C276.003 1097.26 275.503 1097.21 275.003 1097.21Z" stroke="#FFEA55" stroke-width="2.6272"/>
<path d="M271.027 1113.47H242.39V1144.93H271.027L273.391 1142.57V1115.57L271.027 1113.47Z" stroke="#FFEA55" stroke-width="2.6272"/>
<path d="M317.461 1318.75C317.461 1351.52 290.835 1378.09 257.981 1378.09C225.127 1378.09 198.5 1351.52 198.5 1318.75C198.5 1285.98 225.127 1259.41 257.981 1259.41C290.835 1259.41 317.461 1285.98 317.461 1318.75Z" fill="url(#paint17_linear_220_1420)" stroke="#FFEA55" stroke-width="3.284"/>
<path d="M270.824 1300.55L257.438 1281.57C257.194 1281.22 257.335 1280.74 257.727 1280.58L266.546 1276.99C268.471 1276.2 270.467 1275.61 272.505 1275.2L282.223 1273.26C282.742 1273.16 283.164 1273.68 282.955 1274.16L280.392 1280.13L285.543 1283.76C287.873 1285.4 290 1287.31 291.879 1289.45C294.724 1292.7 296.963 1296.43 298.488 1300.46L299.485 1303.1C301.177 1307.58 302.155 1312.29 302.384 1317.07L302.45 1318.46C302.683 1323.35 301.982 1328.24 300.383 1332.87C300.313 1333.07 300.093 1333.18 299.892 1333.1L285.74 1328.15L286.457 1325.29C287.163 1322.47 287.422 1319.56 287.224 1316.66L287.206 1316.4C286.912 1312.1 285.581 1307.94 283.327 1304.27C282.391 1302.75 281.304 1301.32 280.083 1300.02L274.789 1294.36L271.957 1300.44C271.744 1300.9 271.115 1300.96 270.824 1300.55Z" stroke="#FFEA55" stroke-width="2.6272"/>
<path d="M233.949 1315.75L223.801 1336.63C223.617 1337.01 223.127 1337.12 222.798 1336.86L215.383 1330.91C213.756 1329.61 212.256 1328.15 210.905 1326.56L204.504 1319.03C204.162 1318.63 204.412 1318.01 204.938 1317.96L211.414 1317.3L212.096 1311.05C212.405 1308.22 213.051 1305.43 214.02 1302.75C215.483 1298.7 217.663 1294.94 220.457 1291.66L222.291 1289.51C225.398 1285.86 229.059 1282.72 233.141 1280.2L234.329 1279.47C238.5 1276.89 243.124 1275.14 247.954 1274.29C248.165 1274.25 248.366 1274.39 248.402 1274.6L250.92 1289.35L248.063 1290.11C245.251 1290.86 242.574 1292.05 240.13 1293.63L239.897 1293.78C236.278 1296.11 233.28 1299.29 231.157 1303.03C230.274 1304.59 229.55 1306.23 228.997 1307.93L226.604 1315.29L233.31 1314.81C233.815 1314.78 234.17 1315.3 233.949 1315.75Z" stroke="#FFEA55" stroke-width="2.6272"/>
<path d="M266.125 1340.86L289.361 1339.8C289.783 1339.78 290.113 1340.15 290.038 1340.57L288.337 1349.91C287.964 1351.96 287.396 1353.97 286.641 1355.91L283.065 1365.11C282.873 1365.61 282.207 1365.68 281.909 1365.25L278.24 1359.88L272.413 1362.26C269.769 1363.35 267.006 1364.11 264.182 1364.54C259.914 1365.19 255.565 1365.07 251.341 1364.19L248.568 1363.61C243.871 1362.62 239.357 1360.91 235.192 1358.54L233.979 1357.84C229.723 1355.41 225.969 1352.2 222.918 1348.37C222.784 1348.2 222.813 1347.96 222.982 1347.82L234.771 1338.58L236.805 1340.72C238.808 1342.83 241.129 1344.61 243.684 1346L243.928 1346.13C247.712 1348.19 251.94 1349.31 256.251 1349.38C258.044 1349.41 259.836 1349.26 261.599 1348.94L269.223 1347.52L265.601 1341.87C265.328 1341.45 265.619 1340.89 266.125 1340.86Z" stroke="#FFEA55" stroke-width="2.6272"/>
<path d="M309.251 1435.11H204.164C198.722 1435.11 194.312 1439.52 194.312 1444.96V1550.05C194.312 1555.49 198.722 1559.9 204.164 1559.9H309.251C314.692 1559.9 319.103 1555.49 319.103 1550.05V1444.96C319.103 1439.52 314.692 1435.11 309.251 1435.11Z" fill="url(#paint18_linear_220_1420)" stroke="#FFEA55" stroke-width="2.6272"/>
<path d="M317.531 1542.11L257.232 1436.41L195.623 1542.11H317.531Z" stroke="#FFEA55" stroke-width="2.6272"/>
<path d="M210.304 1523.53H238.88" stroke="#FFEA55" stroke-width="1.9704"/>
<path d="M253.3 1523.53H268.243" stroke="#FFEA55" stroke-width="1.9704"/>
<path d="M281.09 1523.53H302.85" stroke="#FFEA55" stroke-width="1.9704"/>
<path d="M245.697 1513.59L255.659 1499.99L256.183 1498.94L254.872 1486.12L251.726 1491.88L240.715 1501.03L238.094 1496.59L248.58 1485.6L256.183 1468.86L267.456 1474.61L276.895 1484.81V1502.34L271.127 1505.74V1489L266.932 1483.24V1496.59L269.292 1504.96L284.235 1534.26L275.846 1539.23H267.456L275.846 1533.21L261.689 1508.1L252.251 1519.61L246.483 1538.71L231.277 1537.14V1534.26L240.715 1532.17L245.697 1513.59Z" stroke="#FFEA55" stroke-width="1.9704"/>
<path d="M260.966 1462.58C260.966 1465.21 258.827 1467.35 256.184 1467.35C253.54 1467.35 251.401 1465.21 251.401 1462.58C251.401 1459.94 253.54 1457.81 256.184 1457.81C258.827 1457.81 260.966 1459.94 260.966 1462.58Z" stroke="#FFEA55" stroke-width="1.9704"/>
<circle cx="256.707" cy="1674.84" r="60.7539" fill="url(#paint19_linear_220_1420)" stroke="#FFEA55" stroke-width="3.284"/>
<path d="M307.931 1659.6H205.168C204.185 1659.6 203.353 1660.32 203.216 1661.3L202.554 1666.03C201.662 1672.4 201.711 1678.87 202.7 1685.23L203.195 1688.41C203.344 1689.37 204.17 1690.08 205.142 1690.08H307.946C308.92 1690.08 309.748 1689.36 309.894 1688.4L310.428 1684.9C311.394 1678.55 311.423 1672.09 310.515 1665.73L309.881 1661.29C309.742 1660.32 308.911 1659.6 307.931 1659.6Z" stroke="#FFEA55" stroke-width="2.6272"/>
<rect width="157.632" height="1753.65" transform="translate(355.783)" fill="#090A0D"/>
<path d="M487.143 16.4199H382.055C376.614 16.4199 372.203 20.8308 372.203 26.2719V131.36C372.203 136.801 376.614 141.212 382.055 141.212H487.143C492.584 141.212 496.995 136.801 496.995 131.36V26.2719C496.995 20.8308 492.584 16.4199 487.143 16.4199Z" fill="url(#paint20_linear_220_1420)" stroke="#CCD1D9" stroke-width="2.6272"/>
<path d="M495.422 123.422L435.123 17.728L373.514 123.422H495.422Z" stroke="#CCD1D9" stroke-width="2.6272"/>
<path d="M388.195 104.847H416.772" stroke="#CCD1D9" stroke-width="1.9704"/>
<path d="M431.191 104.847H446.134" stroke="#CCD1D9" stroke-width="1.9704"/>
<path d="M458.98 104.847H480.74" stroke="#CCD1D9" stroke-width="1.9704"/>
<path d="M423.588 94.9054L433.55 81.3013L434.074 80.2548L432.764 67.4355L429.618 73.1911L418.606 82.3477L415.985 77.9002L426.472 66.9123L434.074 50.1687L445.348 55.9243L454.786 66.1274V83.6558L449.018 87.0569V70.3133L444.823 64.5577V77.9002L447.183 86.272L462.126 115.573L453.737 120.544H445.348L453.737 114.527L439.58 89.4114L430.142 100.923L424.374 120.021L409.168 118.451V115.573L418.606 113.48L423.588 94.9054Z" stroke="#CCD1D9" stroke-width="1.9704"/>
<path d="M438.857 43.8899C438.857 46.5225 436.718 48.6603 434.074 48.6603C431.431 48.6603 429.292 46.5225 429.292 43.8899C429.292 41.2572 431.431 39.1195 434.074 39.1195C436.718 39.1195 438.857 41.2572 438.857 43.8899Z" stroke="#CCD1D9" stroke-width="1.9704"/>
<circle cx="434.599" cy="256.152" r="60.7539" fill="url(#paint21_linear_220_1420)" stroke="#FFEA55" stroke-width="3.284"/>
<path d="M434.327 249.744L405.262 220.482C404.079 219.291 404.224 217.329 405.569 216.325L406.72 215.467C408.757 213.947 410.934 212.624 413.222 211.516C415.503 210.411 417.884 209.525 420.333 208.869L422.662 208.245L424.896 207.839C428.123 207.252 431.396 206.957 434.675 206.957C438.107 206.957 441.532 207.28 444.904 207.922L446.597 208.245L452.392 209.855L454.973 210.951C458.462 212.433 461.755 214.341 464.777 216.631C465.889 217.474 466 219.106 465.011 220.091L435.256 249.746C434.999 250.003 434.583 250.002 434.327 249.744Z" stroke="#FFEA55" stroke-width="1.9704"/>
<path d="M435.146 264.416L464.211 293.677C465.394 294.868 465.249 296.83 463.904 297.834L462.754 298.692C460.716 300.212 458.539 301.535 456.251 302.643C453.97 303.748 451.589 304.635 449.14 305.291L446.811 305.914L444.577 306.321C441.35 306.907 438.078 307.202 434.798 307.202C431.366 307.202 427.941 306.879 424.57 306.237L422.877 305.914L417.081 304.305L414.5 303.209C411.011 301.727 407.718 299.819 404.696 297.529C403.584 296.685 403.474 295.054 404.462 294.068L434.217 264.413C434.474 264.157 434.89 264.158 435.146 264.416Z" stroke="#FFEA55" stroke-width="1.9704"/>
<path d="M442.072 256.668L471.326 227.595C472.517 226.412 474.479 226.557 475.483 227.902L476.342 229.052C477.862 231.089 479.186 233.266 480.295 235.553C481.4 237.834 482.287 240.215 482.944 242.663L483.568 244.993L483.975 247.227C484.562 250.453 484.858 253.726 484.859 257.005C484.86 260.437 484.538 263.862 483.897 267.234L483.574 268.927L481.966 274.723L480.871 277.304C479.39 280.794 477.483 284.087 475.193 287.109C474.35 288.222 472.719 288.333 471.733 287.344L442.07 257.598C441.814 257.34 441.815 256.924 442.072 256.668Z" stroke="#FFEA55" stroke-width="1.9704"/>
<path d="M427.401 257.492L398.147 286.564C396.957 287.748 394.994 287.603 393.99 286.258L393.132 285.108C391.611 283.071 390.288 280.894 389.179 278.606C388.073 276.325 387.186 273.945 386.53 271.496L385.905 269.167L385.499 266.933C384.911 263.707 384.615 260.434 384.614 257.155C384.613 253.722 384.936 250.298 385.577 246.926L385.899 245.233L387.508 239.436L388.603 236.856C390.084 233.366 391.991 230.072 394.28 227.05C395.123 225.938 396.755 225.827 397.741 226.815L427.403 256.562C427.66 256.819 427.659 257.236 427.401 257.492Z" stroke="#FFEA55" stroke-width="1.9704"/>
<circle cx="434.599" cy="433.487" r="60.7539" fill="url(#paint22_linear_220_1420)" stroke="#CCD1D9" stroke-width="3.284"/>
<path d="M485.822 418.25H383.059C382.077 418.25 381.244 418.974 381.108 419.947L380.446 424.678C379.553 431.051 379.603 437.521 380.592 443.88L381.086 447.058C381.236 448.018 382.062 448.726 383.033 448.726H485.838C486.812 448.726 487.639 448.014 487.786 447.052L488.319 443.547C489.286 437.196 489.315 430.737 488.407 424.378L487.773 419.941C487.634 418.971 486.803 418.25 485.822 418.25Z" stroke="#CCD1D9" stroke-width="2.6272"/>
<path d="M372.203 551.711C372.203 549.898 373.673 548.427 375.487 548.427H493.711C495.525 548.427 496.995 549.898 496.995 551.711V669.935C496.995 671.749 495.525 673.219 493.711 673.219H375.487C373.673 673.219 372.203 671.749 372.203 669.935V551.711Z" fill="url(#paint23_linear_220_1420)" stroke="#CCD1D9" stroke-width="2.6272"/>
<path d="M452.894 565.206H403.467V656.178H419.755V629.175H452.814C453.368 629.175 453.92 629.12 454.462 629.012C459.729 627.961 464.178 624.461 466.44 619.59L466.941 618.512C467.529 617.247 467.833 615.868 467.833 614.472V579.625C467.054 572.47 461.667 566.676 454.587 565.379L454.386 565.342C453.894 565.251 453.395 565.206 452.894 565.206Z" stroke="#CCD1D9" stroke-width="2.6272"/>
<path d="M448.917 581.46H420.281V612.921H448.917L451.282 610.561V583.558L448.917 581.46Z" stroke="#CCD1D9" stroke-width="2.6272"/>
<path d="M485.961 838.566H383.537L382.53 838.469C377.536 837.99 374.56 832.667 376.767 828.162L429.653 741.485C429.774 741.287 429.926 741.11 430.104 740.961C432.398 739.035 435.652 738.748 438.247 740.244L439.292 740.846C439.678 741.069 440.003 741.386 440.235 741.768L492.731 828.162C494.82 832.727 491.794 837.991 486.798 838.483L485.961 838.566Z" fill="url(#paint24_linear_220_1420)" stroke="#FFEA55" stroke-width="1.9704"/>
<path d="M487.853 828.872L438.134 745.972C436.501 743.346 432.697 743.293 430.992 745.873L430.927 745.972L380.7 829.003C380.151 829.911 380.077 831.028 380.502 832C380.772 832.617 381.225 833.135 381.801 833.483L382.193 833.721C382.929 834.168 383.774 834.404 384.636 834.404H484.836C485.567 834.404 486.281 834.175 486.876 833.75C487.419 833.362 487.841 832.827 488.091 832.208L488.111 832.157C488.545 831.082 488.449 829.866 487.853 828.872Z" stroke="#FFEA55" stroke-width="1.9704"/>
<path d="M446.103 775.102C446.103 776.812 444.634 778.279 442.72 778.279C440.807 778.279 439.338 776.812 439.338 775.102C439.338 773.393 440.807 771.926 442.72 771.926C444.634 771.926 446.103 773.393 446.103 775.102Z" stroke="#FFEA55" stroke-width="1.9704"/>
<path d="M441.41 779.472L434.64 775.727L414.985 779.472L411.491 790.5L409.089 789.252L407.778 791.124L410.836 792.789L410.181 793.829L413.675 795.494L414.112 794.453L415.64 795.494L408.652 832.323H421.973L415.422 826.289L421.973 804.857L428.088 813.805V832.323H441.41L434.64 826.289V813.805L428.525 802.568L435.95 806.314V807.978L441.41 810.891V809.435L451.674 814.845L449.272 818.59L459.973 824.624L465.651 815.469L455.168 809.851L452.984 812.972L441.41 807.146V779.472Z" stroke="#FFEA55" stroke-width="1.9704"/>
<path d="M435.95 804.441V789.46L426.341 797.783L427.215 799.655L435.95 804.441Z" stroke="#FFEA55" stroke-width="1.9704"/>
<path d="M416.95 793.621L414.985 792.581L420.445 783.217H427.433L416.95 793.621Z" stroke="#FFEA55" stroke-width="1.9704"/>
<path d="M485.428 831.282L472.268 813.045C472.015 812.694 471.497 812.679 471.225 813.016L456.471 831.253C456.123 831.683 456.429 832.323 456.981 832.323H484.895C485.431 832.323 485.741 831.716 485.428 831.282Z" stroke="#FFEA55" stroke-width="1.9704"/>
<path d="M404.358 830.946L395.079 823.492C394.842 823.302 394.506 823.299 394.266 823.485L384.622 830.939C384.127 831.322 384.398 832.115 385.024 832.115H403.947C404.567 832.115 404.841 831.335 404.358 830.946Z" stroke="#FFEA55" stroke-width="1.9704"/>
<circle cx="434.599" cy="965.495" r="60.7539" fill="url(#paint25_linear_220_1420)" stroke="#CCD1D9" stroke-width="3.284"/>
<path d="M482.629 965.753C482.594 992.404 460.96 1013.98 434.308 1013.95C407.656 1013.91 386.079 992.278 386.114 965.626C386.149 938.975 407.783 917.398 434.435 917.433C461.087 917.468 482.664 939.102 482.629 965.753Z" stroke="#CCD1D9" stroke-width="3.284"/>
<path d="M408.69 1080.43H460.304L496.995 1117.23V1168.74L460.304 1205.23H408.69L372.203 1168.74V1117.23L408.69 1080.43Z" fill="url(#paint26_linear_220_1420)" stroke="#CCD1D9" stroke-width="3.284"/>
<path d="M458.771 1084.62H410.53L376.292 1118.97V1167.1L410.53 1200.93H458.771L492.907 1167.1V1118.97L458.771 1084.62Z" stroke="#CCD1D9" stroke-width="3.284"/>
<path d="M431.175 1126.22H412.574V1130.51H419.728V1159.03H424.429V1130.51H431.175V1126.22Z" stroke="#CCD1D9" stroke-width="3.284"/>
<path d="M463.267 1159.03V1126.22H472.505C473.361 1126.22 474.214 1126.33 475.042 1126.55L475.344 1126.63C477.13 1127.1 478.742 1128.12 479.938 1129.52C482.881 1132.97 482.803 1138.13 479.708 1141.45C478.646 1142.59 477.304 1143.43 475.816 1143.89L475.35 1144.04C474.319 1144.35 473.245 1144.52 472.166 1144.52H467.355V1159.03H463.267Z" stroke="#CCD1D9" stroke-width="3.284"/>
<path d="M436.592 1149.87V1135.51C436.592 1134.97 436.638 1134.44 436.73 1133.91C438.523 1123.59 453.351 1123.63 455.163 1133.95C455.251 1134.45 455.298 1134.96 455.303 1135.47L455.455 1149.69C455.483 1152.38 454.354 1154.97 452.369 1156.78C448.733 1160.11 443.119 1160.09 439.537 1156.7C437.657 1154.93 436.592 1152.45 436.592 1149.87Z" stroke="#CCD1D9" stroke-width="3.284"/>
<path d="M467.355 1140.33V1130.11H472.869C474.306 1130.11 475.69 1130.72 476.664 1131.78C478.482 1133.75 478.479 1136.83 476.622 1138.76C475.664 1139.76 474.341 1140.33 472.958 1140.33H467.355Z" stroke="#CCD1D9" stroke-width="3.284"/>
<path d="M440.703 1149.79V1135.07C440.703 1134.77 440.729 1134.47 440.781 1134.17C441.794 1128.33 450.172 1128.35 451.196 1134.18C451.247 1134.47 451.274 1134.77 451.276 1135.06L451.373 1149.7C451.383 1151.21 450.742 1152.67 449.624 1153.69C447.569 1155.57 444.392 1155.57 442.367 1153.65C441.305 1152.65 440.703 1151.25 440.703 1149.79Z" stroke="#CCD1D9" stroke-width="3.284"/>
<path d="M407.464 1130.92L403.886 1133.07L403.856 1133.02C402.679 1131.23 400.609 1130.22 398.47 1130.41L397.157 1130.67C396.343 1130.84 395.58 1131.22 394.957 1131.77C393.947 1132.65 393.359 1133.94 393.359 1135.29V1135.34C393.359 1136.13 393.567 1136.9 393.961 1137.58C394.305 1138.18 394.78 1138.68 395.351 1139.06L395.554 1139.2C396.063 1139.54 396.625 1139.79 397.217 1139.95L399.052 1140.43C400.091 1140.7 401.097 1141.09 402.051 1141.58L402.56 1141.85C403.102 1142.13 403.614 1142.46 404.087 1142.85C408.693 1146.6 408.417 1153.72 403.535 1157.1L402.682 1157.69C401.99 1158.17 401.227 1158.54 400.421 1158.78C399.871 1158.95 399.305 1159.05 398.733 1159.1L397.763 1159.17C397.213 1159.21 396.66 1159.22 396.109 1159.18L395.807 1159.16C394.595 1159.07 393.409 1158.76 392.31 1158.24C390.982 1157.62 389.814 1156.7 388.89 1155.56L388.556 1155.15L391.928 1153C393.096 1154.36 394.801 1155.15 396.595 1155.15H397.141L398.743 1154.95C399.305 1154.88 399.849 1154.7 400.345 1154.43C401.185 1153.96 401.854 1153.24 402.254 1152.37L402.653 1151.51C403.118 1150.49 403.19 1149.35 402.854 1148.28C402.412 1146.88 401.313 1145.79 399.912 1145.35L397.55 1144.62L394.278 1143.27C393.333 1142.88 392.468 1142.32 391.727 1141.61C391.115 1141.03 390.596 1140.36 390.186 1139.62L390.158 1139.57C389.25 1137.94 388.893 1136.06 389.14 1134.2L389.169 1133.99L389.588 1132.39C390.045 1130.65 391.076 1129.11 392.514 1128.02C393.798 1127.05 395.342 1126.48 396.949 1126.4L398.47 1126.32L399.89 1126.4C401.374 1126.49 402.818 1126.92 404.099 1127.68C405.107 1128.27 405.994 1129.05 406.714 1129.97L407.464 1130.92Z" stroke="#CCD1D9" stroke-width="3.284"/>
<path d="M485.961 1370.57H383.537L382.53 1370.48C377.536 1370 374.56 1364.67 376.767 1360.17L429.653 1273.49C429.774 1273.29 429.926 1273.12 430.104 1272.97C432.398 1271.04 435.652 1270.76 438.247 1272.25L439.292 1272.85C439.678 1273.08 440.003 1273.39 440.235 1273.77L492.731 1360.17C494.82 1364.73 491.794 1370 486.798 1370.49L485.961 1370.57Z" fill="url(#paint27_linear_220_1420)" stroke="#FFEA55" stroke-width="1.9704"/>
<path d="M487.853 1360.88L438.134 1277.98C436.501 1275.35 432.697 1275.3 430.992 1277.88L430.927 1277.98L380.7 1361.01C380.151 1361.92 380.077 1363.04 380.502 1364.01C380.772 1364.62 381.225 1365.14 381.801 1365.49L382.193 1365.73C382.929 1366.18 383.774 1366.41 384.636 1366.41H484.836C485.567 1366.41 486.281 1366.18 486.876 1365.76C487.419 1365.37 487.841 1364.83 488.091 1364.22L488.111 1364.16C488.545 1363.09 488.449 1361.87 487.853 1360.88Z" stroke="#FFEA55" stroke-width="1.9704"/>
<path d="M446.103 1307.11C446.103 1308.82 444.634 1310.29 442.72 1310.29C440.807 1310.29 439.338 1308.82 439.338 1307.11C439.338 1305.4 440.807 1303.93 442.72 1303.93C444.634 1303.93 446.103 1305.4 446.103 1307.11Z" stroke="#FFEA55" stroke-width="1.9704"/>
<path d="M441.41 1311.48L434.64 1307.73L414.985 1311.48L411.491 1322.51L409.089 1321.26L407.778 1323.13L410.836 1324.8L410.181 1325.84L413.675 1327.5L414.112 1326.46L415.64 1327.5L408.652 1364.33H421.973L415.422 1358.3L421.973 1336.86L428.088 1345.81V1364.33H441.41L434.64 1358.3V1345.81L428.525 1334.58L435.95 1338.32V1339.99L441.41 1342.9V1341.44L451.674 1346.85L449.272 1350.6L459.973 1356.63L465.651 1347.48L455.168 1341.86L452.984 1344.98L441.41 1339.15V1311.48Z" stroke="#FFEA55" stroke-width="1.9704"/>
<path d="M435.95 1336.45V1321.47L426.341 1329.79L427.215 1331.66L435.95 1336.45Z" stroke="#FFEA55" stroke-width="1.9704"/>
<path d="M416.95 1325.63L414.985 1324.59L420.445 1315.22H427.433L416.95 1325.63Z" stroke="#FFEA55" stroke-width="1.9704"/>
<path d="M485.428 1363.29L472.268 1345.05C472.015 1344.7 471.497 1344.69 471.225 1345.02L456.471 1363.26C456.123 1363.69 456.429 1364.33 456.981 1364.33H484.895C485.431 1364.33 485.741 1363.72 485.428 1363.29Z" stroke="#FFEA55" stroke-width="1.9704"/>
<path d="M404.358 1362.95L395.079 1355.5C394.842 1355.31 394.506 1355.31 394.266 1355.49L384.622 1362.95C384.127 1363.33 384.398 1364.12 385.024 1364.12H403.947C404.567 1364.12 404.841 1363.34 404.358 1362.95Z" stroke="#FFEA55" stroke-width="1.9704"/>
<circle cx="434.599" cy="1497.5" r="60.7539" fill="url(#paint28_linear_220_1420)" stroke="#CCD1D9" stroke-width="3.284"/>
<path d="M450.067 1460.01V1478.89H431.619C427.878 1478.89 424.176 1479.66 420.742 1481.14C412.948 1484.52 407.16 1491.31 405.075 1499.55L404.407 1502.18C403.739 1504.82 403.401 1507.53 403.401 1510.25V1544.43H421.753V1508.29C421.753 1506.88 422.028 1505.48 422.563 1504.17C423.562 1501.73 425.412 1499.74 427.771 1498.56L427.976 1498.45C429.573 1497.66 431.333 1497.24 433.119 1497.24H450.067V1516.12L487.819 1488.33L450.067 1460.01Z" stroke="#CCD1D9" stroke-width="2.6272"/>
<path d="M377.7 1613.15C378.803 1612.68 379.989 1612.44 381.186 1612.44H488.108C488.946 1612.44 489.78 1612.56 490.585 1612.79V1612.79C494.382 1613.9 496.995 1617.43 496.995 1621.39V1621.39C496.995 1622.83 496.647 1624.27 495.982 1625.55L441.597 1730.17C441.141 1731.05 440.525 1731.84 439.781 1732.49L439.683 1732.58C436.666 1735.22 432.136 1735.16 429.196 1732.43V1732.43C428.537 1731.81 427.989 1731.09 427.575 1730.3L373.211 1625.55C372.549 1624.27 372.203 1622.85 372.203 1621.42V1621.42C372.203 1617.81 374.373 1614.55 377.7 1613.15V1613.15Z" fill="url(#paint29_linear_220_1420)" stroke="#FFEA55" stroke-width="3.284"/>
<path d="M488.155 1617.47H380.889C380.25 1617.47 379.62 1617.62 379.049 1617.91C377.734 1618.57 376.877 1619.89 376.803 1621.36L376.799 1621.45C376.761 1622.2 376.925 1622.95 377.275 1623.62L431.558 1727.58C432.987 1729.95 436.405 1730.02 437.923 1727.7L438.002 1727.58L492.117 1623.25C492.341 1622.82 492.483 1622.35 492.534 1621.86C492.747 1619.84 491.365 1617.99 489.361 1617.62L488.947 1617.54C488.686 1617.49 488.421 1617.47 488.155 1617.47Z" stroke="#FFEA55" stroke-width="3.284"/>
<rect width="157.632" height="1753.65" transform="translate(533.675)" fill="#090A0D"/>
<path d="M672.695 75.0798L615.704 18.0193C615.277 17.5919 614.765 17.2589 614.201 17.0418L614.13 17.0143C613.139 16.6328 612.039 16.648 611.059 17.0568C610.562 17.2643 610.11 17.5673 609.729 17.9487L552.396 75.3516C551.992 75.7557 551.662 76.2272 551.421 76.7448C550.809 78.0577 550.809 79.574 551.421 80.8869C551.662 81.4045 551.992 81.876 552.396 82.2801L609.729 139.683C610.11 140.064 610.562 140.367 611.059 140.575C612.039 140.984 613.139 140.999 614.13 140.617L614.201 140.59C614.765 140.373 615.277 140.04 615.704 139.612L672.695 82.5519C673.275 81.9715 673.711 81.2641 673.971 80.4858C674.331 79.4018 674.331 78.2299 673.971 77.1459C673.711 76.3676 673.275 75.6602 672.695 75.0798Z" fill="url(#paint30_linear_220_1420)" stroke="#FFEA55" stroke-width="2.6272"/>
<path d="M611.414 41.3174L574.89 77.8853C574.377 78.3991 574.378 79.2317 574.892 79.7442L611.416 116.131C611.928 116.641 612.755 116.642 613.268 116.133L649.972 79.7465C650.49 79.2335 650.491 78.3973 649.975 77.883L613.27 41.3151C612.757 40.8035 611.926 40.8046 611.414 41.3174Z" stroke="#FFEA55" stroke-width="2.6272"/>
<circle cx="612.491" cy="256.152" r="60.7539" fill="url(#paint31_linear_220_1420)" stroke="#FFEA55" stroke-width="3.284"/>
<path d="M663.714 240.914H560.951C559.968 240.914 559.136 241.638 559 242.611L558.337 247.342C557.445 253.715 557.494 260.185 558.483 266.544L558.978 269.722C559.127 270.682 559.954 271.39 560.925 271.39H663.729C664.703 271.39 665.531 270.678 665.677 269.716L666.211 266.211C667.177 259.86 667.207 253.401 666.298 247.042L665.664 242.605C665.526 241.635 664.694 240.914 663.714 240.914Z" stroke="#FFEA55" stroke-width="2.6272"/>
<path d="M550.095 374.376C550.095 372.562 551.565 371.092 553.379 371.092H671.603C673.416 371.092 674.887 372.562 674.887 374.376V492.599C674.887 494.413 673.416 495.883 671.603 495.883H553.379C551.565 495.883 550.095 494.413 550.095 492.599V374.376Z" fill="url(#paint32_linear_220_1420)" stroke="#FFEA55" stroke-width="2.6272"/>
<path d="M630.785 387.87H581.358V478.843H597.647V451.839H630.705C631.259 451.839 631.811 451.785 632.353 451.676C637.62 450.625 642.069 447.125 644.331 442.255L644.832 441.177C645.42 439.911 645.724 438.532 645.724 437.137V402.29C644.945 395.134 639.558 389.34 632.478 388.043L632.277 388.006C631.785 387.916 631.286 387.87 630.785 387.87Z" stroke="#FFEA55" stroke-width="2.6272"/>
<path d="M626.809 404.125H598.172V435.585H626.809L629.173 433.225V406.222L626.809 404.125Z" stroke="#FFEA55" stroke-width="2.6272"/>
<path d="M665.035 548.427H559.947C554.506 548.427 550.095 552.838 550.095 558.279V663.367C550.095 668.808 554.506 673.219 559.947 673.219H665.035C670.476 673.219 674.887 668.808 674.887 663.367V558.279C674.887 552.838 670.476 548.427 665.035 548.427Z" fill="url(#paint33_linear_220_1420)" stroke="#FFEA55" stroke-width="2.6272"/>
<path d="M673.314 655.429L613.015 549.735L551.406 655.429H673.314Z" stroke="#FFEA55" stroke-width="2.6272"/>
<path d="M566.087 636.854H594.663" stroke="#FFEA55" stroke-width="1.9704"/>
<path d="M609.083 636.854H624.026" stroke="#FFEA55" stroke-width="1.9704"/>
<path d="M636.872 636.854H658.632" stroke="#FFEA55" stroke-width="1.9704"/>
<path d="M601.479 626.913L611.442 613.309L611.966 612.262L610.655 599.443L607.509 605.198L596.498 614.355L593.876 609.908L604.363 598.92L611.966 582.176L623.239 587.932L632.677 598.135V615.663L626.91 619.064V602.321L622.715 596.565V609.908L625.074 618.279L640.018 647.581L631.629 652.551H623.239L631.629 646.534L617.472 621.419L608.033 632.93L602.266 652.028L587.06 650.458V647.581L596.498 645.488L601.479 626.913Z" stroke="#FFEA55" stroke-width="1.9704"/>
<path d="M616.749 575.897C616.749 578.53 614.61 580.668 611.966 580.668C609.323 580.668 607.184 578.53 607.184 575.897C607.184 573.265 609.323 571.127 611.966 571.127C614.61 571.127 616.749 573.265 616.749 575.897Z" stroke="#FFEA55" stroke-width="1.9704"/>
<path d="M555.592 726.467C556.694 726.003 557.881 725.763 559.077 725.763H666C666.838 725.763 667.671 725.882 668.476 726.115V726.115C672.274 727.217 674.887 730.754 674.887 734.709V734.709C674.887 736.152 674.539 737.594 673.873 738.875L619.489 843.495C619.033 844.373 618.417 845.158 617.673 845.811L617.575 845.897C614.558 848.543 610.028 848.479 607.087 845.747V845.747C606.429 845.136 605.881 844.416 605.467 843.618L551.103 738.868C550.441 737.591 550.095 736.174 550.095 734.736V734.736C550.095 731.127 552.265 727.867 555.592 726.467V726.467Z" fill="url(#paint34_linear_220_1420)" stroke="#CCD1D9" stroke-width="3.284"/>
<path d="M666.047 730.791H558.781C558.142 730.791 557.512 730.941 556.941 731.228C555.626 731.89 554.769 733.208 554.695 734.678L554.691 734.766C554.653 735.521 554.817 736.273 555.167 736.943L609.45 840.901C610.879 843.275 614.297 843.34 615.815 841.023L615.894 840.901L670.009 736.575C670.234 736.142 670.375 735.67 670.426 735.185C670.639 733.159 669.257 731.31 667.253 730.94L666.839 730.863C666.578 730.815 666.313 730.791 666.047 730.791Z" stroke="#CCD1D9" stroke-width="3.284"/>
<circle cx="612.491" cy="965.495" r="60.7539" fill="url(#paint35_linear_220_1420)" stroke="#FFEA55" stroke-width="3.284"/>
<path d="M660.52 965.753C660.485 992.404 638.851 1013.98 612.199 1013.95C585.547 1013.91 563.97 992.278 564.005 965.626C564.04 938.975 585.674 917.398 612.326 917.433C638.978 917.468 660.555 939.102 660.52 965.753Z" stroke="#FFEA55" stroke-width="3.284"/>
<path d="M663.853 1193.24H561.429L560.422 1193.14C555.428 1192.66 552.452 1187.34 554.659 1182.83L607.545 1096.16C607.665 1095.96 607.818 1095.78 607.995 1095.63C610.29 1093.71 613.544 1093.42 616.139 1094.92L617.183 1095.52C617.57 1095.74 617.894 1096.06 618.126 1096.44L670.623 1182.83C672.712 1187.4 669.686 1192.66 664.69 1193.15L663.853 1193.24Z" fill="url(#paint36_linear_220_1420)" stroke="#CCD1D9" stroke-width="1.9704"/>
<path d="M665.745 1183.54L616.026 1100.64C614.392 1098.02 610.589 1097.96 608.884 1100.54L608.819 1100.64L558.592 1183.67C558.043 1184.58 557.969 1185.7 558.394 1186.67C558.664 1187.29 559.117 1187.81 559.692 1188.15L560.084 1188.39C560.821 1188.84 561.666 1189.08 562.527 1189.08H662.727C663.459 1189.08 664.173 1188.85 664.768 1188.42C665.311 1188.03 665.732 1187.5 665.982 1186.88L666.002 1186.83C666.436 1185.75 666.341 1184.54 665.745 1183.54Z" stroke="#CCD1D9" stroke-width="1.9704"/>
<path d="M623.994 1129.77C623.994 1131.48 622.525 1132.95 620.612 1132.95C618.698 1132.95 617.229 1131.48 617.229 1129.77C617.229 1128.06 618.698 1126.6 620.612 1126.6C622.525 1126.6 623.994 1128.06 623.994 1129.77Z" stroke="#CCD1D9" stroke-width="1.9704"/>
<path d="M619.301 1134.14L612.531 1130.4L592.876 1134.14L589.382 1145.17L586.98 1143.92L585.669 1145.8L588.727 1147.46L588.072 1148.5L591.566 1150.17L592.003 1149.12L593.531 1150.17L586.543 1186.99H599.865L593.313 1180.96L599.865 1159.53L605.979 1168.48V1186.99H619.301L612.531 1180.96V1168.48L606.416 1157.24L613.841 1160.99V1162.65L619.301 1165.56V1164.11L629.565 1169.52L627.163 1173.26L637.864 1179.3L643.542 1170.14L633.059 1164.52L630.876 1167.64L619.301 1161.82V1134.14Z" stroke="#CCD1D9" stroke-width="1.9704"/>
<path d="M613.842 1159.11V1144.13L604.233 1152.45L605.106 1154.33L613.842 1159.11Z" stroke="#CCD1D9" stroke-width="1.9704"/>
<path d="M594.842 1148.29L592.877 1147.25L598.337 1137.89H605.325L594.842 1148.29Z" stroke="#CCD1D9" stroke-width="1.9704"/>
<path d="M663.32 1185.95L650.16 1167.72C649.907 1167.37 649.389 1167.35 649.117 1167.69L634.362 1185.92C634.015 1186.35 634.32 1186.99 634.873 1186.99H662.787C663.323 1186.99 663.633 1186.39 663.32 1185.95Z" stroke="#CCD1D9" stroke-width="1.9704"/>
<path d="M582.25 1185.62L572.971 1178.16C572.734 1177.97 572.398 1177.97 572.158 1178.16L562.515 1185.61C562.019 1185.99 562.29 1186.79 562.916 1186.79H581.839C582.459 1186.79 582.733 1186.01 582.25 1185.62Z" stroke="#CCD1D9" stroke-width="1.9704"/>
<path d="M673.245 1318.75C673.245 1351.52 646.618 1378.09 613.764 1378.09C580.91 1378.09 554.284 1351.52 554.284 1318.75C554.284 1285.98 580.91 1259.41 613.764 1259.41C646.618 1259.41 673.245 1285.98 673.245 1318.75Z" fill="url(#paint37_linear_220_1420)" stroke="#FFEA55" stroke-width="3.284"/>
<path d="M626.608 1300.55L613.221 1281.57C612.978 1281.22 613.119 1280.74 613.51 1280.58L622.33 1276.99C624.255 1276.2 626.25 1275.61 628.289 1275.2L638.006 1273.26C638.525 1273.16 638.947 1273.68 638.738 1274.16L636.175 1280.13L641.327 1283.76C643.657 1285.4 645.784 1287.31 647.663 1289.45C650.508 1292.7 652.747 1296.43 654.272 1300.46L655.268 1303.1C656.961 1307.58 657.939 1312.29 658.167 1317.07L658.234 1318.46C658.467 1323.35 657.765 1328.24 656.166 1332.87C656.097 1333.07 655.877 1333.18 655.676 1333.1L641.524 1328.15L642.241 1325.29C642.947 1322.47 643.205 1319.56 643.007 1316.66L642.989 1316.4C642.696 1312.1 641.365 1307.94 639.111 1304.27C638.175 1302.75 637.088 1301.32 635.867 1300.02L630.573 1294.36L627.74 1300.44C627.527 1300.9 626.899 1300.96 626.608 1300.55Z" stroke="#FFEA55" stroke-width="2.6272"/>
<path d="M589.732 1315.75L579.584 1336.63C579.4 1337.01 578.911 1337.12 578.581 1336.86L571.166 1330.91C569.539 1329.61 568.039 1328.15 566.688 1326.56L560.287 1319.03C559.945 1318.63 560.195 1318.01 560.721 1317.96L567.197 1317.3L567.879 1311.05C568.188 1308.22 568.834 1305.43 569.803 1302.75C571.266 1298.7 573.446 1294.94 576.24 1291.66L578.074 1289.51C581.181 1285.86 584.842 1282.72 588.924 1280.2L590.113 1279.47C594.283 1276.89 598.907 1275.14 603.737 1274.29C603.948 1274.25 604.149 1274.39 604.186 1274.6L606.703 1289.35L603.846 1290.11C601.034 1290.86 598.357 1292.05 595.914 1293.63L595.68 1293.78C592.061 1296.11 589.063 1299.29 586.94 1303.03C586.057 1304.59 585.333 1306.23 584.78 1307.93L582.387 1315.29L589.093 1314.81C589.598 1314.78 589.953 1315.3 589.732 1315.75Z" stroke="#FFEA55" stroke-width="2.6272"/>
<path d="M621.909 1340.86L645.145 1339.8C645.567 1339.78 645.897 1340.15 645.821 1340.57L644.121 1349.91C643.748 1351.96 643.18 1353.97 642.425 1355.91L638.848 1365.11C638.657 1365.61 637.99 1365.68 637.692 1365.25L634.024 1359.88L628.197 1362.26C625.553 1363.35 622.79 1364.11 619.965 1364.54C615.698 1365.19 611.348 1365.07 607.124 1364.19L604.352 1363.61C599.655 1362.62 595.141 1360.91 590.975 1358.54L589.763 1357.84C585.506 1355.41 581.753 1352.2 578.701 1348.37C578.568 1348.2 578.597 1347.96 578.765 1347.82L590.555 1338.58L592.589 1340.72C594.592 1342.83 596.913 1344.61 599.468 1346L599.712 1346.13C603.496 1348.19 607.724 1349.31 612.035 1349.38C613.828 1349.41 615.619 1349.26 617.383 1348.94L625.006 1347.52L621.384 1341.87C621.112 1341.45 621.403 1340.89 621.909 1340.86Z" stroke="#FFEA55" stroke-width="2.6272"/>
<path d="M586.582 1435.11H638.195L674.887 1471.9V1523.41L638.195 1559.9H586.582L550.095 1523.41V1471.9L586.582 1435.11Z" fill="url(#paint38_linear_220_1420)" stroke="#FFEA55" stroke-width="3.284"/>
<path d="M636.662 1439.3H588.422L554.183 1473.64V1521.78L588.422 1555.61H636.662L670.799 1521.78V1473.64L636.662 1439.3Z" stroke="#FFEA55" stroke-width="3.284"/>
<path d="M609.067 1480.89H590.465V1485.19H597.62V1513.7H602.321V1485.19H609.067V1480.89Z" stroke="#FFEA55" stroke-width="3.284"/>
<path d="M641.159 1513.7V1480.89H650.396C651.252 1480.89 652.105 1481 652.933 1481.22L653.236 1481.3C655.021 1481.77 656.633 1482.79 657.83 1484.19C660.773 1487.65 660.695 1492.8 657.6 1496.12C656.537 1497.26 655.196 1498.1 653.707 1498.56L653.241 1498.71C652.21 1499.03 651.137 1499.19 650.058 1499.19H645.247V1513.7H641.159Z" stroke="#FFEA55" stroke-width="3.284"/>
<path d="M614.483 1504.54V1490.18C614.483 1489.65 614.53 1489.11 614.621 1488.58C616.414 1478.26 631.242 1478.3 633.054 1488.62C633.142 1489.12 633.19 1489.63 633.195 1490.14L633.346 1504.37C633.375 1507.05 632.245 1509.64 630.261 1511.46C626.624 1514.78 621.011 1514.76 617.428 1511.37C615.549 1509.6 614.483 1507.13 614.483 1504.54Z" stroke="#FFEA55" stroke-width="3.284"/>
<path d="M645.247 1495V1484.78H650.761C652.197 1484.78 653.582 1485.39 654.555 1486.45C656.373 1488.42 656.371 1491.5 654.514 1493.44C653.556 1494.43 652.233 1495 650.849 1495H645.247Z" stroke="#FFEA55" stroke-width="3.284"/>
<path d="M618.594 1504.46V1489.75C618.594 1489.44 618.62 1489.14 618.672 1488.84C619.686 1483.01 628.064 1483.02 629.088 1488.85C629.139 1489.14 629.166 1489.44 629.168 1489.73L629.265 1504.37C629.275 1505.89 628.633 1507.34 627.515 1508.37C625.46 1510.25 622.283 1510.24 620.259 1508.32C619.196 1507.32 618.594 1505.92 618.594 1504.46Z" stroke="#FFEA55" stroke-width="3.284"/>
<path d="M585.356 1485.6L581.778 1487.74L581.748 1487.7C580.571 1485.9 578.501 1484.9 576.362 1485.08L575.05 1485.35C574.235 1485.51 573.473 1485.89 572.849 1486.44C571.839 1487.33 571.251 1488.61 571.251 1489.96V1490.02C571.251 1490.8 571.459 1491.58 571.853 1492.26C572.197 1492.85 572.672 1493.36 573.243 1493.74L573.446 1493.87C573.955 1494.21 574.518 1494.46 575.11 1494.62L576.944 1495.1C577.983 1495.37 578.989 1495.76 579.943 1496.25L580.452 1496.52C580.994 1496.8 581.506 1497.13 581.98 1497.52C586.585 1501.27 586.309 1508.39 581.427 1511.77L580.574 1512.36C579.882 1512.84 579.119 1513.21 578.313 1513.45C577.763 1513.62 577.197 1513.72 576.625 1513.77L575.655 1513.84C575.105 1513.88 574.552 1513.89 574.001 1513.85L573.699 1513.83C572.487 1513.74 571.301 1513.44 570.202 1512.92C568.874 1512.29 567.706 1511.37 566.782 1510.23L566.448 1509.82L569.821 1507.67C570.988 1509.03 572.693 1509.82 574.487 1509.82H575.033L576.636 1509.62C577.197 1509.55 577.741 1509.37 578.237 1509.1C579.077 1508.64 579.746 1507.92 580.146 1507.05L580.545 1506.18C581.01 1505.17 581.082 1504.02 580.747 1502.96C580.305 1501.56 579.205 1500.46 577.804 1500.03L575.442 1499.29L572.17 1497.94C571.225 1497.55 570.36 1496.99 569.619 1496.28C569.007 1495.7 568.488 1495.03 568.078 1494.29L568.05 1494.24C567.142 1492.61 566.786 1490.73 567.033 1488.87L567.061 1488.66L567.48 1487.06C567.937 1485.32 568.968 1483.78 570.407 1482.69C571.69 1481.72 573.234 1481.16 574.841 1481.07L576.362 1481L577.782 1481.08C579.266 1481.16 580.71 1481.59 581.991 1482.35C582.999 1482.94 583.886 1483.72 584.606 1484.64L585.356 1485.6Z" stroke="#FFEA55" stroke-width="3.284"/>
<circle cx="612.491" cy="1674.84" r="60.7539" fill="url(#paint39_linear_220_1420)" stroke="#FFEA55" stroke-width="3.284"/>
<path d="M627.959 1637.35V1656.22H609.511C605.77 1656.22 602.068 1656.99 598.634 1658.48C590.84 1661.85 585.052 1668.65 582.967 1676.88L582.299 1679.52C581.631 1682.16 581.293 1684.87 581.293 1687.58V1721.77H599.645V1685.63C599.645 1684.22 599.92 1682.82 600.455 1681.51C601.454 1679.07 603.304 1677.07 605.663 1675.89L605.868 1675.79C607.465 1674.99 609.226 1674.58 611.011 1674.58H627.959V1693.45L665.711 1665.66L627.959 1637.35Z" stroke="#FFEA55" stroke-width="2.6272"/>
<defs>
<linearGradient id="paint0_linear_220_1420" x1="78.8158" y1="16.4199" x2="78.8669" y2="207.236" gradientUnits="userSpaceOnUse">
<stop stop-color="#1A1914"/>
<stop offset="1" stop-color="#3C3A31"/>
</linearGradient>
<linearGradient id="paint1_linear_220_1420" x1="78.8158" y1="193.756" x2="78.8669" y2="384.572" gradientUnits="userSpaceOnUse">
<stop stop-color="#1A1914"/>
<stop offset="1" stop-color="#3C3A31"/>
</linearGradient>
<linearGradient id="paint2_linear_220_1420" x1="78.8158" y1="371.092" x2="78.8669" y2="561.908" gradientUnits="userSpaceOnUse">
<stop stop-color="#1A1914"/>
<stop offset="1" stop-color="#3C3A31"/>
</linearGradient>
<linearGradient id="paint3_linear_220_1420" x1="78.8158" y1="560.417" x2="78.8492" y2="714.567" gradientUnits="userSpaceOnUse">
<stop stop-color="#151515"/>
<stop offset="1" stop-color="#2E3C4B"/>
</linearGradient>
<linearGradient id="paint4_linear_220_1420" x1="78.8158" y1="725.763" x2="78.8669" y2="916.579" gradientUnits="userSpaceOnUse">
<stop stop-color="#151515"/>
<stop offset="1" stop-color="#2E3C4B"/>
</linearGradient>
<linearGradient id="paint5_linear_220_1420" x1="78.8158" y1="903.099" x2="78.8669" y2="1093.92" gradientUnits="userSpaceOnUse">
<stop stop-color="#1A1914"/>
<stop offset="1" stop-color="#3C3A31"/>
</linearGradient>
<linearGradient id="paint6_linear_220_1420" x1="78.8158" y1="1080.43" x2="78.8669" y2="1271.25" gradientUnits="userSpaceOnUse">
<stop stop-color="#1A1914"/>
<stop offset="1" stop-color="#3C3A31"/>
</linearGradient>
<linearGradient id="paint7_linear_220_1420" x1="78.8158" y1="1269.76" x2="78.8492" y2="1423.91" gradientUnits="userSpaceOnUse">
<stop stop-color="#151515"/>
<stop offset="1" stop-color="#2E3C4B"/>
</linearGradient>
<linearGradient id="paint8_linear_220_1420" x1="78.8158" y1="1435.11" x2="78.8669" y2="1625.92" gradientUnits="userSpaceOnUse">
<stop stop-color="#1A1914"/>
<stop offset="1" stop-color="#3C3A31"/>
</linearGradient>
<linearGradient id="paint9_linear_220_1420" x1="78.8158" y1="1612.44" x2="78.8669" y2="1803.26" gradientUnits="userSpaceOnUse">
<stop stop-color="#151515"/>
<stop offset="1" stop-color="#2E3C4B"/>
</linearGradient>
<linearGradient id="paint10_linear_220_1420" x1="256.707" y1="16.4199" x2="256.759" y2="207.236" gradientUnits="userSpaceOnUse">
<stop stop-color="#151515"/>
<stop offset="1" stop-color="#2E3C4B"/>
</linearGradient>
<linearGradient id="paint11_linear_220_1420" x1="256.707" y1="193.756" x2="256.759" y2="384.572" gradientUnits="userSpaceOnUse">
<stop stop-color="#151515"/>
<stop offset="1" stop-color="#2E3C4B"/>
</linearGradient>
<linearGradient id="paint12_linear_220_1420" x1="256.707" y1="383.081" x2="256.741" y2="537.232" gradientUnits="userSpaceOnUse">
<stop stop-color="#1A1914"/>
<stop offset="1" stop-color="#3C3A31"/>
</linearGradient>
<linearGradient id="paint13_linear_220_1420" x1="256.707" y1="548.427" x2="256.759" y2="739.243" gradientUnits="userSpaceOnUse">
<stop stop-color="#151515"/>
<stop offset="1" stop-color="#2E3C4B"/>
</linearGradient>
<linearGradient id="paint14_linear_220_1420" x1="256.707" y1="725.763" x2="256.759" y2="916.579" gradientUnits="userSpaceOnUse">
<stop stop-color="#1A1914"/>
<stop offset="1" stop-color="#3C3A31"/>
</linearGradient>
<linearGradient id="paint15_linear_220_1420" x1="256.707" y1="903.099" x2="256.759" y2="1093.92" gradientUnits="userSpaceOnUse">
<stop stop-color="#151515"/>
<stop offset="1" stop-color="#2E3C4B"/>
</linearGradient>
<linearGradient id="paint16_linear_220_1420" x1="256.707" y1="1080.43" x2="256.759" y2="1271.25" gradientUnits="userSpaceOnUse">
<stop stop-color="#151515"/>
<stop offset="1" stop-color="#2E3C4B"/>
</linearGradient>
<linearGradient id="paint17_linear_220_1420" x1="257.981" y1="1257.77" x2="258.031" y2="1444.25" gradientUnits="userSpaceOnUse">
<stop stop-color="#151515"/>
<stop offset="1" stop-color="#2E3C4B"/>
</linearGradient>
<linearGradient id="paint18_linear_220_1420" x1="256.707" y1="1435.11" x2="256.759" y2="1625.92" gradientUnits="userSpaceOnUse">
<stop stop-color="#151515"/>
<stop offset="1" stop-color="#2E3C4B"/>
</linearGradient>
<linearGradient id="paint19_linear_220_1420" x1="256.707" y1="1612.44" x2="256.759" y2="1803.26" gradientUnits="userSpaceOnUse">
<stop stop-color="#151515"/>
<stop offset="1" stop-color="#2E3C4B"/>
</linearGradient>
<linearGradient id="paint20_linear_220_1420" x1="434.599" y1="16.4199" x2="434.65" y2="207.236" gradientUnits="userSpaceOnUse">
<stop stop-color="#1A1914"/>
<stop offset="1" stop-color="#3C3A31"/>
</linearGradient>
<linearGradient id="paint21_linear_220_1420" x1="434.599" y1="193.756" x2="434.65" y2="384.572" gradientUnits="userSpaceOnUse">
<stop stop-color="#151515"/>
<stop offset="1" stop-color="#2E3C4B"/>
</linearGradient>
<linearGradient id="paint22_linear_220_1420" x1="434.599" y1="371.092" x2="434.65" y2="561.908" gradientUnits="userSpaceOnUse">
<stop stop-color="#1A1914"/>
<stop offset="1" stop-color="#3C3A31"/>
</linearGradient>
<linearGradient id="paint23_linear_220_1420" x1="434.599" y1="548.427" x2="434.65" y2="739.243" gradientUnits="userSpaceOnUse">
<stop stop-color="#1A1914"/>
<stop offset="1" stop-color="#3C3A31"/>
</linearGradient>
<linearGradient id="paint24_linear_220_1420" x1="434.599" y1="737.753" x2="434.632" y2="891.903" gradientUnits="userSpaceOnUse">
<stop stop-color="#151515"/>
<stop offset="1" stop-color="#2E3C4B"/>
</linearGradient>
<linearGradient id="paint25_linear_220_1420" x1="434.599" y1="903.099" x2="434.65" y2="1093.92" gradientUnits="userSpaceOnUse">
<stop stop-color="#1A1914"/>
<stop offset="1" stop-color="#3C3A31"/>
</linearGradient>
<linearGradient id="paint26_linear_220_1420" x1="434.599" y1="1080.43" x2="434.65" y2="1271.25" gradientUnits="userSpaceOnUse">
<stop stop-color="#1A1914"/>
<stop offset="1" stop-color="#3C3A31"/>
</linearGradient>
<linearGradient id="paint27_linear_220_1420" x1="434.599" y1="1269.76" x2="434.632" y2="1423.91" gradientUnits="userSpaceOnUse">
<stop stop-color="#151515"/>
<stop offset="1" stop-color="#2E3C4B"/>
</linearGradient>
<linearGradient id="paint28_linear_220_1420" x1="434.599" y1="1435.11" x2="434.65" y2="1625.92" gradientUnits="userSpaceOnUse">
<stop stop-color="#1A1914"/>
<stop offset="1" stop-color="#3C3A31"/>
</linearGradient>
<linearGradient id="paint29_linear_220_1420" x1="434.599" y1="1612.44" x2="434.65" y2="1803.26" gradientUnits="userSpaceOnUse">
<stop stop-color="#151515"/>
<stop offset="1" stop-color="#2E3C4B"/>
</linearGradient>
<linearGradient id="paint30_linear_220_1420" x1="612.491" y1="16.4199" x2="612.542" y2="207.236" gradientUnits="userSpaceOnUse">
<stop stop-color="#151515"/>
<stop offset="1" stop-color="#2E3C4B"/>
</linearGradient>
<linearGradient id="paint31_linear_220_1420" x1="612.491" y1="193.756" x2="612.542" y2="384.572" gradientUnits="userSpaceOnUse">
<stop stop-color="#151515"/>
<stop offset="1" stop-color="#2E3C4B"/>
</linearGradient>
<linearGradient id="paint32_linear_220_1420" x1="612.491" y1="371.092" x2="612.542" y2="561.908" gradientUnits="userSpaceOnUse">
<stop stop-color="#151515"/>
<stop offset="1" stop-color="#2E3C4B"/>
</linearGradient>
<linearGradient id="paint33_linear_220_1420" x1="612.491" y1="548.427" x2="612.542" y2="739.243" gradientUnits="userSpaceOnUse">
<stop stop-color="#151515"/>
<stop offset="1" stop-color="#2E3C4B"/>
</linearGradient>
<linearGradient id="paint34_linear_220_1420" x1="612.491" y1="725.763" x2="612.542" y2="916.579" gradientUnits="userSpaceOnUse">
<stop stop-color="#1A1914"/>
<stop offset="1" stop-color="#3C3A31"/>
</linearGradient>
<linearGradient id="paint35_linear_220_1420" x1="612.491" y1="903.099" x2="612.542" y2="1093.92" gradientUnits="userSpaceOnUse">
<stop stop-color="#151515"/>
<stop offset="1" stop-color="#2E3C4B"/>
</linearGradient>
<linearGradient id="paint36_linear_220_1420" x1="612.491" y1="1092.42" x2="612.524" y2="1246.57" gradientUnits="userSpaceOnUse">
<stop stop-color="#1A1914"/>
<stop offset="1" stop-color="#3C3A31"/>
</linearGradient>
<linearGradient id="paint37_linear_220_1420" x1="613.764" y1="1257.77" x2="613.814" y2="1444.25" gradientUnits="userSpaceOnUse">
<stop stop-color="#151515"/>
<stop offset="1" stop-color="#2E3C4B"/>
</linearGradient>
<linearGradient id="paint38_linear_220_1420" x1="612.491" y1="1435.11" x2="612.542" y2="1625.92" gradientUnits="userSpaceOnUse">
<stop stop-color="#151515"/>
<stop offset="1" stop-color="#2E3C4B"/>
</linearGradient>
<linearGradient id="paint39_linear_220_1420" x1="612.491" y1="1612.44" x2="612.542" y2="1803.26" gradientUnits="userSpaceOnUse">
<stop stop-color="#151515"/>
<stop offset="1" stop-color="#2E3C4B"/>
</linearGradient>
</defs>
</svg>
